<svg xmlns="http://www.w3.org/2000/svg" xmlns:xlink="http://www.w3.org/1999/xlink" width="794" zoomAndPan="magnify" viewBox="0 0 594.95996 595.499999" height="794" preserveAspectRatio="xMidYMid meet" version="1.0"><defs><clipPath id="6a0b744c6f"><path d="M 0.230469 0 L 594.691406 0 L 594.691406 595 L 0.230469 595 Z M 0.230469 0 " clip-rule="nonzero"/></clipPath><clipPath id="00962ea5e8"><path d="M 97 96 L 496 96 L 496 494.792969 L 97 494.792969 Z M 97 96 " clip-rule="nonzero"/></clipPath><clipPath id="a89f0cc947"><path d="M 97.175781 295.445312 C 97.175781 405.183594 186.5625 494.566406 296.296875 494.566406 C 406.035156 494.566406 495.417969 405.183594 495.417969 295.445312 C 495.417969 185.710938 406.035156 96.523438 296.296875 96.523438 C 186.5625 96.523438 97.175781 185.710938 97.175781 295.445312 " clip-rule="nonzero"/></clipPath><clipPath id="31bc53a884"><path d="M 0.109375 0.398438 L 398.652344 0.398438 L 398.652344 398.703125 L 0.109375 398.703125 Z M 0.109375 0.398438 " clip-rule="nonzero"/></clipPath><clipPath id="8220d421ed"><path d="M 0.175781 199.445312 C 0.175781 309.183594 89.5625 398.566406 199.296875 398.566406 C 309.035156 398.566406 398.417969 309.183594 398.417969 199.445312 C 398.417969 89.710938 309.035156 0.523438 199.296875 0.523438 C 89.5625 0.523438 0.175781 89.710938 0.175781 199.445312 " clip-rule="nonzero"/></clipPath><clipPath id="8af02994ed"><rect x="0" width="399" y="0" height="399"/></clipPath><clipPath id="926d9576de"><path d="M 211 179.660156 L 376 179.660156 L 376 421 L 211 421 Z M 211 179.660156 " clip-rule="nonzero"/></clipPath><clipPath id="72b121ed90"><path d="M 375.507812 265.320312 C 376.503906 277.289062 370.320312 289.0625 365.132812 299.4375 C 362.539062 304.425781 359.746094 309.214844 356.550781 313.601562 C 353.757812 317.394531 346.578125 322.183594 345.578125 326.773438 C 344.582031 331.558594 347.175781 339.339844 347.773438 344.128906 C 348.769531 350.914062 349.371094 357.496094 350.167969 364.28125 C 351.5625 376.851562 352.164062 389.820312 354.957031 402.191406 C 355.953125 406.78125 358.546875 413.164062 356.953125 418.152344 C 355.15625 423.339844 349.570312 418.152344 346.175781 416.355469 C 335.601562 410.570312 325.226562 404.386719 313.855469 399.996094 C 309.066406 398.199219 304.675781 394.210938 299.6875 392.8125 C 293.902344 391.214844 288.914062 394.609375 284.125 397.402344 C 273.152344 403.585938 262.777344 410.769531 251.40625 416.554688 C 249.011719 417.753906 243.023438 421.941406 240.03125 420.148438 C 236.441406 418.152344 239.035156 409.375 239.234375 406.378906 C 240.429688 393.609375 241.628906 381.042969 242.625 368.273438 C 243.023438 362.085938 243.425781 355.902344 244.023438 349.714844 C 244.621094 343.53125 246.417969 336.746094 245.617188 330.761719 C 245.019531 325.972656 241.03125 324.777344 237.238281 322.183594 C 232.449219 318.789062 228.460938 314.800781 225.269531 309.8125 C 212.898438 290.457031 207.3125 263.523438 216.089844 241.777344 C 225.066406 219.828125 236.640625 201.074219 258.789062 190.699219 C 269.5625 185.710938 282.132812 180.722656 293.902344 179.925781 C 307.46875 178.925781 320.238281 185.113281 332.410156 190.300781 C 355.753906 200.074219 369.519531 226.613281 374.507812 250.355469 C 375.507812 254.945312 375.90625 259.53125 375.90625 265.320312 M 296.695312 322.382812 C 300.289062 322.183594 306.273438 322.582031 311.859375 320.386719 C 325.027344 315.398438 336 310.410156 345.179688 299.238281 C 349.171875 294.25 352.164062 288.664062 353.558594 282.277344 C 355.355469 274.894531 357.75 267.113281 358.746094 259.734375 C 361.738281 236.589844 342.386719 207.855469 320.039062 201.871094 C 306.273438 198.082031 294.699219 195.488281 280.734375 199.675781 C 268.363281 203.46875 257.589844 211.25 249.011719 221.027344 C 241.628906 229.40625 237.238281 239.980469 235.445312 250.953125 C 234.445312 256.738281 233.449219 263.921875 235.042969 269.707031 C 236.640625 275.496094 240.03125 281.082031 241.628906 287.066406 C 244.820312 299.039062 254.398438 305.621094 264.375 312.007812 C 274.351562 318.390625 284.125 322.78125 296.296875 322.382812 M 256.992188 383.234375 C 257.191406 385.628906 256.59375 387.824219 258.789062 388.824219 C 262.578125 390.816406 269.5625 384.433594 272.554688 382.636719 C 277.144531 379.84375 281.730469 376.652344 286.519531 374.257812 C 296.296875 369.070312 305.875 379.445312 314.652344 383.234375 C 318.84375 385.03125 325.027344 389.222656 329.417969 389.621094 C 334.804688 390.21875 334.207031 385.828125 333.609375 381.839844 C 331.414062 369.667969 330.613281 357.296875 328.21875 345.128906 C 327.621094 342.132812 327.421875 335.152344 324.429688 333.15625 C 321.4375 331.160156 314.652344 334.554688 311.460938 335.351562 C 305.875 336.746094 300.289062 337.746094 294.699219 337.945312 C 289.3125 338.144531 284.527344 336.546875 279.339844 335.949219 C 275.945312 335.550781 272.753906 335.550781 269.363281 334.953125 C 267.765625 334.753906 264.773438 333.355469 263.175781 334.351562 C 259.984375 336.347656 261.179688 343.132812 260.980469 346.125 C 260.183594 358.496094 258.386719 370.867188 256.992188 383.234375 " clip-rule="nonzero"/></clipPath><clipPath id="81fd583d2e"><path d="M 0 0.660156 L 165 0.660156 L 165 242 L 0 242 Z M 0 0.660156 " clip-rule="nonzero"/></clipPath><clipPath id="f0ed04f818"><path d="M 164.507812 86.320312 C 165.503906 98.289062 159.320312 110.0625 154.132812 120.4375 C 151.539062 125.425781 148.746094 130.214844 145.550781 134.601562 C 142.757812 138.394531 135.578125 143.183594 134.578125 147.773438 C 133.582031 152.558594 136.175781 160.339844 136.773438 165.128906 C 137.769531 171.914062 138.371094 178.496094 139.167969 185.28125 C 140.5625 197.851562 141.164062 210.820312 143.957031 223.191406 C 144.953125 227.78125 147.546875 234.164062 145.953125 239.152344 C 144.15625 244.339844 138.570312 239.152344 135.175781 237.355469 C 124.601562 231.570312 114.226562 225.386719 102.855469 220.996094 C 98.066406 219.199219 93.675781 215.210938 88.6875 213.8125 C 82.902344 212.214844 77.914062 215.609375 73.125 218.402344 C 62.152344 224.585938 51.777344 231.769531 40.40625 237.554688 C 38.011719 238.753906 32.023438 242.941406 29.03125 241.148438 C 25.441406 239.152344 28.035156 230.375 28.234375 227.378906 C 29.429688 214.609375 30.628906 202.042969 31.625 189.273438 C 32.023438 183.085938 32.425781 176.902344 33.023438 170.714844 C 33.621094 164.53125 35.417969 157.746094 34.617188 151.761719 C 34.019531 146.972656 30.03125 145.777344 26.238281 143.183594 C 21.449219 139.789062 17.460938 135.800781 14.269531 130.8125 C 1.898438 111.457031 -3.6875 84.523438 5.089844 62.777344 C 14.066406 40.828125 25.640625 22.074219 47.789062 11.699219 C 58.5625 6.710938 71.132812 1.722656 82.902344 0.925781 C 96.46875 -0.0742188 109.238281 6.113281 121.410156 11.300781 C 144.753906 21.074219 158.519531 47.613281 163.507812 71.355469 C 164.507812 75.945312 164.90625 80.53125 164.90625 86.320312 M 85.695312 143.382812 C 89.289062 143.183594 95.273438 143.582031 100.859375 141.386719 C 114.027344 136.398438 125 131.410156 134.179688 120.238281 C 138.171875 115.25 141.164062 109.664062 142.558594 103.277344 C 144.355469 95.894531 146.75 88.113281 147.746094 80.734375 C 150.738281 57.589844 131.386719 28.855469 109.039062 22.871094 C 95.273438 19.082031 83.699219 16.488281 69.734375 20.675781 C 57.363281 24.46875 46.589844 32.25 38.011719 42.027344 C 30.628906 50.40625 26.238281 60.980469 24.445312 71.953125 C 23.445312 77.738281 22.449219 84.921875 24.042969 90.707031 C 25.640625 96.496094 29.03125 102.082031 30.628906 108.066406 C 33.820312 120.039062 43.398438 126.621094 53.375 133.007812 C 63.351562 139.390625 73.125 143.78125 85.296875 143.382812 M 45.992188 204.234375 C 46.191406 206.628906 45.59375 208.824219 47.789062 209.824219 C 51.578125 211.816406 58.5625 205.433594 61.554688 203.636719 C 66.144531 200.84375 70.730469 197.652344 75.519531 195.257812 C 85.296875 190.070312 94.875 200.445312 103.652344 204.234375 C 107.84375 206.03125 114.027344 210.222656 118.417969 210.621094 C 123.804688 211.21875 123.207031 206.828125 122.609375 202.839844 C 120.414062 190.667969 119.613281 178.296875 117.21875 166.128906 C 116.621094 163.132812 116.421875 156.152344 113.429688 154.15625 C 110.4375 152.160156 103.652344 155.554688 100.460938 156.351562 C 94.875 157.746094 89.289062 158.746094 83.699219 158.945312 C 78.3125 159.144531 73.527344 157.546875 68.339844 156.949219 C 64.945312 156.550781 61.753906 156.550781 58.363281 155.953125 C 56.765625 155.753906 53.773438 154.355469 52.175781 155.351562 C 48.984375 157.347656 50.179688 164.132812 49.980469 167.125 C 49.183594 179.496094 47.386719 191.867188 45.992188 204.234375 " clip-rule="nonzero"/></clipPath><clipPath id="09716e295d"><rect x="0" width="165" y="0" height="242"/></clipPath></defs><g clip-path="url(#6a0b744c6f)"><path fill="#ffffff" d="M 0.230469 0 L 595.230469 0 L 595.230469 595 L 0.230469 595 Z M 0.230469 0 " fill-opacity="1" fill-rule="nonzero"/><path fill="#ffffff" d="M 0.230469 0 L 595.230469 0 L 595.230469 595 L 0.230469 595 Z M 0.230469 0 " fill-opacity="1" fill-rule="nonzero"/></g><g clip-path="url(#00962ea5e8)"><g clip-path="url(#a89f0cc947)"><g transform="matrix(1, 0, 0, 1, 97, 96)"><g clip-path="url(#8af02994ed)"><g clip-path="url(#31bc53a884)"><g clip-path="url(#8220d421ed)"><rect x="-227.891191" width="856.742342" fill="#bd8c12" height="857.519999" y="-227.01" fill-opacity="1"/></g></g></g></g></g></g><g clip-path="url(#926d9576de)"><g clip-path="url(#72b121ed90)"><g transform="matrix(1, 0, 0, 1, 211, 179)"><g clip-path="url(#09716e295d)"><g clip-path="url(#81fd583d2e)"><g clip-path="url(#f0ed04f818)"><rect x="-341.891191" width="856.742342" fill="#ffffff" height="857.519999" y="-310.01" fill-opacity="1"/></g></g></g></g></g></g></svg>