<?xml version="1.0" encoding="UTF-8"?>
<svg version="1.1" xmlns="http://www.w3.org/2000/svg" width="1080" height="1080">
<path d="M0 0 C356.4 0 712.8 0 1080 0 C1080 356.4 1080 712.8 1080 1080 C723.6 1080 367.2 1080 0 1080 C0 723.6 0 367.2 0 0 Z " fill="#000000" transform="translate(0,0)"/>
<path d="M0 0 C3.73608331 1.2453611 4.1342227 2.37102396 6.15234375 5.6796875 C7.06016602 7.15211914 7.06016602 7.15211914 7.98632812 8.65429688 C8.63021484 9.71712891 9.27410156 10.77996094 9.9375 11.875 C11.30034094 14.09141663 12.66362698 16.30755964 14.02734375 18.5234375 C14.70265137 19.62655273 15.37795898 20.72966797 16.07373047 21.86621094 C18.67744485 26.10211433 21.33382979 30.30324212 24 34.5 C28.48751833 41.58607452 32.93616733 48.69584395 37.375 55.8125 C42.21234376 63.56604286 47.08326642 71.29656089 52 79 C57.56178019 87.71408515 63.05710582 96.46797848 68.52856445 105.23901367 C74.31647598 114.51550874 80.15271513 123.76085981 86 133 C92.09502802 142.63527734 98.18080176 152.27573487 104.21582031 161.94873047 C109.92498138 171.09291101 115.69548764 180.19855386 121.46044922 189.30761719 C127.46204797 198.79067164 133.43509227 208.29066177 139.375 217.8125 C145.41438383 227.49125696 151.51828864 237.1271362 157.65234375 246.74609375 C164.89869324 258.11049574 172.08183458 269.51454217 179.21630859 280.94946289 C181.91981586 285.27969315 184.63578782 289.60185251 187.36254883 293.91748047 C188.36682844 295.50779249 189.36928597 297.09925667 190.36987305 298.69189453 C193.02416066 302.90972545 195.71518504 307.09751692 198.46484375 311.25390625 C199.02510254 312.11137451 199.58536133 312.96884277 200.16259766 313.85229492 C201.24005588 315.49973142 202.32912342 317.13964941 203.43115234 318.77075195 C206.9856223 324.24240599 206.9856223 324.24240599 207.05078125 327.67578125 C205.72813886 330.60132855 204.16768924 333.14360871 202.375 335.8125 C201.55150947 337.05735481 200.73005132 338.30355544 199.91015625 339.55078125 C199.45012207 340.24896973 198.99008789 340.9471582 198.51611328 341.66650391 C195.54774955 346.23520286 192.68963519 350.87354003 189.8125 355.5 C183.71318286 365.28465653 177.5469526 375.02456987 171.34765625 384.74609375 C164.10273492 396.10825596 156.91996338 407.50945436 149.78808594 418.94287109 C146.03552299 424.95444703 142.24877163 430.9442012 138.4609375 436.93359375 C135.29233497 441.94648544 132.13858676 446.96826729 129 452 C123.87626313 460.21259472 118.70600219 468.39552479 113.53222656 476.57666016 C111.01990046 480.55010644 108.51006079 484.52512247 106 488.5 C105.00001225 490.08334107 104.00001224 491.6666744 103 493.25 C102.2575 494.425625 102.2575 494.425625 101.5 495.625 C97 502.75 97 502.75 95.49902344 505.12646484 C94.5021806 506.70485345 93.50543531 508.28330366 92.50878906 509.86181641 C89.96129354 513.89632289 87.41194901 517.92964187 84.859375 521.9609375 C79.85249318 529.87168564 74.87419901 537.79602284 69.98046875 545.77734375 C64.32288235 554.98347546 58.58430305 564.13260766 52.6875 573.1875 C46.81909727 582.20477621 41.17726145 591.35817434 35.53271484 600.51660156 C30.01925987 609.4498389 24.44206623 618.33849113 18.74291992 627.15454102 C12.99325129 636.07934434 7.4125395 645.11200003 1.79638672 654.12109375 C0.14990192 656.75976578 -1.50010333 659.39617928 -3.15234375 662.03125 C-3.61777588 662.77391113 -4.08320801 663.51657227 -4.56274414 664.28173828 C-5.41415943 665.63988427 -6.26617446 666.99765454 -7.11889648 668.35498047 C-9.1668225 671.61617262 -9.1668225 671.61617262 -11 675 C-11.66 675 -12.32 675 -13 675 C-13.09152344 675.53625 -13.18304687 676.0725 -13.27734375 676.625 C-14.23475136 679.77150718 -15.81711286 682.21284558 -17.5625 685 C-18.08952515 685.84570557 -18.08952515 685.84570557 -18.62719727 686.70849609 C-21.77844978 691.73174515 -25.08256728 696.64695732 -28.43359375 701.5390625 C-30.12925589 703.98337556 -30.12925589 703.98337556 -31 707 C-31.66 707 -32.32 707 -33 707 C-33.185625 707.78375 -33.37125 708.5675 -33.5625 709.375 C-35.24208178 713.61046709 -37.56763382 716.87324451 -40.24609375 720.53515625 C-42.0695689 722.93048916 -42.0695689 722.93048916 -43.18342429 725.61560029 C-45 728 -45 728 -48.02076358 728.62099248 C-49.90094879 728.61814458 -49.90094879 728.61814458 -51.81911755 728.61523914 C-52.51987741 728.62100836 -53.22063728 728.62677759 -53.94263229 728.63272163 C-56.30895525 728.64603803 -58.67360316 728.62346301 -61.0398407 728.60127258 C-62.74597648 728.60345146 -64.45211065 728.60782658 -66.15823585 728.61421841 C-70.8605204 728.62543766 -75.56223921 728.60534557 -80.26445162 728.58032811 C-85.32988614 728.55879804 -90.39528702 728.56603824 -95.46075439 728.56983948 C-104.24161568 728.57246519 -113.02229164 728.55673649 -121.80310631 728.52865028 C-134.49876311 728.48806847 -147.19433003 728.47499852 -159.89004467 728.46871033 C-180.48639898 728.45775878 -201.08265445 728.42446126 -221.67895508 728.37719727 C-241.69001774 728.33132393 -261.70105359 728.29592112 -281.7121582 728.2746582 C-282.94499921 728.27334459 -284.17784021 728.27203097 -285.44804003 728.27067754 C-291.63264939 728.2641525 -297.81725893 728.25783393 -304.00186861 728.25161803 C-355.33464739 728.19975824 -406.66731888 728.11166956 -458 728 C-457.05511801 726.2517548 -456.10828564 724.50456365 -455.16064453 722.7578125 C-454.63358917 721.78473145 -454.10653381 720.81165039 -453.56350708 719.80908203 C-451.49469548 716.09214236 -449.22502949 712.543169 -446.875 709 C-445.90795775 707.52272183 -444.94184519 706.04483475 -443.9765625 704.56640625 C-443.48446289 703.81375488 -442.99236328 703.06110352 -442.48535156 702.28564453 C-440.04062379 698.52372122 -437.64305301 694.73243852 -435.25 690.9375 C-434.51402588 689.77057617 -434.51402588 689.77057617 -433.76318359 688.58007812 C-429.01346652 681.03756989 -424.2944185 673.47588696 -419.57397461 665.91503906 C-413.27433615 655.82851661 -406.92206185 645.77572161 -400.56152344 635.72753906 C-394.55262696 626.23275132 -388.57215533 616.72110196 -382.625 607.1875 C-377.22160675 598.52679571 -371.76640211 589.90112294 -366.27441406 581.29638672 C-361.28988487 573.47737989 -356.37210136 565.61766864 -351.46484375 557.75 C-347.18501346 550.88981465 -342.87856346 544.04719731 -338.55371094 537.21533203 C-334.55227344 530.88837513 -330.58683886 524.53930891 -326.625 518.1875 C-320.57918082 508.4982813 -314.46834464 498.852248 -308.328125 489.22265625 C-300.00282481 476.16576245 -291.77392355 463.0492483 -283.57324219 449.91381836 C-277.27378373 439.82774283 -270.9218082 429.7753209 -264.56152344 419.72753906 C-258.55262668 410.23275088 -252.57222086 400.72106138 -246.625 391.1875 C-240.02609244 380.61204656 -233.34511526 370.09066187 -226.64355469 359.58007812 C-219.89940698 348.99300847 -213.21621862 338.37046942 -206.625 327.6875 C-200.40123577 317.60190127 -194.0428357 307.6051347 -187.66699219 297.61523438 C-179.89527864 285.42270428 -172.22297145 273.16802826 -164.56665039 260.90283203 C-160.25145148 253.99299914 -155.91154424 247.0993746 -151.55419922 240.21606445 C-147.55255628 233.88889074 -143.5869507 227.53958455 -139.625 221.1875 C-134.22166611 212.52675913 -128.76640169 203.90112229 -123.27441406 195.29638672 C-118.29217934 187.48097914 -113.37691694 179.62473033 -108.47143555 171.76098633 C-103.16260639 163.25233389 -97.81504866 154.76876893 -92.45166016 146.29443359 C-89.9652647 142.36454047 -87.48282704 138.43214817 -85 134.5 C-82.03701864 129.80741307 -79.07341196 125.11523196 -76.10546875 120.42578125 C-70.58346323 111.69730026 -65.09162374 102.95078461 -59.625 94.1875 C-54.22160675 85.52679571 -48.76640211 76.90112294 -43.27441406 68.29638672 C-38.9366451 61.49192358 -34.64648822 54.65874036 -30.375 47.8125 C-20.37770124 31.79089165 -10.29713806 15.83083628 0 0 Z " fill="#FEFEFE" transform="translate(539,32)"/>
<path d="M0 0 C0.66 0 1.32 0 2 0 C3.38183594 1.85400391 3.38183594 1.85400391 4.984375 4.4765625 C5.5827417 5.44634033 6.1811084 6.41611816 6.79760742 7.4152832 C7.44189697 8.47448975 8.08618652 9.53369629 8.75 10.625 C10.11503718 12.84036663 11.48094156 15.05519913 12.84765625 17.26953125 C13.36861626 18.11649818 13.36861626 18.11649818 13.90010071 18.98057556 C17.2728578 24.46082164 20.72205783 29.89057153 24.1875 35.3125 C25.34787539 37.13137063 26.5080343 38.95037939 27.66796875 40.76953125 C28.22661621 41.64561035 28.78526367 42.52168945 29.36083984 43.42431641 C31.91811787 47.44267851 34.45956051 51.47097881 37 55.5 C41.35600367 62.40801319 45.73566519 69.30062185 50.125 76.1875 C55.40083733 84.46847034 60.63424317 92.77425182 65.82324219 101.10986328 C72.98906637 112.61978254 80.20755105 124.09575358 87.45458984 135.5546875 C89.00919608 138.01455101 90.56157626 140.47580548 92.11328125 142.9375 C92.6235083 143.74654785 93.13373535 144.5555957 93.65942383 145.38916016 C94.66890094 146.99006603 95.67786258 148.59129706 96.6862793 150.19287109 C99.00412627 153.86770371 101.3368896 157.53033249 103.71875 161.1640625 C104.34680542 162.12542114 104.34680542 162.12542114 104.98754883 163.10620117 C106.10541188 164.81222167 107.23017103 166.51371801 108.35546875 168.21484375 C110.92130005 172.56030151 110.92130005 172.56030151 111 175 C109.76953125 177.34765625 109.76953125 177.34765625 107.8125 180.0625 C106.70068359 181.65578125 106.70068359 181.65578125 105.56640625 183.28125 C105.15406738 183.87164062 104.74172852 184.46203125 104.31689453 185.0703125 C101.86054011 188.66968687 99.56449008 192.37097293 97.25 196.0625 C96.21357963 197.70965931 95.17712077 199.35679439 94.140625 201.00390625 C93.62048828 201.83164551 93.10035156 202.65938477 92.56445312 203.51220703 C90.0491491 207.51204287 87.524194 211.50577097 85 215.5 C84.00256749 217.07940392 83.00517173 218.65883105 82.0078125 220.23828125 C79.9827995 223.44466177 77.95663815 226.65031282 75.9296875 229.85546875 C71.30951355 237.16300704 66.69722343 244.47484906 62.125 251.8125 C57.5703856 259.11878339 52.94848337 266.38155013 48.32177734 273.64233398 C40.42050503 286.04344845 32.56728703 298.47414955 24.78369141 310.94946289 C20.06298606 318.51065622 15.29658321 326.04292667 10.53222656 333.57666016 C8.01990046 337.55010644 5.51006079 341.52512247 3 345.5 C2.00001225 347.08334107 1.00001224 348.6666744 0 350.25 C-0.7425 351.425625 -0.7425 351.425625 -1.5 352.625 C-3 355 -4.5 357.375 -6 359.75 C-6.49483887 360.5335083 -6.98967773 361.3170166 -7.49951172 362.12426758 C-8.50109035 363.71007325 -9.50271808 365.29584791 -10.50439453 366.8815918 C-12.98064184 370.80184757 -15.45607701 374.72261107 -17.9296875 378.64453125 C-22.62543163 386.08759416 -27.33086757 393.52408897 -32.06298828 400.9440918 C-37.58492059 409.6030303 -43.0664807 418.28528173 -48.5 427 C-54.49471955 436.61481669 -60.55512675 446.18571565 -66.6484375 455.73828125 C-70.33785686 461.52391316 -74.00112043 467.32591947 -77.6550293 473.1340332 C-78.53948514 474.53772827 -79.4435763 475.92925262 -80.36733341 477.30740166 C-82.11710085 480.05889106 -82.11710085 480.05889106 -83.51695156 483.47049141 C-85.69626212 488.12240331 -88.03657356 492.83963064 -93.04763341 494.80177832 C-99.36123205 496.10303018 -105.8091433 495.75259336 -112.21704102 495.58935547 C-114.38582604 495.58540348 -116.55462978 495.58762891 -118.72340393 495.59555054 C-124.5962353 495.59956069 -130.46504724 495.51738192 -136.33694577 495.41951513 C-142.47864865 495.33187285 -148.62044834 495.32376353 -154.76268005 495.30715942 C-166.38678776 495.2636805 -178.00904758 495.14884647 -189.63234228 495.00826657 C-202.86782949 494.85166988 -216.10340595 494.77477994 -229.33958924 494.70453048 C-256.56074986 494.55827433 -283.78027131 494.31209736 -311 494 C-310.04243413 492.23468811 -309.08369143 490.47001453 -308.12445068 488.70561218 C-307.59067684 487.72284144 -307.056903 486.74007071 -306.50695419 485.72751904 C-304.86268181 482.75146028 -303.11423334 479.87296438 -301.265625 477.01953125 C-300.61432617 476.00906738 -299.96302734 474.99860352 -299.29199219 473.95751953 C-298.28120605 472.40073486 -298.28120605 472.40073486 -297.25 470.8125 C-295.82227822 468.59806775 -294.39519359 466.38322457 -292.96875 464.16796875 C-292.28425781 463.10626465 -291.59976563 462.04456055 -290.89453125 460.95068359 C-288.48257863 457.19412955 -286.10694198 453.41623939 -283.75 449.625 C-275.87376356 436.96887257 -267.88569777 424.38385091 -259.875 411.8125 C-255.44569652 404.8608374 -251.04183131 397.89473255 -246.68261719 390.89892578 C-241.99954443 383.38578093 -237.26414471 375.90577931 -232.53222656 368.42333984 C-230.01990046 364.44989356 -227.51006079 360.47487753 -225 356.5 C-224.00001225 354.91665893 -223.00001224 353.3333256 -222 351.75 C-221.505 350.96625 -221.01 350.1825 -220.5 349.375 C-216 342.25 -216 342.25 -214.50073242 339.8762207 C-213.49821757 338.28886474 -212.49577646 336.70146221 -211.4934082 335.11401367 C-209.03248037 331.21684605 -206.57038288 327.32042899 -204.10546875 323.42578125 C-198.58346273 314.69729947 -193.09174895 305.95070698 -187.625 297.1875 C-181.05727055 286.66355923 -174.41680794 276.18766254 -167.74267578 265.73095703 C-155.9591884 247.26498759 -144.22015284 228.77238606 -132.625 210.1875 C-127.22154305 201.52683507 -121.76640253 192.9011236 -116.27441406 184.29638672 C-111.29075932 176.4787516 -106.37444263 168.62005193 -101.46704102 160.75439453 C-94.01985773 148.81991769 -86.50675557 136.9281905 -78.94360352 125.06689453 C-73.42030234 116.40376595 -67.93578043 107.71834486 -62.5 99 C-56.50126672 89.37874577 -50.43641931 79.80166635 -44.33984375 70.2421875 C-41.17178633 65.27386888 -38.01979148 60.29557113 -34.875 55.3125 C-34.14156372 54.15041016 -34.14156372 54.15041016 -33.39331055 52.96484375 C-31.92856882 50.64342132 -30.46420781 48.32175923 -29 46 C-27.04216981 42.89551558 -25.08391571 39.79129959 -23.125 36.6875 C-22.641521 35.92139404 -22.15804199 35.15528809 -21.65991211 34.3659668 C-17.00472717 26.99582863 -12.32185526 19.64335538 -7.63134766 12.2956543 C-7.07108887 11.4169165 -6.51083008 10.53817871 -5.93359375 9.6328125 C-5.43915771 8.85824707 -4.94472168 8.08368164 -4.43530273 7.28564453 C-3.39078333 5.62230202 -2.39954314 3.92514178 -1.44165039 2.21044922 C-0.96590576 1.48100098 -0.49016113 0.75155273 0 0 Z " fill="#000000" transform="translate(539,185)"/>
<path d="M0 0 C3.92076915 1.30692305 4.24782195 2.74149695 6.2109375 6.31640625 C9.79581676 12.678768 13.65759366 18.80849742 17.625 24.9375 C22.69504785 32.81231755 27.71651257 40.71092287 32.625 48.6875 C38.75519147 58.64467566 45.02897416 68.5065952 51.31982422 78.36279297 C53.9327126 82.46398744 56.53004145 86.57494458 59.125 90.6875 C59.61234619 91.45980957 60.09969238 92.23211914 60.60180664 93.02783203 C61.57871597 94.57626986 62.55552305 96.12477219 63.53222656 97.67333984 C65.51858477 100.82204139 67.50666714 103.96965243 69.49487305 107.1171875 C70.4990646 108.70695385 71.50313343 110.29679773 72.50708008 111.88671875 C74.96782116 115.78365741 77.42977398 119.67981885 79.89453125 123.57421875 C89.25775123 138.37374094 98.53171984 153.22878347 107.796875 168.08984375 C115.0255161 179.67849876 122.30839536 191.23018206 129.65234375 202.74609375 C136.89869324 214.11049574 144.08183458 225.51454217 151.21630859 236.94946289 C156.92521043 246.09345881 162.69564495 255.19880242 168.46044922 264.30761719 C175.15287656 274.88224163 181.80616072 285.48048964 188.43286133 296.09643555 C192.27096698 302.2422102 196.12511054 308.37735909 200 314.5 C204.72392795 321.96939622 209.43129601 329.44907149 214.125 336.9375 C214.77726562 337.97519531 215.42953125 339.01289062 216.1015625 340.08203125 C216.71 341.05398438 217.3184375 342.0259375 217.9453125 343.02734375 C218.75766357 344.32273071 218.75766357 344.32273071 219.58642578 345.64428711 C220.82377955 347.70632968 221.92454066 349.84908133 223 352 C76.15 352 -70.7 352 -222 352 C-217.40686274 344.1260504 -212.77367841 336.45567206 -207.75 328.875 C-202.69150499 321.18214509 -197.75329578 313.43918004 -192.98876953 305.5612793 C-189.76223229 300.23003782 -186.46378545 294.94912629 -183.125 289.6875 C-178.80740092 282.88249663 -174.54328995 276.04680697 -170.3125 269.1875 C-166.7182223 263.36130882 -163.10172769 257.55495266 -159.375 251.8125 C-156.07528496 246.71893987 -152.89423321 241.56575567 -149.75 236.375 C-145.2352667 228.92972036 -140.53922468 221.61699423 -135.77319336 214.33056641 C-131.1458221 207.24935919 -126.64198174 200.0979301 -122.18408203 192.90917969 C-115.58900331 182.27546514 -108.90763676 171.69882223 -102.18164062 161.14746094 C-98.68202792 155.6537941 -95.19856317 150.15086089 -91.75 144.625 C-91.35659424 143.994729 -90.96318848 143.36445801 -90.55786133 142.71508789 C-88.4798942 139.38233672 -86.4083861 136.04563912 -84.33984375 132.70703125 C-83.89608398 131.99272949 -83.45232422 131.27842773 -82.99511719 130.54248047 C-82.1565059 129.19249792 -81.31974884 127.84136073 -80.48535156 126.48876953 C-78.53727609 123.35530079 -76.52863561 120.30467532 -74.36328125 117.31640625 C-72.53679489 114.79404808 -70.94445793 112.26510517 -69.5 109.5 C-67.91123148 106.55373939 -66.23106617 103.82334874 -64.25 101.125 C-61.89499568 98.18113779 -61.89499568 98.18113779 -61 95 C-60.34 95 -59.68 95 -59 95 C-58.814375 94.21625 -58.62875 93.4325 -58.4375 92.625 C-56.75791822 88.38953291 -54.43236618 85.12675549 -51.75390625 81.46484375 C-50.02546403 79.03578575 -48.52386681 76.56238025 -47 74 C-44.93183999 70.71951037 -42.83859125 67.4550093 -40.75 64.1875 C-35.55732296 56.04960038 -30.41608123 47.8815395 -25.3125 39.6875 C-19.68979842 30.66455428 -13.97117198 21.71130017 -8.16943359 12.80273438 C-5.41433287 8.55562295 -2.70711911 4.27780256 0 0 Z " fill="#FEFEFE" transform="translate(776,408)"/>
<path d="M0 0 C3.8924024 3.46190628 6.25634209 7.44138287 8.875 11.875 C13.13132952 18.96063523 17.48590203 25.97284391 21.9375 32.9375 C22.52950195 33.86457764 23.12150391 34.79165527 23.73144531 35.74682617 C24.91665991 37.60281009 26.10204206 39.45868701 27.28759766 41.31445312 C29.91245258 45.43099206 32.52000075 49.55837666 35.125 53.6875 C35.85577759 54.84560181 35.85577759 54.84560181 36.60131836 56.02709961 C37.57839666 57.57577765 38.55536657 59.12452409 39.53222656 60.67333984 C41.51899439 63.82269071 43.50749016 66.9709487 45.49609375 70.11914062 C46.99498716 72.49206409 48.49358778 74.8651723 49.9921875 77.23828125 C52.0172005 80.44466177 54.04336185 83.65031282 56.0703125 86.85546875 C58.56331917 90.79810088 61.05390076 94.74225241 63.54199219 98.68798828 C64.52651461 100.24917839 65.51155339 101.81004296 66.49707031 103.37060547 C67.91707827 105.62059167 69.33399342 107.87249403 70.75 110.125 C71.18070801 110.80651123 71.61141602 111.48802246 72.05517578 112.19018555 C75 116.88544255 75 116.88544255 75 118 C25.83 118 -23.34 118 -74 118 C-71.26205668 112.52411336 -68.54512742 107.54674443 -65.1875 102.5 C-60.55076718 95.43290817 -56.03128696 88.29941778 -51.5625 81.125 C-50.27351663 79.05724233 -48.9844547 76.98953364 -47.6953125 74.921875 C-47.07043945 73.91962891 -46.44556641 72.91738281 -45.80175781 71.88476562 C-38.34849397 59.95146406 -30.78886736 48.08494011 -23.22827148 36.21948242 C-20.3614882 31.71862869 -17.50086584 27.21412172 -14.65625 22.69921875 C-14.12386719 21.85423828 -13.59148438 21.00925781 -13.04296875 20.13867188 C-12.05491189 18.56903725 -11.06783986 16.99878199 -10.08203125 15.42773438 C-6.80803486 10.22592636 -3.43108382 5.09947078 0 0 Z " fill="#010101" transform="translate(777,561)"/>
<path d="M0 0 C0.33 0.66 0.66 1.32 1 2 C0.67 2.99 0.34 3.98 0 5 C0.33 5.66 0.66 6.32 1 7 C0.0625 9.125 0.0625 9.125 -1 11 C-2.65 10.67 -4.3 10.34 -6 10 C-4.02 6.7 -2.04 3.4 0 0 Z " fill="#0C0C0C" transform="translate(727,389)"/>
<path d="M0 0 C0.66 0.66 1.32 1.32 2 2 C0.98823563 5.40320742 0.35156418 6.75725331 -2.625 8.8125 C-3.40875 9.204375 -4.1925 9.59625 -5 10 C-3.66511872 6.40608886 -2.03977277 3.24509304 0 0 Z " fill="#EBEBEB" transform="translate(620,654)"/>
<path d="M0 0 C0.66 0.66 1.32 1.32 2 2 C0.16172132 5.15133488 -1.75972706 8.11964908 -4 11 C-4.66 10.67 -5.32 10.34 -6 10 C-4.02 6.7 -2.04 3.4 0 0 Z " fill="#E8E8E8" transform="translate(203,565)"/>
<path d="M0 0 C0.33 0.66 0.66 1.32 1 2 C1.66 2.33 2.32 2.66 3 3 C0.35645475 5.83236991 -1.43688534 7.21844267 -5 9 C-3.35 6.03 -1.7 3.06 0 0 Z " fill="#DEDEDE" transform="translate(459,660)"/>
<path d="M0 0 C2.0625 2.3125 2.0625 2.3125 4 5 C3.67 5.99 3.34 6.98 3 8 C0.9375 6.25 0.9375 6.25 -1 4 C-0.75 1.75 -0.75 1.75 0 0 Z " fill="#181818" transform="translate(628,324)"/>
<path d="M0 0 C0.99 0.33 1.98 0.66 3 1 C2.34 2.65 1.68 4.3 1 6 C0.34 6 -0.32 6 -1 6 C-1.625 4.125 -1.625 4.125 -2 2 C-1.34 1.34 -0.68 0.68 0 0 Z " fill="#F7F7F7" transform="translate(509,729)"/>
</svg>
