<?xml version="1.0" encoding="UTF-8"?>
<svg version="1.1" xmlns="http://www.w3.org/2000/svg" width="1358" height="1358">
<path d="M0 0 C7.971022 7.31079594 12.68849935 17.59126694 13.18359375 28.3515625 C13.2071005 30.35923781 13.20766675 32.36728836 13.1875 34.375 C13.17614014 35.96441406 13.17614014 35.96441406 13.16455078 37.5859375 C12.98386878 46.2375722 11.67880435 53.56954648 8.75 61.75 C8.34910156 62.99136719 7.94820313 64.23273438 7.53515625 65.51171875 C-0.32420159 88.96919585 -15.07539903 109.33740392 -31.25 127.75 C-31.96671875 128.60078125 -32.6834375 129.4515625 -33.421875 130.328125 C-34.04578125 131.06546875 -34.6696875 131.8028125 -35.3125 132.5625 C-35.83972656 133.18769531 -36.36695313 133.81289062 -36.91015625 134.45703125 C-38.25 135.75 -38.25 135.75 -40.25 135.75 C-40.25 136.41 -40.25 137.07 -40.25 137.75 C-42.67445439 140.33257098 -45.51916308 142.50107548 -48.25 144.75 C-48.75402344 145.17023438 -49.25804687 145.59046875 -49.77734375 146.0234375 C-58.11331307 152.9400931 -66.57893536 158.85353886 -76.25 163.75 C-77.26191406 164.27851562 -78.27382813 164.80703125 -79.31640625 165.3515625 C-90.48323936 170.45721544 -104.21653782 170.67726092 -115.9375 167.125 C-121.20424023 165.01088596 -125.81255603 162.27763921 -130.25 158.75 C-130.86488281 158.27175781 -131.47976563 157.79351563 -132.11328125 157.30078125 C-140.68651098 149.75405796 -145.51007573 137.57514779 -146.45092773 126.35351562 C-147.16216519 109.0055821 -144.45471504 92.73081035 -133.375 78.75 C-126.69970042 71.68098302 -118.49226388 67.55938111 -108.86328125 66.7890625 C-99.68188867 66.65182195 -92.23639672 70.57715363 -85.1875 76.1875 C-83.25 78.75 -83.25 78.75 -82.5 81.6875 C-83.32994763 85.07645283 -83.69651309 85.36133965 -86.3125 87.375 C-95.6282657 94.658235 -99.07239355 106.8253365 -102.25 117.75 C-102.55744141 118.70712891 -102.55744141 118.70712891 -102.87109375 119.68359375 C-103.48672838 123.04102387 -103.43443845 126.41111344 -103.4375 129.8125 C-103.44974609 130.53244141 -103.46199219 131.25238281 -103.47460938 131.99414062 C-103.48519011 135.7926247 -103.40755655 137.51366518 -101.25 140.75 C-88.72262479 139.85518749 -81.29600454 133.27439211 -72.9296875 124.24609375 C-54.65902847 102.88788432 -42.96742212 74.26200581 -38.25 46.75 C-37.9096875 44.831875 -37.9096875 44.831875 -37.5625 42.875 C-36.33300721 31.01551749 -35.68598355 17.61256428 -42.7265625 7.41796875 C-45.50368789 4.37737249 -48.20565525 3.31280526 -52.25 2.75 C-82.55664686 1.8562383 -112.19664678 21.76620192 -133.625 41.375 C-135.51093259 43.15515525 -137.38621174 44.94667314 -139.25 46.75 C-140.19488281 47.65492188 -141.13976562 48.55984375 -142.11328125 49.4921875 C-148.31772751 55.55074775 -153.9796701 61.8674098 -159.25 68.75 C-159.78028809 69.44158203 -160.31057617 70.13316406 -160.85693359 70.84570312 C-188.56907993 107.21741153 -207.59633265 148.56642012 -215.25 193.75 C-215.47558594 195.008125 -215.70117188 196.26625 -215.93359375 197.5625 C-220.02513292 224.19983084 -219.28085934 254.01119242 -203.25 276.75 C-198.19631836 283.47368875 -192.80303718 288.03890142 -185.25 291.75 C-184.56550781 292.0903125 -183.88101563 292.430625 -183.17578125 292.78125 C-170.42560207 298.027038 -155.52127427 294.75269105 -143.25 289.75 C-124.49373065 281.33744437 -107.77123627 268.91143278 -92.7265625 255.015625 C-90.66721723 253.13168137 -88.57781058 251.30318297 -86.46484375 249.48046875 C-82.19913459 245.75743267 -78.17828305 241.82650778 -74.1875 237.8125 C-73.51912109 237.14798828 -72.85074219 236.48347656 -72.16210938 235.79882812 C-68.23731908 231.86640947 -64.49499623 227.82804638 -60.86889648 223.61889648 C-59.42049094 221.9468192 -57.94173518 220.3128339 -56.44140625 218.6875 C-51.59637691 213.27373765 -47.58187951 208.05744409 -44.453125 201.484375 C-44.11779251 200.79664001 -43.78246002 200.10890503 -43.43696594 199.40032959 C-42.36365282 197.18865031 -41.3051274 194.97040696 -40.25 192.75 C-39.72767288 191.65667358 -39.72767288 191.65667358 -39.1947937 190.54125977 C-36.5730142 185.04413381 -33.99729411 179.52622356 -31.4375 174 C-31.0345874 173.13115173 -30.6316748 172.26230347 -30.21655273 171.36712646 C-20.48236237 150.33992516 -11.27070789 129.09174274 -2.25 107.75 C-1.95373718 107.04983765 -1.65747437 106.34967529 -1.35223389 105.6282959 C21.15359515 58.74378702 21.15359515 58.74378702 25.75 8.75 C25.30651154 2.31941729 25.30651154 2.31941729 27.015625 0.125 C30.90363834 -2.95738895 35.59873319 -3.49111724 40.43359375 -2.94921875 C50.40805935 -0.64306571 59.44479197 5.69601926 65.75 13.75 C72.67481491 25.36929982 73.47147285 37.57718261 70.5 50.6875 C63.93407516 72.5129087 51.04309418 93.02807004 39.16064453 112.33203125 C35.47458444 118.33771605 32.34460292 124.48721366 29.375 130.875 C28.92511719 131.83148437 28.47523438 132.78796875 28.01171875 133.7734375 C26.91974294 136.0967903 25.83259301 138.4222644 24.75 140.75 C25.08 141.08 25.41 141.41 25.75 141.75 C26.21148437 141.15574219 26.67296875 140.56148437 27.1484375 139.94921875 C39.74943754 123.9364855 53.7822818 107.94354364 74.75 103.75 C84.29451649 102.84099843 93.1352982 104.72907299 100.75 110.75 C106.56454152 115.73389273 110.07145276 122.11027127 110.98828125 129.73046875 C111.68842412 150.55050668 100.64466761 170.57211106 92.5390625 189.11328125 C78.92724534 218.35489163 78.92724534 218.35489163 79.75 249.75 C80.09561566 251.41416306 80.43170464 253.08039617 80.75 254.75 C88.34731288 250.62805365 94.62272687 245.83830796 100.75 239.75 C101.57113281 238.99589844 102.39226562 238.24179688 103.23828125 237.46484375 C109.60931205 230.88526857 110.9347798 224.72772055 112.30761719 215.99951172 C116.74390552 188.19191634 133.42731483 161.64722305 151.75 140.75 C152.47703125 139.91339844 153.2040625 139.07679688 153.953125 138.21484375 C156.18375577 135.69173516 158.45410275 133.2137945 160.75 130.75 C161.50796875 129.92628906 162.2659375 129.10257813 163.046875 128.25390625 C174.81937957 115.92355424 191.70769027 102.77589962 209.37280273 102.31835938 C225.43648069 102.27977954 236.98391671 107.72170506 249.40625 117.93359375 C251.69774377 119.9165731 251.69774377 119.9165731 254.75 120.75 C254.99234375 120.193125 255.2346875 119.63625 255.484375 119.0625 C259.58423704 111.57139405 266.56663708 104.47778764 274.75 101.75 C283.92930074 100.7300777 290.87501212 103.98515788 298.1171875 109.578125 C303.85755959 114.90692324 307.88609829 121.25771111 309.375 129 C308.14489963 134.41244161 304.48838309 137.30481824 300.125 140.3125 C288.3617878 148.86556457 279.88358867 162.93092428 271.75 174.75 C271.07324219 175.70390625 270.39648438 176.6578125 269.69921875 177.640625 C259.93877843 193.04419831 259.96484665 220.07342726 263.00390625 237.57421875 C264.22300378 242.76336165 265.86948576 247.7657244 267.75 252.75 C283.10183639 250.26343495 294.55406535 235.00936567 303.22119141 223.17944336 C304.74742084 221.04749948 306.25187782 218.90177953 307.75 216.75 C308.29720703 215.97205078 308.84441406 215.19410156 309.40820312 214.39257812 C322.15053104 196.12028471 329.62118518 177.08118186 335.75 155.75 C336.04245605 154.73897217 336.04245605 154.73897217 336.34082031 153.70751953 C339.47522553 142.48538994 340.99710571 128.84515212 336.75 117.75 C336.3125 115.125 336.3125 115.125 336.75 112.75 C338.98051902 109.80252844 340.8373375 108.89141686 344.47265625 108.328125 C353.39214279 107.92218124 357.8795657 110.4196263 364.4375 116.0625 C373.51065427 126.60697658 375.95391903 138.48350279 375.8125 152.125 C375.80798828 152.95644531 375.80347656 153.78789063 375.79882812 154.64453125 C375.78713164 156.67971897 375.76919935 158.71486923 375.75 160.75 C376.13369751 159.99662354 376.13369751 159.99662354 376.52514648 159.22802734 C390.16011077 132.57773182 406.89201017 103.38462934 433.96484375 88.53515625 C443.87919171 85.74022786 458.22251991 86.18923996 467.5625 90.5 C468.284375 90.9125 469.00625 91.325 469.75 91.75 C470.4925 92.1625 471.235 92.575 472 93 C477.67014463 96.66891712 480.70257105 101.36060965 482.75 107.75 C488.09673898 135.46862052 471.30509345 166.14974095 460.73803711 190.91845703 C443.34451421 227.98096413 443.34451421 227.98096413 442.75 267.75 C457.88802159 259.40740293 467.9624675 247.00128709 477.37304688 232.77539062 C478.64421075 230.90560773 479.97667063 229.11614118 481.359375 227.328125 C487.6917669 218.86596518 489.23912106 210.74877566 490.80859375 200.4140625 C493.2029342 185.00723077 499.04115545 170.72462563 505.75 156.75 C506.07226562 156.06454102 506.39453125 155.37908203 506.7265625 154.67285156 C520.21060171 126.04667483 541.70944493 93.43392899 571.9375 80.75 C587.91352143 76.27320278 605.99762017 80.71230948 620.19921875 88.28515625 C622.73607192 89.74200149 625.24949746 91.23167683 627.75 92.75 C628.15089844 91.75742188 628.55179688 90.76484375 628.96484375 89.7421875 C634.04754691 77.46798391 640.05851562 63.11037775 651.75 55.75 C655.81295955 54.07182106 658.48070528 54.79765042 662.5 56.1875 C671.00626771 59.91539745 679.41242879 66.36510398 683.75 74.75 C684.45636342 77.51856537 684.64716086 79.87050412 684.75 82.75 C682.23328848 84.95212258 680.27814965 85.90994927 677.0625 87 C671.81885602 88.86786576 667.95550377 92.18638891 663.75 95.75 C663.05648437 96.32105469 662.36296875 96.89210938 661.6484375 97.48046875 C656.84592278 101.53201109 652.74231215 105.90911947 648.75 110.75 C647.48542969 112.17119141 647.48542969 112.17119141 646.1953125 113.62109375 C640.33177074 120.43421417 637.90047138 125.60938665 636.56640625 134.66796875 C635.18241926 142.7827126 631.18017174 150.33431046 627.75 157.75 C627.28400391 158.77262939 627.28400391 158.77262939 626.80859375 159.81591797 C621.16961877 172.0733652 613.98941206 183.38704005 606.75 194.75 C607.66394531 194.56179688 608.57789063 194.37359375 609.51953125 194.1796875 C613.8168016 193.60810378 616.01022646 194.63314705 619.75 196.75 C622.03659673 199.70044739 622.75 201.00731127 622.75 204.75 C621.80640625 204.89695312 621.80640625 204.89695312 620.84375 205.046875 C609.50741901 207.02731837 600.76247579 211.82900833 593.8828125 221.328125 C589.4786075 228.70358791 587.75706442 235.33336521 589.31640625 243.83984375 C593.21923328 258.27855363 602.56763177 270.7605912 610.97094727 282.92724609 C622.85594868 300.18120591 631.08260398 316.40932947 628.3515625 337.8828125 C625.59394125 351.02628 618.17131279 363.47287939 609.75 373.75 C609.01265625 374.65105469 608.2753125 375.55210937 607.515625 376.48046875 C589.44081226 397.42008024 562.14800858 412.67903952 534.75 416.75 C506.26108216 418.56243115 480.70846333 413.24047506 458.5 394.5 C453.5134269 389.83846585 449.93296107 384.77110135 446.75 378.75 C446.3890625 378.06808594 446.028125 377.38617187 445.65625 376.68359375 C440.9544637 365.56038634 442.91687261 351.31411414 447.0859375 340.40234375 C452.26163116 328.6448614 459.39076867 319.18018597 468.41308594 310.11035156 C469.53833765 308.96537301 470.62210065 307.77983181 471.6953125 306.5859375 C482.5193939 294.79108647 497.08904114 286.73463367 511.75 280.75 C512.64976562 280.36972656 513.54953125 279.98945312 514.4765625 279.59765625 C523.78468127 276.21996098 535.11575597 276.0079538 544.125 280.1875 C555.96744872 287.04872877 565.9620199 297.38065846 569.75 310.75 C570.44106309 314.06710284 570.36396414 315.76319955 568.56640625 318.65234375 C562.40946707 326.34482651 553.95042445 331.34424575 544.72265625 334.53515625 C542.1079557 334.81992562 540.8994525 334.22746093 538.75 332.75 C537.5 329.625 537.5 329.625 536.75 326.75 C537.554375 325.96625 538.35875 325.1825 539.1875 324.375 C542.36397541 321.12104958 542.73398634 320.67879203 542.8125 316.125 C542.7815625 314.454375 542.7815625 314.454375 542.75 312.75 C534.18072823 308.02082132 523.76127752 311.64286152 514.875 314.11279297 C497.44174147 319.34036705 478.86761076 330.41828674 469.80859375 346.5859375 C467.4956961 351.31414893 467.13839938 355.57421564 467.75 360.75 C470.1603415 365.68024399 474.12224907 367.12755898 479.05859375 368.90234375 C498.52877447 375.03446163 514.68705461 370.6387585 532.25 361.5625 C541.13763883 356.83245769 549.61691957 351.68359675 557.75 345.75 C558.34361328 345.31719727 558.93722656 344.88439453 559.54882812 344.43847656 C571.84373781 335.35987281 585.74904201 324.75287397 590.75 309.75 C592.47665531 296.75075217 584.92840604 285.88607665 578.3125 275.3125 C565.29698614 254.46417941 565.29698614 254.46417941 563.75 244.75 C562.90179687 245.34167969 562.05359375 245.93335938 561.1796875 246.54296875 C549.07409323 254.77470321 535.78120276 261.19609132 520.75 259.75 C509.24261067 257.33537994 501.94336255 252.84748793 494.75 243.75 C494.09 243.42 493.43 243.09 492.75 242.75 C492.59217041 243.28149658 492.43434082 243.81299316 492.27172852 244.3605957 C490.32931447 250.56435284 487.72274824 256.19776435 484.6875 261.9375 C484.20434326 262.85297607 483.72118652 263.76845215 483.22338867 264.71166992 C474.8607591 280.24616482 464.86968964 295.08278211 447.8984375 301.89453125 C436.43898134 305.00820482 424.87107779 302.74783436 414.6875 297.125 C402.63577809 289.39905288 395.09915066 278.58180025 391.8125 264.625 C386.55002938 234.76047925 404.74392978 205.44000529 417.22802734 179.34840393 C435.23780223 144.5970481 435.23780223 144.5970481 441.75 106.75 C440.18467742 107.66183839 438.62287486 108.57972052 437.0625 109.5 C436.19238281 110.01046875 435.32226562 110.5209375 434.42578125 111.046875 C400.96959976 132.34161241 382.23282675 188.40995789 365.9375 223 C362.02490146 231.28137449 357.86708128 239.41541006 353.5625 247.5 C353.00393311 248.55993164 352.44536621 249.61986328 351.86987305 250.71191406 C338.60182171 275.32725641 338.60182171 275.32725641 329.62890625 278.5 C322.58648488 279.67170269 316.74887933 277.36939484 310.625 274.0625 C306.83932355 271.01749937 303.82391398 267.49690106 300.75 263.75 C300.36070312 264.19730469 299.97140625 264.64460938 299.5703125 265.10546875 C292.86022105 272.35669661 284.03644056 277.15432019 274.07421875 277.96875 C262.94001367 278.31534004 253.05183347 275.91733585 243.75 269.75 C243.01136719 269.28078125 242.27273438 268.8115625 241.51171875 268.328125 C230.39165172 260.56904541 223.66873151 248.08015398 220.5 235.125 C218.32891666 222.71880948 219.91253173 210.08728692 221.75 197.75 C221.43885254 198.35247559 221.12770508 198.95495117 220.80712891 199.57568359 C186.87402406 265.18798797 186.87402406 265.18798797 165.75 275.75 C152.53467217 277.30213582 141.18428408 272.44874478 130.52734375 264.953125 C126.24391186 261.55529717 122.4407318 257.77625287 118.75 253.75 C115.65853216 256.74485947 112.83708167 259.83264649 110.0625 263.125 C103.16140735 270.9081872 94.89172005 276.79452542 84.38671875 278.02734375 C71.71139111 278.53273959 60.64418941 274.03264962 51.0625 266 C39.98757858 255.67755582 35.81586998 242.60758153 34.75 227.75 C34.23659082 202.87817772 47.90856441 180.82254518 59.1875 159.5625 C67.33821418 144.94874919 67.33821418 144.94874919 69.75 128.75 C68.81402685 126.73048938 68.81402685 126.73048938 66.75 125.75 C62.12689802 124.91784164 59.22069818 125.74228159 55.3125 128.125 C31.35748173 145.70814472 19.14609488 184.41109793 7.0390625 210.64453125 C-19.34362359 267.73298337 -19.34362359 267.73298337 -32.25 276.875 C-39.3484129 278.94537043 -45.66732009 277.87928756 -52.25 274.75 C-59.51584053 270.48294846 -63.14298302 265.50973588 -66.25 257.75 C-66.68828125 258.32105469 -67.1265625 258.89210938 -67.578125 259.48046875 C-73.42101983 266.95034852 -79.72426569 273.88154439 -86.25 280.75 C-87.00990234 281.56090088 -87.00990234 281.56090088 -87.78515625 282.38818359 C-96.46912157 291.61906105 -105.93423548 299.39983366 -116.25 306.75 C-116.86520508 307.18860352 -117.48041016 307.62720703 -118.11425781 308.07910156 C-140.71757252 323.94260956 -166.25795863 329.9280523 -193.765625 326.25390625 C-197.33188554 325.58238698 -200.7639342 324.75582895 -204.25 323.75 C-205.49652344 323.39808594 -206.74304688 323.04617188 -208.02734375 322.68359375 C-230.57078321 315.93599479 -251.75452373 300.76028873 -263.25390625 279.93164062 C-270.60304046 266.19608168 -274.97587936 253.14035166 -277.25 237.75 C-277.3840625 236.88890625 -277.518125 236.0278125 -277.65625 235.140625 C-284.78391798 179.30722579 -260.52201299 120.7914277 -227.10717773 77.23291016 C-224.86453103 74.3693904 -222.56395788 71.55599223 -220.25 68.75 C-219.57880127 67.92435547 -219.57880127 67.92435547 -218.89404297 67.08203125 C-207.14686958 52.67820879 -194.03999701 39.04176418 -179.25 27.75 C-177.80367187 26.57824219 -177.80367187 26.57824219 -176.328125 25.3828125 C-167.50537612 18.28507322 -158.0332544 12.42670317 -148.25 6.75 C-147.61336426 6.37601074 -146.97672852 6.00202148 -146.32080078 5.61669922 C-106.83447295 -17.37896657 -38.67463586 -31.13015197 0 0 Z M590.75 115.75 C589.76 116.4925 588.77 117.235 587.75 118 C583.09247092 121.9390122 579.49065483 126.9699286 575.75 131.75 C575.02683594 132.6575 574.30367187 133.565 573.55859375 134.5 C555.26945218 158.05667609 525.32412195 203.16601908 527.75 234.75 C529.61704209 237.57625378 529.61704209 237.57625378 531.75 239.75 C537.32974931 239.75 540.2685142 237.20575804 544.13671875 233.55859375 C554.47156834 222.45133388 562.77965289 209.60539857 570.75 196.75 C571.44996094 195.63367187 572.14992188 194.51734375 572.87109375 193.3671875 C583.69190269 175.73479183 593.77603594 157.51181956 602.5 138.75 C602.97671143 137.73188232 603.45342285 136.71376465 603.94458008 135.66479492 C608.25059278 126.18441492 612.57926474 116.32312539 611.75 105.75 C602.85402941 105.75 597.29166596 110.28636139 590.75 115.75 Z M205.28417969 156.5703125 C186.0778977 181.62088228 161.78972437 220.93353386 163.75 253.75 C167.60196051 250.03785657 170.99515106 246.13042149 174.3125 241.9375 C174.83207275 241.28370361 175.35164551 240.62990723 175.88696289 239.95629883 C201.82787993 207.1462551 225.21674928 172.75350414 244.75 135.75 C242.79086773 133.36169331 242.79086773 133.36169331 239.125 133.4375 C224.96157222 133.89685441 213.65534187 146.17467872 205.28417969 156.5703125 Z M22.75 143.75 C23.75 145.75 23.75 145.75 23.75 145.75 Z " fill="#000000" transform="translate(476.25,937.25)"/>
<path d="M0 0 C7.61513965 -0.26513059 14.56469948 0.36989503 22 2 C23.02544922 2.22075195 24.05089844 2.44150391 25.10742188 2.66894531 C83.75613914 15.74721992 135.9069209 44.49482407 181 84 C181.70898438 84.598125 182.41796875 85.19625 183.1484375 85.8125 C187.35611608 89.38473324 191.31986178 93.19042805 195.25 97.0625 C196.01195679 97.80487915 196.01195679 97.80487915 196.78930664 98.56225586 C200.99397818 102.75719275 204.76339445 106.63394449 205.375 112.75 C205 116 205 116 203 118 C194.96218986 118.00798194 189.69829962 115.02727524 182.9375 110.9375 C180.90266651 109.74851694 178.86619944 108.56232528 176.828125 107.37890625 C175.83748047 106.80027832 174.84683594 106.22165039 173.82617188 105.62548828 C156.94059174 95.48625923 156.94059174 95.48625923 138 93 C126.30447143 96.38107099 120.04400988 105.82232677 114 115.75 C112.77826293 117.71411372 111.55561444 119.67766082 110.33203125 121.640625 C109.75533691 122.57197266 109.17864258 123.50332031 108.58447266 124.46289062 C106.67653277 127.5179463 104.70122634 130.51371245 102.6875 133.5 C88.5291615 153.44096052 88.5291615 153.44096052 85 177 C86.12577009 180.12713913 87.54843833 182.39906678 89.53515625 185.04296875 C92.86787395 189.62053136 94.90597175 192.91924504 94.4453125 198.6875 C91.80707913 212.38779963 81.56759427 221.75781173 72.00927734 231.1965332 C70.49643594 232.69102082 68.99184885 234.1934537 67.48828125 235.69726562 C62.6659946 240.49918735 57.82153539 245.17755064 52.49829102 249.43310547 C50.18399319 251.85337 49.67307425 254.57567868 48.80859375 257.73828125 C46.07337189 265.38897428 39.15711865 269.46771759 32.35546875 273.1640625 C29.35312767 275.50419568 28.84341764 277.33729307 28 281 C27.42383098 287.79879438 28.99928338 293.52148905 31 300 C31.639375 298.989375 32.27875 297.97875 32.9375 296.9375 C36.88931713 292.20106058 42.24253364 290.56282748 47.90600586 288.57397461 C52.58143833 286.8692328 55.31171392 285.41790655 58 281 C58.90613002 278.72217515 58.90613002 278.72217515 59.4375 276.4375 C60.73511745 272.23768437 62.09305594 270.27147911 66 268 C71.38910588 265.43375911 77.14528773 265.31068372 83 266 C87.05680031 267.9852427 88.07043203 270.06617637 89.5 274.125 C91.61266623 279.468285 95.64499531 282.22851514 100.22851562 285.37353516 C104.28802782 288.20314276 106.52796303 290.81329033 109 295 C107.69216527 290.22570008 105.83446139 287.18542584 102.625 283.4375 C101.85414063 282.52871094 101.08328125 281.61992187 100.2890625 280.68359375 C98.7694399 278.90205668 97.24343249 277.12594504 95.7109375 275.35546875 C94 273 94 273 94 269.875 C95 267 95 267 96.625 265.125 C100.12545861 263.46688803 102.14032776 263.43054016 106 264 C121.01886358 271.36985127 133.10726875 286.71645268 143.0078125 299.80078125 C145.13602501 302.15016094 147.21728978 303.51235734 150 305 C149.39990913 299.71915152 149.39990913 299.71915152 148.4375 294.5 C147.32711639 288.1549508 147.40260112 283.45812245 151 278 C153.74643996 275.10098004 155.39305156 274.12597043 159.3125 273.3125 C164.81579222 274.33853753 167.47284196 276.71889554 171 281 C174.46718357 286.06872142 177.26154705 291.51369169 180 297 C180.39348633 297.78568359 180.78697266 298.57136719 181.19238281 299.38085938 C182.36567601 301.76209593 183.50257491 304.15691177 184.625 306.5625 C184.98013672 307.29960205 185.33527344 308.0367041 185.70117188 308.79614258 C187.83753987 313.5558448 188.45249795 316.78924501 187 322 C184.4375 324.4375 184.4375 324.4375 182 326 C182.48903809 326.50974365 182.97807617 327.0194873 183.48193359 327.54467773 C189.08488884 333.58651551 193.38728204 340.01575529 197.625 347.0625 C208.24048871 365.04945795 208.24048871 365.04945795 225.78125 375.52734375 C236.86260703 377.88798495 246.59288822 375.01597556 255.9375 369 C258.90780128 366.90269049 261.58023284 364.73538896 264 362 C262.57356812 358.40647974 261.08543106 357.16362656 257.67578125 355.4140625 C256.81146484 354.95773437 255.94714844 354.50140625 255.05664062 354.03125 C254.15107422 353.5671875 253.24550781 353.103125 252.3125 352.625 C243.01052073 347.83532631 234.38450996 342.96655127 230 333 C229.2336483 328.47852498 229.45366938 326.81949593 232 323 C235.37281006 320.75145996 236.93726881 320.77668814 240.86328125 321.39794922 C244.64477301 322.4634381 247.4232619 324.68933195 250.5 327.0625 C251.9831258 328.15840908 253.46896832 329.25064792 254.95703125 330.33984375 C255.75834473 330.92878418 256.5596582 331.51772461 257.38525391 332.12451172 C262.22573579 335.59646147 267.21521519 338.84605936 272.1875 342.125 C280.00274074 347.29799466 287.72611152 352.55203873 295.29296875 358.08203125 C297.90051213 360.04040011 297.90051213 360.04040011 300.63208008 361.27807617 C303 363 303 363 303.61523438 365.48242188 C303.60459961 366.9606543 303.60459961 366.9606543 303.59375 368.46875 C303.5935083 369.58314453 303.5932666 370.69753906 303.59301758 371.84570312 C303.56232178 373.05162109 303.53162598 374.25753906 303.5 375.5 C303.48155029 376.75232422 303.46310059 378.00464844 303.4440918 379.29492188 C301.52569574 463.55637272 268.07972173 553.2753035 206.5546875 612.4453125 C204.86455958 614.13544042 203.34898869 615.91944649 201.8125 617.75 C196.99717995 623.31436983 191.49703969 628.12974394 186 633 C185.4755127 633.46921875 184.95102539 633.9384375 184.41064453 634.421875 C164.08591285 652.54917014 141.62808745 667.56101928 118 681 C117.40606445 681.34095703 116.81212891 681.68191406 116.20019531 682.03320312 C71.1311227 707.72129777 19.2971317 720.87241799 -32 726 C-32.70257935 726.08218781 -33.40515869 726.16437561 -34.12902832 726.24905396 C-40.84344838 726.99788995 -47.48955396 727.17578589 -54.2421875 727.203125 C-55.97290497 727.21357849 -55.97290497 727.21357849 -57.73858643 727.22424316 C-61.45076158 727.24158074 -65.16278602 727.24796476 -68.875 727.25 C-70.76964996 727.25151062 -70.76964996 727.25151062 -72.70257568 727.25305176 C-90.67870068 727.24332705 -108.22816279 726.89897432 -126 724 C-126.93602051 723.86078125 -127.87204102 723.7215625 -128.83642578 723.578125 C-162.09139664 718.60971849 -193.79025912 706.47103542 -224 692 C-225.29478271 691.38439209 -225.29478271 691.38439209 -226.61572266 690.75634766 C-254.32618134 677.50135385 -280.0268623 661.19165922 -304 642 C-304.58571777 641.53287598 -305.17143555 641.06575195 -305.77490234 640.58447266 C-315.15307411 633.01051831 -323.69321743 624.53516561 -332.25 616.0625 C-332.79985565 615.52227203 -333.3497113 614.98204407 -333.91622925 614.42544556 C-341.5235605 606.93232442 -348.33899309 599.10930492 -354.78155518 590.59483337 C-356.77222145 587.9892324 -358.82906498 585.43735059 -360.875 582.875 C-403.37338922 528.08200209 -426.95177307 454.85362996 -427.203125 385.78515625 C-427.20882507 384.53536484 -427.21452515 383.28557343 -427.22039795 381.99790955 C-427.22980275 379.35644361 -427.23636384 376.71496617 -427.24023438 374.07348633 C-427.2466947 370.13280591 -427.28085092 366.19251111 -427.3125 362.25195312 C-427.41182765 338.86299703 -425.46786333 315.86979456 -420.8125 292.9375 C-420.6641571 292.19060913 -420.51581421 291.44371826 -420.36297607 290.67419434 C-415.54562273 266.54234628 -409.38589685 239.49006035 -397 218 C-394.875 217.25 -394.875 217.25 -393 217 C-392.67 216.34 -392.34 215.68 -392 215 C-384.80407835 215.98523017 -380.2957239 221.16001061 -375.875 226.625 C-366.65351259 239.70547943 -363.88453788 255.0432973 -361.0625 270.4375 C-355.94255177 298.09120288 -344.16799021 322.88427198 -330 347 C-329.67 346.67 -329.34 346.34 -329 346 C-329.22405873 342.72142629 -329.5865541 339.46605354 -329.94140625 336.19921875 C-329.99973241 333.0146104 -329.83770118 331.55812888 -328 329 C-325.38722453 328.03739851 -323.7947354 327.74117177 -321.12890625 328.609375 C-318.12648313 330.57059083 -316.32541196 333.22235713 -314.3125 336.125 C-313.87824707 336.74173584 -313.44399414 337.35847168 -312.99658203 337.99389648 C-308.55625851 344.42696236 -304.83072147 351.22312341 -301.0703125 358.06591797 C-294.92332916 369.17367391 -289.85483675 378.08542013 -277.375 382.33203125 C-272.37041154 383.32252272 -267.45210882 383.20753057 -262.36987305 382.94091797 C-257.42857175 382.73455773 -254.23363958 383.12781292 -250 386 C-249.32195312 386.90878906 -248.64390625 387.81757813 -247.9453125 388.75390625 C-243.97498037 393.88053829 -237.56708102 396.15495985 -231.875 398.9375 C-208.09165259 410.73769929 -208.09165259 410.73769929 -203 418 C-202.37839668 421.07464193 -202.36950609 422.94218845 -203.99853516 425.67529297 C-205.37117826 427.49570491 -206.81376204 429.21952672 -208.3125 430.9375 C-214.55546485 438.21156098 -217.70929595 444.0731703 -217.40234375 453.95703125 C-215.76366082 466.35056526 -205.11443067 476.87854713 -196.875 485.6875 C-185.38707124 497.98890904 -179.19940964 508.06736212 -179.4375 525.5 C-179.44773193 526.666521 -179.45796387 527.83304199 -179.46850586 529.03491211 C-179.78217663 542.31482599 -182.27584006 555.03816575 -185 568 C-185.610046 570.96677949 -186.21484913 573.93462608 -186.8203125 576.90234375 C-187.73191751 581.36376663 -188.64788628 585.82405631 -189.58813477 590.27954102 C-196.6158614 621.51253632 -196.6158614 621.51253632 -188.01171875 651.1015625 C-183.1368734 658.02232741 -177.70763329 665.25078448 -169 667 C-168.5889788 660.28665366 -169.8795276 654.19802766 -171.34375 647.68359375 C-172.2542474 642.57288512 -172.67851155 637.7783432 -170.75 632.875 C-170.51796875 632.25367188 -170.2859375 631.63234375 -170.046875 630.9921875 C-169 629 -169 629 -166.953125 626.8515625 C-164.20117924 622.83372168 -164.25854791 619.26996327 -164 614.5 C-162.26985687 592.3082456 -162.26985687 592.3082456 -154 585 C-149.0147159 582.27220304 -144.56613035 581.48825705 -139 581 C-138.773125 580.175 -138.54625 579.35 -138.3125 578.5 C-135.91897178 572.11725808 -132.46040657 567.39948048 -127.75 562.5 C-120.26583135 554.36612054 -114.76358779 544.60683702 -111.875 533.9375 C-109.6923328 526.01921405 -105.53767101 522.35175941 -98.625 518.25 C-95.52048067 516.58403137 -92.73818697 515.69172688 -89.3125 514.9375 C-86.23750617 513.97857335 -85.17473883 513.23803312 -83.2421875 510.60546875 C-79.97932445 504.35028154 -77.99508031 497.87032412 -76.0703125 491.109375 C-74.70290877 487.13691745 -72.72562747 483.87229312 -70.3671875 480.4140625 C-65.13345442 471.17278523 -65.64674369 457.87972821 -67.65234375 447.68359375 C-70.70176585 439.11118399 -77.50264714 434.9172423 -85.41845703 431.07006836 C-86.8200708 430.41663452 -86.8200708 430.41663452 -88.25 429.75 C-89.25015137 429.27892822 -90.25030273 428.80785645 -91.28076172 428.32250977 C-105.62207229 421.70948606 -120.51215781 416.46688892 -135.4921875 411.50390625 C-149.0808965 406.98431167 -161.86846778 402.22389929 -174.26196289 394.98632812 C-174.83551514 394.66083984 -175.40906738 394.33535156 -176 394 C-176.68231689 393.60345215 -177.36463379 393.2069043 -178.06762695 392.79833984 C-178.70531006 392.5348877 -179.34299316 392.27143555 -180 392 C-182.57164286 393.17191891 -182.57164286 393.17191891 -185.125 395.125 C-195.80650587 402.37928474 -206.0970265 405.08455154 -219 404 C-224.58749356 402.52593753 -227.69758399 398.3948296 -230.59765625 393.65625 C-235.94807872 383.52174505 -242 368.66981053 -242 357 C-242.7425 357.45375 -243.485 357.9075 -244.25 358.375 C-247 360 -247 360 -249.25 361 C-251.35137474 361.94279946 -251.35137474 361.94279946 -252 365 C-252.66 365 -253.32 365 -254 365 C-254 365.66 -254 366.32 -254 367 C-254.66 367 -255.32 367 -256 367 C-256 367.66 -256 368.32 -256 369 C-259.44540038 372.34406507 -262.14486077 374 -267 374 C-271.913705 371.59132108 -274.03638434 369.06406143 -276 364 C-277.15387778 359.52973224 -277.21811437 355.1500445 -277.25 350.5625 C-277.2809375 349.45551758 -277.2809375 349.45551758 -277.3125 348.32617188 C-277.34698218 343.4771153 -276.71400105 340.17821381 -274 336 C-268.15736066 330.30621771 -260.81334893 328.4401496 -253 327 C-251.95005859 326.80277344 -251.95005859 326.80277344 -250.87890625 326.6015625 C-241.16773328 325.10753589 -231.05769431 324.61670359 -222.78125 330.60546875 C-222.1934375 331.06566406 -221.605625 331.52585937 -221 332 C-220.87044922 330.98292969 -220.87044922 330.98292969 -220.73828125 329.9453125 C-218.14772672 312.78585953 -206.55134297 300.24442354 -195 288 C-194.33226562 287.27941406 -193.66453125 286.55882812 -192.9765625 285.81640625 C-192.32429687 285.13449219 -191.67203125 284.45257813 -191 283.75 C-190.443125 283.16734375 -189.88625 282.5846875 -189.3125 281.984375 C-187 280 -187 280 -184.96142578 278.82714844 C-177.9618587 274.74394533 -175.23891024 269.99032758 -171.875 262.75 C-163.50654712 245.3062222 -156.11152556 237.56039917 -138.1015625 230.4921875 C-134.94781767 228.97489465 -133.11326778 227.77685428 -131 225 C-129.96376185 220.38264473 -130.52566234 216.15196289 -132.3125 211.8125 C-136.78375456 207.13328012 -142.41136485 203.97103067 -148.0625 200.8671875 C-155.21233051 196.55813786 -158.38375929 188.06179048 -160.375 180.25 C-160.58125 179.1775 -160.7875 178.105 -161 177 C-161.23074219 177.74765625 -161.46148438 178.4953125 -161.69921875 179.265625 C-164.34688481 187.2609486 -164.34688481 187.2609486 -167.375 190.6875 C-170.60073163 192.30036581 -172.44053602 192.60586621 -176 192 C-180.51571578 188.69247383 -181.03501469 184.82519862 -182 179.625 C-183.06997586 173.9184621 -184.20399495 169.61657005 -188 165 C-192.96467903 163.37693186 -196.48417209 164.15308036 -201.203125 165.91796875 C-204.38305879 167.83284192 -205.76222477 170.25643358 -206.88110352 173.75537109 C-208.85586646 182.8124064 -210.21087196 191.87714408 -211.37304688 201.0703125 C-212.68923962 210.6746646 -214.53026299 220.54508143 -221.41796875 227.81640625 C-223 229 -223 229 -226.1875 229.625 C-229.21182597 228.95292756 -230.23857168 228.50308235 -232 226 C-232.98043964 223.05868109 -233.11621202 221.17498335 -233.09765625 218.11328125 C-233.09443359 217.17548828 -233.09121094 216.23769531 -233.08789062 215.27148438 C-233.07951172 214.29501953 -233.07113281 213.31855469 -233.0625 212.3125 C-233.05798828 211.32443359 -233.05347656 210.33636719 -233.04882812 209.31835938 C-233.03704303 206.87884526 -233.02059011 204.43945311 -233 202 C-234.07636719 201.76925781 -235.15273438 201.53851563 -236.26171875 201.30078125 C-261.70659898 195.68763892 -261.70659898 195.68763892 -269 188 C-271.90398015 183.1634415 -271.84559407 178.47622825 -271 173 C-265.85418257 158.27819118 -254.68892717 147.75533978 -244.21508789 136.67407227 C-240.23821403 132.42947673 -236.47630978 128.06762013 -232.875 123.5 C-232.43800781 122.94900635 -232.00101563 122.3980127 -231.55078125 121.83032227 C-228.0806799 117.34244237 -224.61914008 112.64541672 -223.3125 107.0625 C-224.38416605 102.28871485 -227.61500016 99.40227025 -231 96 C-231.15855469 96.61488281 -231.31710937 97.22976562 -231.48046875 97.86328125 C-233.36166171 104.37989994 -233.36166171 104.37989994 -236.1875 107.125 C-240.17376319 108.36517077 -243.14678278 108.52649269 -247 107 C-254.23759688 101.9026146 -259.73959258 95.03836635 -265 88 C-269.76258605 89.4067425 -271.82897576 91.7809758 -274.875 95.625 C-275.75486246 96.71121776 -276.63507189 97.79715455 -277.515625 98.8828125 C-278.98734651 100.72940647 -280.45695406 102.57769395 -281.921875 104.4296875 C-286.14754827 109.56640042 -290.36324973 113.25296801 -297.109375 114.33984375 C-301.57922147 114.54989293 -304.47445145 113.69600772 -308 111 C-310 109 -310 109 -310.3125 106.25 C-310 103 -310 103 -308.48046875 100.234375 C-306.76770552 96.49250704 -306.92964377 94.08066149 -307 90 C-306.6254681 84.91527458 -305.31933484 81.86331592 -301.45703125 78.47265625 C-297.40796672 75.35274642 -293.13853247 72.57830072 -288.82958984 69.83300781 C-285.95056113 67.96797351 -283.15473661 66.01685198 -280.36328125 64.0234375 C-267.90382446 55.12808879 -255.15049331 46.83293188 -242 39 C-240.47802002 38.08903564 -240.47802002 38.08903564 -238.92529297 37.15966797 C-227.23345636 30.19079988 -215.4627472 23.5178265 -203.1875 17.625 C-202.23311035 17.16657715 -201.2787207 16.7081543 -200.29541016 16.23583984 C-189.16758389 11.02642544 -181.41119103 11.42746061 -169.78515625 14.99609375 C-165.95759775 16.011246 -162.30924182 16.52188266 -158.375 16.9375 C-149.11586365 18.02737751 -141.06292017 20.78702446 -134 27 C-130.8276487 31.3179226 -128.92379168 34.64828665 -128.7890625 40.01953125 C-128.76070312 40.79490234 -128.73234375 41.57027344 -128.703125 42.36914062 C-128.65142342 43.98610762 -128.60704124 45.60332676 -128.5703125 47.22070312 C-128.37009561 52.26366595 -127.48520081 55.51265531 -125 60 C-123.41091779 66.1400632 -123.00835499 72.53261193 -122.609375 78.84375 C-121.8043648 91.41962699 -120.35286613 102.16720874 -116 114 C-115.11419386 116.71955706 -114.27704482 119.45337261 -113.4375 122.1875 C-113.01707658 123.5182764 -112.59650645 124.84900647 -112.17578125 126.1796875 C-111.42743364 128.61119567 -110.71258725 131.05345572 -110.04296875 133.5078125 C-106.20915368 147.30954674 -98.95707572 157.23544732 -87 165 C-86.3709375 163.88882813 -85.741875 162.77765625 -85.09375 161.6328125 C-77.34685401 148.10730707 -68.93389946 137.10172402 -57 127 C-54.30058593 124.70170369 -51.63622223 122.37055643 -49 120 C-48.39671875 119.46375 -47.7934375 118.9275 -47.171875 118.375 C-31.26462058 103.40346643 -20.00057643 85.84537486 -18 64 C-16.23194602 52.25418687 -12.70928469 41.57232411 -8.01416016 30.72167969 C-5.26933689 24.23108674 -3.64508847 17.77147508 -2.25 10.875 C-2.02957031 9.823125 -1.80914063 8.77125 -1.58203125 7.6875 C-1.0465634 5.12656678 -0.5193872 2.56423383 0 0 Z M7 9 C6.79246094 10.10214844 6.58492187 11.20429688 6.37109375 12.33984375 C4.7466977 20.49536341 2.79733743 28.16201015 -0.5 35.8125 C-0.95693237 36.8785144 -0.95693237 36.8785144 -1.4230957 37.96606445 C-2.01567414 39.34640295 -2.60836199 40.72669448 -3.20117188 42.10693359 C-7.25698528 51.71841804 -8.77405592 61.28807335 -9.78613281 71.60400391 C-10.84995234 81.44349024 -14.27180027 89.51480225 -19.5625 97.8125 C-19.99159668 98.4919165 -20.42069336 99.17133301 -20.86279297 99.87133789 C-25.32863354 106.77331142 -30.5330854 112.88167326 -36 119 C-37.04994141 120.24910156 -37.04994141 120.24910156 -38.12109375 121.5234375 C-42.87595263 127.12977011 -48.1925371 131.52128461 -54 136 C-66.16353225 145.46807538 -75.44882066 159.26912968 -80 174 C-83.47585323 175.34549157 -85.77759616 174.95915377 -89.125 173.625 C-103.41051621 166.62462245 -112.75001298 154.1978799 -117.9609375 139.43359375 C-119.28274451 135.06566758 -120.38276259 130.65761226 -121.40698242 126.21240234 C-122.41477978 121.95411786 -123.71946106 117.96296294 -125.31542969 113.890625 C-129.08171086 104.22277659 -130.03249041 95.05595746 -130.77148438 84.76416016 C-131.16804667 79.96728166 -131.78614781 75.20551412 -132.4375 70.4375 C-132.54795654 69.55094727 -132.65841309 68.66439453 -132.7722168 67.75097656 C-133.31730012 63.05084235 -133.31730012 63.05084235 -135.56640625 59.03125 C-138.04933371 55.51320564 -137.4578396 51.25745931 -137.5 47.0625 C-137.28810484 38.9022643 -137.28810484 38.9022643 -141 32 C-147.11401988 27.6532684 -154.39457199 26.66493551 -161.625 25.375 C-174.33657149 23.03417448 -174.33657149 23.03417448 -180 21 C-198.49708761 18.31493889 -220.72445162 36.50601126 -235.7578125 45.37109375 C-236.57652832 45.85376709 -237.39524414 46.33644043 -238.23876953 46.83374023 C-238.81997559 47.21860596 -239.40118164 47.60347168 -240 48 C-240 48.33 -240 48.66 -240 49 C-238.77667969 49.03738281 -237.55335938 49.07476562 -236.29296875 49.11328125 C-227.26393747 49.44461356 -218.37037992 50.04132975 -209.4375 51.4375 C-208.63530029 51.55971924 -207.83310059 51.68193848 -207.0065918 51.80786133 C-203.40801801 52.40600422 -201.07436431 52.95042379 -198 55 C-196.83109597 58.30151264 -195.8904541 61.59233406 -194.98242188 64.97070312 C-193.52335936 70.07506097 -191.99574364 74.12618178 -187.26855469 77.08300781 C-182.4781088 79.60018229 -177.43809688 81.36312874 -172.3125 83.0625 C-160.3038201 87.04426985 -160.3038201 87.04426985 -157 92 C-156.73649456 95.55516362 -156.6854404 99.08816735 -156.63671875 102.65234375 C-156.31250492 106.15396654 -156.31250492 106.15396654 -153.58203125 108.25390625 C-152.72996094 108.83011719 -151.87789062 109.40632813 -151 110 C-148.10744036 114.33883946 -148.33235535 117.90662843 -149 123 C-151.12183037 130.17597568 -154.21311372 137.0567263 -160 142 C-161.31154817 142.70856448 -162.64140892 143.38644274 -164 144 C-163.27830505 147.83341864 -161.56273743 150.97179807 -159.8125 154.4375 C-156.31576435 161.57974937 -154.12731173 168.88218141 -152.21801758 176.58959961 C-150.42705663 183.50889187 -148.12382859 189.52988741 -142.38671875 194.06640625 C-141.49597656 194.56011719 -140.60523438 195.05382812 -139.6875 195.5625 C-132.63101305 199.7430638 -124.95092095 204.53409057 -122.453125 212.8125 C-121.31269547 218.31802187 -120.90711901 224.65972416 -123.4375 229.8125 C-128.37693536 236.96616501 -136.78498291 239.99429589 -144.68286133 242.73266602 C-153.06975468 245.78094749 -156.12017047 251.56561302 -159.875 259.125 C-165.60972452 270.31577409 -170.40930974 279.30350592 -180.8125 286.75 C-192.12934038 295.2798573 -209.10543668 312.26450486 -211.28466797 326.91357422 C-211.50941818 329.23246758 -211.69772811 331.55199965 -211.875 333.875 C-211.96007812 334.67808594 -212.04515625 335.48117187 -212.1328125 336.30859375 C-212.45384898 340.73743797 -212.45570077 342.39291388 -209.6953125 346.0703125 C-207.14593134 348.2910648 -207.14593134 348.2910648 -204 348 C-203.67 345.36 -203.34 342.72 -203 340 C-196.66727081 340.34500341 -196.66727081 340.34500341 -193.6640625 343.29296875 C-192.99117187 344.24816406 -192.31828125 345.20335937 -191.625 346.1875 C-183.01696266 357.38954185 -171.63232918 360.91119791 -158.5 365.0625 C-150.92087532 367.57552549 -150.92087532 367.57552549 -148 371 C-146.9375 374 -146.9375 374 -147 377 C-149.18432142 379.88642473 -150.55303594 380.85101198 -154 382 C-160.84197375 382.61292681 -167.32101524 381.35022686 -174 380 C-175.99907671 379.66117344 -177.99855726 379.32455828 -180 379 C-172.90191635 386.50035164 -164.03903783 391.30274837 -154.64453125 395.39453125 C-153.95713867 395.6942131 -153.26974609 395.99389496 -152.56152344 396.30265808 C-145.44154543 399.3390513 -138.14721103 401.73899831 -130.77688599 404.08511353 C-81.9195998 419.69332991 -81.9195998 419.69332991 -67 433 C-66.34 433 -65.68 433 -65 433 C-63.48025315 435.94408359 -62.17027738 438.9250876 -60.9375 442 C-60.42509766 443.2684375 -60.42509766 443.2684375 -59.90234375 444.5625 C-55.78945625 455.67263766 -56.6380865 471.13605814 -61 482 C-62.37712008 484.40894456 -63.86903778 486.71120612 -65.390625 489.03125 C-67.85919875 493.58492973 -69.27630319 498.44659582 -70.73168945 503.40478516 C-72.69913057 509.8656947 -75.3493953 515.73728867 -80.5625 520.1875 C-84.59690598 522.31473225 -88.72985627 523.96284993 -93 525.55859375 C-97.87228545 527.89957465 -101.24142927 530.22223229 -103.3984375 535.27734375 C-103.72070312 536.48519531 -104.04296875 537.69304688 -104.375 538.9375 C-107.72186437 550.25395414 -113.23752565 559.84300701 -121.53125 568.328125 C-123.21999818 569.87952393 -123.21999818 569.87952393 -123 572 C-123.99 572.33 -124.98 572.66 -126 573 C-127.91116079 576.21926389 -129.52156619 579.54463693 -131.18359375 582.8984375 C-132.96028262 585.93218151 -133.94977378 587.35033137 -137 589 C-138.98445632 589.48532899 -140.98764011 589.89783702 -143 590.25 C-147.94761462 591.43070892 -147.94761462 591.43070892 -151.625 594.9375 C-154.68039937 602.2766 -155.00000363 610.47924247 -155.375 618.3125 C-155.73261426 624.11095975 -156.61427222 627.31972925 -160 632 C-162.99782626 636.28260895 -163.24114406 638.78057089 -163 644 C-162.53211399 646.46895784 -162.00947842 648.92806093 -161.4375 651.375 C-159.91016665 658.4369575 -159.28082182 664.15231551 -162.3125 670.9375 C-164.15084846 673.18437034 -165.3348029 673.92524602 -168 675 C-172.89308429 675.44148129 -176.99670944 674.38882314 -181 671.5625 C-191.69837048 662.6329836 -201.07239227 651.13047979 -203 637 C-204.55367216 617.60225572 -200.69413028 599.17089964 -196.80078125 580.29296875 C-196.60353958 579.33501404 -196.40629791 578.37705933 -196.20307922 577.39007568 C-195.20767236 572.56403386 -194.20173838 567.74066668 -193.17407227 562.92138672 C-185.94100643 532.02492327 -185.94100643 532.02492327 -193.5 502.3125 C-196.50176412 498.2779507 -200.08110083 494.85745936 -203.68066406 491.35986328 C-214.07320983 481.15352608 -225.93785074 466.56149913 -226.3125 451.4375 C-226.20219948 441.2653407 -221.73535556 434.08685134 -216 426 C-214.66225978 424.00294495 -213.32804468 422.00351568 -212 420 C-218.36880674 416.26434697 -224.76147779 412.6157581 -231.32421875 409.23046875 C-232.24178955 408.75714111 -233.15936035 408.28381348 -234.10473633 407.79614258 C-235.91240311 406.86881127 -237.72331477 405.94777042 -239.5378418 405.03393555 C-252.86938738 398.19591894 -252.86938738 398.19591894 -257 392 C-259.52956345 391.85510854 -261.85816752 391.86985399 -264.375 392 C-276.44871287 392.27172951 -286.52361307 389.91418317 -296 382 C-302.89720713 374.81266179 -307.21890623 365.36452227 -311.78881836 356.61694336 C-312.27616455 355.69276611 -312.76351074 354.76858887 -313.265625 353.81640625 C-313.69649414 352.98568604 -314.12736328 352.15496582 -314.57128906 351.29907227 C-316.11337473 348.81755812 -317.86529572 346.98283597 -320 345 C-319.97679687 345.89203125 -319.95359375 346.7840625 -319.9296875 347.703125 C-319.91164063 348.87359375 -319.89359375 350.0440625 -319.875 351.25 C-319.85179687 352.41015625 -319.82859375 353.5703125 -319.8046875 354.765625 C-319.9896051 357.82786046 -320.39176977 359.44202751 -322 362 C-325.64898758 362.42430088 -327.40546277 362.45372578 -330.375 360.1875 C-337.57930925 351.9662803 -343.05974565 342.76537214 -348 333.0625 C-348.30059326 332.47595642 -348.60118652 331.88941284 -348.91088867 331.28509521 C-359.55467393 310.47116048 -367.3148124 289.24680933 -371.0625 266.125 C-373.53425772 250.90044207 -376.92771008 234.73706527 -390 225 C-394.22502079 232.76399416 -397.18617867 240.73850712 -399.9375 249.125 C-400.15377045 249.78128387 -400.37004089 250.43756775 -400.59286499 251.11373901 C-424.72671715 324.5916593 -425.52636679 405.97835874 -403 480 C-402.77376953 480.7542627 -402.54753906 481.50852539 -402.31445312 482.28564453 C-391.61898602 517.49543226 -374.51034396 550.91112286 -352 580 C-351.32710938 580.87398437 -350.65421875 581.74796875 -349.9609375 582.6484375 C-348.00929452 585.13015635 -346.01420343 587.56880806 -344 590 C-343.18917969 590.99644531 -342.37835938 591.99289062 -341.54296875 593.01953125 C-329.47163361 607.63014401 -315.98713147 621.38556689 -301 633 C-299.18556464 634.56025217 -297.37320007 636.12291451 -295.5625 637.6875 C-281.14998898 649.68242852 -265.26319701 659.7281497 -249 669 C-248.09330566 669.51916992 -247.18661133 670.03833984 -246.25244141 670.57324219 C-220.62113362 685.1400072 -193.82443564 696.43090915 -166 706 C-164.76515869 706.4326416 -164.76515869 706.4326416 -163.50537109 706.87402344 C-142.99489827 713.96394841 -120.57048664 716.57364036 -99 718 C-98.15646973 718.05639648 -97.31293945 718.11279297 -96.44384766 718.17089844 C-90.63187432 718.5426008 -84.82062979 718.81003491 -79 719 C-77.7109375 719.04253906 -76.421875 719.08507812 -75.09375 719.12890625 C13.68817433 720.48228924 102.97841697 691.61114759 171 634 C172.50240234 632.77410156 172.50240234 632.77410156 174.03515625 631.5234375 C181.68051292 625.21875198 188.78634866 618.42293791 195.8125 611.4375 C197.11936768 610.14440918 197.11936768 610.14440918 198.45263672 608.82519531 C204.3915973 602.85799162 209.7432723 596.56975496 215 590 C215.87524702 588.96083798 216.75537615 587.92572434 217.64453125 586.8984375 C256.22591785 541.99109381 277.89235161 487.51502684 289 430 C289.27650391 428.5759082 289.27650391 428.5759082 289.55859375 427.12304688 C291.66071937 416.08254412 292.90637177 404.98474426 293.76513672 393.78222656 C294.01219241 390.85556687 294.33535287 387.94241281 294.66015625 385.0234375 C295.97610221 375.37989962 295.97610221 375.37989962 293.4765625 366.34375 C291.08981663 364.44813956 288.76192087 363.28559024 286 362 C283.83920305 360.54277962 281.69350346 359.06295292 279.5625 357.5625 C276.06461008 354.91363177 276.06461008 354.91363177 272 354 C272.11859375 354.65226562 272.2371875 355.30453125 272.359375 355.9765625 C272.48828125 356.85054688 272.6171875 357.72453125 272.75 358.625 C272.88921875 359.48351562 273.0284375 360.34203125 273.171875 361.2265625 C272.86483927 366.18100264 269.96083822 369.1066405 266.44140625 372.37890625 C260.07244924 377.20963484 254.1208799 380.51159491 246.51953125 383.02734375 C243.85363228 383.7316116 243.85363228 383.7316116 243 386 C243.05954535 388.16745086 243.14818527 390.33412312 243.25 392.5 C243.59242753 410.77399184 235.96900118 426.08173118 223.5703125 439.125 C215.79995081 447.8164684 209.62446176 456.09832328 209.796875 467.98046875 C209.96795737 470.52367397 210.29531998 472.63135393 211 475.0625 C212.77631224 481.25384919 213.16836698 488.10249894 210.625 494.125 C208.64658318 497.6247265 205.97551448 499.90105623 202.9375 502.5 C197.29625694 507.36371102 195.84742807 510.87549249 194.3828125 518.00390625 C189.4148885 541.64340979 169.93330536 561.11761888 150.97265625 575.125 C145.5991411 578.51433938 141.60858236 579.35980446 135.375 578.5 C127.05900714 574.80400317 123.23264922 568.80197281 119 561 C118.44054687 560.03449219 117.88109375 559.06898438 117.3046875 558.07421875 C105.84916572 537.6795555 97.016094 515.27354582 90 493 C89.65582031 491.93136719 89.31164062 490.86273438 88.95703125 489.76171875 C87.31951129 484.01793046 86.65660647 478.24865527 85.98876953 472.33007812 C83.60704471 450.92864547 83.60704471 450.92864547 71 434 C62.6598463 431.21994877 53.89228515 433.43824402 45.625 435.5 C23.79398098 440.54871907 23.79398098 440.54871907 14.68359375 435.0703125 C14.12800781 434.71710938 13.57242187 434.36390625 13 434 C11.96552734 433.56300781 11.96552734 433.56300781 10.91015625 433.1171875 C8.49206934 431.70292808 8.08406894 430.55948227 7 428 C6.53464844 427.17371094 6.06929687 426.34742188 5.58984375 425.49609375 C-0.52191186 414.182844 -4.18318541 402.0470891 -8.05786133 389.82397461 C-9.51894563 384.67956224 -9.51894563 384.67956224 -12.6875 380.625 C-14 379 -14 379 -13.90625 375.671875 C-12.80035492 371.19109323 -11.52753266 370.24206754 -7.8125 367.625 C1.20685978 360.65390773 4.44348269 353.16503988 8.32519531 342.74121094 C13.05252958 330.27163438 19.96414659 320.14074154 32 314 C31.2575 313.46375 30.515 312.9275 29.75 312.375 C22.26207711 305.9081575 19.57734218 296.5195298 18.83984375 286.9140625 C18.54703099 279.45370269 20.27135881 273.12988935 25.33984375 267.44140625 C28.17977908 264.97567416 31.41213359 263.20576825 34.6953125 261.39453125 C37.8238698 259.50148895 39.59182998 258.2162642 40.7734375 254.6953125 C41.173054 252.98786017 41.56891636 251.27952467 41.9609375 249.5703125 C43.34375684 246.14965413 45.27302099 244.49017215 48 242 C49.21308999 240.86158259 50.42526326 239.72218786 51.63671875 238.58203125 C52.98695711 237.32549714 54.33721841 236.06898766 55.6875 234.8125 C58.46245179 232.21269558 61.23230863 229.60753055 64 227 C64.77827148 226.26910156 64.77827148 226.26910156 65.57226562 225.5234375 C78.62587713 213.24480599 78.62587713 213.24480599 85.5625 197.3125 C85.48107689 192.4542545 82.87359336 189.75718772 79.7265625 186.2734375 C74.9723087 180.01331145 75.33356158 172.49316023 76 165 C78.61748553 152.19420053 86.29637276 141.09462926 93.93383789 130.74926758 C97.79287346 125.45739652 101.16924942 119.91084686 104.5625 114.3125 C112.70527064 101.0163756 120.90508561 88.14776462 137 84 C151.48565275 83.13690252 164.02303152 90.22892536 176.36938477 96.98535156 C177.78948853 97.76023926 177.78948853 97.76023926 179.23828125 98.55078125 C180.08430908 99.02169189 180.93033691 99.49260254 181.80200195 99.9777832 C184.04935715 101.21084708 184.04935715 101.21084708 187 101 C181.91566477 95.60331653 176.39664445 90.91231696 170.60693359 86.29052734 C168.90104558 84.92052977 167.20984764 83.53368596 165.51953125 82.14453125 C156.67079281 74.91056059 147.51994742 68.31824775 138 62 C137.23558594 61.48824219 136.47117187 60.97648437 135.68359375 60.44921875 C117.9269471 48.58258172 99.68865406 37.38299137 80 29 C79.23880859 28.67580078 78.47761719 28.35160156 77.69335938 28.01757812 C56.61482393 19.20479191 30.1158719 9 7 9 Z M-262 62 C-262.76328613 62.52529297 -263.52657227 63.05058594 -264.31298828 63.59179688 C-269.44215963 67.1294359 -274.54529428 70.70163039 -279.62353516 74.31201172 C-281.12493924 75.37844975 -282.62943448 76.44056101 -284.13818359 77.49658203 C-285.98137892 78.79171382 -287.80548342 80.1093972 -289.625 81.4375 C-290.62789062 82.15808594 -291.63078125 82.87867187 -292.6640625 83.62109375 C-295.6034265 86.61452632 -296.13795738 88.92728843 -297 93 C-297.42152344 94.63775391 -297.42152344 94.63775391 -297.8515625 96.30859375 C-298.10679687 97.34113281 -298.36203125 98.37367187 -298.625 99.4375 C-298.88539063 100.48808594 -299.14578125 101.53867188 -299.4140625 102.62109375 C-299.60742188 103.40613281 -299.80078125 104.19117188 -300 105 C-295.08297904 104.5426027 -292.55903564 103.42170951 -289 100 C-287.31091541 97.89814876 -285.70414823 95.80409345 -284.125 93.625 C-274.4768093 80.72541753 -274.4768093 80.72541753 -267 79 C-263.22009081 79.07874811 -261.49817137 79.591244 -258.5625 82 C-256.46819674 84.45186723 -254.51189053 86.93501246 -252.5625 89.5 C-249.67309827 93.2789337 -246.85928562 96.21772432 -243 99 C-242.34 99 -241.68 99 -241 99 C-240.87854969 94.28943654 -241.22903862 90.13296639 -242.27734375 85.54296875 C-242.54353516 84.34736328 -242.80972656 83.15175781 -243.08398438 81.91992188 C-243.50647461 80.07237305 -243.50647461 80.07237305 -243.9375 78.1875 C-245.77133951 70.13307265 -247.45690486 62.25623972 -248 54 C-252.95184331 54 -257.99353181 59.23612317 -262 62 Z M-239 57 C-239.21221057 62.8888434 -238.55320433 67.83290313 -237 73.5 C-236.80921875 74.22703125 -236.6184375 74.9540625 -236.421875 75.703125 C-235.95662755 77.47106531 -235.47956407 79.23588933 -235 81 C-234.30962646 81.04487549 -233.61925293 81.08975098 -232.90795898 81.13598633 C-229.75011918 81.34859179 -226.59396295 81.58038026 -223.4375 81.8125 C-222.35146484 81.88275391 -221.26542969 81.95300781 -220.14648438 82.02539062 C-211.93854971 82.64909387 -204.98159232 83.85674302 -199 90 C-194.85781306 97.43362169 -193.82582544 104.18350593 -193.875 112.5625 C-193.87693359 113.35446777 -193.87886719 114.14643555 -193.88085938 114.96240234 C-193.92741257 121.34148366 -194.30352066 127.65706315 -195 134 C-193.97519531 134.33773437 -192.95039062 134.67546875 -191.89453125 135.0234375 C-190.53382737 135.4738774 -189.17315178 135.92440276 -187.8125 136.375 C-187.13896484 136.59671875 -186.46542969 136.8184375 -185.77148438 137.046875 C-182.13030959 138.25467932 -178.54288783 139.52780972 -175 141 C-174.505 139.515 -174.505 139.515 -174 138 C-172.0224537 137.53857253 -170.04439269 137.07910551 -168.0625 136.63671875 C-163.93135823 135.36138521 -161.86653975 132.53988376 -159.80859375 128.8828125 C-157.74765365 124.61731279 -155.88911974 120.74648838 -157 116 C-158.13306102 114.76009948 -159.30506813 113.55538908 -160.5 112.375 C-163.02753288 109.77209338 -163.94772864 108.62564796 -164.25390625 104.9609375 C-164.0625 101.75 -164.0625 101.75 -163.66015625 98.734375 C-163.72293936 95.75862301 -163.72293936 95.75862301 -166.47265625 93.82421875 C-170.37007118 91.80861214 -174.20842952 90.39746089 -178.375 89.0625 C-188.0670729 85.76804313 -195.94864911 82.44512947 -201 73 C-202.57879513 68.72450511 -203.85702647 64.41053316 -205 60 C-216.31877323 58.06981185 -227.54285489 57.43799951 -239 57 Z M-217 91 C-216.505 92.485 -216.505 92.485 -216 94 C-218.475 93.505 -218.475 93.505 -221 93 C-220.65066406 93.47050781 -220.30132813 93.94101563 -219.94140625 94.42578125 C-219.25884766 95.35970703 -219.25884766 95.35970703 -218.5625 96.3125 C-218.11003906 96.92738281 -217.65757812 97.54226562 -217.19140625 98.17578125 C-214.66105646 102.05012011 -214.63631921 105.49035823 -215 110 C-218.41781464 121.5378456 -227.35306736 130.6413157 -235.3984375 139.21875 C-238.11396658 142.12183814 -240.73886343 145.08563947 -243.33203125 148.09765625 C-244.49141312 149.41994892 -245.67871833 150.71806432 -246.88671875 151.99609375 C-251.04377082 156.44716129 -254.60059235 161.10669424 -257.9375 166.1875 C-258.32728027 166.76967285 -258.71706055 167.3518457 -259.11865234 167.95166016 C-261.45712618 171.61301228 -262.68996721 174.65954094 -263 179 C-261.75119886 182.93852669 -259.47322531 184.55426645 -256 186.5 C-250.16870784 189.26446443 -243.9746147 190.68572592 -237.68945312 192.03710938 C-232.43488761 193.25760748 -229.50616834 194.64656505 -226 199 C-224.58365167 201.83269666 -224.6536995 204.47466438 -224.4375 207.625 C-224.35371094 208.81351562 -224.26992188 210.00203125 -224.18359375 211.2265625 C-224.12300781 212.14179688 -224.06242187 213.05703125 -224 214 C-221.73596216 210.27334294 -221.25714051 206.32279297 -220.6328125 202.0859375 C-220.3843863 200.50386356 -220.1356792 198.92183371 -219.88671875 197.33984375 C-219.50521784 194.86570531 -219.12742041 192.39110518 -218.75537109 189.91552734 C-215.09089976 165.71060213 -215.09089976 165.71060213 -206.87890625 159.15625 C-200.54151798 155.25631876 -194.25464835 155.31931694 -187 156 C-183.11077543 156.95524814 -180.82903719 158.78200435 -178.54296875 162.140625 C-175.42683697 167.85203657 -173.91395385 173.58868194 -173 180 C-172.34 180 -171.68 180 -171 180 C-168.49165372 171.23098457 -169.65212334 162.93724525 -174 155 C-179.35973136 146.49611012 -187.54314814 144.21851558 -196.8359375 141.7109375 C-199 141 -199 141 -202 139 C-203.13785745 135.3019633 -202.96362166 132.03449562 -202.5625 128.25 C-202.0324921 123.09832325 -201.81742097 117.98745756 -201.75 112.8125 C-201.72881104 112.06452148 -201.70762207 111.31654297 -201.68579102 110.54589844 C-201.64917355 104.72050931 -202.49017162 99.06798355 -206.31079102 94.39770508 C-208.97495797 91.91805042 -210.74507327 91.02360433 -214.375 90.6875 C-215.674375 90.8421875 -215.674375 90.8421875 -217 91 Z M69.1875 276.9375 C67.18622651 279.73928289 66.55303941 281.23500417 65.6875 284.4375 C64.31327087 288.92417239 62.50839909 290.99008271 58.65625 293.61328125 C55.30217653 295.3643049 51.80070274 296.59358514 48.25 297.875 C42.03635791 300.11823864 42.03635791 300.11823864 38.125 305.25 C37.75375 306.4875 37.3825 307.725 37 309 C36.67 309.66 36.34 310.32 36 311 C37.05316406 310.71125 38.10632813 310.4225 39.19140625 310.125 C53.72778669 306.30794788 66.2427288 305.99031024 80.734375 310.125 C83.91949401 311.12940654 83.91949401 311.12940654 87 311 C86.938125 309.72125 86.87625 308.4425 86.8125 307.125 C86.70703125 304.9453125 86.70703125 304.9453125 87 303 C90.42094242 300.71937172 91.68187222 300.78074993 95.6875 300.875 C97.17830078 300.90207031 97.17830078 300.90207031 98.69921875 300.9296875 C99.45847656 300.95289063 100.21773437 300.97609375 101 301 C99.72016253 297.19946742 98.40869679 295.09906987 95.3125 292.5625 C94.60222656 291.964375 93.89195312 291.36625 93.16015625 290.75 C91.80475635 289.65195451 90.43894549 288.56650919 89.05859375 287.5 C84.45283759 283.8392694 82.33369139 280.41416402 80 275 C74.21628878 274.43521426 74.21628878 274.43521426 69.1875 276.9375 Z M112 280 C112.433125 280.73863281 112.86625 281.47726562 113.3125 282.23828125 C117.1812582 289.28622732 119.35421481 294.9283434 118 303 C116.71244529 306.15450903 115.84438375 307.4279981 113.0625 309.3125 C111 310 111 310 107 310 C106.7525 310.7425 106.505 311.485 106.25 312.25 C104.90852699 315.20124062 103.39094474 316.84814974 101 319 C106.25831574 322.92651625 106.25831574 322.92651625 112.54296875 323.76953125 C115.11100536 322.98518518 117.53727787 322.0691818 120 321 C127.40266281 317.81137674 133.92306364 316.41068582 141.6875 319.4375 C142.32558594 319.70820313 142.96367188 319.97890625 143.62109375 320.2578125 C154.89352492 323.77466295 168.12716196 322.2283259 179 318 C177.29059009 312.28297354 174.79580838 307.00453557 172.25 301.625 C171.83234375 300.7175 171.4146875 299.81 170.984375 298.875 C168.32981251 293.25833425 165.51802785 287.37674245 161 283 C160.01 283 159.02 283 158 283 C155.99901735 287.00196531 156.76794733 291.21682223 158 295.375 C159.34857453 300.26358269 160.08467666 305.3930518 158.08984375 310.1875 C156.63825925 312.60160469 155.70682108 313.19526941 153 314 C146.43674655 314 142.65993474 311.25821623 138 307 C133.84788576 302.7603891 130.14243889 298.22650918 126.5625 293.5 C122.81697982 288.60665912 118.67416003 284.02682219 114 280 C113.34 280 112.68 280 112 280 Z M25.16015625 328.390625 C19.29470236 335.47583874 15.91539804 344.41062739 12.76782227 352.9675293 C9.24207545 362.50254482 4.14448555 368.98488924 -4 375 C-1.84145375 383.26241795 0.64378362 391.38892697 3.3125 399.5 C3.67794922 400.64597656 4.04339844 401.79195313 4.41992188 402.97265625 C7.67858662 412.86684041 11.10719824 422.93672607 20 429 C27.64257505 432.82128752 38.27502018 429.40477547 46.0625 427.5 C66.60703428 422.55050924 66.60703428 422.55050924 76.81640625 428.3984375 C86.79802486 435.71948156 90.6800698 449.14387717 92.67041016 460.79296875 C93.190499 464.27563777 93.56823099 467.77311943 93.96630859 471.27148438 C95.31714698 482.89364817 97.72443813 493.1289804 102 504 C102.38188477 504.9895166 102.76376953 505.9790332 103.15722656 506.99853516 C108.08449126 519.69954574 113.39770886 532.19682466 119.25 544.5 C119.95600342 545.99285522 119.95600342 545.99285522 120.67626953 547.51586914 C126.86964165 561.50068817 126.86964165 561.50068817 138 571 C144.28924176 571.41928278 148.52200408 566.87267543 153 563 C153.93199219 562.20207031 154.86398437 561.40414062 155.82421875 560.58203125 C170.61998146 547.48826477 184.04135147 532.84505351 187.63476562 512.86010742 C189.03713404 505.32057927 192.77843019 500.95932572 198.1875 495.75 C202.46815137 492.01597631 202.46815137 492.01597631 204.16796875 486.8984375 C204.19967978 482.80137245 204.16910189 479.07175532 203 475.125 C200.74842272 467.12299153 200.95064855 458.34127026 205 451 C208.7295076 444.80596398 213.31994642 439.4221446 218.0625 434 C224.80853887 426.22089614 229.60819241 418.89828093 232.8125 409.0625 C233.12368774 408.11431396 233.12368774 408.11431396 233.44116211 407.14697266 C235.1357332 401.50889358 235.6086028 395.85748485 236 390 C235.39639648 389.93530518 234.79279297 389.87061035 234.17089844 389.80395508 C211.72881853 387.31205429 211.72881853 387.31205429 202 382 C200.61554688 381.24976563 200.61554688 381.24976563 199.203125 380.484375 C195.72393565 378.49339381 192.67213309 376.68065652 189.84375 373.81640625 C188.1939091 371.76606512 188.1939091 371.76606512 186 372 C185.72929688 371.42121094 185.45859375 370.84242188 185.1796875 370.24609375 C183.99779114 367.99579439 182.63640392 366.10250374 181.125 364.0625 C175.07367519 355.0448395 172.39913427 344.3163618 174.4609375 333.60546875 C174.91612344 331.72205444 175.44953946 329.85780432 176 328 C175.25363281 328.15984375 174.50726562 328.3196875 173.73828125 328.484375 C168.54795823 329.20028162 163.42120396 329.22439166 158.1875 329.25 C157.14529297 329.270625 156.10308594 329.29125 155.02929688 329.3125 C149.15760464 329.34198747 144.55835353 328.73258728 139.07519531 326.67114258 C131.74777475 324.30136856 125.57518311 327.01869944 118.91210938 329.95507812 C114.20121088 331.9007845 111.08148352 332.38430549 106 331 C103.32184734 329.76129706 100.82984933 328.28520985 98.3125 326.75 C75.0975524 313.17276492 46.66837534 308.21007376 25.16015625 328.390625 Z M240 331 C242.97744017 337.70646718 248.93216266 341.24302845 255.30078125 344.43359375 C255.86152344 344.62050781 256.42226563 344.80742187 257 345 C257.66 344.67 258.32 344.34 259 344 C256.20991176 342.0186007 253.4176659 340.04026419 250.625 338.0625 C249.8309375 337.49853516 249.036875 336.93457031 248.21875 336.35351562 C247.07792969 335.54624023 247.07792969 335.54624023 245.9140625 334.72265625 C245.2123291 334.22515869 244.5105957 333.72766113 243.78759766 333.21508789 C242.01399696 331.95160216 242.01399696 331.95160216 240 331 Z M-255.5625 336.8125 C-256.22862305 336.97766113 -256.89474609 337.14282227 -257.58105469 337.31298828 C-263.23701565 338.81514803 -263.23701565 338.81514803 -268 342 C-268.43770615 345.00578631 -268.56609524 347.38957329 -268.4375 350.375 C-268.43169922 351.13039063 -268.42589844 351.88578125 -268.41992188 352.6640625 C-268.32826489 356.85828633 -267.89693886 360.17564936 -266 364 C-262.43178826 362.49844483 -260.27201317 360.42061742 -257.625 357.625 C-248.93448678 348.82107062 -248.93448678 348.82107062 -242.8125 348.6875 C-239 349 -239 349 -236 350 C-235.16943359 351.64453125 -235.16943359 351.64453125 -234.5234375 353.8125 C-234.27561523 354.6271875 -234.02779297 355.441875 -233.77246094 356.28125 C-233.51754883 357.1784375 -233.26263672 358.075625 -233 359 C-232.73219727 359.9384375 -232.46439453 360.876875 -232.18847656 361.84375 C-231.03638024 365.93053276 -229.89064597 370.01858571 -228.78125 374.1171875 C-226.65515172 381.64472466 -224.15725654 389.74937021 -218 395 C-208.47826294 396.65401066 -198.27077811 394.02187293 -190.25 388.75 C-189.5075 388.1725 -188.765 387.595 -188 387 C-191.47827769 384.68114821 -193.3791697 384.66349993 -197.5 384.3125 C-209.7986996 382.66761219 -219.93361504 374.34279627 -227.7265625 364.91015625 C-229.51899623 362.22150566 -229.87108661 360.22283477 -230 357 C-228.99378701 353.79269609 -228.2022373 351.71174581 -225.23828125 349.95703125 C-223.52718129 349.21775277 -221.76496182 348.599421 -220 348 C-221.54376049 342.16801591 -225.91108824 338.93878504 -230.8359375 335.84765625 C-238.4263923 332.87449977 -247.87901216 334.9031942 -255.5625 336.8125 Z M182 341 C182.33079518 350.92385533 186.05589557 359.34264093 193 366.5 C196.1303538 369.38955735 199.35004797 371.81002878 203 374 C203.99 373.505 203.99 373.505 205 373 C204.57332031 372.52175781 204.14664063 372.04351562 203.70703125 371.55078125 C197.77537389 364.54286441 193.10755612 356.91207217 188.39379883 349.05004883 C187.85392334 348.15568115 187.31404785 347.26131348 186.7578125 346.33984375 C186.2745752 345.52894287 185.79133789 344.71804199 185.29345703 343.88256836 C184.12944972 341.86308259 184.12944972 341.86308259 182 341 Z M259 345 C259.33 345.66 259.66 346.32 260 347 C260.66 346.67 261.32 346.34 262 346 C261.01 345.67 260.02 345.34 259 345 Z M-218.3125 355.875 C-219.55122244 356.56648646 -220.78377829 357.26966339 -222 358 C-212.09746206 370.26998227 -212.09746206 370.26998227 -198.1875 376.390625 C-195.45810389 376.65520932 -192.73827107 376.85870132 -190 377 C-189.54625 376.030625 -189.0925 375.06125 -188.625 374.0625 C-187 371 -187 371 -185 370 C-181.19641753 369.62891878 -178.34348932 370.14027274 -174.8125 371.4375 C-169.61819988 373.3166666 -164.48502478 373.7026809 -159 374 C-161.5308696 372.3127536 -163.06708201 371.54784736 -165.87890625 370.703125 C-166.63075195 370.46980469 -167.38259766 370.23648437 -168.15722656 369.99609375 C-168.9509668 369.74988281 -169.74470703 369.50367188 -170.5625 369.25 C-180.70559734 365.97517096 -188.76680611 361.99458273 -196 354 C-196.99 354.495 -196.99 354.495 -198 355 C-201.75746131 356.2524871 -205.07039437 356.45093835 -209 356 C-209.825 355.5875 -210.65 355.175 -211.5 354.75 C-214.64044971 353.80786509 -215.44348987 354.43798267 -218.3125 355.875 Z " fill="#000000" transform="translate(741,10)"/>
<path d="M0 0 C7.52418238 8.81182596 8.90311744 17.50477078 8.23828125 28.75 C6.67018376 43.55695335 -2.27736903 57.07549366 -13 67 C-18.91523848 71.16948042 -23.66609265 74.14182444 -30.9375 74.0625 C-31.99839844 74.05347656 -33.05929687 74.04445313 -34.15234375 74.03515625 C-35.09207031 74.02355469 -36.03179688 74.01195312 -37 74 C-37.99 74 -38.98 74 -40 74 C-41.6647113 76.09384382 -41.6647113 76.09384382 -43.1796875 78.86328125 C-43.77910156 79.89646484 -44.37851562 80.92964844 -44.99609375 81.99414062 C-45.61613281 83.08919922 -46.23617187 84.18425781 -46.875 85.3125 C-47.79345703 86.8912793 -47.79345703 86.8912793 -48.73046875 88.50195312 C-52.56442074 95.17237281 -55.9598188 101.93294301 -59 109 C-58.39414062 108.28714844 -57.78828125 107.57429687 -57.1640625 106.83984375 C-49.42543597 97.99399835 -40.76028795 89.25131897 -28.5625 87.6875 C-22.55030071 87.39422199 -17.9028347 88.43727345 -13 92 C-8.69574104 96.10082384 -6.85644761 99.88154965 -6.6875 105.8125 C-6.89760014 118.01816813 -12.16679256 129.33770553 -17.0625 140.3125 C-26.11417256 160.35863535 -26.11417256 160.35863535 -26 182 C-14.30526699 176.87073113 -6.75800975 167.24056733 -1 156 C0.28455447 152.65788482 1.15327323 149.23158615 2.03881836 145.7668457 C6.10539733 130.41131909 14.13941541 116.34644625 24 104 C24.80824219 102.97261719 25.61648438 101.94523438 26.44921875 100.88671875 C28.95871136 98.04672635 31.42187684 95.94618899 34.5 93.75 C35.4178125 93.08484375 36.335625 92.4196875 37.28125 91.734375 C43.35479383 87.8598729 48.88670457 86.90344642 56 88 C59.67826263 89.57564545 62.7794363 91.64279729 66 94 C67.60875 95.051875 67.60875 95.051875 69.25 96.125 C74.15993894 101.25811799 78.21922359 108.19928465 78.6875 115.4375 C77.87542537 125.60688913 72.74834155 134.62162656 66 142 C65.35804688 142.71027344 64.71609375 143.42054688 64.0546875 144.15234375 C57.25926518 151.30752372 49.72522285 156.90049772 39.5625 157.3125 C35.08714601 157.2290612 31.9622615 156.02328247 28 154 C26.13673713 160.98723575 25.26089253 167.76109445 26 175 C27.77593188 178.40802187 27.77593188 178.40802187 31.8125 178.875 C46.21671874 179.96167461 58.53227556 172.68142889 69.0871582 163.65112305 C78.80939247 154.92027713 86.24493654 144.25304389 92.79174805 133.01489258 C95.69687309 128.1010423 95.69687309 128.1010423 99 127 C100.13484392 139.48328311 92.67280959 151.33037224 87 162 C86.443125 163.06605469 85.88625 164.13210938 85.3125 165.23046875 C75.63721438 182.83669763 61.44724596 197.06989809 42 203 C32.77374678 205.20089137 24.21182617 204.9117465 16 200 C15.30003906 199.5875 14.60007812 199.175 13.87890625 198.75 C6.90502272 194.10953308 3.61821736 187.33788007 0 180 C-0.4846875 180.65226563 -0.969375 181.30453125 -1.46875 181.9765625 C-6.5995782 188.66637312 -12.43994604 195.85998651 -21 198 C-29.5472953 198.88420296 -37.5311411 196.30320419 -44.3125 191 C-51.51450131 184.13883414 -54.58129678 175.07119666 -55.25 165.375 C-54.93080341 149.99552795 -46.44974875 135.14484933 -39.10888672 122.02270508 C-34.33886547 113.80189363 -34.33886547 113.80189363 -33.42675781 104.73461914 C-33.61592773 104.16219482 -33.80509766 103.58977051 -34 103 C-36.95377143 102.48309 -39.13946743 102.54766878 -41.828125 103.9609375 C-58.91601477 117.08943817 -67.89708793 146.70734676 -76.7109375 165.86328125 C-88.38776661 191.22150295 -88.38776661 191.22150295 -98 198 C-102.43323635 198.78763082 -106.85181208 197.31834195 -110.8125 195.3125 C-114.33611672 192.75615061 -116.11384646 190.92319937 -118 187 C-118.50659828 180.74976152 -117.4560164 176.70449556 -114.75 171.125 C-114.21427368 169.97016113 -114.21427368 169.97016113 -113.66772461 168.79199219 C-112.87781378 167.09239102 -112.08119376 165.39589614 -111.27880859 163.70214844 C-109.00636243 158.90042371 -106.78895685 154.07317539 -104.5625 149.25 C-104.06661377 148.1782251 -103.57072754 147.1064502 -103.05981445 146.00219727 C-75.39511182 89.84786955 -75.39511182 89.84786955 -59 30 C-62.50176088 30.93100222 -66.00105129 31.87098899 -69.5 32.8125 C-70.48226562 33.07353516 -71.46453125 33.33457031 -72.4765625 33.60351562 C-74.42389627 34.12929574 -76.36513065 34.67823045 -78.29931641 35.25048828 C-81 36 -81 36 -83.30615234 36.32373047 C-85.81613838 36.81906768 -87.05888736 37.3068818 -89 39 C-91.56710461 43.9442832 -93.05244925 49.18119825 -94.625 54.5 C-95.12762859 56.10976188 -95.63364782 57.71846848 -96.14282227 59.32617188 C-97.22558042 62.75848187 -98.29150102 66.19538336 -99.34521484 69.63671875 C-102.10537028 78.62428151 -105.0280103 87.55992617 -107.9375 96.5 C-108.22986542 97.40095398 -108.52223083 98.30190796 -108.82345581 99.23016357 C-137.96199701 188.96199701 -137.96199701 188.96199701 -158 209 C-164.14043122 209.61149523 -168.57437662 207.45839651 -173.37109375 203.86328125 C-177.18762137 199.49761297 -177.34467184 194.00705252 -177.6875 188.4375 C-177.77386719 187.15746094 -177.86023438 185.87742187 -177.94921875 184.55859375 C-177.99316574 181.47892361 -177.75748756 178.96730091 -177 176 C-175.35 176.33 -173.7 176.66 -172 177 C-171.75507812 176.14664063 -171.51015625 175.29328125 -171.2578125 174.4140625 C-159.82914396 136.18713668 -142.2359931 99.51588501 -125.4765625 63.3984375 C-125.18251022 62.76379074 -124.88845795 62.12914398 -124.585495 61.4752655 C-122.47167567 56.94134882 -120.2512206 52.46729478 -118 48 C-118.72888428 48.2266333 -119.45776855 48.4532666 -120.20874023 48.68676758 C-171.31465147 64.47699281 -171.31465147 64.47699281 -188 56 C-193.0402794 52.57641399 -197.00292573 48.87374785 -199 43 C-199.49251009 40.00553864 -199.80488521 37.02764332 -200 34 C-198.171875 33.38671875 -198.171875 33.38671875 -196 33 C-193.25 34.8125 -193.25 34.8125 -191 37 C-191 37.66 -191 38.32 -191 39 C-172.87065212 35.98367869 -155.83313388 28.69736136 -138.70483398 22.27758789 C-25.24854125 -20.23312644 -25.24854125 -20.23312644 0 0 Z M-39 28 C-38.2575 28.9075 -37.515 29.815 -36.75 30.75 C-36.33234375 31.26046875 -35.9146875 31.7709375 -35.484375 32.296875 C-33.97521805 34.11927227 -33.97521805 34.11927227 -31.796875 35.8359375 C-30 38 -30 38 -29.90625 40.7421875 C-30.1021875 41.77601563 -30.298125 42.80984375 -30.5 43.875 C-30.71398437 45.01066406 -30.92796875 46.14632812 -31.1484375 47.31640625 C-32.52794432 53.28372244 -34.19243349 59.14734532 -36 65 C-28.50948139 62.79751741 -25.89439362 59.38369678 -22.13671875 52.671875 C-16.2193778 41.43081741 -16.2193778 41.43081741 -15 29 C-18.90256884 25.09743116 -23.87818823 25.81719303 -29.125 25.8125 C-30.21748047 25.79413086 -30.21748047 25.79413086 -31.33203125 25.77539062 C-35.62980525 25.60776343 -35.62980525 25.60776343 -39 28 Z M61 106 C48.5366873 115.82614798 39.68513173 130.79409508 33 145 C40.18232634 144.15502043 44.73913304 139.7177429 49.203125 134.39453125 C54.84189512 126.88025715 59.84878226 118.2217643 62 109 C61.67 108.01 61.34 107.02 61 106 Z " fill="#000000" transform="translate(1027,809)"/>
<path d="M0 0 C2.3125 1.625 2.3125 1.625 3.3125 3.625 C3.4080931 5.28944461 3.44234645 6.95781963 3.4375 8.625 C3.44136719 9.9553125 3.44136719 9.9553125 3.4453125 11.3125 C3.3125 13.625 3.3125 13.625 2.3125 15.625 C2.33563711 17.66527254 2.36457117 19.70570653 2.42822266 21.74511719 C2.72435464 32.07951907 1.32046123 40.74483539 -1.6875 50.625 C-2.06771235 51.94195813 -2.44539965 53.25964841 -2.8203125 54.578125 C-3.10648437 55.58359375 -3.39265625 56.5890625 -3.6875 57.625 C0.7675 57.13 0.7675 57.13 5.3125 56.625 C5.13723367 61.09429132 4.73204213 63.14406146 1.75 66.5625 C-1.97491536 69.33579465 -5.18493055 69.01315254 -9.6875 68.625 C-9.81278076 69.33422607 -9.93806152 70.04345215 -10.06713867 70.77416992 C-10.70625236 73.71117524 -11.59464447 76.41126208 -12.61328125 79.23828125 C-12.99621338 80.31416504 -13.37914551 81.39004883 -13.77368164 82.49853516 C-14.1783667 83.63339355 -14.58305176 84.76825195 -15 85.9375 C-21.67727845 104.33815016 -21.67727845 104.33815016 -23.6875 123.625 C-19.63496033 123.625 -16.54186107 120.24068582 -13.6875 117.625 C-7.21614631 110.04642134 -2.3773887 101.92291122 2.109375 93.0859375 C6.16192101 85.20360067 10.47196938 78.35457546 16.3125 71.625 C16.76753906 71.01527344 17.22257812 70.40554688 17.69140625 69.77734375 C22.53240142 63.43347247 30.69084778 57.16555074 38.3125 54.625 C47.02842541 53.69636259 52.86292327 55.17144869 60.3125 59.625 C61.64033182 60.30255802 62.9719347 60.97299778 64.3125 61.625 C64.869375 60.861875 65.42625 60.09875 66 59.3125 C68.37927267 56.54739933 69.95615045 55.02998353 73.3125 53.625 C78.40516664 53.625 81.85769294 55.02406506 85.7890625 58.1015625 C88.47523952 60.78773952 89.38486215 62.91444862 90.3125 66.625 C89.07418041 70.33995878 86.4636012 72.43660868 83.6875 75.0625 C73.78593088 84.85405168 68.58579623 94.51987806 68.3125 108.625 C68.40964927 116.95843338 68.40964927 116.95843338 71.3125 124.625 C81.38929365 119.79653638 88.07558274 110.85354342 92.12451172 100.56079102 C92.85113073 98.38432454 93.52468931 96.19673094 94.1875 94 C98.18825331 81.37017091 103.06967031 69.0793434 107.89404297 56.74755859 C117.95204533 33.23201524 117.95204533 33.23201524 119.75 8.3125 C119.3125 4.625 119.3125 4.625 120.3125 2.625 C124.15581709 1.31264782 126.69023645 1.49811004 130.3125 3.125 C135.94299776 6.2746271 139.34330102 10.22307208 141.75 16.1875 C145.44998108 36.30614714 134.22707312 57.84476323 126.3203125 75.62402344 C122.38960293 84.4654641 118.52893564 93.29117229 115.1875 102.375 C114.90463135 103.14231445 114.6217627 103.90962891 114.33032227 104.70019531 C112.33198821 110.26307425 111.17131098 115.03582327 111.25 120.9375 C111.25902344 121.82050781 111.26804687 122.70351563 111.27734375 123.61328125 C111.28894531 124.27714844 111.30054688 124.94101562 111.3125 125.625 C124.00786644 117.76844126 129.53823151 109.82560691 133.0390625 95.6328125 C141.16502558 62.72331628 141.16502558 62.72331628 150.3125 56.625 C154.87978091 56.36401252 158.66588998 57.30757326 162.75 59.3125 C165.94247962 62.19351819 166.64827532 63.35431599 167.3125 67.625 C166.1888735 71.59228092 164.46848684 75.25902457 162.75 79 C161.80718818 81.14871877 160.86968549 83.29977489 159.9375 85.453125 C159.48246094 86.50306641 159.02742188 87.55300781 158.55859375 88.63476562 C154.2014653 99.09050804 151.1425623 109.61160426 151.25 121 C151.25902344 122.24523437 151.26804687 123.49046875 151.27734375 124.7734375 C151.28894531 125.71445312 151.30054688 126.65546875 151.3125 127.625 C156.05658704 127.625 158.25083934 124.57418536 161.62109375 121.44921875 C166.20962088 116.63426213 169.71730099 111.18548503 173.3125 105.625 C173.9415625 104.75230469 174.570625 103.87960937 175.21875 102.98046875 C179.54931044 96.79802391 181.81439922 90.60782727 184.04150391 83.47900391 C187.02252722 74.06909821 190.61380886 64.16184598 198.3125 57.625 C202.61804063 56.06751748 206.46208834 56.38202524 210.8125 57.625 C213.3125 59.625 213.3125 59.625 214.375 63 C214.3125 66.625 214.3125 66.625 213.01171875 68.77734375 C210.72567542 72.60843705 209.44846892 76.5856711 208.0625 80.8125 C207.75803955 81.7295874 207.4535791 82.6466748 207.13989258 83.59155273 C204.8196308 90.72553651 202.87646313 97.92633167 201 105.1875 C186.54157608 160.52108458 186.54157608 160.52108458 167.0625 175.25 C158.7468383 179.78229388 146.84893598 179.20134636 137.9375 176.6640625 C132.308697 174.03393729 129.11423656 170.71369124 126 165.375 C124.83627365 160.7200946 124.92842616 155.95276055 127.4296875 151.74609375 C129.18606926 149.58958952 130.80884942 147.87682529 133.3125 146.625 C138.85096154 146.39423077 138.85096154 146.39423077 141.3125 147.625 C140.4375 152.375 140.4375 152.375 139.3125 154.625 C138.95144362 158.52440888 138.7724726 160.79418861 140.9375 164.125 C143.24150493 165.85476923 143.24150493 165.85476923 146.125 165.75 C154.88138999 162.65950941 158.47560921 155.63609066 162.3125 147.625 C164.02741211 143.9785553 165.69850236 140.31719815 167.3125 136.625 C166.9825 136.295 166.6525 135.965 166.3125 135.625 C165.61125 136.24375 164.91 136.8625 164.1875 137.5 C159.12973038 141.23835145 154.54549498 142.16232715 148.3125 141.625 C140.01725161 139.56326836 134.67549386 134.84072061 130.3125 127.625 C129.61125 128.553125 128.91 129.48125 128.1875 130.4375 C125.7490719 133.66483132 123.04318344 135.10227207 119.3125 136.625 C113.49668239 137.36616619 106.74065267 137.86879966 101.375 135.125 C97.53105258 131.98708374 94.40275929 128.49486878 91.3125 124.625 C90.65894531 125.54732422 90.65894531 125.54732422 89.9921875 126.48828125 C83.60661765 135.15441176 83.60661765 135.15441176 78.3125 136.625 C70.63540139 137.40878755 63.6107611 137.49968154 57.3125 132.625 C49.33587413 125.43146754 48.02788718 117.57677877 47.42578125 107.1875 C47.36970703 105.9190625 47.36970703 105.9190625 47.3125 104.625 C46.91309204 105.37221313 46.91309204 105.37221313 46.50561523 106.13452148 C32.6252816 131.9686092 32.6252816 131.9686092 23.3125 136.625 C14.84982328 137.15495236 8.80757528 133.76258366 2.3125 128.625 C0.38034518 126.70120948 -1.10740529 124.858927 -2.6875 122.625 C-3.13480469 123.22828125 -3.58210938 123.8315625 -4.04296875 124.453125 C-11.15961414 133.86105707 -11.15961414 133.86105707 -16.6875 136.625 C-23.93276619 137.29057563 -30.96541719 137.86541179 -37.00390625 133.3203125 C-42.83557703 127.44805004 -45.76391473 121.59757896 -46.0625 113.375 C-45.88266759 98.46689344 -38.27852538 80.80705075 -31.6875 67.625 C-35.1525 68.12 -35.1525 68.12 -38.6875 68.625 C-39.4375 66.375 -39.4375 66.375 -39.6875 63.625 C-37.84304062 61.33532629 -36.31387553 59.93818776 -33.6875 58.625 C-31.3545134 58.58477609 -29.02043334 58.58179753 -26.6875 58.625 C-26.44966797 57.80322266 -26.44966797 57.80322266 -26.20703125 56.96484375 C-24.82959005 52.28458773 -23.35682376 47.66416193 -21.73779297 43.06103516 C-19.48678296 36.60748876 -17.86555283 30.50431408 -17.6875 23.625 C-22.59718449 24.0458301 -24.50248598 25.97388636 -27.6875 29.625 C-28.13867188 30.13546875 -28.58984375 30.6459375 -29.0546875 31.171875 C-52.31710245 59.58974408 -59.97482355 105.07466132 -62.6875 140.625 C-61.07101563 140.54572266 -61.07101563 140.54572266 -59.421875 140.46484375 C-54.7492375 140.66523929 -53.43347659 141.74867308 -50.19921875 144.859375 C-46.15560321 149.58215077 -45.1974639 154.51132669 -45.3828125 160.53515625 C-45.79964826 163.39422207 -46.93374778 165.35973671 -48.6875 167.625 C-50.875 167.4375 -50.875 167.4375 -53.6875 166.625 C-54.6775 165.4184375 -54.6775 165.4184375 -55.6875 164.1875 C-63.90129954 157.17154622 -78.44466964 159.49687668 -88.57299805 159.78588867 C-98.78938848 159.97722384 -98.78938848 159.97722384 -103.6875 156.625 C-104.6875 155.625 -104.6875 155.625 -104.75 153.0625 C-104.7190625 151.8559375 -104.7190625 151.8559375 -104.6875 150.625 C-97.09222995 147.15211911 -89.98135354 144.71887438 -81.6875 143.625 C-81.84734375 142.8928125 -82.0071875 142.160625 -82.171875 141.40625 C-88.34501625 108.10870025 -69.74435056 55.72002542 -51.40234375 28.07421875 C-50.83644531 27.26597656 -50.27054688 26.45773437 -49.6875 25.625 C-50.28175781 25.68558594 -50.87601563 25.74617187 -51.48828125 25.80859375 C-53.24165286 25.98583971 -54.99561955 26.15725356 -56.75 26.32421875 C-58.71174371 26.52508878 -60.67054837 26.75703176 -62.625 27.01953125 C-69.99310578 27.93053346 -69.99310578 27.93053346 -73.8125 26.25 C-74.79315845 25.40009601 -75.76988685 24.54261315 -76.6875 23.625 C-76.72813832 21.95882885 -76.730221 20.29111905 -76.6875 18.625 C-68.77165368 14.14049144 -60.50760936 11.42252144 -51.85839844 8.76782227 C-49.58467484 8.06931233 -47.31561341 7.35709299 -45.046875 6.64257812 C-10.84679844 -4.04456891 -10.84679844 -4.04456891 0 0 Z M45.625 75.6875 C33.35453378 88.49965667 24.42826114 107.07877402 22.3125 124.625 C26.40147141 120.72394088 29.88660971 116.55253619 33.3125 112.0625 C33.87138916 111.33015137 34.43027832 110.59780273 35.00610352 109.84326172 C50.66441613 91.16899195 50.66441613 91.16899195 59.3125 69.625 C53.44890212 69.625 49.90421126 71.84583591 45.625 75.6875 Z M48.3125 100.625 C49.3125 102.625 49.3125 102.625 49.3125 102.625 Z " fill="#000000" transform="translate(197.6875,736.375)"/>
<path d="M0 0 C1.94193237 -0.03359619 1.94193237 -0.03359619 3.9230957 -0.06787109 C17.65068816 -0.03469368 32.18244863 3.04779058 42.62890625 12.54296875 C51.53054752 22.06756098 54.88596923 32.24187248 54.6171875 45.203125 C53.10121719 61.29573287 38.82888108 74.32040411 27.3125 84.4375 C11.27700964 97.50503675 -8.2074687 110.19881133 -27.6875 117.4375 C-26.66011719 117.9221875 -25.63273438 118.406875 -24.57421875 118.90625 C-10.07391379 125.86779992 3.38183849 133.64216785 10.43359375 148.79296875 C12.54060639 155.13273567 12.23825072 162.27085418 9.53515625 168.40625 C1.49227884 181.76821886 -11.32470816 188.00973487 -25.6875 192.4375 C-26.33589844 192.63859375 -26.98429688 192.8396875 -27.65234375 193.046875 C-36.15842191 194.67951956 -44.90250048 194.41927108 -52.45703125 190.015625 C-56.12129626 187.4230452 -59.46627332 184.55975044 -62.6875 181.4375 C-65.72153188 185.98854782 -65.82623157 190.05472493 -65.8125 195.4375 C-65.81507813 196.448125 -65.81765625 197.45875 -65.8203125 198.5 C-65.69576727 201.25464744 -65.30860865 203.75588803 -64.6875 206.4375 C-68.40778601 208.91769067 -71.37795326 208.9634683 -75.6875 208.4375 C-80.37816739 206.53889653 -83.91843166 202.62440746 -86.6875 198.4375 C-86.6875 197.4475 -86.6875 196.4575 -86.6875 195.4375 C-87.6775 195.1075 -88.6675 194.7775 -89.6875 194.4375 C-93.89719126 188.44678552 -94.43904035 182.58608024 -93.6875 175.4375 C-84.53189739 132.50893472 -57.63869319 85.56161349 -30.6875 51.4375 C-30.12160156 50.71691406 -29.55570313 49.99632812 -28.97265625 49.25390625 C-25.40221495 44.88397682 -22.41090871 41.76430905 -16.5625 41.0625 C-13.29959456 41.48809636 -12.6486964 41.8996698 -10.6875 44.4375 C-9.47767049 50.49112014 -11.15447333 55.90536006 -13.625 61.375 C-13.95693359 62.13917236 -14.28886719 62.90334473 -14.63085938 63.69067383 C-21.08710276 78.19109951 -28.4954582 92.29225294 -35.6875 106.4375 C-29.58887191 101.88463307 -23.57786452 97.25838493 -17.6875 92.4375 C-16.17929687 91.21160156 -16.17929687 91.21160156 -14.640625 89.9609375 C13.40728125 67.67555426 13.40728125 67.67555426 28.875 36.75 C28.65466219 33.24233132 28.65466219 33.24233132 25.72265625 31.33984375 C9.92476068 22.5270429 -9.54181427 26.45659394 -25.99511719 31.08691406 C-54.86056831 39.70515175 -93.22413923 55.12622279 -109.57421875 82.328125 C-113.04587422 88.90599852 -114.8697346 94.90573575 -113.6875 102.4375 C-112.28662251 105.2588337 -112.28662251 105.2588337 -109.6875 106.4375 C-105.80570296 106.52009143 -104.15592943 105.83408892 -101.19140625 103.32421875 C-97.98347933 99.62584434 -96.54219391 95.80354753 -94.83984375 91.2578125 C-94.19533794 89.62041936 -93.44774882 88.02446747 -92.6875 86.4375 C-91.6975 86.1075 -90.7075 85.7775 -89.6875 85.4375 C-84.09449289 88.88925125 -79.18903492 94.33923078 -76.6875 100.4375 C-76.52674016 104.53687601 -77.25452084 105.91792501 -79.875 109.0625 C-81.2671875 110.238125 -81.2671875 110.238125 -82.6875 111.4375 C-83.9559375 112.5203125 -83.9559375 112.5203125 -85.25 113.625 C-93.66157749 118.06019541 -102.71164009 118.19220591 -111.6875 115.4375 C-120.36885201 112.22552875 -126.76239043 107.09939337 -131.6875 99.25 C-134.89564159 87.01896017 -132.18459618 74.13764564 -126 63.25 C-105.06167294 31.1305008 -69.00904983 12.59043644 -32.6875 3.4375 C-31.69000732 3.17283936 -31.69000732 3.17283936 -30.67236328 2.90283203 C-20.56979778 0.30840887 -10.37571862 0.10938188 0 0 Z M-45.6875 125.4375 C-47.31826793 129.45601766 -48.94107494 133.47770451 -50.5625 137.5 C-51.02269531 138.63373047 -51.48289062 139.76746094 -51.95703125 140.93554688 C-54.14973314 146.38552332 -56.24816189 151.73805195 -57.6875 157.4375 C-57.11773438 157.27765625 -56.54796875 157.1178125 -55.9609375 156.953125 C-49.59712007 155.50978497 -44.31152911 155.97655901 -38.6875 159.4375 C-38.6875 160.4275 -38.6875 161.4175 -38.6875 162.4375 C-39.244375 162.47875 -39.80125 162.52 -40.375 162.5625 C-44.70815497 164.20207215 -47.04227396 168.11632286 -49 172.125 C-49.82998513 174.51467945 -49.82998513 174.51467945 -49.6875 177.4375 C-43.51459926 176.96797287 -39.0221262 175.54880699 -33.5625 172.6875 C-32.88574219 172.35234375 -32.20898438 172.0171875 -31.51171875 171.671875 C-23.32980086 167.49387438 -17.89610479 162.09075605 -13.375 154.125 C-11.95287215 148.56577296 -11.60178694 143.50427907 -14.30859375 138.3515625 C-21.03205794 130.11559487 -33.61342557 127.05985861 -43.6875 125.4375 C-44.3475 125.4375 -45.0075 125.4375 -45.6875 125.4375 Z " fill="#000000" transform="translate(663.6875,821.5625)"/>
<path d="M0 0 C4.76692211 2.67978324 8.78100332 6.04565209 12.890625 9.625 C13.97386933 10.41678845 15.05718882 11.20847409 16.140625 12 C20.02561866 15.70840304 22.40550387 19.89667219 24.890625 24.625 C25.23480469 25.23988281 25.57898437 25.85476563 25.93359375 26.48828125 C29.87772459 34.83946909 28.94829805 46.32825218 26.265625 54.9375 C22.34965748 65.05603145 16.91890097 73.40978559 9.890625 81.625 C9.26285156 82.3984375 8.63507813 83.171875 7.98828125 83.96875 C-0.77719262 94.43712779 -14.24422185 104.45259953 -28.22265625 105.9609375 C-34.73070159 106.04040081 -39.61726558 105.59109928 -45.40234375 102.5 C-47.0863052 101.47294958 -47.0863052 101.47294958 -49.109375 101.625 C-52.9404505 111.8459136 -56.9040696 122.62268295 -54.484375 133.6875 C-52.87462298 137.12651568 -51.2974425 138.60329866 -48.109375 140.625 C-35.69953515 144.76161328 -20.79409589 139.49448869 -9.4765625 134.33984375 C17.82447918 120.43594897 36.51230633 95.37823854 52.19921875 69.90234375 C54.61925963 66.01545287 57.08590611 62.24756144 59.890625 58.625 C60.550625 58.625 61.210625 58.625 61.890625 58.625 C64.31905347 88.37324872 39.2917309 124.13354101 21.078125 145.75 C19.36835753 147.727049 17.63428592 149.67735311 15.890625 151.625 C15.313125 152.28628906 14.735625 152.94757813 14.140625 153.62890625 C-0.50692953 169.41164625 -21.34403272 178.8586174 -42.52734375 180.96484375 C-54.91123332 181.36535764 -65.98666729 177.43008545 -75.234375 169.3125 C-76.87407046 167.76542856 -78.50046608 166.20406407 -80.109375 164.625 C-80.67785156 164.08101562 -81.24632812 163.53703125 -81.83203125 162.9765625 C-92.85737265 151.3926038 -96.63994849 134.9880605 -96.45678711 119.47607422 C-95.23866329 81.08306273 -73.83791576 38.8175295 -46.609375 12.15625 C-33.21925119 -0.39699107 -17.6979914 -8.1540484 0 0 Z M-1.65283203 27.7878418 C-15.069498 41.24564124 -25.30000209 56.40679009 -35.109375 72.625 C-35.5439502 73.34155762 -35.97852539 74.05811523 -36.42626953 74.79638672 C-39.96401257 80.60437729 -39.96401257 80.60437729 -43.109375 86.625 C-42.779375 87.285 -42.449375 87.945 -42.109375 88.625 C-35.3243874 86.83451716 -30.39455964 84.22584798 -25.109375 79.625 C-24.13871094 78.79548828 -24.13871094 78.79548828 -23.1484375 77.94921875 C-9.1964222 65.07255641 0.01139278 44.7110002 4.890625 26.625 C4.890625 25.635 4.890625 24.645 4.890625 23.625 C1.77450176 23.625 0.46762696 25.72286522 -1.65283203 27.7878418 Z " fill="#000000" transform="translate(1204.109375,1044.375)"/>
<path d="M0 0 C2.30597692 1.22801168 4.40335033 2.57568364 6.53125 4.08984375 C7.47291016 4.70666016 7.47291016 4.70666016 8.43359375 5.3359375 C14.60401055 9.88611357 18.45027531 17.03979406 20.04296875 24.48046875 C20.65465251 36.20792296 13.53759807 46.33464698 6.20703125 54.76171875 C0.1646532 61.17403831 -7.33485043 67.37092364 -16.484375 68.29296875 C-21.9558599 68.40775515 -25.59125908 67.58047741 -30.46875 65.08984375 C-32.30786422 71.98652208 -33.4658077 78.94962411 -32.46875 86.08984375 C-30.47021018 88.83410739 -29.49904817 89.08198867 -26.09375 89.96484375 C-12.69312562 91.12049393 -0.83319225 84.18089255 9.09375 75.96484375 C19.555391 66.93159561 26.9834532 56.24972573 34.2421875 44.59204102 C34.77070312 43.75084717 35.29921875 42.90965332 35.84375 42.04296875 C36.54951172 40.90069824 36.54951172 40.90069824 37.26953125 39.73535156 C37.68589844 39.19233398 38.10226562 38.64931641 38.53125 38.08984375 C39.19125 38.08984375 39.85125 38.08984375 40.53125 38.08984375 C42.2132911 56.5922959 26.89902363 78.14566015 16.09375 91.83984375 C5.2542689 104.73956869 -7.40572665 113.47277776 -24.4921875 115.4375 C-33.90013545 115.74055715 -41.14736153 113.17082217 -48.39453125 107.17578125 C-55.32540057 100.20575448 -59.76376015 90.36848699 -59.98876953 80.54736328 C-59.78044364 56.27485667 -49.49431009 33.90336017 -34.46875 15.08984375 C-33.66050781 14.06246094 -32.85226562 13.03507813 -32.01953125 11.9765625 C-29.51003864 9.1365701 -27.04687316 7.03603274 -23.96875 4.83984375 C-23.0509375 4.1746875 -22.133125 3.50953125 -21.1875 2.82421875 C-14.65992801 -1.339922 -7.43960142 -2.74276445 0 0 Z M-2.46875 21.08984375 C-4.24042504 23.06023748 -5.90138015 25.00976193 -7.53125 27.08984375 C-7.99442627 27.67781738 -8.45760254 28.26579102 -8.93481445 28.87158203 C-15.22490851 37.09539474 -20.31978328 46.12627513 -25.46875 55.08984375 C-22.66190496 56.37907512 -22.66190496 56.37907512 -20.70703125 55.41015625 C-8.86391813 48.05925845 -1.62233098 36.20215302 2.4765625 23.05859375 C3.10078594 20.43239902 3.10078594 20.43239902 3.53125 17.08984375 C1.25941384 17.08984375 -0.89629016 19.73373654 -2.46875 21.08984375 Z " fill="#000000" transform="translate(745.46875,897.91015625)"/>
<path d="M0 0 C3.91909243 2.00123869 4.41418236 3.36655332 5.9375 7.5 C6.35318903 11.3399227 6.31450928 15.14152037 6.25 19 C6.2394458 20.0933667 6.2288916 21.1867334 6.21801758 22.31323242 C6.09822127 29.83112831 5.73871532 37.31897907 5.125 44.8125 C5.05514893 45.7303125 4.98529785 46.648125 4.91333008 47.59375 C4.17814514 55.33038269 4.17814514 55.33038269 0.9375 58.5 C-5.05721962 57.9898111 -9.68069783 56.12166692 -15.0625 53.5 C-15.80371094 53.15453125 -16.54492188 52.8090625 -17.30859375 52.453125 C-20.75103877 50.81085765 -23.54955533 49.44646436 -26.0625 46.5 C-28.36630908 39.58857275 -27.10141717 32.96681574 -24.0625 26.5 C-22.89155957 25.04423622 -21.71597993 23.58833166 -20.4453125 22.21875 C-18.66350727 20.00407684 -17.445116 17.64082315 -16.125 15.125 C-7.45250967 -1.21673627 -7.45250967 -1.21673627 0 0 Z M-4.0625 11.5 C-5.46820868 13.58330187 -6.80894097 15.67361996 -8.125 17.8125 C-8.69057617 18.70485352 -8.69057617 18.70485352 -9.26757812 19.61523438 C-11.54324344 23.27720726 -11.54324344 23.27720726 -12.0625 27.5 C-12.7225 27.5 -13.3825 27.5 -14.0625 27.5 C-17.10407942 32.72771463 -18.56860724 36.42671312 -18.0625 42.5 C-16.64771865 43.14995297 -15.23058513 43.79478722 -13.8125 44.4375 C-13.02359375 44.79714844 -12.2346875 45.15679687 -11.421875 45.52734375 C-9.30426302 46.40033279 -7.29580638 47.01338508 -5.0625 47.5 C-2.99048166 35.45639339 -2.83342044 23.69584332 -3.0625 11.5 C-3.3925 11.5 -3.7225 11.5 -4.0625 11.5 Z " fill="#000000" transform="translate(781.0625,188.5)"/>
<path d="M0 0 C1 1 1 1 1.2265625 4.203125 C1.13949469 10.51132862 -0.31359827 16.60402774 -1.625 22.75 C-1.86089844 23.94882812 -2.09679687 25.14765625 -2.33984375 26.3828125 C-4.25633844 35.44439254 -6.9995878 45.58799466 -13.875 52.25 C-17.78241838 54.43815429 -20.62692182 55.0976252 -25 54 C-28.7999178 51.8740548 -31.40576151 49.05412685 -33 45 C-34.60815835 33.11655618 -30.99586087 21.40227068 -24.23046875 11.59765625 C-18.84279598 4.60223351 -8.93479862 -4.23227303 0 0 Z M-10 10 C-18.17216286 15.720514 -21.67725269 23.95335586 -24.4375 33.375 C-25.042878 37.2763249 -24.99332216 40.17953017 -24 44 C-23.01 44.66 -22.02 45.32 -21 46 C-13.74718799 39.92331966 -12.81336064 31.54043845 -10.75 22.6875 C-10.56236084 21.89835205 -10.37472168 21.1092041 -10.18139648 20.29614258 C-10.01325439 19.54228271 -9.8451123 18.78842285 -9.671875 18.01171875 C-9.5181543 17.33584717 -9.36443359 16.65997559 -9.20605469 15.96362305 C-8.9728266 13.74104781 -9.3426224 12.1216714 -10 10 Z " fill="#000000" transform="translate(982,491)"/>
<path d="M0 0 C3.8996139 3.16843629 3.8996139 3.16843629 4.40625 5.47265625 C4.73917641 13.33804273 1.31641971 17.66509586 -3.5703125 23.5 C-9.96615775 30.4211079 -18.8623728 36.72254139 -28.37890625 37.92578125 C-33.06120586 37.95090987 -36.28474409 37.79389475 -40 34.625 C-43.22487728 30.95531206 -43.56081617 27.43466408 -43.42578125 22.72265625 C-42.4120836 15.34777336 -40.33581812 5.0154045 -35 -0.375 C-31.875 -0.6875 -31.875 -0.6875 -29 -0.375 C-28.67 -0.045 -28.34 0.285 -28 0.625 C-26.41305659 0.56034675 -24.8288284 0.42283033 -23.25 0.25 C-21.88101563 0.10111328 -21.88101563 0.10111328 -20.484375 -0.05078125 C-17.98389656 -0.33860458 -17.98389656 -0.33860458 -15.5 -0.9375 C-10.20403076 -1.86429462 -4.94351316 -2.26577686 0 0 Z M-20.55859375 9.1796875 C-24.09284131 9.82433426 -27.41639783 9.75772601 -31 9.625 C-33.3030887 16.19154456 -34.33693273 21.66172362 -34 28.625 C-25.06833731 29.43696934 -19.52815237 25.86752713 -12.75 20.3125 C-9.01156466 16.91052384 -6.28483354 13.12875841 -4 8.625 C-4 8.295 -4 7.965 -4 7.625 C-9.8366717 7.43672027 -14.86939085 7.91542019 -20.55859375 9.1796875 Z " fill="#000000" transform="translate(757,137.375)"/>
</svg>
