<svg xmlns="http://www.w3.org/2000/svg" xmlns:xlink="http://www.w3.org/1999/xlink" width="794" zoomAndPan="magnify" viewBox="0 0 594.95996 595.499999" height="794" preserveAspectRatio="xMidYMid meet" version="1.0"><defs><clipPath id="6e52e0f380"><path d="M 0.230469 0 L 594.691406 0 L 594.691406 595 L 0.230469 595 Z M 0.230469 0 " clip-rule="nonzero"/></clipPath><clipPath id="592c920526"><path d="M 97 96 L 496 96 L 496 496 L 97 496 Z M 97 96 " clip-rule="nonzero"/></clipPath><clipPath id="255fafde3a"><path d="M 97.175781 295.894531 C 97.175781 405.628906 186.5625 495.015625 296.296875 495.015625 C 406.035156 495.015625 495.417969 405.628906 495.417969 295.894531 C 495.417969 186.15625 406.035156 96.972656 296.296875 96.972656 C 186.5625 96.972656 97.175781 186.15625 97.175781 295.894531 " clip-rule="nonzero"/></clipPath><clipPath id="fe0324792c"><path d="M 0.109375 0.878906 L 398.652344 0.878906 L 398.652344 399.183594 L 0.109375 399.183594 Z M 0.109375 0.878906 " clip-rule="nonzero"/></clipPath><clipPath id="0d4d2b5998"><path d="M 0.175781 199.894531 C 0.175781 309.628906 89.5625 399.015625 199.296875 399.015625 C 309.035156 399.015625 398.417969 309.628906 398.417969 199.894531 C 398.417969 90.15625 309.035156 0.972656 199.296875 0.972656 C 89.5625 0.972656 0.175781 90.15625 0.175781 199.894531 " clip-rule="nonzero"/></clipPath><clipPath id="2ee0933abb"><rect x="0" width="399" y="0" height="400"/></clipPath><clipPath id="12f6e52870"><path d="M 279.867188 183 L 401 183 L 401 400 L 279.867188 400 Z M 279.867188 183 " clip-rule="nonzero"/></clipPath><clipPath id="f04d590c23"><path d="M 393.664062 261.777344 C 400.246094 280.53125 401.644531 302.277344 399.050781 322.03125 C 397.851562 330.808594 395.660156 339.191406 392.066406 347.371094 C 388.078125 356.347656 382.089844 364.128906 377.101562 372.511719 C 372.113281 380.890625 367.726562 388.472656 358.945312 393.460938 C 355.355469 395.453125 350.964844 398.046875 346.777344 399.046875 C 344.980469 399.445312 338.59375 399.644531 336.601562 398.046875 C 330.613281 393.261719 342.1875 379.691406 345.578125 376.5 C 352.363281 369.71875 357.351562 362.933594 362.140625 354.554688 C 381.890625 320.035156 390.070312 276.941406 366.328125 242.023438 C 356.75 228.058594 343.78125 215.089844 327.621094 208.902344 C 318.84375 205.511719 310.261719 205.511719 301.085938 204.714844 C 296.496094 204.3125 277.542969 202.917969 280.136719 195.335938 C 283.527344 185.757812 299.488281 184.363281 307.871094 183.765625 C 317.84375 182.964844 328.019531 184.164062 337.597656 187.15625 C 347.175781 190.148438 356.953125 194.9375 364.132812 201.921875 C 371.714844 209.101562 376.304688 218.878906 381.09375 228.058594 C 386.679688 238.832031 390.070312 250.402344 393.664062 261.777344 " clip-rule="nonzero"/></clipPath><clipPath id="bb39cd778c"><path d="M 0.867188 0 L 122 0 L 122 216.746094 L 0.867188 216.746094 Z M 0.867188 0 " clip-rule="nonzero"/></clipPath><clipPath id="7b850ae8e2"><path d="M 114.664062 78.777344 C 121.246094 97.53125 122.644531 119.277344 120.050781 139.03125 C 118.851562 147.808594 116.660156 156.191406 113.066406 164.371094 C 109.078125 173.347656 103.089844 181.128906 98.101562 189.511719 C 93.113281 197.890625 88.726562 205.472656 79.945312 210.460938 C 76.355469 212.453125 71.964844 215.046875 67.777344 216.046875 C 65.980469 216.445312 59.59375 216.644531 57.601562 215.046875 C 51.613281 210.261719 63.1875 196.691406 66.578125 193.5 C 73.363281 186.71875 78.351562 179.933594 83.140625 171.554688 C 102.890625 137.035156 111.070312 93.941406 87.328125 59.023438 C 77.75 45.058594 64.78125 32.089844 48.621094 25.902344 C 39.84375 22.511719 31.261719 22.511719 22.085938 21.714844 C 17.496094 21.3125 -1.457031 19.917969 1.136719 12.335938 C 4.527344 2.757812 20.488281 1.363281 28.871094 0.765625 C 38.84375 -0.0351562 49.019531 1.164062 58.597656 4.15625 C 68.175781 7.148438 77.953125 11.9375 85.132812 18.921875 C 92.714844 26.101562 97.304688 35.878906 102.09375 45.058594 C 107.679688 55.832031 111.070312 67.402344 114.664062 78.777344 " clip-rule="nonzero"/></clipPath><clipPath id="b4511ab941"><rect x="0" width="122" y="0" height="217"/></clipPath><clipPath id="c356f0ab4c"><path d="M 261.191406 254.050781 L 320 254.050781 L 320 360 L 261.191406 360 Z M 261.191406 254.050781 " clip-rule="nonzero"/></clipPath><clipPath id="842e21e881"><path d="M 318.84375 295.695312 C 324.03125 324.226562 305.675781 346.972656 283.925781 357.945312 C 281.132812 359.34375 276.144531 361.734375 273.550781 356.949219 C 271.15625 352.558594 272.753906 347.96875 276.144531 344.976562 C 284.125 337.992188 293.105469 332.207031 298.691406 322.828125 C 307.667969 307.867188 304.675781 292.503906 290.710938 281.929688 C 283.128906 276.339844 274.949219 271.953125 265.96875 268.960938 C 262.578125 267.761719 261.78125 264.96875 261.78125 261.976562 C 261.78125 258.382812 263.574219 255.789062 267.167969 254.992188 C 284.125 251.003906 307.667969 264.171875 314.054688 280.730469 C 316.050781 285.71875 318.246094 290.707031 318.644531 296.09375 " clip-rule="nonzero"/></clipPath><clipPath id="d716ecf508"><path d="M 0.609375 0.0507812 L 59 0.0507812 L 59 106 L 0.609375 106 Z M 0.609375 0.0507812 " clip-rule="nonzero"/></clipPath><clipPath id="c6875b689f"><path d="M 57.84375 41.695312 C 63.03125 70.226562 44.675781 92.972656 22.925781 103.945312 C 20.132812 105.34375 15.144531 107.734375 12.550781 102.949219 C 10.15625 98.558594 11.753906 93.96875 15.144531 90.976562 C 23.125 83.992188 32.105469 78.207031 37.691406 68.828125 C 46.667969 53.867188 43.675781 38.503906 29.710938 27.929688 C 22.128906 22.339844 13.949219 17.953125 4.96875 14.960938 C 1.578125 13.761719 0.78125 10.96875 0.78125 7.976562 C 0.78125 4.382812 2.574219 1.789062 6.167969 0.992188 C 23.125 -2.996094 46.667969 10.171875 53.054688 26.730469 C 55.050781 31.71875 57.246094 36.707031 57.644531 42.09375 " clip-rule="nonzero"/></clipPath><clipPath id="0ff6a11a02"><rect x="0" width="59" y="0" height="106"/></clipPath><clipPath id="4cab576180"><path d="M 183 286 L 247 286 L 247 349 L 183 349 Z M 183 286 " clip-rule="nonzero"/></clipPath><clipPath id="0cd167b8bf"><path d="M 219.480469 347.769531 C 201.523438 350.363281 186.160156 339.390625 183.765625 322.230469 C 181.375 305.070312 190.949219 288.910156 205.316406 286.914062 C 222.875 284.523438 243.824219 297.089844 245.820312 311.257812 C 247.8125 325.421875 233.050781 345.773438 219.679688 347.769531 M 209.304688 302.476562 C 201.523438 303.476562 196.136719 311.058594 197.335938 319.636719 C 199.128906 332.605469 219.480469 337.59375 226.863281 326.820312 C 235.242188 314.25 222.675781 300.683594 209.304688 302.476562 " clip-rule="nonzero"/></clipPath><clipPath id="3ce2133c77"><path d="M 0 0 L 64 0 L 64 63 L 0 63 Z M 0 0 " clip-rule="nonzero"/></clipPath><clipPath id="b0ef302f67"><path d="M 36.480469 61.769531 C 18.523438 64.363281 3.160156 53.390625 0.765625 36.230469 C -1.625 19.070312 7.949219 2.910156 22.316406 0.914062 C 39.875 -1.476562 60.824219 11.089844 62.820312 25.257812 C 64.8125 39.421875 50.050781 59.773438 36.679688 61.769531 M 26.304688 16.476562 C 18.523438 17.476562 13.136719 25.058594 14.335938 33.636719 C 16.128906 46.605469 36.480469 51.59375 43.863281 40.820312 C 52.242188 28.25 39.675781 14.683594 26.304688 16.476562 " clip-rule="nonzero"/></clipPath><clipPath id="f1d19bf267"><rect x="0" width="64" y="0" height="63"/></clipPath></defs><g clip-path="url(#6e52e0f380)"><path fill="#ffffff" d="M 0.230469 0 L 595.230469 0 L 595.230469 595 L 0.230469 595 Z M 0.230469 0 " fill-opacity="1" fill-rule="nonzero"/><path fill="#ffffff" d="M 0.230469 0 L 595.230469 0 L 595.230469 595 L 0.230469 595 Z M 0.230469 0 " fill-opacity="1" fill-rule="nonzero"/></g><g clip-path="url(#592c920526)"><g clip-path="url(#255fafde3a)"><g transform="matrix(1, 0, 0, 1, 97, 96)"><g clip-path="url(#2ee0933abb)"><g clip-path="url(#fe0324792c)"><g clip-path="url(#0d4d2b5998)"><rect x="-227.891191" width="856.742342" fill="#1d5da7" height="857.519999" y="-227.01" fill-opacity="1"/></g></g></g></g></g></g><g clip-path="url(#12f6e52870)"><g clip-path="url(#f04d590c23)"><g transform="matrix(1, 0, 0, 1, 279, 183)"><g clip-path="url(#b4511ab941)"><g clip-path="url(#bb39cd778c)"><g clip-path="url(#7b850ae8e2)"><rect x="-409.891191" width="856.742342" fill="#ffffff" height="857.519999" y="-314.01" fill-opacity="1"/></g></g></g></g></g></g><g clip-path="url(#c356f0ab4c)"><g clip-path="url(#842e21e881)"><g transform="matrix(1, 0, 0, 1, 261, 254)"><g clip-path="url(#0ff6a11a02)"><g clip-path="url(#d716ecf508)"><g clip-path="url(#c6875b689f)"><rect x="-391.891191" width="856.742342" fill="#ffffff" height="857.519999" y="-385.01" fill-opacity="1"/></g></g></g></g></g></g><g clip-path="url(#4cab576180)"><g clip-path="url(#0cd167b8bf)"><g transform="matrix(1, 0, 0, 1, 183, 286)"><g clip-path="url(#f1d19bf267)"><g clip-path="url(#3ce2133c77)"><g clip-path="url(#b0ef302f67)"><rect x="-313.891191" width="856.742342" fill="#ffffff" height="857.519999" y="-417.01" fill-opacity="1"/></g></g></g></g></g></g></svg>