<?xml version="1.0" standalone="no"?>
<!DOCTYPE svg PUBLIC "-//W3C//DTD SVG 20010904//EN"
 "http://www.w3.org/TR/2001/REC-SVG-20010904/DTD/svg10.dtd">
<svg version="1.0" xmlns="http://www.w3.org/2000/svg"
 width="2230.000000pt" height="865.000000pt" viewBox="0 0 2230.000000 865.000000"
 preserveAspectRatio="xMidYMid meet">

<g transform="translate(0.000000,865.000000) scale(0.100000,-0.100000)"
fill="#000000" stroke="none">
<path d="M4916 8243 c-12 -101 -47 -221 -101 -351 -55 -130 -78 -225 -91 -377
-6 -66 -14 -93 -49 -161 -76 -148 -233 -343 -347 -432 -148 -115 -227 -208
-306 -360 -24 -45 -46 -82 -50 -82 -18 0 -82 48 -132 99 -70 71 -124 174 -149
282 -11 46 -34 122 -51 169 -56 152 -60 170 -75 364 -15 191 -33 283 -59 305
-10 9 -13 31 -9 95 5 74 3 89 -19 138 -45 97 -138 149 -300 167 -46 5 -119 21
-163 36 -99 33 -149 30 -265 -16 -190 -75 -762 -426 -1045 -641 l-110 -84 -12
-84 c-7 -50 -21 -103 -35 -128 -21 -39 -22 -44 -8 -70 23 -40 57 -54 119 -48
73 7 114 37 206 150 78 98 118 136 141 136 7 0 38 -30 67 -67 75 -94 118 -132
163 -148 72 -25 134 25 134 110 l0 39 45 -44 c24 -24 52 -59 61 -79 17 -34 16
-36 -10 -86 -38 -73 -96 -147 -234 -297 -196 -215 -250 -293 -272 -393 -23
-103 29 -171 171 -222 46 -17 111 -36 144 -43 96 -20 92 -13 97 -148 5 -139
18 -172 69 -172 51 0 99 68 127 182 7 26 23 120 37 210 33 224 46 262 96 295
32 21 54 27 96 27 49 1 58 -2 82 -30 18 -20 34 -56 45 -100 36 -147 41 -158
69 -174 25 -14 30 -13 64 5 45 24 71 73 82 151 9 66 8 66 47 -65 35 -119 65
-159 155 -211 129 -76 185 -158 159 -234 -14 -44 -43 -70 -115 -101 -210 -92
-213 -94 -315 -294 -80 -155 -95 -174 -189 -241 -96 -68 -264 -269 -326 -391
-13 -25 -29 -76 -35 -113 -12 -68 -19 -76 -39 -52 -6 8 -35 24 -64 36 -46 20
-63 22 -152 17 -175 -10 -308 -57 -352 -124 -29 -44 -25 -221 6 -291 28 -61
52 -82 98 -82 28 0 48 14 127 90 52 50 102 90 110 90 11 0 22 -23 36 -72 51
-178 84 -276 105 -319 30 -59 94 -116 140 -125 101 -19 302 45 387 123 l26 25
44 -30 c86 -59 234 -124 426 -189 343 -114 534 -194 660 -277 49 -32 68 -52
88 -92 62 -126 49 -332 -26 -439 -16 -22 -43 -85 -61 -140 -50 -156 -76 -198
-133 -211 -125 -27 -246 -133 -246 -216 0 -55 -106 -235 -188 -320 -25 -26
-62 -78 -81 -115 -37 -71 -45 -76 -124 -88 -54 -9 -111 -63 -136 -130 -21 -55
-41 -186 -41 -263 0 -35 -8 -55 -37 -95 -33 -44 -38 -59 -41 -117 -2 -38 3
-101 12 -145 20 -99 20 -149 0 -166 -25 -21 -98 24 -161 101 -160 192 -168
300 -63 800 80 378 92 451 97 595 9 230 -14 297 -157 450 -119 128 -197 233
-234 314 -24 54 -28 73 -23 121 6 67 22 102 91 195 77 102 79 108 62 149 -18
43 -66 75 -276 182 -119 60 -167 91 -208 131 -30 30 -62 53 -75 54 -12 0 -69
2 -127 2 -93 2 -111 5 -162 30 -83 41 -135 99 -202 227 -33 61 -85 151 -116
198 -94 145 -135 176 -176 135 -14 -15 -16 -31 -10 -121 4 -67 3 -101 -3 -98
-16 10 -108 168 -161 274 -119 241 -184 433 -219 647 -12 72 -31 161 -42 200
-40 135 -117 259 -197 320 -49 38 -72 44 -72 19 0 -12 -6 -15 -24 -10 -22 5
-27 -2 -84 -147 -170 -428 -262 -899 -279 -1427 -6 -201 11 -447 48 -710 194
-1366 1019 -2404 2364 -2978 481 -205 765 -272 1294 -303 411 -25 932 32 1356
147 954 260 1752 831 2289 1639 323 485 509 988 595 1606 23 164 44 450 39
524 l-3 50 -160 109 c-88 60 -231 158 -317 217 -195 136 -217 146 -256 130
-17 -7 -36 -26 -43 -42 -32 -79 51 -181 219 -270 57 -29 117 -66 135 -80 29
-24 30 -27 15 -48 -9 -13 -40 -41 -70 -64 -108 -82 -223 -116 -325 -98 -134
25 -206 89 -343 306 -142 227 -173 260 -219 235 -38 -20 -52 -127 -30 -232 38
-182 223 -357 434 -413 33 -8 100 -18 149 -22 l89 -6 -6 -72 c-8 -87 -46 -212
-86 -280 -16 -27 -57 -81 -91 -120 -126 -143 -183 -236 -196 -321 -4 -27 2
-76 16 -141 31 -138 26 -159 -57 -236 -78 -75 -97 -108 -122 -225 -23 -106
-42 -145 -113 -240 -98 -129 -297 -320 -364 -348 -45 -19 -88 -2 -132 52 -74
89 -268 512 -353 769 -30 90 -44 153 -55 250 -17 151 -44 269 -79 340 -57 118
-150 185 -255 185 -55 0 -84 -6 -275 -50 -129 -30 -180 -24 -237 28 -54 49
-89 123 -159 336 -32 99 -64 190 -70 200 -10 17 -4 26 45 69 76 67 110 119
152 234 20 54 47 120 62 146 59 109 173 190 318 227 173 45 347 8 556 -117
110 -66 131 -69 234 -24 103 44 140 48 210 21 166 -62 470 -19 508 71 17 41
10 65 -84 254 -102 208 -168 273 -243 241 -36 -15 -71 -62 -81 -111 -4 -18 2
-62 14 -109 22 -87 24 -112 11 -120 -17 -11 -92 56 -164 146 -138 173 -299
308 -367 308 -51 0 -80 -24 -80 -66 0 -28 11 -46 65 -105 83 -90 107 -136 102
-192 -3 -37 -5 -39 -12 -18 -23 68 -55 109 -128 164 -72 54 -107 97 -107 130
0 8 -12 26 -26 41 -49 49 -181 31 -245 -33 -25 -25 -38 -49 -42 -76 -9 -56
-47 -89 -143 -126 -104 -40 -122 -53 -144 -102 l-19 -42 -23 50 c-19 41 -23
67 -23 146 0 111 5 120 90 168 71 40 130 110 146 172 11 42 23 59 83 112 73
64 289 282 324 327 32 41 71 126 78 168 8 50 -8 99 -48 149 -49 61 -61 92 -60
157 0 90 39 175 167 366 60 91 137 208 170 260 99 158 180 231 272 246 79 12
229 -48 492 -200 145 -83 174 -93 206 -72 30 20 31 35 5 85 -92 182 -717 654
-1157 875 -248 124 -545 221 -886 290 -180 36 -173 38 -181 -31z m165 -49
c296 -55 632 -166 874 -287 193 -96 537 -319 744 -481 127 -100 314 -266 307
-273 -2 -3 -49 20 -103 50 -230 130 -372 184 -464 175 -130 -13 -235 -107
-387 -349 -56 -90 -128 -200 -159 -244 -113 -162 -166 -314 -144 -416 13 -60
31 -95 78 -157 30 -40 34 -52 30 -85 -9 -66 -72 -145 -276 -347 -173 -171
-199 -200 -205 -235 -11 -58 -39 -90 -116 -135 -102 -60 -134 -116 -132 -233
0 -43 9 -98 21 -137 54 -170 134 -205 190 -83 24 52 25 53 118 89 119 46 164
86 188 167 19 64 32 75 105 84 l50 6 7 -34 c7 -34 81 -116 156 -172 36 -27 77
-91 65 -102 -3 -3 -27 -1 -52 5 -36 8 -54 7 -73 -2 -45 -22 -51 -43 -26 -89
19 -35 20 -40 5 -34 -205 86 -406 85 -588 -4 -150 -73 -221 -159 -300 -364
l-46 -122 -94 -92 c-102 -101 -113 -127 -70 -160 17 -13 31 -44 51 -113 39
-139 119 -343 155 -394 55 -81 137 -126 227 -126 25 0 104 14 176 31 73 16
161 33 197 35 60 5 69 3 112 -24 37 -24 53 -45 82 -104 46 -93 64 -165 77
-306 6 -65 22 -156 38 -210 78 -267 296 -752 393 -873 44 -55 125 -93 177 -84
123 21 427 320 530 523 12 24 31 85 42 135 24 108 33 125 107 192 95 85 108
145 70 310 -18 81 -19 101 -9 134 15 53 94 167 182 266 121 136 194 329 188
493 l-4 74 61 22 c111 40 227 125 260 188 38 73 -6 128 -179 222 -107 59 -187
124 -187 153 0 13 3 14 20 2 11 -8 150 -104 310 -213 l290 -199 0 -41 c0 -80
-21 -312 -41 -461 -100 -737 -343 -1310 -797 -1879 -192 -242 -526 -552 -792
-738 -428 -298 -935 -515 -1465 -627 -340 -72 -611 -96 -1003 -88 -295 6 -366
12 -582 48 -248 41 -514 127 -836 269 -1246 552 -2007 1484 -2238 2742 -51
279 -61 398 -61 768 0 437 24 648 115 1016 59 237 174 564 199 564 4 0 27 -20
49 -44 78 -85 127 -213 166 -436 31 -180 62 -286 132 -459 121 -297 292 -571
358 -571 46 0 61 33 59 128 l-2 87 22 -27 c12 -15 58 -94 102 -175 96 -177
158 -247 262 -295 62 -29 79 -32 187 -36 l120 -5 42 -41 c29 -29 101 -72 232
-140 105 -54 198 -106 207 -116 16 -18 14 -22 -31 -77 -26 -32 -61 -87 -78
-123 -27 -56 -31 -76 -31 -145 0 -71 4 -88 36 -155 44 -92 95 -161 232 -313
124 -138 137 -166 144 -318 7 -132 -5 -221 -72 -539 -81 -386 -89 -440 -89
-590 -1 -199 32 -281 173 -432 186 -199 341 -111 276 157 -23 93 -20 156 10
196 50 70 56 88 65 212 10 136 21 183 50 220 19 24 30 28 112 42 47 7 89 48
121 118 14 28 46 75 72 102 86 92 186 262 200 341 15 82 58 123 175 165 36 12
75 30 87 38 41 28 81 104 117 222 21 66 45 124 56 134 29 26 57 111 70 208 23
171 -23 329 -117 404 -107 84 -313 175 -673 297 -146 50 -292 107 -348 136
-94 48 -219 136 -209 147 3 3 32 -3 64 -12 77 -23 223 -32 262 -16 16 7 35 26
41 41 10 24 9 34 -6 59 -22 36 -45 48 -201 102 -172 59 -187 69 -310 212 -46
54 -81 47 -92 -19 -8 -50 -30 -54 -71 -12 l-33 32 7 96 c8 114 27 160 114 276
82 112 185 219 254 265 75 51 98 83 188 258 85 166 89 169 237 226 123 48 175
96 193 177 26 115 -37 221 -183 308 -93 55 -113 88 -156 250 -19 72 -50 153
-82 215 -45 90 -49 101 -33 110 50 29 88 75 124 150 59 120 52 194 -21 246
-30 21 -31 24 -25 76 8 67 -11 115 -56 143 -18 11 -76 34 -128 51 -193 64
-212 83 -259 255 -6 22 -20 49 -30 58 -26 24 -191 47 -348 49 -67 1 -119 5
-115 8 22 21 327 192 436 245 161 79 187 83 291 50 44 -14 114 -30 155 -36
226 -32 279 -81 266 -245 -6 -74 -5 -84 15 -109 29 -37 36 -73 54 -292 14
-168 20 -200 51 -289 20 -55 51 -154 69 -220 19 -66 41 -138 50 -159 70 -166
297 -358 375 -316 11 6 20 18 20 28 0 26 56 138 102 207 66 96 115 150 177
194 77 54 241 226 320 337 35 49 83 130 107 179 39 80 45 102 54 197 13 146
33 225 84 338 40 86 96 275 96 321 0 11 2 19 4 19 2 0 41 -7 87 -16z m-2869
-516 c-2 -35 5 -92 23 -168 47 -204 59 -280 47 -292 -19 -19 -61 11 -116 81
-90 114 -110 131 -150 131 -21 0 -49 -6 -64 -14 -28 -14 -102 -91 -181 -185
-49 -59 -94 -91 -128 -91 -27 0 -27 -1 -7 39 9 17 20 63 26 102 l11 70 100 76
c88 67 431 303 440 303 2 0 2 -24 -1 -52z m361 -20 c110 -13 103 -7 131 -109
32 -117 99 -171 288 -234 58 -20 112 -42 118 -50 7 -8 11 -34 10 -57 -4 -77
-1 -88 45 -137 53 -57 55 -75 16 -156 -39 -83 -71 -115 -115 -115 -33 0 -60
-16 -68 -41 -3 -8 -13 -6 -32 6 -15 10 -62 29 -105 41 l-76 22 1 43 c11 322 5
370 -60 446 -53 61 -98 76 -253 81 l-132 4 -20 87 c-46 203 -49 196 67 187 48
-3 131 -11 185 -18z m54 -365 c22 -10 40 -31 58 -67 29 -59 33 -119 21 -311
-6 -95 -5 -124 6 -138 8 -10 46 -27 88 -38 146 -38 213 -93 245 -201 18 -60
20 -162 4 -207 -13 -36 -29 -41 -29 -8 0 44 -42 173 -67 206 -94 123 -323 74
-381 -82 -11 -28 -32 -133 -46 -232 -28 -187 -52 -295 -67 -295 -5 0 -9 41 -9
90 0 139 -17 158 -174 194 -91 22 -170 51 -206 76 -25 18 -30 28 -30 61 0 82
54 164 245 374 286 314 332 418 235 529 -35 39 -38 50 -10 43 25 -6 26 1 3 20
-16 13 -12 13 32 8 28 -4 65 -14 82 -22z m3590 -2106 c30 -28 81 -85 113 -127
145 -190 256 -246 311 -157 24 40 24 95 0 172 -20 62 -18 107 4 125 20 17 42
2 81 -58 48 -72 158 -308 149 -321 -15 -24 -121 -45 -230 -46 -92 0 -120 4
-173 24 -80 30 -149 25 -251 -18 -40 -17 -80 -31 -88 -31 -8 0 -39 14 -68 32
l-54 32 30 18 c17 10 35 32 41 48 8 24 16 30 38 30 33 0 77 38 86 75 4 15 4
54 1 87 -5 61 -21 90 -105 198 l-27 35 43 -34 c24 -19 69 -57 99 -84z m-3821
-567 c47 -23 128 -104 121 -123 -2 -6 -17 -15 -34 -19 -17 -5 -43 -22 -57 -39
-48 -57 -32 -103 69 -198 124 -116 167 -136 328 -156 26 -4 47 -10 47 -14 0
-16 -137 -81 -201 -96 -86 -20 -121 -19 -152 5 -39 31 -83 130 -123 282 -39
147 -58 187 -99 214 -43 28 -87 7 -192 -91 l-92 -86 -17 33 c-13 24 -18 59
-18 126 -1 88 0 94 24 112 24 18 142 54 205 63 83 11 150 6 191 -13z m4620
-195 c48 -77 113 -167 144 -199 30 -33 46 -56 36 -52 -41 14 -157 99 -192 139
-50 57 -91 150 -99 222 -9 77 -4 73 111 -110z m-4207 -33 c60 -60 139 -102
266 -141 55 -17 107 -36 115 -41 28 -18 -81 -10 -155 11 -112 33 -140 34 -164
10 -12 -12 -21 -31 -21 -42 0 -21 -3 -22 -72 -16 -61 5 -80 12 -125 43 -73 50
-176 151 -171 166 3 7 13 15 24 16 10 2 33 11 51 19 28 13 34 13 57 -2 38 -25
92 -23 118 3 13 12 24 22 26 22 1 0 24 -21 51 -48z"/>
<path d="M4716 6897 c-22 -17 -63 -121 -77 -199 -14 -78 -6 -128 26 -165 21
-26 29 -28 92 -28 93 1 173 42 269 139 109 110 131 180 75 237 -25 25 -37 29
-84 29 -30 0 -89 -7 -132 -16 -69 -14 -80 -14 -114 0 -31 12 -42 12 -55 3z
m329 -77 c20 -32 -101 -161 -196 -209 -120 -60 -155 -34 -125 92 22 97 26 101
78 99 24 -1 70 4 103 12 73 17 132 19 140 6z"/>
<path d="M5271 6301 c-20 -22 -54 -72 -76 -113 -21 -40 -54 -92 -72 -116 -70
-92 -72 -215 -3 -269 8 -7 50 -24 92 -38 42 -14 82 -33 88 -41 19 -21 58 -17
73 9 9 14 20 95 30 227 20 244 13 322 -28 358 -37 32 -63 28 -104 -17z m48
-354 c-8 -86 -15 -127 -23 -124 -6 2 -36 12 -66 22 -30 10 -61 22 -67 28 -27
20 -13 97 29 159 10 14 15 33 12 42 -4 11 -2 15 8 11 10 -4 30 19 64 77 l49
83 3 -85 c2 -47 -2 -143 -9 -213z"/>
<path d="M7438 3015 c-37 -19 -83 -51 -103 -70 -67 -67 -135 -234 -135 -331 0
-184 170 -227 252 -64 26 50 108 387 108 440 0 20 -33 60 -47 60 -5 -1 -38
-16 -75 -35z m28 -102 c-3 -10 -17 -70 -31 -133 -14 -63 -30 -131 -36 -150
-14 -44 -56 -100 -74 -100 -22 0 -45 41 -45 80 0 87 68 241 129 291 40 33 65
38 57 12z"/>
<path d="M8150 8225 c-232 -61 -600 -181 -648 -212 -19 -11 -22 -20 -17 -41
15 -67 59 -74 248 -42 66 12 122 19 125 16 2 -3 -9 -21 -26 -40 -128 -145
-313 -656 -393 -1081 -17 -89 -23 -159 -23 -268 l-1 -148 -25 -5 c-85 -19
-181 -48 -220 -67 -55 -27 -61 -58 -17 -91 27 -20 38 -21 210 -18 176 3 293
-7 349 -29 15 -6 37 -26 48 -44 11 -18 27 -36 35 -39 40 -15 75 78 60 162 -11
65 -58 130 -111 154 -26 11 -56 17 -69 14 -31 -8 -36 21 -24 159 31 380 200
919 375 1192 20 31 58 80 86 109 46 49 55 54 94 54 42 0 44 -1 44 -29 0 -47
-47 -213 -93 -329 -37 -93 -45 -107 -67 -110 -95 -10 -130 -32 -130 -82 0 -30
22 -42 35 -20 3 6 21 10 40 10 l34 0 -35 -81 c-58 -136 -131 -350 -148 -433
-32 -154 24 -289 146 -350 115 -58 243 -24 324 86 23 32 46 68 49 78 7 23 25
27 25 6 0 -8 23 -39 51 -70 65 -72 151 -116 226 -116 50 0 57 3 104 47 62 58
120 145 205 307 36 70 68 125 70 123 2 -2 -1 -39 -7 -82 -13 -93 -5 -162 25
-230 33 -72 69 -110 138 -144 74 -37 159 -42 223 -12 42 19 118 94 137 136 15
33 24 32 36 -4 16 -47 78 -107 134 -131 43 -19 65 -22 130 -18 90 5 141 32
184 98 15 22 29 40 33 39 3 0 17 -23 31 -52 31 -63 91 -111 168 -133 106 -31
210 10 279 110 18 26 33 43 33 37 0 -23 -73 -208 -112 -284 -92 -176 -211
-252 -282 -178 -41 43 -46 104 -12 153 l25 38 -24 16 c-49 32 -127 -8 -154
-79 -43 -113 31 -234 168 -274 81 -23 226 -21 285 5 106 48 179 134 266 317
74 155 123 296 221 638 87 305 117 391 149 435 28 37 20 64 -24 92 -42 26
-120 27 -158 2 -58 -38 -107 -131 -178 -337 -39 -113 -117 -257 -205 -375 -39
-54 -125 -139 -172 -171 -40 -28 -43 -28 -52 -11 -53 98 17 402 164 717 43 92
41 111 -18 158 -30 24 -49 32 -95 35 -56 4 -60 3 -87 -29 -53 -63 -123 -247
-180 -475 -30 -119 -39 -141 -79 -193 -50 -64 -128 -138 -170 -161 -26 -13
-29 -13 -43 5 -23 31 -12 143 26 253 18 50 70 179 117 285 173 390 230 557
241 707 7 103 -11 177 -57 232 -36 44 -103 78 -152 78 -45 0 -62 -20 -54 -62
32 -159 16 -219 -192 -758 -60 -157 -125 -332 -143 -389 -34 -107 -72 -170
-162 -268 -54 -59 -122 -99 -141 -84 -37 31 -50 217 -26 353 6 33 23 79 37
102 51 80 143 194 182 225 22 18 43 41 46 51 15 48 -75 153 -142 166 -51 10
-75 -1 -130 -57 l-51 -52 -62 41 c-61 41 -141 72 -187 72 -43 0 -133 -38 -197
-84 -121 -86 -252 -256 -337 -435 -73 -152 -190 -302 -287 -366 -53 -35 -62
-27 -62 55 0 92 56 293 151 536 l43 112 45 6 c61 8 104 36 125 81 27 57 18 65
-49 48 -31 -8 -59 -12 -62 -9 -3 2 9 47 26 98 55 168 76 326 52 391 -7 16 -4
39 10 78 32 94 21 146 -39 175 -64 30 -135 28 -282 -11z m1058 -863 c15 -10
-53 -140 -157 -297 -72 -111 -295 -410 -313 -421 -8 -5 -10 7 -5 47 17 158
164 449 296 587 67 70 144 106 179 84z"/>
<path d="M18510 7403 c-344 -57 -613 -139 -1325 -406 -293 -110 -472 -170
-542 -181 -39 -7 -44 -5 -84 34 -53 51 -75 50 -72 -7 5 -111 85 -208 203 -244
63 -19 88 -21 199 -16 142 5 242 25 466 94 83 25 158 48 167 50 13 4 -2 -36
-58 -153 -297 -621 -624 -1420 -624 -1525 0 -24 -6 -24 -32 1 -34 31 -43 10
-42 -94 2 -108 23 -193 56 -223 38 -34 105 -63 148 -63 38 0 43 4 90 68 28 37
93 153 144 257 168 338 293 682 593 1625 l69 215 64 23 c89 32 321 92 332 86
21 -13 -3 -161 -49 -307 -74 -237 -210 -560 -458 -1097 -260 -560 -253 -542
-213 -620 43 -83 180 -137 243 -96 65 42 146 183 326 566 244 516 329 640 442
640 41 0 57 -15 57 -56 0 -48 -22 -101 -129 -314 -130 -257 -146 -306 -146
-440 0 -135 25 -207 103 -291 67 -72 138 -108 231 -116 59 -5 76 -2 123 20 68
31 124 80 185 164 l47 64 12 -34 c22 -64 56 -120 102 -170 109 -116 225 -149
395 -111 248 55 464 266 633 618 76 159 126 327 97 326 -5 -1 -34 -43 -66 -95
-87 -142 -168 -244 -273 -345 -156 -148 -307 -222 -461 -224 -69 -1 -74 0
-105 32 -31 30 -33 37 -33 100 1 68 37 212 54 212 5 0 28 -9 52 -20 92 -41
200 -16 316 73 86 67 153 150 206 256 38 77 42 91 42 160 0 66 -4 85 -33 144
-27 54 -46 77 -103 121 -85 67 -166 100 -223 91 -150 -23 -320 -188 -459 -445
-48 -88 -114 -253 -137 -345 -31 -121 -169 -313 -277 -384 -26 -17 -53 -31
-60 -31 -24 0 -45 69 -45 145 1 90 23 161 128 409 94 219 134 345 134 413 0
195 -189 290 -385 194 -70 -35 -177 -129 -245 -216 -25 -32 -55 -69 -68 -84
l-22 -26 10 30 c19 52 134 275 205 395 105 179 89 162 132 143 161 -67 419
142 523 423 44 120 53 268 22 357 -38 107 -118 180 -240 217 -51 16 -90 20
-191 19 -69 -1 -137 -4 -151 -6z m285 -424 c26 -12 30 -20 33 -62 7 -109 -104
-332 -200 -403 -39 -29 -84 -33 -73 -6 30 70 55 171 55 219 0 39 5 62 17 75
16 18 16 20 -9 41 -14 12 -37 40 -51 62 -13 22 -35 49 -47 60 l-22 20 38 7
c64 11 226 3 259 -13z m1018 -1041 c-58 -198 -186 -388 -302 -451 -28 -16 -60
-27 -72 -25 -18 3 -13 14 49 119 89 149 168 257 250 342 82 83 97 86 75 15z"/>
<path d="M14160 7136 c-345 -50 -756 -219 -1022 -422 -169 -129 -300 -281
-368 -426 -48 -102 -62 -160 -63 -259 -1 -95 31 -168 101 -230 186 -164 489
-155 572 16 l22 45 -23 48 c-27 56 -122 155 -145 150 -10 -2 -26 -31 -41 -73
-47 -129 -105 -195 -172 -195 -148 0 -135 221 23 412 204 246 725 521 1164
614 212 45 451 20 532 -56 31 -29 32 -33 27 -86 -13 -124 -162 -315 -456 -581
-110 -100 -396 -333 -409 -333 -4 0 54 123 129 273 152 307 207 432 216 494 5
37 2 45 -25 72 -34 35 -50 38 -91 16 -181 -93 -697 -998 -880 -1541 -48 -143
-58 -217 -38 -285 9 -31 31 -74 47 -95 17 -22 45 -61 63 -89 49 -77 132 -112
202 -85 24 9 26 14 20 43 -16 76 -16 160 0 235 10 42 19 80 21 83 2 4 31 -19
63 -51 35 -34 87 -72 128 -91 63 -32 74 -34 163 -33 147 2 304 59 436 158 72
54 105 95 141 173 57 123 25 246 -98 377 -94 101 -190 162 -339 217 l-75 27
60 27 c33 15 76 34 95 42 72 31 289 158 395 231 151 103 234 173 340 284 138
146 194 254 195 378 0 250 -148 432 -407 501 -101 27 -362 35 -503 15z m-254
-1585 c165 -40 268 -96 311 -168 22 -38 25 -52 20 -98 -17 -162 -195 -328
-411 -381 -90 -23 -96 -15 -56 72 38 85 64 114 102 114 37 0 35 24 -5 53 -38
29 -141 36 -186 12 -18 -9 -35 -15 -37 -12 -11 11 154 427 170 427 6 0 47 -9
92 -19z"/>
<path d="M15263 6186 c-223 -72 -477 -446 -568 -836 -63 -273 62 -540 284
-604 142 -41 336 10 491 129 165 127 326 364 423 625 36 98 56 190 41 190 -5
0 -31 -37 -58 -81 -114 -191 -287 -385 -420 -473 -117 -77 -278 -126 -368
-111 -72 13 -107 76 -94 173 8 62 45 172 57 172 5 0 27 -9 49 -20 138 -70 362
55 496 278 41 67 74 168 74 223 0 81 -59 188 -137 251 -100 79 -194 109 -270
84z m226 -231 c-34 -122 -126 -295 -202 -381 -52 -58 -137 -114 -174 -114 -13
0 -23 2 -23 5 0 12 134 228 188 304 65 91 188 221 208 221 9 0 10 -9 3 -35z"/>
<path d="M10980 5869 c-239 -25 -479 -91 -689 -190 -852 -402 -1586 -1342
-1771 -2269 -38 -191 -50 -307 -50 -490 0 -473 118 -786 395 -1049 170 -160
378 -267 620 -317 113 -23 393 -26 500 -5 223 44 455 169 702 377 124 105 290
275 404 413 l74 90 16 -50 c41 -125 181 -220 323 -219 81 1 117 29 208 155 85
119 247 431 421 810 343 750 540 1020 709 975 109 -30 91 -125 -90 -480 -203
-397 -228 -452 -263 -588 -26 -99 -35 -267 -20 -357 51 -291 264 -494 537
-512 99 -7 166 11 252 66 67 44 164 137 214 207 l31 44 62 -64 c136 -139 333
-236 480 -236 168 0 359 221 622 720 28 52 81 153 118 223 37 71 69 126 72
124 2 -3 -3 -38 -11 -78 -45 -210 -44 -410 3 -559 49 -155 182 -314 323 -383
149 -74 326 -87 456 -34 63 26 185 114 196 142 8 23 23 18 30 -11 10 -38 90
-112 153 -141 38 -18 81 -28 128 -31 l70 -4 51 45 c102 92 188 243 503 882
241 489 344 680 466 865 133 201 245 320 353 375 58 29 65 18 60 -93 -9 -159
-65 -309 -332 -875 -305 -647 -351 -807 -296 -1036 55 -226 209 -397 415 -457
88 -25 224 -23 295 4 170 67 334 266 489 594 32 68 62 133 65 145 10 32 17 29
51 -23 37 -58 127 -126 202 -154 78 -29 199 -36 290 -17 88 19 221 80 309 142
41 28 66 40 68 32 47 -159 65 -196 216 -442 132 -215 165 -331 121 -429 -94
-213 -464 -512 -856 -693 -176 -81 -298 -99 -465 -69 -149 27 -247 82 -270
151 -28 84 37 222 158 337 181 172 452 294 679 305 110 6 112 5 137 -20 42
-42 30 -108 -32 -178 l-31 -35 19 -32 c16 -25 26 -32 52 -32 68 0 245 108 303
185 38 49 35 82 -15 183 -33 66 -60 103 -129 171 -112 113 -189 153 -306 159
-249 13 -636 -206 -874 -493 -199 -241 -275 -473 -226 -684 72 -305 475 -558
921 -578 208 -9 401 32 609 131 476 226 795 629 795 1007 0 173 -49 284 -274
623 -186 282 -246 406 -246 511 1 181 203 402 393 430 46 7 48 9 42 34 -15 59
-65 86 -147 78 -32 -3 -58 -3 -58 -1 0 2 39 65 86 141 166 267 289 543 314
707 12 76 17 84 151 241 142 166 278 280 372 311 69 22 77 30 77 74 0 98 -172
260 -317 299 -34 9 -49 9 -75 -2 -48 -21 -118 -97 -170 -185 -43 -72 -138
-281 -138 -302 0 -16 -10 -12 -53 26 -102 87 -272 143 -458 151 -139 6 -179
-2 -294 -59 -409 -203 -896 -1014 -961 -1598 -6 -58 -15 -77 -86 -189 -106
-167 -200 -290 -292 -383 -73 -74 -187 -158 -213 -158 -52 0 -66 223 -24 380
44 167 78 256 301 785 166 396 226 613 217 780 -6 105 -28 164 -83 225 -73 80
-197 122 -374 124 -103 1 -108 0 -180 -36 -211 -104 -479 -437 -695 -863 l-55
-110 7 60 c4 33 6 110 6 170 -2 185 -50 323 -144 417 -64 64 -126 92 -204 92
-106 1 -143 -45 -109 -132 16 -38 19 -72 18 -182 -1 -118 -5 -150 -32 -252
-34 -126 -90 -290 -150 -439 -72 -179 -324 -533 -495 -695 -76 -72 -202 -154
-237 -154 -19 0 -57 99 -81 209 -19 92 -21 124 -16 260 3 86 15 219 28 295
l22 139 77 116 c154 233 296 405 386 467 92 64 105 118 54 222 -38 75 -125
158 -211 201 -50 25 -75 31 -124 31 -57 0 -69 -4 -124 -41 -36 -24 -92 -77
-132 -125 l-71 -84 -41 34 c-174 139 -334 209 -482 209 -194 1 -393 -109 -631
-347 -342 -343 -606 -826 -649 -1189 -6 -48 -16 -68 -58 -125 -94 -124 -239
-250 -309 -267 -34 -9 -55 26 -75 123 -32 158 13 333 189 732 171 385 220 538
222 685 2 158 -59 262 -192 327 -64 32 -72 33 -182 33 -106 0 -120 -3 -186
-31 -39 -17 -97 -48 -129 -70 -84 -55 -234 -202 -327 -319 -136 -172 -129
-164 -119 -135 50 137 187 409 326 645 312 529 380 778 275 1002 -62 134 -231
258 -367 270 -72 7 -128 -9 -150 -43 -14 -22 -14 -31 -2 -82 16 -67 16 -173 0
-257 -59 -298 -282 -876 -634 -1650 -284 -624 -275 -607 -388 -744 -124 -150
-434 -464 -574 -580 -281 -234 -536 -379 -751 -427 -100 -22 -246 -15 -323 14
-198 77 -355 280 -426 550 -52 197 -42 564 24 884 133 639 506 1311 978 1757
311 295 641 478 953 527 86 14 113 14 158 4 78 -17 131 -73 163 -172 70 -212
-11 -628 -195 -1003 -146 -296 -311 -498 -471 -575 -90 -43 -126 -47 -161 -17
l-29 25 1 119 c1 100 5 131 29 203 42 132 110 254 183 331 62 67 63 68 48 96
-23 44 -66 79 -138 113 -292 137 -591 -105 -639 -518 -40 -334 121 -613 401
-696 85 -26 232 -31 312 -12 366 86 858 561 1122 1084 69 136 109 239 143 372
23 89 27 126 27 240 0 114 -4 145 -23 200 -83 240 -281 373 -624 419 -91 13
-404 12 -527 0z m8820 -1570 c0 -107 -48 -236 -199 -539 -275 -547 -629 -1068
-766 -1126 -44 -18 -81 -5 -104 38 -13 22 -13 37 -4 95 66 380 409 1044 702
1356 130 137 261 223 349 226 20 1 22 -4 22 -50z m-4675 -321 c10 -9 -162
-324 -278 -508 -185 -293 -742 -1042 -761 -1023 -22 22 5 198 51 338 182 551
555 1093 820 1191 36 13 155 15 168 2z"/>
<path d="M21005 4346 c-74 -19 -118 -40 -200 -97 -364 -251 -745 -1010 -745
-1483 0 -329 188 -615 465 -708 56 -18 91 -23 175 -22 446 1 846 325 1159 937
109 215 177 402 188 520 4 42 2 67 -4 67 -6 0 -32 -37 -58 -82 -202 -351 -474
-661 -714 -815 -82 -53 -226 -118 -306 -139 -48 -13 -107 -19 -187 -19 -126 0
-146 7 -191 67 -43 57 -37 218 12 368 44 131 39 127 96 91 162 -103 393 -38
614 173 215 206 350 498 311 671 -20 90 -93 226 -147 273 -152 135 -198 165
-302 196 -64 19 -97 19 -166 2z m345 -321 c0 -40 -77 -247 -134 -358 -78 -154
-138 -240 -236 -338 -81 -81 -159 -127 -231 -136 l-42 -6 48 89 c155 289 373
587 518 712 65 55 77 61 77 37z"/>
</g>
</svg>
