<svg xmlns="http://www.w3.org/2000/svg" width="2098" height="500" viewBox="0 0 2098 500">
<g>
<path d="M 1167.00 460.33 C1146.65,465.27 1125.49,460.93 1115.37,449.72 C1107.27,440.75 1103.02,425.39 1103.01,405.00 C1103.00,378.61 1111.11,361.11 1127.12,352.96 C1139.35,346.74 1161.58,346.28 1173.79,351.99 C1183.70,356.63 1188.37,360.95 1192.48,369.29 C1197.24,378.94 1198.71,386.78 1198.90,403.50 C1199.08,419.09 1198.24,425.11 1194.40,435.76 C1189.94,448.17 1179.86,457.20 1167.00,460.33 ZM 1412.92 459.87 C1406.52,460.97 1363.77,461.36 1361.25,460.34 C1360.27,459.94 1360.00,447.94 1360.00,405.02 C1360.00,355.97 1360.17,350.15 1361.58,349.61 C1363.95,348.70 1401.39,348.96 1409.87,349.94 C1419.73,351.08 1432.45,357.26 1437.34,363.28 C1444.45,372.04 1447.51,380.29 1448.92,394.48 C1450.65,411.84 1447.62,431.32 1441.68,441.00 C1435.57,450.96 1425.22,457.75 1412.92,459.87 ZM 851.50 459.63 C849.85,460.01 836.91,460.51 822.75,460.74 C802.00,461.07 796.90,460.89 796.49,459.82 C796.21,459.10 796.10,433.98 796.24,404.00 L 796.50 349.50 L 816.50 349.22 C840.93,348.87 850.66,349.92 859.28,353.83 C871.17,359.22 878.63,368.25 882.33,381.74 C885.46,393.15 885.45,418.33 882.31,428.81 C879.62,437.79 876.53,443.19 870.85,448.81 C866.51,453.11 857.18,458.33 851.50,459.63 ZM 1599.86 459.67 C1598.38,461.45 1576.96,461.56 1575.20,459.80 C1574.30,458.90 1574.00,445.34 1574.00,404.92 C1574.00,359.39 1574.22,351.06 1575.44,350.05 C1576.50,349.17 1583.83,348.94 1603.19,349.18 L 1629.50 349.50 L 1636.05 352.60 C1644.71,356.71 1649.32,360.92 1652.71,367.82 C1655.17,372.83 1655.50,374.63 1655.50,383.00 C1655.50,393.24 1654.55,396.67 1649.75,403.78 C1647.42,407.23 1643.98,410.16 1638.19,413.60 C1637.81,413.83 1641.56,421.97 1651.45,442.35 C1655.68,451.06 1658.90,458.83 1658.60,459.60 C1658.18,460.70 1655.38,461.00 1645.64,461.00 C1635.26,461.00 1632.88,460.71 1631.16,459.25 C1630.03,458.29 1626.65,451.88 1623.66,445.00 C1620.66,438.12 1616.85,429.35 1615.17,425.50 L 1612.13 418.50 L 1601.50 418.50 L 1601.23 438.42 C1601.06,451.06 1600.55,458.83 1599.86,459.67 ZM 1917.66 458.00 C1916.46,460.44 1916.12,460.51 1904.29,460.78 C1897.62,460.93 1891.90,460.65 1891.59,460.15 C1891.28,459.65 1891.95,456.59 1893.09,453.37 C1894.22,450.14 1895.33,446.58 1895.55,445.46 C1895.78,444.34 1896.90,440.74 1898.05,437.46 C1899.20,434.18 1900.31,430.69 1900.52,429.69 C1900.87,428.05 1909.63,400.31 1914.01,387.00 C1915.00,383.98 1917.28,376.77 1919.08,371.00 C1923.97,355.28 1925.21,351.93 1926.75,350.40 C1928.77,348.37 1954.25,348.39 1956.28,350.42 C1957.06,351.20 1958.60,354.46 1959.71,357.67 C1963.17,367.68 1977.50,411.37 1977.51,411.95 C1977.52,412.25 1978.71,415.88 1980.15,420.00 C1987.44,440.82 1993.08,459.06 1992.52,459.97 C1991.77,461.18 1968.14,461.37 1966.28,460.19 C1965.60,459.76 1963.56,454.26 1961.75,447.96 L 1958.44 436.50 L 1924.66 436.50 L 1921.77 446.00 C1920.19,451.23 1918.33,456.62 1917.66,458.00 ZM 1485.39 459.70 C1482.97,461.47 1462.65,461.52 1461.27,459.75 C1460.60,458.89 1461.82,453.77 1465.13,443.50 C1467.79,435.25 1471.36,424.00 1473.06,418.50 C1474.76,413.00 1477.41,404.67 1478.95,400.00 C1480.48,395.33 1482.93,387.67 1484.37,383.00 C1489.83,365.38 1492.35,357.41 1493.31,354.66 C1495.21,349.28 1496.07,349.00 1510.32,349.02 C1517.57,349.02 1524.07,349.39 1524.77,349.84 C1526.11,350.69 1531.64,364.25 1532.44,368.63 C1532.70,370.05 1534.00,374.20 1535.34,377.86 C1537.74,384.38 1553.41,432.02 1553.49,433.00 C1553.51,433.27 1554.70,436.88 1556.15,441.00 C1560.30,452.86 1562.04,459.13 1561.44,460.10 C1561.13,460.60 1555.29,461.00 1548.46,461.00 C1536.67,461.00 1535.97,460.89 1534.63,458.75 C1533.41,456.82 1530.45,447.75 1529.49,443.00 C1529.32,442.17 1528.87,440.25 1528.48,438.73 L 1527.77 435.95 L 1510.66 436.23 L 1493.55 436.50 L 1490.36 447.45 C1488.50,453.84 1486.43,458.94 1485.39,459.70 ZM 1800.80 459.80 C1799.91,460.69 1790.35,461.00 1763.97,461.00 C1744.37,461.00 1728.03,460.70 1727.67,460.33 C1727.30,459.97 1727.00,435.04 1727.00,404.94 C1727.00,355.96 1727.17,350.15 1728.58,349.61 C1729.45,349.27 1745.60,349.00 1764.46,349.00 C1792.63,349.00 1798.96,349.25 1799.92,350.40 C1800.67,351.30 1800.98,355.11 1800.79,361.15 L 1800.50 370.50 L 1754.00 371.04 L 1754.00 391.96 L 1774.25 392.23 L 1794.50 392.50 L 1794.50 413.50 L 1774.25 413.77 L 1754.00 414.04 L 1754.00 439.00 L 1776.80 439.00 C1793.20,439.00 1799.94,439.34 1800.80,440.20 C1801.55,440.95 1802.00,444.64 1802.00,450.00 C1802.00,455.36 1801.55,459.05 1800.80,459.80 ZM 1056.50 460.79 C1053.20,461.41 1048.25,462.08 1045.50,462.28 C1035.13,463.05 1013.25,459.73 1006.85,456.42 L 1003.78 454.84 L 1004.49 448.22 C1004.88,444.58 1005.62,440.51 1006.12,439.17 C1006.99,436.91 1007.39,436.79 1012.27,437.39 C1015.15,437.74 1024.72,438.30 1033.54,438.65 C1047.29,439.18 1050.04,439.03 1052.76,437.62 C1054.51,436.72 1056.40,435.11 1056.97,434.06 C1058.67,430.89 1058.23,423.51 1056.25,421.78 C1053.35,419.23 1048.65,417.19 1044.14,416.52 C1036.31,415.35 1021.00,410.10 1016.59,407.06 C1007.08,400.52 1003.76,394.19 1003.70,382.50 C1003.59,363.13 1014.86,351.40 1036.13,348.71 C1052.69,346.63 1076.98,350.75 1080.39,356.24 C1081.19,357.53 1081.02,359.71 1079.70,364.74 C1077.27,374.01 1076.66,374.48 1068.85,373.18 C1050.59,370.14 1037.27,370.83 1033.50,375.00 C1032.58,376.02 1031.59,378.65 1031.29,380.85 C1030.85,384.19 1031.17,385.26 1033.26,387.35 C1034.63,388.72 1037.50,390.29 1039.63,390.83 C1041.76,391.37 1047.55,392.79 1052.50,393.97 C1069.65,398.09 1078.99,403.94 1082.74,412.93 C1086.52,421.96 1085.94,437.01 1081.53,444.54 C1076.42,453.25 1068.18,458.60 1056.50,460.79 ZM 1866.10 458.25 L 1865.05 461.00 L 1852.99 461.00 C1844.26,461.00 1840.81,460.65 1840.47,459.75 C1840.21,459.06 1839.89,438.92 1839.75,415.00 L 1839.50 371.50 L 1811.50 370.50 L 1811.21 361.15 C1811.02,355.11 1811.33,351.30 1812.08,350.40 C1813.04,349.24 1820.17,349.00 1853.09,349.00 C1891.45,349.00 1892.97,349.07 1893.96,350.93 C1895.16,353.17 1895.34,367.91 1894.19,369.72 C1893.66,370.56 1889.20,371.03 1880.03,371.22 L 1866.64 371.50 L 1866.89 413.50 C1867.06,441.05 1866.79,456.45 1866.10,458.25 ZM 1294.96 459.07 C1293.97,460.92 1292.50,461.00 1257.93,461.00 C1230.06,461.00 1221.83,460.72 1221.46,459.75 C1221.20,459.06 1221.10,433.98 1221.24,404.00 L 1221.50 349.50 L 1232.86 349.22 C1240.37,349.03 1244.68,349.32 1245.61,350.09 C1246.76,351.04 1247.00,358.84 1247.00,395.12 L 1247.00 439.00 L 1270.89 439.00 C1291.76,439.00 1294.86,439.20 1295.39,440.58 C1296.40,443.20 1296.08,456.99 1294.96,459.07 ZM 932.80 459.80 C931.61,460.99 910.99,461.44 908.25,460.34 C906.47,459.62 906.42,351.98 908.20,350.20 C908.99,349.41 913.20,349.00 920.50,349.00 C927.80,349.00 932.01,349.41 932.80,350.20 C934.53,351.93 934.53,458.07 932.80,459.80 ZM 1701.80 459.80 C1701.01,460.59 1696.76,461.00 1689.34,461.00 C1679.22,461.00 1677.96,460.80 1677.04,459.07 C1675.46,456.12 1675.62,351.78 1677.20,350.20 C1677.99,349.41 1682.20,349.00 1689.50,349.00 C1696.80,349.00 1701.01,349.41 1701.80,350.20 C1703.53,351.93 1703.53,458.07 1701.80,459.80 ZM 1335.76 405.27 L 1335.50 460.50 L 1323.23 460.78 C1313.97,460.99 1310.84,460.75 1310.47,459.78 C1310.20,459.08 1310.10,433.98 1310.24,404.00 L 1310.50 349.50 L 1321.00 349.21 C1326.78,349.05 1332.52,349.17 1333.76,349.48 L 1336.02 350.04 ZM 1146.00 439.09 C1153.40,440.57 1161.44,438.43 1165.66,433.85 C1173.07,425.78 1174.07,390.52 1167.21,378.56 C1162.78,370.84 1147.37,368.43 1139.71,374.27 C1134.23,378.45 1131.86,385.80 1131.25,400.60 C1130.23,424.85 1134.83,436.85 1146.00,439.09 ZM 1386.75 438.43 C1387.16,438.86 1391.32,439.01 1396.00,438.78 C1414.97,437.84 1421.50,429.19 1421.50,405.00 C1421.50,390.67 1419.83,384.16 1414.65,378.26 C1410.20,373.19 1406.57,372.00 1395.53,372.00 L 1386.00 372.00 L 1386.00 404.83 C1386.00,422.89 1386.34,438.01 1386.75,438.43 ZM 822.00 372.00 L 822.00 439.00 L 829.25 438.99 C842.27,438.98 848.65,435.82 853.50,426.97 C856.49,421.51 856.50,421.46 856.49,405.00 C856.48,389.12 856.38,388.31 853.85,383.50 C849.02,374.33 844.39,372.00 831.03,372.00 ZM 1947.00 339.99 C1945.07,342.70 1942.82,344.91 1942.00,344.91 C1941.18,344.90 1937.98,343.46 1934.90,341.70 C1931.82,339.94 1924.96,336.04 1919.67,333.03 C1914.38,330.02 1909.84,327.02 1909.59,326.37 C1908.95,324.71 1919.78,311.00 1921.73,311.00 C1923.58,311.00 1926.87,313.44 1940.50,324.87 C1946.00,329.49 1950.50,333.68 1950.50,334.18 C1950.50,334.67 1948.93,337.29 1947.00,339.99 ZM 1601.00 371.00 L 1601.00 397.23 L 1610.78 396.84 C1618.92,396.51 1621.09,396.07 1623.71,394.21 C1627.51,391.50 1629.40,386.34 1628.51,381.09 C1627.31,373.97 1621.38,371.02 1608.25,371.01 ZM 1500.46 412.75 L 1499.84 416.00 L 1521.22 416.00 L 1520.54 412.25 C1520.16,410.19 1518.78,404.67 1517.46,400.00 C1516.15,395.33 1514.34,388.24 1513.45,384.25 C1512.57,380.26 1511.44,377.00 1510.95,377.00 C1510.46,377.00 1509.19,380.04 1508.14,383.75 C1504.55,396.38 1501.07,409.49 1500.46,412.75 ZM 1931.00 414.41 C1931.00,415.76 1932.59,416.00 1941.61,416.00 L 1952.23 416.00 L 1951.75 413.25 C1950.58,406.43 1942.00,376.67 1941.38,377.28 C1941.00,377.67 1937.26,390.30 1933.13,405.16 C1931.96,409.38 1931.00,413.54 1931.00,414.41 Z" fill="rgb(34,172,225)"/>
<path d="M 713.00 16.00 L 713.00 485.00 L 361.47 485.00 C81.16,485.00 9.84,484.75 9.46,483.75 C9.20,483.06 9.10,377.65 9.24,249.50 L 9.50 16.50 L 361.25 16.25 ZM 1263.49 151.89 C1258.54,152.50 1253.82,152.94 1253.00,152.87 C1230.41,150.96 1219.45,144.93 1212.70,130.72 C1210.81,126.74 1208.97,122.14 1208.62,120.49 L 1207.42 115.00 C1207.12,113.62 1206.63,106.88 1206.33,100.00 C1205.21,74.21 1211.96,55.32 1225.67,45.88 C1235.56,39.08 1252.33,36.47 1267.04,39.44 C1277.26,41.51 1283.59,44.79 1289.44,51.04 C1298.62,60.85 1302.01,73.05 1301.96,96.00 C1301.91,117.53 1298.07,130.23 1288.70,139.83 C1281.48,147.23 1274.59,150.53 1263.49,151.89 ZM 951.68 151.96 C942.98,153.12 941.34,153.11 932.00,151.91 C915.25,149.75 904.68,141.82 898.79,126.98 C895.10,117.67 894.49,112.68 894.57,92.50 L 894.63 75.50 L 898.26 66.66 C900.26,61.80 903.04,56.32 904.45,54.48 C908.68,48.94 915.47,44.02 922.68,41.29 C928.41,39.12 931.26,38.69 940.50,38.60 C946.74,38.54 954.28,39.12 957.92,39.92 C969.96,42.59 981.26,52.55 985.85,64.55 C989.22,73.37 990.60,90.81 989.17,106.78 C988.09,118.91 987.55,121.34 984.53,127.73 C977.86,141.85 966.89,149.94 951.68,151.96 ZM 1037.00 109.00 L 1037.00 151.00 L 1025.25 150.98 C1018.79,150.98 1012.93,150.61 1012.24,150.17 C1011.25,149.54 1011.04,137.82 1011.24,94.94 L 1011.50 40.50 L 1037.94 40.23 C1060.11,40.01 1065.20,40.23 1069.44,41.59 C1079.26,44.74 1085.60,50.15 1089.86,59.00 C1093.48,66.54 1093.59,79.82 1090.10,87.70 C1087.93,92.60 1079.32,102.06 1076.04,103.15 C1074.23,103.76 1075.07,105.86 1086.41,129.14 C1091.13,138.85 1095.00,147.74 1095.00,148.89 C1095.00,150.93 1094.55,151.00 1082.19,151.00 C1073.50,151.00 1068.85,150.60 1067.72,149.75 C1066.80,149.06 1064.76,145.35 1063.17,141.50 C1061.59,137.65 1057.70,128.76 1054.53,121.75 L 1048.77 109.00 ZM 1138.39 149.42 C1137.89,150.74 1135.83,151.00 1126.09,151.00 C1118.33,151.00 1114.00,150.60 1113.20,149.80 C1112.30,148.90 1112.00,135.55 1112.00,95.88 C1112.00,66.89 1112.27,42.45 1112.61,41.58 C1113.14,40.20 1116.34,40.00 1138.16,40.00 C1153.76,40.00 1164.84,40.43 1167.71,41.16 C1185.85,45.72 1195.89,62.65 1192.05,82.18 C1189.69,94.14 1184.38,101.32 1174.00,106.57 C1168.90,109.15 1167.43,109.39 1153.75,109.80 L 1139.00 110.25 L 1139.00 129.04 C1139.00,139.38 1138.73,148.55 1138.39,149.42 ZM 2089.75 251.25 L 2089.50 485.50 L 2083.25 485.80 L 2077.00 486.10 L 2077.00 17.00 L 2090.00 17.00 ZM 857.50 151.62 C852.00,152.36 844.80,152.91 841.50,152.86 C822.64,152.55 808.11,144.59 801.17,130.77 C795.99,120.45 794.69,113.46 794.69,96.00 C794.69,78.24 795.98,71.52 801.53,60.50 C809.97,43.70 827.65,36.29 852.89,38.98 C865.61,40.34 873.17,42.38 876.68,45.40 L 879.29 47.64 L 877.94 54.40 C877.00,59.15 876.58,61.65 875.11,62.82 C873.48,64.12 870.55,63.79 864.20,63.09 C863.87,63.05 863.53,63.01 863.17,62.97 C849.84,61.50 838.73,62.04 834.23,64.37 C830.35,66.39 825.40,72.89 824.07,77.72 C823.54,79.62 823.12,87.77 823.12,95.83 C823.13,116.74 825.49,123.05 834.90,127.26 C839.95,129.52 851.15,129.78 865.65,127.98 C871.16,127.30 874.65,127.25 875.26,127.86 C877.10,129.70 879.99,142.15 879.01,143.98 C877.46,146.88 868.07,150.22 857.50,151.62 ZM 1244.98 127.75 C1252.16,131.39 1261.74,130.40 1267.33,125.46 C1272.18,121.17 1274.33,113.33 1274.79,98.21 C1275.10,87.97 1274.81,83.33 1273.49,77.95 C1270.48,65.69 1266.44,61.93 1255.46,61.20 C1243.68,60.41 1238.16,65.44 1235.49,79.41 C1232.74,93.74 1234.33,114.67 1238.75,122.36 C1239.74,124.09 1242.54,126.51 1244.98,127.75 ZM 933.02 127.75 C940.72,131.68 950.89,130.17 956.02,124.32 C960.90,118.77 962.48,111.55 962.46,95.00 C962.44,74.25 959.35,65.83 950.52,62.46 C941.62,59.05 931.78,61.38 926.81,68.06 C922.41,73.97 920.58,99.03 923.52,113.18 C925.34,121.94 927.18,124.77 933.02,127.75 ZM 214.00 346.63 C214.00,348.76 215.05,348.32 221.50,343.48 C224.79,341.00 228.06,339.19 228.75,339.46 C229.44,339.72 232.46,341.80 235.47,344.06 C238.47,346.33 241.36,348.03 241.88,347.84 C242.41,347.65 241.76,344.15 240.43,340.00 C239.11,335.88 238.02,332.23 238.01,331.90 C238.01,331.58 241.14,329.10 244.98,326.40 C248.82,323.71 251.97,321.18 251.98,320.79 C251.99,320.40 247.85,319.95 242.78,319.79 L 233.57 319.50 L 231.23 311.75 C229.95,307.49 228.49,304.00 227.99,304.00 C227.49,304.00 226.17,307.04 225.04,310.75 C223.92,314.46 222.65,318.04 222.22,318.71 C221.73,319.46 218.08,320.03 212.47,320.21 L 203.50 320.50 L 210.75 325.87 C214.74,328.83 218.00,331.58 218.00,331.99 C218.00,332.40 217.10,335.56 216.00,339.00 C214.90,342.44 214.00,345.88 214.00,346.63 ZM 193.00 270.77 C193.00,271.82 194.07,271.43 196.75,269.43 C198.81,267.88 201.89,265.58 203.59,264.31 C205.30,263.04 207.10,262.01 207.59,262.03 C208.09,262.04 211.17,264.07 214.42,266.53 C220.20,270.89 222.01,271.78 221.99,270.25 C221.99,269.84 220.86,266.17 219.48,262.10 C218.09,258.03 217.08,254.61 217.23,254.50 C217.38,254.38 220.87,251.86 224.99,248.90 L 232.48 243.50 L 213.21 242.93 L 210.47 234.31 C207.88,226.19 207.65,225.82 206.47,228.09 C205.79,229.42 204.44,233.30 203.49,236.72 L 201.76 242.93 L 192.16 243.22 L 182.57 243.50 L 189.78 248.84 C193.75,251.78 196.99,254.93 196.98,255.84 C196.96,256.76 196.06,260.16 194.98,263.41 C193.89,266.65 193.00,269.97 193.00,270.77 ZM 480.00 193.74 C480.00,194.60 482.29,193.49 486.04,190.81 C489.37,188.44 492.69,186.08 493.44,185.57 C494.39,184.92 496.81,186.15 501.76,189.82 C505.60,192.67 508.98,195.00 509.27,195.00 C509.56,195.00 508.72,191.81 507.40,187.90 C506.08,184.00 505.00,179.99 505.00,178.98 C505.00,177.88 507.85,175.07 512.25,171.83 L 519.50 166.50 L 509.86 166.22 L 500.21 165.93 L 497.92 158.47 C496.66,154.36 495.13,151.00 494.52,151.00 C493.91,151.00 492.28,154.47 490.90,158.72 L 488.40 166.43 L 479.70 166.13 C474.86,165.96 471.00,166.24 471.00,166.75 C471.00,167.25 473.36,169.32 476.25,171.35 C481.55,175.07 483.77,176.33 484.23,178.05 C484.54,179.21 484.05,180.59 483.18,183.06 C482.97,183.65 482.74,184.30 482.49,185.03 C481.12,189.06 480.00,192.98 480.00,193.74 ZM 271.61 131.46 C270.29,135.61 269.40,139.00 269.62,139.00 C269.85,139.00 273.12,136.75 276.90,134.00 C280.69,131.25 284.09,129.00 284.46,129.00 C284.84,129.00 288.06,131.08 291.62,133.62 C295.18,136.16 298.31,138.02 298.58,137.76 C298.84,137.49 297.97,133.95 296.64,129.89 C294.22,122.53 294.22,122.49 296.18,120.35 C297.27,119.17 300.37,116.70 303.07,114.85 C305.78,113.01 308.00,111.16 308.00,110.75 C308.00,110.34 303.98,110.00 299.07,110.00 C290.66,110.00 290.10,109.87 289.51,107.75 C288.05,102.55 284.71,94.00 284.13,94.01 C283.78,94.01 282.38,97.59 281.00,101.97 L 278.50 109.93 L 269.03 110.21 L 259.57 110.50 L 266.78 115.84 C270.75,118.78 274.00,121.80 274.00,122.56 C274.00,123.31 272.92,127.32 271.61,131.46 ZM 500.00 271.26 C500.00,271.76 502.90,270.11 506.44,267.58 C509.99,265.05 513.54,262.73 514.34,262.42 C515.17,262.10 518.50,263.84 522.01,266.43 C525.43,268.94 528.57,271.00 529.00,271.00 C529.43,271.00 528.71,267.51 527.39,263.25 C526.08,258.99 525.00,255.20 525.00,254.83 C525.00,254.46 528.26,251.76 532.25,248.83 L 539.50 243.50 L 530.04 243.00 L 520.57 242.50 L 518.52 236.00 L 518.33 235.41 C516.56,229.79 515.72,227.13 514.91,227.14 C514.16,227.15 513.44,229.51 512.02,234.00 L 509.33 242.50 L 499.92 243.00 L 490.50 243.50 L 497.75 248.83 C501.74,251.76 505.00,254.50 505.00,254.91 C505.00,255.31 503.88,258.96 502.50,263.00 C501.12,267.04 500.00,270.76 500.00,271.26 ZM 480.00 347.74 C480.00,348.60 482.29,347.49 486.04,344.81 C489.37,342.44 492.67,340.10 493.37,339.61 C494.24,339.01 496.71,340.22 501.03,343.36 C510.15,350.00 510.22,349.94 506.57,339.21 L 504.14 332.06 L 506.91 329.78 C508.44,328.53 511.89,325.92 514.59,324.00 L 519.50 320.50 L 509.92 320.22 L 500.33 319.93 L 497.99 312.47 C496.70,308.36 495.12,305.00 494.47,305.00 C493.82,305.00 492.29,308.38 491.06,312.50 L 488.84 320.00 L 479.92 320.00 C475.01,320.00 471.00,320.40 471.00,320.88 C471.00,321.37 472.24,322.56 473.75,323.52 C475.26,324.49 478.38,326.80 480.69,328.65 L 484.87 332.03 L 482.44 339.19 C481.10,343.13 480.00,346.98 480.00,347.74 ZM 424.01 137.25 C423.99,138.79 425.81,137.88 431.45,133.50 C434.63,131.02 437.61,129.00 438.07,129.00 C438.53,129.00 441.87,131.08 445.50,133.61 C449.13,136.15 452.35,137.98 452.66,137.68 C453.09,137.24 450.86,129.40 448.33,122.48 C448.13,121.92 451.41,118.99 455.63,115.98 L 463.29 110.50 L 444.14 109.93 L 442.05 103.21 C440.90,99.52 439.55,95.84 439.04,95.03 C438.00,93.39 437.61,94.17 434.44,104.25 L 432.63 110.00 L 423.73 110.00 C418.80,110.00 414.98,110.41 415.17,110.91 C415.35,111.41 418.31,113.89 421.75,116.41 C425.19,118.93 428.00,121.56 427.99,122.25 C427.99,122.94 427.09,126.43 426.00,130.00 C424.91,133.57 424.01,136.84 424.01,137.25 ZM 347.26 422.75 C346.99,423.99 347.08,425.00 347.45,425.00 C347.83,425.00 351.09,422.89 354.70,420.32 C358.06,417.92 359.64,416.60 361.28,416.52 C363.00,416.44 364.78,417.73 368.75,420.60 C369.28,420.98 369.86,421.40 370.48,421.85 C373.04,423.69 375.32,425.01 375.55,424.78 C375.78,424.56 374.85,420.80 373.50,416.44 C372.14,412.07 371.02,408.46 371.02,408.40 C371.01,408.35 374.14,406.10 377.98,403.40 C381.82,400.71 384.97,398.16 384.98,397.75 C384.99,397.34 380.96,397.00 376.03,397.00 L 367.06 397.00 L 364.42 388.51 C362.96,383.84 361.44,380.23 361.03,380.48 C360.63,380.73 359.27,384.55 358.01,388.97 L 355.72 397.00 L 346.11 397.03 L 336.50 397.06 L 339.16 399.28 C340.62,400.50 344.04,403.05 346.74,404.94 L 351.67 408.39 L 349.71 414.44 C348.64,417.77 347.54,421.51 347.26,422.75 ZM 347.00 116.53 C347.00,118.34 347.53,118.09 353.85,113.27 C357.61,110.42 359.39,108.99 361.18,108.98 C362.87,108.96 364.58,110.21 367.98,112.69 C368.14,112.81 368.32,112.94 368.49,113.07 C372.24,115.80 375.51,117.83 375.75,117.58 C376.00,117.33 375.22,114.06 374.02,110.31 C372.82,106.57 371.66,102.92 371.44,102.22 C371.22,101.52 374.26,98.59 378.20,95.72 L 385.37 90.50 L 367.50 89.50 L 364.61 81.19 C362.90,76.24 361.36,73.24 360.83,73.77 C360.33,74.27 358.91,78.01 357.67,82.09 L 355.42 89.50 L 346.07 89.79 L 336.72 90.08 L 343.86 95.11 C347.99,98.01 351.00,100.86 351.00,101.85 C351.00,102.80 350.10,106.13 349.00,109.26 C347.90,112.39 347.00,115.66 347.00,116.53 ZM 424.00 403.16 C424.00,404.17 424.12,405.00 424.27,405.00 C424.42,405.00 427.23,402.98 430.52,400.51 C433.81,398.04 437.24,396.02 438.15,396.01 C439.06,396.00 442.19,397.80 445.12,400.00 C451.53,404.81 453.22,405.12 451.99,401.25 C451.51,399.74 450.42,396.31 449.57,393.63 C448.72,390.96 448.27,388.38 448.56,387.90 C448.86,387.42 452.11,384.89 455.78,382.27 L 462.47 377.50 L 454.03 377.21 C449.40,377.04 445.08,376.48 444.44,375.95 C443.81,375.43 442.29,371.62 441.06,367.50 C439.84,363.37 438.51,360.00 438.12,360.00 C437.72,360.00 436.27,363.71 434.90,368.25 L 432.41 376.50 L 413.56 377.50 L 420.78 382.43 C424.75,385.14 428.00,387.88 428.00,388.52 C428.00,389.16 427.10,392.30 426.00,395.50 C424.90,398.70 424.00,402.14 424.00,403.16 ZM 214.00 193.07 C214.00,195.10 214.05,195.10 217.13,192.82 C218.86,191.54 222.03,189.26 224.19,187.74 L 228.11 184.98 L 232.30 187.95 C234.61,189.59 237.62,191.83 239.00,192.94 C240.38,194.05 241.79,194.97 242.14,194.98 C242.93,195.00 241.76,190.01 239.60,184.12 C238.72,181.72 238.01,179.24 238.02,178.62 C238.03,178.01 241.24,175.25 245.16,172.50 L 252.29 167.50 L 243.73 167.21 C238.57,167.04 234.79,166.44 234.20,165.71 C233.65,165.05 232.24,161.24 231.06,157.25 C229.88,153.26 228.57,150.00 228.14,150.00 C227.71,150.00 226.58,152.59 225.62,155.75 C223.66,162.22 223.04,164.99 221.33,166.17 C220.05,167.04 218.16,167.03 214.65,167.01 C214.04,167.00 213.37,167.00 212.65,167.00 L 203.54 167.00 L 210.52 172.08 C214.36,174.87 217.65,177.56 217.83,178.07 C218.01,178.57 217.22,181.69 216.08,185.00 C214.94,188.30 214.00,191.94 214.00,193.07 ZM 270.00 403.25 C270.00,404.84 272.29,403.85 277.50,400.00 C280.48,397.80 283.63,396.00 284.50,396.00 C285.37,396.00 288.47,397.80 291.38,400.00 C297.10,404.31 299.57,405.08 298.69,402.25 C298.39,401.29 297.25,397.68 296.16,394.23 L 294.17 387.97 L 297.59 385.48 C299.46,384.12 302.69,381.76 304.75,380.25 L 308.50 377.50 L 290.50 376.50 L 287.81 368.50 C286.33,364.10 284.80,360.59 284.40,360.70 C284.01,360.80 282.47,364.40 281.00,368.70 L 278.31 376.50 L 269.41 377.00 L 260.50 377.50 L 265.42 381.00 C268.12,382.92 271.38,385.40 272.66,386.50 L 274.98 388.50 L 272.49 395.50 C271.13,399.35 270.01,402.84 270.00,403.25 ZM 1037.00 62.00 L 1037.00 87.00 L 1046.25 87.00 C1060.66,87.00 1064.95,83.89 1064.99,73.44 C1065.01,64.39 1061.31,62.00 1047.28,62.00 ZM 1139.67 88.33 C1140.73,89.40 1153.60,89.10 1156.68,87.94 C1158.23,87.35 1160.74,85.69 1162.25,84.25 C1164.63,81.98 1165.00,80.85 1165.00,75.86 C1165.00,64.76 1161.54,62.00 1147.60,62.00 L 1139.00 62.00 L 1139.00 74.83 C1139.00,81.89 1139.30,87.97 1139.67,88.33 Z" fill="rgb(31,68,145)"/>
<path d="M 1468.48 305.37 C1449.97,309.86 1430.13,306.71 1419.27,297.57 C1414.41,293.48 1409.09,283.49 1406.76,274.08 C1403.89,262.44 1403.70,238.87 1406.41,228.50 C1411.42,209.26 1422.12,198.05 1438.85,194.53 C1453.31,191.49 1470.06,193.46 1479.72,199.34 C1489.67,205.39 1494.54,212.32 1498.16,225.59 C1501.24,236.90 1501.25,261.90 1498.16,273.31 C1493.20,291.68 1484.00,301.61 1468.48,305.37 ZM 1161.00 305.89 C1150.93,308.07 1136.46,307.71 1129.75,305.11 C1128.24,304.53 1127.00,304.27 1127.00,304.55 C1127.00,305.56 1119.19,301.00 1114.28,297.13 C1107.26,291.58 1101.86,280.40 1100.23,268.00 C1099.30,261.01 1099.28,240.07 1100.20,233.41 C1101.06,227.10 1105.26,215.75 1108.60,210.68 C1118.11,196.26 1137.45,190.18 1160.50,194.38 C1169.27,195.98 1174.92,198.86 1181.53,205.12 C1191.40,214.45 1194.97,226.40 1194.95,250.00 C1194.92,273.38 1190.82,286.42 1180.54,295.80 C1175.40,300.49 1167.38,305.63 1166.00,305.11 C1165.72,305.00 1163.47,305.36 1161.00,305.89 ZM 1024.80 304.80 C1024.01,305.59 1019.76,306.00 1012.34,306.00 C1002.22,306.00 1000.96,305.80 1000.04,304.07 C999.36,302.80 999.00,283.91 999.00,249.64 C999.00,203.25 999.18,196.96 1000.57,195.57 C1001.90,194.24 1005.44,194.00 1023.82,194.01 C1035.74,194.01 1048.43,194.48 1052.00,195.05 C1060.31,196.38 1070.24,201.95 1074.68,207.79 C1085.66,222.22 1081.78,247.36 1067.21,256.12 C1065.17,257.34 1063.34,258.47 1063.15,258.61 C1062.95,258.76 1067.58,268.88 1073.44,281.10 C1079.29,293.33 1083.86,303.93 1083.57,304.67 C1082.87,306.51 1057.62,306.59 1055.92,304.75 C1055.29,304.06 1050.88,294.73 1046.13,284.00 L 1037.50 264.50 L 1026.00 263.90 L 1026.00 283.75 C1026.00,297.86 1025.65,303.95 1024.80,304.80 ZM 948.46 305.31 C936.54,308.27 926.07,308.04 914.72,304.60 C903.19,301.10 893.20,288.74 890.12,274.20 C888.51,266.56 888.58,196.82 890.20,195.20 C891.85,193.55 913.15,193.55 914.80,195.20 C915.69,196.09 916.00,205.86 916.01,232.95 C916.01,255.53 916.41,270.95 917.07,273.30 C921.45,289.09 945.47,288.39 949.92,272.34 C950.59,269.94 950.99,254.75 950.99,231.86 C951.00,199.37 951.18,195.15 952.58,194.61 C953.45,194.27 958.80,194.00 964.46,194.00 C972.19,194.00 975.05,194.36 975.95,195.44 C976.84,196.51 977.06,207.16 976.82,237.74 L 976.50 278.61 L 972.71 286.27 C967.40,297.02 960.69,302.28 948.46,305.31 ZM 1242.77 285.25 L 1242.50 305.50 L 1230.45 305.78 C1223.82,305.93 1218.08,305.75 1217.70,305.36 C1217.31,304.98 1217.00,280.27 1217.00,250.46 C1217.00,203.72 1217.20,196.07 1218.49,195.01 C1219.61,194.08 1226.20,193.87 1245.24,194.17 C1270.30,194.56 1270.55,194.58 1276.43,197.31 C1289.42,203.33 1295.59,211.76 1296.70,225.02 C1297.93,239.65 1292.90,252.21 1283.25,258.62 C1276.57,263.06 1267.76,264.96 1253.77,264.98 L 1243.04 265.00 ZM 1385.80 304.80 C1384.08,306.52 1314.92,306.52 1313.20,304.80 C1312.30,303.90 1312.00,290.32 1312.00,249.84 C1312.00,197.70 1312.06,196.04 1313.93,195.04 C1316.94,193.43 1382.12,193.64 1384.35,195.27 C1385.82,196.34 1386.04,197.96 1385.79,206.02 L 1385.50 215.50 L 1339.00 216.04 L 1339.00 236.96 L 1379.50 237.50 L 1380.38 242.66 C1380.86,245.50 1380.94,250.34 1380.55,253.41 L 1379.86 259.00 L 1339.00 259.00 L 1339.00 284.00 L 1361.80 284.00 C1378.20,284.00 1384.94,284.34 1385.80,285.20 C1386.55,285.95 1387.00,289.64 1387.00,295.00 C1387.00,300.36 1386.55,304.05 1385.80,304.80 ZM 869.50 284.50 L 869.50 305.50 L 833.43 305.76 C813.59,305.91 797.05,305.72 796.68,305.35 C796.31,304.97 796.00,280.04 796.00,249.94 C796.00,200.96 796.17,195.15 797.58,194.61 C800.41,193.52 865.98,193.92 868.07,195.04 C869.75,195.94 870.00,197.19 870.00,204.84 C870.00,210.32 869.55,214.05 868.80,214.80 C867.94,215.66 861.32,216.00 845.36,216.00 C833.13,216.00 822.97,216.34 822.80,216.75 C822.62,217.16 822.62,221.89 822.81,227.25 L 823.14 237.00 L 841.99 237.00 C852.35,237.00 861.55,237.27 862.42,237.61 C863.72,238.11 864.00,240.05 864.00,248.61 L 864.00 259.00 L 843.67 259.00 C832.48,259.00 823.15,259.19 822.92,259.41 C822.69,259.64 822.64,265.26 822.81,271.89 L 823.12 283.96 L 846.31 284.23 ZM 1141.28 284.03 C1152.64,286.73 1161.96,282.03 1165.50,271.79 C1168.22,263.95 1168.77,242.25 1166.49,232.95 C1163.29,219.92 1159.21,216.50 1146.82,216.50 C1135.12,216.50 1131.47,220.04 1128.58,234.21 C1126.56,244.06 1126.57,256.98 1128.58,266.76 C1131.05,278.67 1133.65,282.22 1141.28,284.03 ZM 1446.21 284.35 C1450.20,285.21 1458.73,284.22 1462.42,282.47 C1470.32,278.72 1473.46,267.62 1472.73,246.00 C1472.08,226.81 1470.09,221.83 1461.50,217.88 C1456.50,215.59 1447.94,215.46 1443.76,217.62 C1439.52,219.82 1437.45,222.47 1434.89,229.00 C1431.88,236.65 1431.58,261.35 1434.37,270.50 C1436.33,276.93 1441.87,283.41 1446.21,284.35 ZM 1243.00 215.76 L 1243.00 243.00 L 1252.05 243.00 C1265.40,243.00 1270.00,239.67 1270.00,230.00 C1270.00,220.56 1265.11,216.87 1251.75,216.20 ZM 1026.00 216.00 L 1026.00 242.00 L 1034.53 242.00 C1048.74,242.00 1053.29,238.68 1053.29,228.28 C1053.29,223.42 1052.92,222.33 1050.64,220.37 C1047.08,217.30 1041.94,216.01 1033.25,216.01 Z" fill="rgb(169,36,120)"/>
<path d="M 214.00 346.63 C214.00,345.88 214.90,342.44 216.00,339.00 C217.10,335.56 218.00,332.40 218.00,331.99 C218.00,331.58 214.74,328.83 210.75,325.87 L 203.50 320.50 L 212.47 320.21 C218.08,320.03 221.73,319.46 222.22,318.71 C222.65,318.04 223.92,314.46 225.04,310.75 C226.17,307.04 227.49,304.00 227.99,304.00 C228.49,304.00 229.95,307.49 231.23,311.75 L 233.57 319.50 L 242.78 319.79 C247.85,319.95 251.99,320.40 251.98,320.79 C251.97,321.18 248.82,323.71 244.98,326.40 C241.14,329.10 238.01,331.58 238.01,331.90 C238.02,332.23 239.11,335.88 240.43,340.00 C241.76,344.15 242.41,347.65 241.88,347.84 C241.36,348.03 238.47,346.33 235.47,344.06 C232.46,341.80 229.44,339.72 228.75,339.46 C228.06,339.19 224.79,341.00 221.50,343.48 C215.05,348.32 214.00,348.76 214.00,346.63 ZM 193.00 270.77 C193.00,269.97 193.89,266.65 194.98,263.41 C196.06,260.16 196.96,256.76 196.98,255.84 C196.99,254.93 193.75,251.78 189.78,248.84 L 182.57 243.50 L 192.16 243.22 L 201.76 242.93 L 203.49 236.72 C204.44,233.30 205.79,229.42 206.47,228.09 C207.65,225.82 207.88,226.19 210.47,234.31 L 213.21 242.93 L 232.48 243.50 L 224.99 248.90 C220.87,251.86 217.38,254.38 217.23,254.50 C217.08,254.61 218.09,258.03 219.48,262.10 C220.86,266.17 221.99,269.84 221.99,270.25 C222.01,271.78 220.20,270.89 214.42,266.53 C211.17,264.07 208.09,262.04 207.59,262.03 C207.10,262.01 205.30,263.04 203.59,264.31 C201.89,265.58 198.81,267.88 196.75,269.43 C194.07,271.43 193.00,271.82 193.00,270.77 ZM 480.00 193.74 C480.00,192.98 481.12,189.06 482.49,185.03 C482.74,184.30 482.97,183.65 483.18,183.06 C484.05,180.59 484.54,179.21 484.23,178.05 C483.77,176.33 481.55,175.07 476.25,171.35 C473.36,169.32 471.00,167.25 471.00,166.75 C471.00,166.24 474.86,165.96 479.70,166.13 L 488.40 166.43 L 490.90 158.72 C492.28,154.47 493.91,151.00 494.52,151.00 C495.13,151.00 496.66,154.36 497.92,158.47 L 500.21 165.93 L 509.86 166.22 L 519.50 166.50 L 512.25 171.83 C507.85,175.07 505.00,177.88 505.00,178.98 C505.00,179.99 506.08,184.00 507.40,187.90 C508.72,191.81 509.56,195.00 509.27,195.00 C508.98,195.00 505.60,192.67 501.76,189.82 C496.81,186.15 494.39,184.92 493.44,185.57 C492.69,186.08 489.37,188.44 486.04,190.81 C482.29,193.49 480.00,194.60 480.00,193.74 ZM 271.61 131.46 C272.92,127.32 274.00,123.31 274.00,122.56 C274.00,121.80 270.75,118.78 266.78,115.84 L 259.57 110.50 L 269.03 110.21 L 278.50 109.93 L 281.00 101.97 C282.38,97.59 283.78,94.01 284.13,94.01 C284.71,94.00 288.05,102.55 289.51,107.75 C290.10,109.87 290.66,110.00 299.07,110.00 C303.98,110.00 308.00,110.34 308.00,110.75 C308.00,111.16 305.78,113.01 303.07,114.85 C300.37,116.70 297.27,119.17 296.18,120.35 C294.22,122.49 294.22,122.53 296.64,129.89 C297.97,133.95 298.84,137.49 298.58,137.76 C298.31,138.02 295.18,136.16 291.62,133.62 C288.06,131.08 284.84,129.00 284.46,129.00 C284.09,129.00 280.69,131.25 276.90,134.00 C273.12,136.75 269.85,139.00 269.62,139.00 C269.40,139.00 270.29,135.61 271.61,131.46 ZM 500.00 271.26 C500.00,270.76 501.12,267.04 502.50,263.00 C503.88,258.96 505.00,255.31 505.00,254.91 C505.00,254.50 501.74,251.76 497.75,248.83 L 490.50 243.50 L 499.92 243.00 L 509.33 242.50 L 512.02 234.00 C513.44,229.51 514.16,227.15 514.91,227.14 C515.72,227.13 516.56,229.79 518.33,235.41 L 518.52 236.00 L 520.57 242.50 L 530.04 243.00 L 539.50 243.50 L 532.25 248.83 C528.26,251.76 525.00,254.46 525.00,254.83 C525.00,255.20 526.08,258.99 527.39,263.25 C528.71,267.51 529.43,271.00 529.00,271.00 C528.57,271.00 525.43,268.94 522.01,266.43 C518.50,263.84 515.17,262.10 514.34,262.42 C513.54,262.73 509.99,265.05 506.44,267.58 C502.90,270.11 500.00,271.76 500.00,271.26 ZM 480.00 347.74 C480.00,346.98 481.10,343.13 482.44,339.19 L 484.87 332.03 L 480.69 328.65 C478.38,326.80 475.26,324.49 473.75,323.52 C472.24,322.56 471.00,321.37 471.00,320.88 C471.00,320.40 475.01,320.00 479.92,320.00 L 488.84 320.00 L 491.06 312.50 C492.29,308.38 493.82,305.00 494.47,305.00 C495.12,305.00 496.70,308.36 497.99,312.47 L 500.33 319.93 L 509.92 320.22 L 519.50 320.50 L 514.59 324.00 C511.89,325.92 508.44,328.53 506.91,329.78 L 504.14 332.06 L 506.57 339.21 C510.22,349.94 510.15,350.00 501.03,343.36 C496.71,340.22 494.24,339.01 493.37,339.61 C492.67,340.10 489.37,342.44 486.04,344.81 C482.29,347.49 480.00,348.60 480.00,347.74 ZM 424.01 137.25 C424.01,136.84 424.91,133.57 426.00,130.00 C427.09,126.43 427.99,122.94 427.99,122.25 C428.00,121.56 425.19,118.93 421.75,116.41 C418.31,113.89 415.35,111.41 415.17,110.91 C414.98,110.41 418.80,110.00 423.73,110.00 L 432.63 110.00 L 434.44 104.25 C437.61,94.17 438.00,93.39 439.04,95.03 C439.55,95.84 440.90,99.52 442.05,103.21 L 444.14 109.93 L 463.29 110.50 L 455.63 115.98 C451.41,118.99 448.13,121.92 448.33,122.48 C450.86,129.40 453.09,137.24 452.66,137.68 C452.35,137.98 449.13,136.15 445.50,133.61 C441.87,131.08 438.53,129.00 438.07,129.00 C437.61,129.00 434.63,131.02 431.45,133.50 C425.81,137.88 423.99,138.79 424.01,137.25 ZM 347.26 422.75 C347.54,421.51 348.64,417.77 349.71,414.44 L 351.67 408.39 L 346.74 404.94 C344.04,403.05 340.62,400.50 339.16,399.28 L 336.50 397.06 L 346.11 397.03 L 355.72 397.00 L 358.01 388.97 C359.27,384.55 360.63,380.73 361.03,380.48 C361.44,380.23 362.96,383.84 364.42,388.51 L 367.06 397.00 L 376.03 397.00 C380.96,397.00 384.99,397.34 384.98,397.75 C384.97,398.16 381.82,400.71 377.98,403.40 C374.14,406.10 371.01,408.35 371.02,408.40 C371.02,408.46 372.14,412.07 373.50,416.44 C374.85,420.80 375.78,424.56 375.55,424.78 C375.32,425.01 373.04,423.69 370.48,421.85 C369.86,421.40 369.28,420.98 368.75,420.60 C364.78,417.73 363.00,416.44 361.28,416.52 C359.64,416.60 358.06,417.92 354.70,420.32 C351.09,422.89 347.83,425.00 347.45,425.00 C347.08,425.00 346.99,423.99 347.26,422.75 ZM 347.00 116.53 C347.00,115.66 347.90,112.39 349.00,109.26 C350.10,106.13 351.00,102.80 351.00,101.85 C351.00,100.86 347.99,98.01 343.86,95.11 L 336.72 90.08 L 346.07 89.79 L 355.42 89.50 L 357.67 82.09 C358.91,78.01 360.33,74.27 360.83,73.77 C361.36,73.24 362.90,76.24 364.61,81.19 L 367.50 89.50 L 385.37 90.50 L 378.20 95.72 C374.26,98.59 371.22,101.52 371.44,102.22 C371.66,102.92 372.82,106.57 374.02,110.31 C375.22,114.06 376.00,117.33 375.75,117.58 C375.51,117.83 372.24,115.80 368.49,113.07 C368.32,112.94 368.14,112.81 367.98,112.69 C364.58,110.21 362.87,108.96 361.18,108.98 C359.39,108.99 357.61,110.42 353.85,113.27 C347.53,118.09 347.00,118.34 347.00,116.53 ZM 424.00 403.16 C424.00,402.14 424.90,398.70 426.00,395.50 C427.10,392.30 428.00,389.16 428.00,388.52 C428.00,387.88 424.75,385.14 420.78,382.43 L 413.56 377.50 L 432.41 376.50 L 434.90 368.25 C436.27,363.71 437.72,360.00 438.12,360.00 C438.51,360.00 439.84,363.37 441.06,367.50 C442.29,371.62 443.81,375.43 444.44,375.95 C445.08,376.48 449.40,377.04 454.03,377.21 L 462.47 377.50 L 455.78 382.27 C452.11,384.89 448.86,387.42 448.56,387.90 C448.27,388.38 448.72,390.96 449.57,393.63 C450.42,396.31 451.51,399.74 451.99,401.25 C453.22,405.12 451.53,404.81 445.12,400.00 C442.19,397.80 439.06,396.00 438.15,396.01 C437.24,396.02 433.81,398.04 430.52,400.51 C427.23,402.98 424.42,405.00 424.27,405.00 C424.12,405.00 424.00,404.17 424.00,403.16 ZM 214.00 193.07 C214.00,191.94 214.94,188.30 216.08,185.00 C217.22,181.69 218.01,178.57 217.83,178.07 C217.65,177.56 214.36,174.87 210.52,172.08 L 203.54 167.00 L 212.65 167.00 C213.37,167.00 214.04,167.00 214.65,167.01 C218.16,167.03 220.05,167.04 221.33,166.17 C223.04,164.99 223.66,162.22 225.62,155.75 C226.58,152.59 227.71,150.00 228.14,150.00 C228.57,150.00 229.88,153.26 231.06,157.25 C232.24,161.24 233.65,165.05 234.20,165.71 C234.79,166.44 238.57,167.04 243.73,167.21 L 252.29 167.50 L 245.16 172.50 C241.24,175.25 238.03,178.01 238.02,178.62 C238.01,179.24 238.72,181.72 239.60,184.12 C241.76,190.01 242.93,195.00 242.14,194.98 C241.79,194.97 240.38,194.05 239.00,192.94 C237.62,191.83 234.61,189.59 232.30,187.95 L 228.11 184.98 L 224.19 187.74 C222.03,189.26 218.86,191.54 217.13,192.82 C214.05,195.10 214.00,195.10 214.00,193.07 ZM 270.00 403.25 C270.01,402.84 271.13,399.35 272.49,395.50 L 274.98 388.50 L 272.66 386.50 C271.38,385.40 268.12,382.92 265.42,381.00 L 260.50 377.50 L 269.41 377.00 L 278.31 376.50 L 281.00 368.70 C282.47,364.40 284.01,360.80 284.40,360.70 C284.80,360.59 286.33,364.10 287.81,368.50 L 290.50 376.50 L 308.50 377.50 L 304.75 380.25 C302.69,381.76 299.46,384.12 297.59,385.48 L 294.17 387.97 L 296.16 394.23 C297.25,397.68 298.39,401.29 298.69,402.25 C299.57,405.08 297.10,404.31 291.38,400.00 C288.47,397.80 285.37,396.00 284.50,396.00 C283.63,396.00 280.48,397.80 277.50,400.00 C272.29,403.85 270.00,404.84 270.00,403.25 Z" fill="rgb(244,236,31)"/>
<path d="M 0.00 250.00 L 0.00 0.00 L 1049.00 0.00 L 2098.00 0.00 L 2098.00 250.00 L 2098.00 500.00 L 1049.00 500.00 L 0.00 500.00 L 0.00 250.00 ZM 2089.75 251.25 L 2090.00 17.00 L 2083.50 17.00 L 2077.00 17.00 L 2077.00 251.55 L 2077.00 486.10 L 2083.25 485.80 L 2089.50 485.50 L 2089.75 251.25 ZM 713.00 250.50 L 713.00 16.00 L 361.25 16.25 L 9.50 16.50 L 9.24 249.50 C9.10,377.65 9.20,483.06 9.46,483.75 C9.84,484.75 81.16,485.00 361.47,485.00 L 713.00 485.00 L 713.00 250.50 ZM 1056.50 460.79 C1068.18,458.60 1076.42,453.25 1081.53,444.54 C1085.94,437.01 1086.52,421.96 1082.74,412.93 C1078.99,403.94 1069.65,398.09 1052.50,393.97 C1047.55,392.79 1041.76,391.37 1039.63,390.83 C1037.50,390.29 1034.63,388.72 1033.26,387.35 C1031.17,385.26 1030.85,384.19 1031.29,380.85 C1031.59,378.65 1032.58,376.02 1033.50,375.00 C1037.27,370.83 1050.59,370.14 1068.85,373.18 C1076.66,374.48 1077.27,374.01 1079.70,364.74 C1081.02,359.71 1081.19,357.53 1080.39,356.24 C1076.98,350.75 1052.69,346.63 1036.13,348.71 C1014.86,351.40 1003.59,363.13 1003.70,382.50 C1003.76,394.19 1007.08,400.52 1016.59,407.06 C1021.00,410.10 1036.31,415.35 1044.14,416.52 C1048.65,417.19 1053.35,419.23 1056.25,421.78 C1058.23,423.51 1058.67,430.89 1056.97,434.06 C1056.40,435.11 1054.51,436.72 1052.76,437.62 C1050.04,439.03 1047.29,439.18 1033.54,438.65 C1024.72,438.30 1015.15,437.74 1012.27,437.39 C1007.39,436.79 1006.99,436.91 1006.12,439.17 C1005.62,440.51 1004.88,444.58 1004.49,448.22 L 1003.78 454.84 L 1006.85 456.42 C1013.25,459.73 1035.13,463.05 1045.50,462.28 C1048.25,462.08 1053.20,461.41 1056.50,460.79 ZM 1167.00 460.33 C1179.86,457.20 1189.94,448.17 1194.40,435.76 C1198.24,425.11 1199.08,419.09 1198.90,403.50 C1198.71,386.78 1197.24,378.94 1192.48,369.29 C1188.37,360.95 1183.70,356.63 1173.79,351.99 C1161.58,346.28 1139.35,346.74 1127.12,352.96 C1111.11,361.11 1103.00,378.61 1103.01,405.00 C1103.02,425.39 1107.27,440.75 1115.37,449.72 C1125.49,460.93 1146.65,465.27 1167.00,460.33 ZM 851.50 459.63 C857.18,458.33 866.51,453.11 870.85,448.81 C876.53,443.19 879.62,437.79 882.31,428.81 C885.45,418.33 885.46,393.15 882.33,381.74 C878.63,368.25 871.17,359.22 859.28,353.83 C850.66,349.92 840.93,348.87 816.50,349.22 L 796.50 349.50 L 796.24 404.00 C796.10,433.98 796.21,459.10 796.49,459.82 C796.90,460.89 802.00,461.07 822.75,460.74 C836.91,460.51 849.85,460.01 851.50,459.63 ZM 932.80 459.80 C934.53,458.07 934.53,351.93 932.80,350.20 C932.01,349.41 927.80,349.00 920.50,349.00 C913.20,349.00 908.99,349.41 908.20,350.20 C906.42,351.98 906.47,459.62 908.25,460.34 C910.99,461.44 931.61,460.99 932.80,459.80 ZM 1294.96 459.07 C1296.08,456.99 1296.40,443.20 1295.39,440.58 C1294.86,439.20 1291.76,439.00 1270.89,439.00 L 1247.00 439.00 L 1247.00 395.12 C1247.00,358.84 1246.76,351.04 1245.61,350.09 C1244.68,349.32 1240.37,349.03 1232.86,349.22 L 1221.50 349.50 L 1221.24 404.00 C1221.10,433.98 1221.20,459.06 1221.46,459.75 C1221.83,460.72 1230.06,461.00 1257.93,461.00 C1292.50,461.00 1293.97,460.92 1294.96,459.07 ZM 1335.76 405.27 L 1336.02 350.04 L 1333.76 349.48 C1332.52,349.17 1326.78,349.05 1321.00,349.21 L 1310.50 349.50 L 1310.24 404.00 C1310.10,433.98 1310.20,459.08 1310.47,459.78 C1310.84,460.75 1313.97,460.99 1323.23,460.78 L 1335.50 460.50 L 1335.76 405.27 ZM 1412.92 459.87 C1425.22,457.75 1435.57,450.96 1441.68,441.00 C1447.62,431.32 1450.65,411.84 1448.92,394.48 C1447.51,380.29 1444.45,372.04 1437.34,363.28 C1432.45,357.26 1419.73,351.08 1409.87,349.94 C1401.39,348.96 1363.95,348.70 1361.58,349.61 C1360.17,350.15 1360.00,355.97 1360.00,405.02 C1360.00,447.94 1360.27,459.94 1361.25,460.34 C1363.77,461.36 1406.52,460.97 1412.92,459.87 ZM 1485.39 459.70 C1486.43,458.94 1488.50,453.84 1490.36,447.45 L 1493.55 436.50 L 1510.66 436.23 L 1527.77 435.95 L 1528.48 438.73 C1528.87,440.25 1529.32,442.17 1529.49,443.00 C1530.45,447.75 1533.41,456.82 1534.63,458.75 C1535.97,460.89 1536.67,461.00 1548.46,461.00 C1555.29,461.00 1561.13,460.60 1561.44,460.10 C1562.04,459.13 1560.30,452.86 1556.15,441.00 C1554.70,436.88 1553.51,433.27 1553.49,433.00 C1553.41,432.02 1537.74,384.38 1535.34,377.86 C1534.00,374.20 1532.70,370.05 1532.44,368.63 C1531.64,364.25 1526.11,350.69 1524.77,349.84 C1524.07,349.39 1517.57,349.02 1510.32,349.02 C1496.07,349.00 1495.21,349.28 1493.31,354.66 C1492.35,357.41 1489.83,365.38 1484.37,383.00 C1482.93,387.67 1480.48,395.33 1478.95,400.00 C1477.41,404.67 1474.76,413.00 1473.06,418.50 C1471.36,424.00 1467.79,435.25 1465.13,443.50 C1461.82,453.77 1460.60,458.89 1461.27,459.75 C1462.65,461.52 1482.97,461.47 1485.39,459.70 ZM 1599.86 459.67 C1600.55,458.83 1601.06,451.06 1601.23,438.42 L 1601.50 418.50 L 1606.82 418.50 L 1612.13 418.50 L 1615.17 425.50 C1616.85,429.35 1620.66,438.12 1623.66,445.00 C1626.65,451.88 1630.03,458.29 1631.16,459.25 C1632.88,460.71 1635.26,461.00 1645.64,461.00 C1655.38,461.00 1658.18,460.70 1658.60,459.60 C1658.90,458.83 1655.68,451.06 1651.45,442.35 C1641.56,421.97 1637.81,413.83 1638.19,413.60 C1643.98,410.16 1647.42,407.23 1649.75,403.78 C1654.55,396.67 1655.50,393.24 1655.50,383.00 C1655.50,374.63 1655.17,372.83 1652.71,367.82 C1649.32,360.92 1644.71,356.71 1636.05,352.60 L 1629.50 349.50 L 1603.19 349.18 C1583.83,348.94 1576.50,349.17 1575.44,350.05 C1574.22,351.06 1574.00,359.39 1574.00,404.92 C1574.00,445.34 1574.30,458.90 1575.20,459.80 C1576.96,461.56 1598.38,461.45 1599.86,459.67 ZM 1701.80 459.80 C1703.53,458.07 1703.53,351.93 1701.80,350.20 C1701.01,349.41 1696.80,349.00 1689.50,349.00 C1682.20,349.00 1677.99,349.41 1677.20,350.20 C1675.62,351.78 1675.46,456.12 1677.04,459.07 C1677.96,460.80 1679.22,461.00 1689.34,461.00 C1696.76,461.00 1701.01,460.59 1701.80,459.80 ZM 1800.80 459.80 C1801.55,459.05 1802.00,455.36 1802.00,450.00 C1802.00,444.64 1801.55,440.95 1800.80,440.20 C1799.94,439.34 1793.20,439.00 1776.80,439.00 L 1754.00 439.00 L 1754.00 426.52 L 1754.00 414.04 L 1774.25 413.77 L 1794.50 413.50 L 1794.50 403.00 L 1794.50 392.50 L 1774.25 392.23 L 1754.00 391.96 L 1754.00 381.50 L 1754.00 371.04 L 1777.25 370.77 L 1800.50 370.50 L 1800.79 361.15 C1800.98,355.11 1800.67,351.30 1799.92,350.40 C1798.96,349.25 1792.63,349.00 1764.46,349.00 C1745.60,349.00 1729.45,349.27 1728.58,349.61 C1727.17,350.15 1727.00,355.96 1727.00,404.94 C1727.00,435.04 1727.30,459.97 1727.67,460.33 C1728.03,460.70 1744.37,461.00 1763.97,461.00 C1790.35,461.00 1799.91,460.69 1800.80,459.80 ZM 1866.10 458.25 C1866.79,456.45 1867.06,441.05 1866.89,413.50 L 1866.64 371.50 L 1880.03 371.22 C1889.20,371.03 1893.66,370.56 1894.19,369.72 C1895.34,367.91 1895.16,353.17 1893.96,350.93 C1892.97,349.07 1891.45,349.00 1853.09,349.00 C1820.17,349.00 1813.04,349.24 1812.08,350.40 C1811.33,351.30 1811.02,355.11 1811.21,361.15 L 1811.50 370.50 L 1825.50 371.00 L 1839.50 371.50 L 1839.75 415.00 C1839.89,438.92 1840.21,459.06 1840.47,459.75 C1840.81,460.65 1844.26,461.00 1852.99,461.00 L 1865.05 461.00 L 1866.10 458.25 ZM 1917.66 458.00 C1918.33,456.62 1920.19,451.23 1921.77,446.00 L 1924.66 436.50 L 1941.55 436.50 L 1958.44 436.50 L 1961.75 447.96 C1963.56,454.26 1965.60,459.76 1966.28,460.19 C1968.14,461.37 1991.77,461.18 1992.52,459.97 C1993.08,459.06 1987.44,440.82 1980.15,420.00 C1978.71,415.88 1977.52,412.25 1977.51,411.95 C1977.50,411.37 1963.17,367.68 1959.71,357.67 C1958.60,354.46 1957.06,351.20 1956.28,350.42 C1954.25,348.39 1928.77,348.37 1926.75,350.40 C1925.21,351.93 1923.97,355.28 1919.08,371.00 C1917.28,376.77 1915.00,383.98 1914.01,387.00 C1909.63,400.31 1900.87,428.05 1900.52,429.69 C1900.31,430.69 1899.20,434.18 1898.05,437.46 C1896.90,440.74 1895.78,444.34 1895.55,445.46 C1895.33,446.58 1894.22,450.14 1893.09,453.37 C1891.95,456.59 1891.28,459.65 1891.59,460.15 C1891.90,460.65 1897.62,460.93 1904.29,460.78 C1916.12,460.51 1916.46,460.44 1917.66,458.00 ZM 1947.00 339.99 C1948.93,337.29 1950.50,334.67 1950.50,334.18 C1950.50,333.68 1946.00,329.49 1940.50,324.87 C1926.87,313.44 1923.58,311.00 1921.73,311.00 C1919.78,311.00 1908.95,324.71 1909.59,326.37 C1909.84,327.02 1914.38,330.02 1919.67,333.03 C1924.96,336.04 1931.82,339.94 1934.90,341.70 C1937.98,343.46 1941.18,344.90 1942.00,344.91 C1942.82,344.91 1945.07,342.70 1947.00,339.99 ZM 948.46 305.31 C960.69,302.28 967.40,297.02 972.71,286.27 L 976.50 278.61 L 976.82 237.74 C977.06,207.16 976.84,196.51 975.95,195.44 C975.05,194.36 972.19,194.00 964.46,194.00 C958.80,194.00 953.45,194.27 952.58,194.61 C951.18,195.15 951.00,199.37 950.99,231.86 C950.99,254.75 950.59,269.94 949.92,272.34 C945.47,288.39 921.45,289.09 917.07,273.30 C916.41,270.95 916.01,255.53 916.01,232.95 C916.00,205.86 915.69,196.09 914.80,195.20 C913.15,193.55 891.85,193.55 890.20,195.20 C888.58,196.82 888.51,266.56 890.12,274.20 C893.20,288.74 903.19,301.10 914.72,304.60 C926.07,308.04 936.54,308.27 948.46,305.31 ZM 1161.00 305.89 C1163.47,305.36 1165.72,305.00 1166.00,305.11 C1167.38,305.63 1175.40,300.49 1180.54,295.80 C1190.82,286.42 1194.92,273.38 1194.95,250.00 C1194.97,226.40 1191.40,214.45 1181.53,205.12 C1174.92,198.86 1169.27,195.98 1160.50,194.38 C1137.45,190.18 1118.11,196.26 1108.60,210.68 C1105.26,215.75 1101.06,227.10 1100.20,233.41 C1099.28,240.07 1099.30,261.01 1100.23,268.00 C1101.86,280.40 1107.26,291.58 1114.28,297.13 C1119.19,301.00 1127.00,305.56 1127.00,304.55 C1127.00,304.27 1128.24,304.53 1129.75,305.11 C1136.46,307.71 1150.93,308.07 1161.00,305.89 ZM 1468.48 305.37 C1484.00,301.61 1493.20,291.68 1498.16,273.31 C1501.25,261.90 1501.24,236.90 1498.16,225.59 C1494.54,212.32 1489.67,205.39 1479.72,199.34 C1470.06,193.46 1453.31,191.49 1438.85,194.53 C1422.12,198.05 1411.42,209.26 1406.41,228.50 C1403.70,238.87 1403.89,262.44 1406.76,274.08 C1409.09,283.49 1414.41,293.48 1419.27,297.57 C1430.13,306.71 1449.97,309.86 1468.48,305.37 ZM 869.50 295.00 L 869.50 284.50 L 846.31 284.23 L 823.12 283.96 L 822.81 271.89 C822.64,265.26 822.69,259.64 822.92,259.41 C823.15,259.19 832.48,259.00 843.67,259.00 L 864.00 259.00 L 864.00 248.61 C864.00,240.05 863.72,238.11 862.42,237.61 C861.55,237.27 852.35,237.00 841.99,237.00 L 823.14 237.00 L 822.81 227.25 C822.62,221.89 822.62,217.16 822.80,216.75 C822.97,216.34 833.13,216.00 845.36,216.00 C861.32,216.00 867.94,215.66 868.80,214.80 C869.55,214.05 870.00,210.32 870.00,204.84 C870.00,197.19 869.75,195.94 868.07,195.04 C865.98,193.92 800.41,193.52 797.58,194.61 C796.17,195.15 796.00,200.96 796.00,249.94 C796.00,280.04 796.31,304.97 796.68,305.35 C797.05,305.72 813.59,305.91 833.43,305.76 L 869.50 305.50 L 869.50 295.00 ZM 1024.80 304.80 C1025.65,303.95 1026.00,297.86 1026.00,283.75 L 1026.00 263.90 L 1031.75 264.20 L 1037.50 264.50 L 1046.13 284.00 C1050.88,294.73 1055.29,304.06 1055.92,304.75 C1057.62,306.59 1082.87,306.51 1083.57,304.67 C1083.86,303.93 1079.29,293.33 1073.44,281.10 C1067.58,268.88 1062.95,258.76 1063.15,258.61 C1063.34,258.47 1065.17,257.34 1067.21,256.12 C1081.78,247.36 1085.66,222.22 1074.68,207.79 C1070.24,201.95 1060.31,196.38 1052.00,195.05 C1048.43,194.48 1035.74,194.01 1023.82,194.01 C1005.44,194.00 1001.90,194.24 1000.57,195.57 C999.18,196.96 999.00,203.25 999.00,249.64 C999.00,283.91 999.36,302.80 1000.04,304.07 C1000.96,305.80 1002.22,306.00 1012.34,306.00 C1019.76,306.00 1024.01,305.59 1024.80,304.80 ZM 1242.77 285.25 L 1243.04 265.00 L 1253.77 264.98 C1267.76,264.96 1276.57,263.06 1283.25,258.62 C1292.90,252.21 1297.93,239.65 1296.70,225.02 C1295.59,211.76 1289.42,203.33 1276.43,197.31 C1270.55,194.58 1270.30,194.56 1245.24,194.17 C1226.20,193.87 1219.61,194.08 1218.49,195.01 C1217.20,196.07 1217.00,203.72 1217.00,250.46 C1217.00,280.27 1217.31,304.98 1217.70,305.36 C1218.08,305.75 1223.82,305.93 1230.45,305.78 L 1242.50 305.50 L 1242.77 285.25 ZM 1385.80 304.80 C1386.55,304.05 1387.00,300.36 1387.00,295.00 C1387.00,289.64 1386.55,285.95 1385.80,285.20 C1384.94,284.34 1378.20,284.00 1361.80,284.00 L 1339.00 284.00 L 1339.00 271.50 L 1339.00 259.00 L 1359.43 259.00 L 1379.86 259.00 L 1380.55 253.41 C1380.94,250.34 1380.86,245.50 1380.38,242.66 L 1379.50 237.50 L 1359.25 237.23 L 1339.00 236.96 L 1339.00 226.50 L 1339.00 216.04 L 1362.25 215.77 L 1385.50 215.50 L 1385.79 206.02 C1386.04,197.96 1385.82,196.34 1384.35,195.27 C1382.12,193.64 1316.94,193.43 1313.93,195.04 C1312.06,196.04 1312.00,197.70 1312.00,249.84 C1312.00,290.32 1312.30,303.90 1313.20,304.80 C1314.92,306.52 1384.08,306.52 1385.80,304.80 ZM 857.50 151.62 C868.07,150.22 877.46,146.88 879.01,143.98 C879.99,142.15 877.10,129.70 875.26,127.86 C874.65,127.25 871.16,127.30 865.65,127.98 C851.15,129.78 839.95,129.52 834.90,127.26 C825.49,123.05 823.13,116.74 823.12,95.83 C823.12,87.77 823.54,79.62 824.07,77.72 C825.40,72.89 830.35,66.39 834.23,64.37 C838.73,62.04 849.84,61.50 863.17,62.97 C876.32,64.43 875.90,64.67 877.94,54.40 L 879.29 47.64 L 876.68 45.40 C873.17,42.38 865.61,40.34 852.89,38.98 C827.65,36.29 809.97,43.70 801.53,60.50 C795.98,71.52 794.69,78.24 794.69,96.00 C794.69,113.46 795.99,120.45 801.17,130.77 C808.11,144.59 822.64,152.55 841.50,152.86 C844.80,152.91 852.00,152.36 857.50,151.62 ZM 951.68 151.96 C966.89,149.94 977.86,141.85 984.53,127.73 C987.55,121.34 988.09,118.91 989.17,106.78 C990.60,90.81 989.22,73.37 985.85,64.55 C981.26,52.55 969.96,42.59 957.92,39.92 C954.28,39.12 946.74,38.54 940.50,38.60 C931.26,38.69 928.41,39.12 922.68,41.29 C915.47,44.02 908.68,48.94 904.45,54.48 C903.04,56.32 900.26,61.80 898.26,66.66 L 894.63 75.50 L 894.57 92.50 C894.49,112.68 895.10,117.67 898.79,126.98 C904.68,141.82 915.25,149.75 932.00,151.91 C941.34,153.11 942.98,153.12 951.68,151.96 ZM 1263.49 151.89 C1274.59,150.53 1281.48,147.23 1288.70,139.83 C1298.07,130.23 1301.91,117.53 1301.96,96.00 C1302.01,73.05 1298.62,60.85 1289.44,51.04 C1283.59,44.79 1277.26,41.51 1267.04,39.44 C1252.33,36.47 1235.56,39.08 1225.67,45.88 C1211.96,55.32 1205.21,74.21 1206.33,100.00 C1206.63,106.88 1207.12,113.62 1207.42,115.00 C1207.72,116.38 1208.26,118.85 1208.62,120.49 C1208.97,122.14 1210.81,126.74 1212.70,130.72 C1219.45,144.93 1230.41,150.96 1253.00,152.87 C1253.82,152.94 1258.54,152.50 1263.49,151.89 ZM 1037.00 130.00 L 1037.00 109.00 L 1042.89 109.00 L 1048.77 109.00 L 1054.53 121.75 C1057.70,128.76 1061.59,137.65 1063.17,141.50 C1064.76,145.35 1066.80,149.06 1067.72,149.75 C1068.85,150.60 1073.50,151.00 1082.19,151.00 C1094.55,151.00 1095.00,150.93 1095.00,148.89 C1095.00,147.74 1091.13,138.85 1086.41,129.14 C1075.07,105.86 1074.23,103.76 1076.04,103.15 C1079.32,102.06 1087.93,92.60 1090.10,87.70 C1093.59,79.82 1093.48,66.54 1089.86,59.00 C1085.60,50.15 1079.26,44.74 1069.44,41.59 C1065.20,40.23 1060.11,40.01 1037.94,40.23 L 1011.50 40.50 L 1011.24 94.94 C1011.04,137.82 1011.25,149.54 1012.24,150.17 C1012.93,150.61 1018.79,150.98 1025.25,150.98 L 1037.00 151.00 L 1037.00 130.00 ZM 1138.39 149.42 C1138.73,148.55 1139.00,139.38 1139.00,129.04 L 1139.00 110.25 L 1153.75 109.80 C1167.43,109.39 1168.90,109.15 1174.00,106.57 C1184.38,101.32 1189.69,94.14 1192.05,82.18 C1195.89,62.65 1185.85,45.72 1167.71,41.16 C1164.84,40.43 1153.76,40.00 1138.16,40.00 C1116.34,40.00 1113.14,40.20 1112.61,41.58 C1112.27,42.45 1112.00,66.89 1112.00,95.88 C1112.00,135.55 1112.30,148.90 1113.20,149.80 C1114.00,150.60 1118.33,151.00 1126.09,151.00 C1135.83,151.00 1137.89,150.74 1138.39,149.42 ZM 1146.00 439.09 C1134.83,436.85 1130.23,424.85 1131.25,400.60 C1131.86,385.80 1134.23,378.45 1139.71,374.27 C1147.37,368.43 1162.78,370.84 1167.21,378.56 C1174.07,390.52 1173.07,425.78 1165.66,433.85 C1161.44,438.43 1153.40,440.57 1146.00,439.09 ZM 822.00 405.50 L 822.00 372.00 L 831.03 372.00 C844.39,372.00 849.02,374.33 853.85,383.50 C856.38,388.31 856.48,389.12 856.49,405.00 C856.50,421.46 856.49,421.51 853.50,426.97 C848.65,435.82 842.27,438.98 829.25,438.99 L 822.00 439.00 L 822.00 405.50 ZM 1386.75 438.43 C1386.34,438.01 1386.00,422.89 1386.00,404.83 L 1386.00 372.00 L 1395.53 372.00 C1406.57,372.00 1410.20,373.19 1414.65,378.26 C1419.83,384.16 1421.50,390.67 1421.50,405.00 C1421.50,429.19 1414.97,437.84 1396.00,438.78 C1391.32,439.01 1387.16,438.86 1386.75,438.43 ZM 1500.46 412.75 C1501.07,409.49 1504.55,396.38 1508.14,383.75 C1509.19,380.04 1510.46,377.00 1510.95,377.00 C1511.44,377.00 1512.57,380.26 1513.45,384.25 C1514.34,388.24 1516.15,395.33 1517.46,400.00 C1518.78,404.67 1520.16,410.19 1520.54,412.25 L 1521.22 416.00 L 1510.53 416.00 L 1499.84 416.00 L 1500.46 412.75 ZM 1601.00 384.12 L 1601.00 371.00 L 1608.25 371.01 C1621.38,371.02 1627.31,373.97 1628.51,381.09 C1629.40,386.34 1627.51,391.50 1623.71,394.21 C1621.09,396.07 1618.92,396.51 1610.78,396.84 L 1601.00 397.23 L 1601.00 384.12 ZM 1931.00 414.41 C1931.00,413.54 1931.96,409.38 1933.13,405.16 C1937.26,390.30 1941.00,377.67 1941.38,377.28 C1942.00,376.67 1950.58,406.43 1951.75,413.25 L 1952.23 416.00 L 1941.61 416.00 C1932.59,416.00 1931.00,415.76 1931.00,414.41 ZM 1141.28 284.03 C1133.65,282.22 1131.05,278.67 1128.58,266.76 C1126.57,256.98 1126.56,244.06 1128.58,234.21 C1131.47,220.04 1135.12,216.50 1146.82,216.50 C1159.21,216.50 1163.29,219.92 1166.49,232.95 C1168.77,242.25 1168.22,263.95 1165.50,271.79 C1161.96,282.03 1152.64,286.73 1141.28,284.03 ZM 1446.21 284.35 C1441.87,283.41 1436.33,276.93 1434.37,270.50 C1431.58,261.35 1431.88,236.65 1434.89,229.00 C1437.45,222.47 1439.52,219.82 1443.76,217.62 C1447.94,215.46 1456.50,215.59 1461.50,217.88 C1470.09,221.83 1472.08,226.81 1472.73,246.00 C1473.46,267.62 1470.32,278.72 1462.42,282.47 C1458.73,284.22 1450.20,285.21 1446.21,284.35 ZM 1026.00 229.00 L 1026.00 216.00 L 1033.25 216.01 C1041.94,216.01 1047.08,217.30 1050.64,220.37 C1052.92,222.33 1053.29,223.42 1053.29,228.28 C1053.29,238.68 1048.74,242.00 1034.53,242.00 L 1026.00 242.00 L 1026.00 229.00 ZM 1243.00 229.38 L 1243.00 215.76 L 1251.75 216.20 C1265.11,216.87 1270.00,220.56 1270.00,230.00 C1270.00,239.67 1265.40,243.00 1252.05,243.00 L 1243.00 243.00 L 1243.00 229.38 ZM 933.02 127.75 C927.18,124.77 925.34,121.94 923.52,113.18 C920.58,99.03 922.41,73.97 926.81,68.06 C931.78,61.38 941.62,59.05 950.52,62.46 C959.35,65.83 962.44,74.25 962.46,95.00 C962.48,111.55 960.90,118.77 956.02,124.32 C950.89,130.17 940.72,131.68 933.02,127.75 ZM 1244.98 127.75 C1242.54,126.51 1239.74,124.09 1238.75,122.36 C1234.33,114.67 1232.74,93.74 1235.49,79.41 C1238.16,65.44 1243.68,60.41 1255.46,61.20 C1266.44,61.93 1270.48,65.69 1273.49,77.95 C1274.81,83.33 1275.10,87.97 1274.79,98.21 C1274.33,113.33 1272.18,121.17 1267.33,125.46 C1261.74,130.40 1252.16,131.39 1244.98,127.75 ZM 1037.00 74.50 L 1037.00 62.00 L 1047.28 62.00 C1061.31,62.00 1065.01,64.39 1064.99,73.44 C1064.95,83.89 1060.66,87.00 1046.25,87.00 L 1037.00 87.00 L 1037.00 74.50 ZM 1139.67 88.33 C1139.30,87.97 1139.00,81.89 1139.00,74.83 L 1139.00 62.00 L 1147.60 62.00 C1161.54,62.00 1165.00,64.76 1165.00,75.86 C1165.00,80.85 1164.63,81.98 1162.25,84.25 C1160.74,85.69 1158.23,87.35 1156.68,87.94 C1153.60,89.10 1140.73,89.40 1139.67,88.33 Z" fill="rgb(253,253,254)"/>
</g>
</svg>