<svg xmlns="http://www.w3.org/2000/svg" xmlns:xlink="http://www.w3.org/1999/xlink" width="794" zoomAndPan="magnify" viewBox="0 0 594.95996 595.499999" height="794" preserveAspectRatio="xMidYMid meet" version="1.0"><defs><clipPath id="d4e29b30ec"><path d="M 99 99 L 499 99 L 499 498 L 99 498 Z M 99 99 " clip-rule="nonzero"/></clipPath><clipPath id="aad4619692"><path d="M 99.988281 298.683594 C 99.988281 408.417969 189.375 497.804688 299.113281 497.804688 C 408.847656 497.804688 498.234375 408.417969 498.234375 298.683594 C 498.234375 188.945312 408.847656 99.761719 299.113281 99.761719 C 189.375 99.761719 99.988281 188.945312 99.988281 298.683594 " clip-rule="nonzero"/></clipPath><clipPath id="d0fbe48cd2"><path d="M 0.984375 0.757812 L 399.292969 0.757812 L 399.292969 398.820312 L 0.984375 398.820312 Z M 0.984375 0.757812 " clip-rule="nonzero"/></clipPath><clipPath id="45e0ff0a05"><path d="M 0.988281 199.683594 C 0.988281 309.417969 90.375 398.804688 200.113281 398.804688 C 309.847656 398.804688 399.234375 309.417969 399.234375 199.683594 C 399.234375 89.945312 309.847656 0.761719 200.113281 0.761719 C 90.375 0.761719 0.988281 89.945312 0.988281 199.683594 " clip-rule="nonzero"/></clipPath><clipPath id="a9c67f7728"><rect x="0" width="400" y="0" height="399"/></clipPath><clipPath id="f88fbe5512"><path d="M 179 171 L 426 171 L 426 424.84375 L 179 424.84375 Z M 179 171 " clip-rule="nonzero"/></clipPath><clipPath id="dc953839f6"><path d="M 304.300781 424.578125 C 291.929688 424.578125 280.355469 422.386719 268.386719 419.191406 C 255.015625 415.601562 242.648438 412.609375 230.675781 405.425781 C 218.703125 398.242188 208.128906 389.664062 200.546875 378.089844 C 193.367188 366.917969 189.175781 353.550781 185.382812 340.980469 C 179 319.832031 177.003906 295.890625 182.589844 274.339844 C 183.789062 269.953125 184.1875 265.761719 185.585938 261.570312 C 187.976562 253.988281 189.972656 246.609375 192.964844 239.226562 C 197.753906 227.054688 203.742188 215.683594 213.714844 206.902344 C 225.089844 196.925781 237.261719 190.941406 251.226562 185.15625 C 261.601562 180.765625 272.175781 175.179688 282.949219 173.382812 C 287.738281 172.585938 291.929688 171.585938 296.917969 171.585938 C 304.097656 171.585938 309.6875 172.785156 316.667969 173.980469 C 326.445312 175.777344 337.019531 177.574219 346.398438 180.964844 C 358.96875 185.554688 371.9375 190.742188 382.710938 199.121094 C 393.085938 207.101562 400.667969 217.277344 408.25 228.25 C 423.613281 250.398438 426.40625 278.730469 425.808594 305.066406 C 425.007812 336.191406 413.636719 367.914062 389.894531 388.867188 C 367.347656 408.816406 334.824219 424.378906 304.699219 424.378906 M 207.929688 303.671875 C 204.339844 303.070312 201.945312 303.871094 199.75 306.265625 C 193.765625 312.25 203.542969 331.402344 205.734375 337.789062 C 209.925781 349.960938 215.710938 359.933594 224.292969 369.710938 C 232.671875 379.089844 241.847656 388.265625 253.023438 394.453125 C 258.410156 397.445312 264.394531 400.039062 270.578125 401.835938 C 274.769531 403.03125 283.75 404.628906 284.945312 397.84375 C 285.742188 393.453125 279.359375 386.871094 277.363281 382.878906 C 273.773438 376.296875 270.78125 369.511719 268.1875 362.726562 C 263.796875 351.554688 260.003906 339.984375 257.210938 328.410156 C 255.417969 321.027344 255.417969 304.867188 246.636719 302.074219 C 241.25 300.476562 233.269531 301.875 227.683594 301.875 C 221.097656 301.875 214.714844 302.671875 208.128906 303.671875 M 305.496094 301.875 L 281.355469 301.875 C 277.761719 301.875 275.167969 301.277344 272.175781 303.269531 C 267.1875 306.464844 268.1875 310.652344 269.382812 315.441406 C 270.980469 321.828125 271.976562 328.410156 273.972656 334.597656 C 277.363281 345.171875 280.753906 355.746094 284.945312 366.121094 C 287.140625 371.507812 289.335938 377.09375 292.328125 382.082031 C 294.523438 386.074219 298.910156 394.851562 303.5 396.246094 C 311.878906 399.042969 321.058594 378.292969 323.851562 371.90625 C 329.039062 360.535156 333.230469 349.359375 336.023438 336.992188 C 337.019531 332.402344 339.015625 327.8125 339.8125 323.222656 C 340.414062 318.832031 342.007812 311.652344 340.613281 307.460938 C 338.617188 301.476562 332.832031 301.875 327.644531 301.875 C 320.0625 301.875 312.480469 301.875 304.699219 301.875 M 305.695312 286.910156 L 305.695312 287.109375 C 312.480469 287.109375 319.460938 286.910156 326.246094 287.109375 C 330.835938 287.109375 336.421875 288.109375 339.613281 283.71875 C 345.199219 275.738281 337.21875 260.972656 334.425781 253.191406 C 330.4375 242.617188 328.640625 231.042969 323.054688 221.070312 C 320.0625 215.882812 316.269531 211.890625 312.28125 207.5 C 309.6875 204.507812 305.695312 197.324219 300.90625 197.925781 C 292.328125 198.722656 286.542969 218.476562 283.949219 225.058594 C 279.957031 235.234375 276.367188 245.808594 273.773438 256.582031 C 271.777344 264.164062 265.59375 277.734375 272.175781 284.316406 C 275.96875 288.109375 281.554688 287.109375 286.542969 287.109375 Z M 384.308594 301.875 C 375.925781 301.875 360.5625 298.082031 357.371094 308.457031 C 355.773438 313.644531 355.773438 319.832031 354.777344 325.019531 C 353.382812 332.402344 351.785156 339.585938 349.589844 346.765625 C 346 358.539062 341.011719 369.910156 335.425781 380.886719 C 332.628906 386.472656 328.640625 390.261719 333.429688 395.449219 C 337.617188 399.839844 340.613281 397.84375 345.800781 395.648438 C 370.339844 385.273438 385.503906 367.714844 398.871094 345.371094 C 402.464844 339.183594 405.257812 332.402344 407.25 325.617188 C 408.449219 321.226562 410.644531 315.242188 410.445312 310.652344 C 410.042969 297.683594 392.886719 301.875 384.105469 301.875 M 234.867188 285.515625 C 241.449219 285.515625 247.4375 286.910156 250.628906 279.726562 C 252.421875 275.539062 251.824219 270.152344 253.222656 265.761719 C 256.015625 255.984375 258.410156 245.808594 261.203125 235.832031 C 264.195312 224.460938 269.980469 214.085938 274.96875 203.3125 C 276.964844 199.121094 276.765625 193.933594 271.179688 192.136719 C 266.390625 190.542969 258.210938 196.128906 254.019531 198.125 C 232.273438 209.296875 214.914062 229.449219 204.9375 251.59375 C 201.347656 259.375 192.566406 276.535156 198.554688 284.117188 C 202.144531 288.507812 208.328125 287.109375 213.316406 286.910156 C 220.5 286.710938 227.683594 285.714844 234.867188 285.515625 M 387.300781 289.304688 C 389.496094 289.503906 391.6875 289.503906 394.082031 289.703125 C 399.070312 289.902344 405.457031 290.902344 408.050781 285.3125 C 410.246094 280.726562 407.050781 274.140625 405.257812 269.75 C 400.867188 258.578125 395.28125 247.40625 387.699219 238.027344 C 380.117188 228.652344 371.335938 220.269531 362.160156 212.289062 C 356.972656 207.699219 340.613281 192.136719 333.03125 193.933594 C 321.058594 196.925781 335.226562 215.082031 337.617188 220.070312 C 343.40625 231.644531 348.59375 243.214844 353.179688 255.1875 C 355.175781 259.976562 356.175781 265.363281 357.171875 270.550781 C 357.96875 274.140625 357.371094 278.53125 358.570312 282.121094 C 362.359375 292.695312 378.519531 289.304688 387.300781 289.304688 " clip-rule="nonzero"/></clipPath><clipPath id="1628c3c4b6"><path d="M 0 0.457031 L 247 0.457031 L 247 253.683594 L 0 253.683594 Z M 0 0.457031 " clip-rule="nonzero"/></clipPath><clipPath id="7ef443f606"><path d="M 125.300781 253.578125 C 112.929688 253.578125 101.355469 251.386719 89.386719 248.191406 C 76.015625 244.601562 63.648438 241.609375 51.675781 234.425781 C 39.703125 227.242188 29.128906 218.664062 21.546875 207.089844 C 14.367188 195.917969 10.175781 182.550781 6.382812 169.980469 C 0 148.832031 -1.996094 124.890625 3.589844 103.339844 C 4.789062 98.953125 5.1875 94.761719 6.585938 90.570312 C 8.976562 82.988281 10.972656 75.609375 13.964844 68.226562 C 18.753906 56.054688 24.742188 44.683594 34.714844 35.902344 C 46.089844 25.925781 58.261719 19.941406 72.226562 14.15625 C 82.601562 9.765625 93.175781 4.179688 103.949219 2.382812 C 108.738281 1.585938 112.929688 0.585938 117.917969 0.585938 C 125.097656 0.585938 130.6875 1.785156 137.667969 2.980469 C 147.445312 4.777344 158.019531 6.574219 167.398438 9.964844 C 179.96875 14.554688 192.9375 19.742188 203.710938 28.121094 C 214.085938 36.101562 221.667969 46.277344 229.25 57.25 C 244.613281 79.398438 247.40625 107.730469 246.808594 134.066406 C 246.007812 165.191406 234.636719 196.914062 210.894531 217.867188 C 188.347656 237.816406 155.824219 253.378906 125.699219 253.378906 M 28.929688 132.671875 C 25.339844 132.070312 22.945312 132.871094 20.75 135.265625 C 14.765625 141.25 24.542969 160.402344 26.734375 166.789062 C 30.925781 178.960938 36.710938 188.933594 45.292969 198.710938 C 53.671875 208.089844 62.847656 217.265625 74.023438 223.453125 C 79.410156 226.445312 85.394531 229.039062 91.578125 230.835938 C 95.769531 232.03125 104.75 233.628906 105.945312 226.84375 C 106.742188 222.453125 100.359375 215.871094 98.363281 211.878906 C 94.773438 205.296875 91.78125 198.511719 89.1875 191.726562 C 84.796875 180.554688 81.003906 168.984375 78.210938 157.410156 C 76.417969 150.027344 76.417969 133.867188 67.636719 131.074219 C 62.25 129.476562 54.269531 130.875 48.683594 130.875 C 42.097656 130.875 35.714844 131.671875 29.128906 132.671875 M 126.496094 130.875 L 102.355469 130.875 C 98.761719 130.875 96.167969 130.277344 93.175781 132.269531 C 88.1875 135.464844 89.1875 139.652344 90.382812 144.441406 C 91.980469 150.828125 92.976562 157.410156 94.972656 163.597656 C 98.363281 174.171875 101.753906 184.746094 105.945312 195.121094 C 108.140625 200.507812 110.335938 206.09375 113.328125 211.082031 C 115.523438 215.074219 119.910156 223.851562 124.5 225.246094 C 132.878906 228.042969 142.058594 207.292969 144.851562 200.90625 C 150.039062 189.535156 154.230469 178.359375 157.023438 165.992188 C 158.019531 161.402344 160.015625 156.8125 160.8125 152.222656 C 161.414062 147.832031 163.007812 140.652344 161.613281 136.460938 C 159.617188 130.476562 153.832031 130.875 148.644531 130.875 C 141.0625 130.875 133.480469 130.875 125.699219 130.875 M 126.695312 115.910156 L 126.695312 116.109375 C 133.480469 116.109375 140.460938 115.910156 147.246094 116.109375 C 151.835938 116.109375 157.421875 117.109375 160.613281 112.71875 C 166.199219 104.738281 158.21875 89.972656 155.425781 82.191406 C 151.4375 71.617188 149.640625 60.042969 144.054688 50.070312 C 141.0625 44.882812 137.269531 40.890625 133.28125 36.5 C 130.6875 33.507812 126.695312 26.324219 121.90625 26.925781 C 113.328125 27.722656 107.542969 47.476562 104.949219 54.058594 C 100.957031 64.234375 97.367188 74.808594 94.773438 85.582031 C 92.777344 93.164062 86.59375 106.734375 93.175781 113.316406 C 96.96875 117.109375 102.554688 116.109375 107.542969 116.109375 Z M 205.308594 130.875 C 196.925781 130.875 181.5625 127.082031 178.371094 137.457031 C 176.773438 142.644531 176.773438 148.832031 175.777344 154.019531 C 174.382812 161.402344 172.785156 168.585938 170.589844 175.765625 C 167 187.539062 162.011719 198.910156 156.425781 209.886719 C 153.628906 215.472656 149.640625 219.261719 154.429688 224.449219 C 158.617188 228.839844 161.613281 226.84375 166.800781 224.648438 C 191.339844 214.273438 206.503906 196.714844 219.871094 174.371094 C 223.464844 168.183594 226.257812 161.402344 228.25 154.617188 C 229.449219 150.226562 231.644531 144.242188 231.445312 139.652344 C 231.042969 126.683594 213.886719 130.875 205.105469 130.875 M 55.867188 114.515625 C 62.449219 114.515625 68.4375 115.910156 71.628906 108.726562 C 73.421875 104.539062 72.824219 99.152344 74.222656 94.761719 C 77.015625 84.984375 79.410156 74.808594 82.203125 64.832031 C 85.195312 53.460938 90.980469 43.085938 95.96875 32.3125 C 97.964844 28.121094 97.765625 22.933594 92.179688 21.136719 C 87.390625 19.542969 79.210938 25.128906 75.019531 27.125 C 53.273438 38.296875 35.914062 58.449219 25.9375 80.59375 C 22.347656 88.375 13.566406 105.535156 19.554688 113.117188 C 23.144531 117.507812 29.328125 116.109375 34.316406 115.910156 C 41.5 115.710938 48.683594 114.714844 55.867188 114.515625 M 208.300781 118.304688 C 210.496094 118.503906 212.6875 118.503906 215.082031 118.703125 C 220.070312 118.902344 226.457031 119.902344 229.050781 114.3125 C 231.246094 109.726562 228.050781 103.140625 226.257812 98.75 C 221.867188 87.578125 216.28125 76.40625 208.699219 67.027344 C 201.117188 57.652344 192.335938 49.269531 183.160156 41.289062 C 177.972656 36.699219 161.613281 21.136719 154.03125 22.933594 C 142.058594 25.925781 156.226562 44.082031 158.617188 49.070312 C 164.40625 60.644531 169.59375 72.214844 174.179688 84.1875 C 176.175781 88.976562 177.175781 94.363281 178.171875 99.550781 C 178.96875 103.140625 178.371094 107.53125 179.570312 111.121094 C 183.359375 121.695312 199.519531 118.304688 208.300781 118.304688 " clip-rule="nonzero"/></clipPath><clipPath id="183de2d5b3"><rect x="0" width="247" y="0" height="254"/></clipPath></defs><g clip-path="url(#d4e29b30ec)"><g clip-path="url(#aad4619692)"><g transform="matrix(1, 0, 0, 1, 99, 99)"><g clip-path="url(#a9c67f7728)"><g clip-path="url(#d0fbe48cd2)"><g clip-path="url(#45e0ff0a05)"><rect x="-229.891191" width="856.742342" fill="#7f5ca2" height="857.519999" y="-230.01" fill-opacity="1"/></g></g></g></g></g></g><g clip-path="url(#f88fbe5512)"><g clip-path="url(#dc953839f6)"><g transform="matrix(1, 0, 0, 1, 179, 171)"><g clip-path="url(#183de2d5b3)"><g clip-path="url(#1628c3c4b6)"><g clip-path="url(#7ef443f606)"><rect x="-309.891191" width="856.742342" fill="#ffffff" height="857.519999" y="-302.01" fill-opacity="1"/></g></g></g></g></g></g></svg>