<?xml version="1.0" encoding="UTF-8"?>
<svg version="1.1" xmlns="http://www.w3.org/2000/svg" width="899" height="946">
<path d="M0 0 C252.12 0 504.24 0 764 0 C764 171.6 764 343.2 764 520 C511.88 520 259.76 520 0 520 C0 348.4 0 176.8 0 0 Z " fill="#003398" transform="translate(67,89)"/>
<path d="M0 0 C252.12 0 504.24 0 764 0 C764 171.6 764 343.2 764 520 C511.88 520 259.76 520 0 520 C0 348.4 0 176.8 0 0 Z M15 15 C15 176.37 15 337.74 15 504 C257.22 504 499.44 504 749 504 C749 342.63 749 181.26 749 15 C506.78 15 264.56 15 15 15 Z " fill="#FAFBFD" transform="translate(67,89)"/>
<path d="M0 0 C15.84 0 31.68 0 48 0 C48 3.96 48 7.92 48 12 C36.78 12 25.56 12 14 12 C14 16.29 14 20.58 14 25 C24.56 25 35.12 25 46 25 C46 28.63 46 32.26 46 36 C35.44 36 24.88 36 14 36 C14 41.28 14 46.56 14 52 C25.55 52 37.1 52 49 52 C49 55.96 49 59.92 49 64 C32.83 64 16.66 64 0 64 C0 42.88 0 21.76 0 0 Z " fill="#003399" transform="translate(197,776)"/>
<path d="M0 0 C4.62 0 9.24 0 14 0 C14.01458252 1.33699951 14.02916504 2.67399902 14.04418945 4.05151367 C14.10222124 9.01841799 14.17945435 13.98487129 14.26245117 18.95141602 C14.29567746 21.09977898 14.32371653 23.24822875 14.34643555 25.39672852 C14.38002331 28.48751776 14.43234221 31.57751312 14.48828125 34.66796875 C14.49467117 35.62648239 14.5010611 36.58499603 14.50764465 37.57255554 C14.61607751 42.50582304 14.75881713 46.01150949 18 50 C21.03223501 52.35840501 24.25757896 52.35324435 28.03125 52.26171875 C30.88928073 51.88178212 32.75817216 50.7662886 35 49 C39.15308069 40.69383863 37.34762906 27.08024636 37.5625 17.875 C37.60577881 16.1380123 37.64939578 14.401033 37.69335938 12.6640625 C37.79947344 8.44279501 37.90100529 4.2214402 38 0 C42.29 0 46.58 0 51 0 C51.07442028 6.68942866 51.12873031 13.37861375 51.16479492 20.06835938 C51.17983716 22.34183961 51.20027603 24.61529104 51.22631836 26.88867188 C51.26290221 30.16543711 51.27977248 33.44181706 51.29296875 36.71875 C51.30845261 37.72740112 51.32393646 38.73605225 51.33988953 39.77526855 C51.3416285 47.14571695 50.51827793 52.93722954 45.6875 58.8125 C37.82073042 65.21568454 29.76364049 65.49516512 20 65 C13.84165486 64.19050039 8.58551245 62.14454217 4.5546875 57.2421875 C-0.56726989 49.77876387 -0.14793721 41.57325743 -0.09765625 32.8125 C-0.0962413 31.86938965 -0.09482635 30.9262793 -0.09336853 29.95458984 C-0.0878124 26.96969303 -0.07526823 23.98487379 -0.0625 21 C-0.05747932 18.96484484 -0.05291741 16.92968849 -0.04882812 14.89453125 C-0.03785737 9.92965803 -0.02062339 4.96484213 0 0 Z " fill="#003399" transform="translate(625,776)"/>
<path d="M0 0 C5.20063884 3.88946083 7.10082681 8.74936195 9.03125 14.81640625 C-1.55999963 18.69294206 -1.55999963 18.69294206 -4.96875 17.81640625 C-6.36175182 15.85749744 -7.69120446 13.85249445 -8.96875 11.81640625 C-12.42990868 8.93210735 -15.45710145 8.27262245 -19.9765625 8.46875 C-23.39616551 9.06550425 -25.40075379 10.54701425 -27.96875 12.81640625 C-32.69936477 20.48326467 -32.85209744 28.89376498 -31.21875 37.56640625 C-30.01089056 42.40629058 -28.07072919 45.49516219 -23.78125 48.19140625 C-19.66516547 49.1060917 -16.03450329 48.95275109 -11.96875 47.81640625 C-7.80459603 44.71544053 -6.2446458 41.80399892 -4.96875 36.81640625 C0.30874285 37.35492593 4.28770564 38.58984461 9.03125 40.81640625 C7.14866279 48.09904623 4.54346975 53.95605886 -1.99609375 58.1015625 C-9.65453952 62.08053153 -17.48656327 63.19949388 -25.95703125 61.0625 C-35.70084967 57.70028931 -40.44640103 53.05238178 -44.96875 43.81640625 C-48.76249746 33.38809569 -47.47149647 22.12752139 -43.96875 11.81640625 C-40.59049423 5.18501529 -34.71762672 -0.428241 -27.71875 -3.12109375 C-18.33501125 -5.7258902 -8.39123944 -5.04473323 0 0 Z " fill="#003399" transform="translate(207.96875,674.18359375)"/>
<path d="M0 0 C6.2060646 5.31948394 8.70995523 10.40210193 9.375 18.5 C9.90082515 26.96100472 9.11104866 33.50999736 3.625 40.25 C-0.56109023 44.11408329 -4.06097695 46.03573861 -9.75 46.5625 C-14.73005438 46.13318497 -18.75095859 44.87404141 -22.375 41.25 C-22.705 48.18 -23.035 55.11 -23.375 62.25 C-27.665 62.25 -31.955 62.25 -36.375 62.25 C-36.375 41.13 -36.375 20.01 -36.375 -1.75 C-32.085 -1.75 -27.795 -1.75 -23.375 -1.75 C-23.045 -0.43 -22.715 0.89 -22.375 2.25 C-21.6325 1.610625 -20.89 0.97125 -20.125 0.3125 C-14.09025826 -4.21355631 -6.49105542 -3.36573244 0 0 Z M-21.375 12.25 C-23.75730096 16.3339445 -23.94513634 20.62750995 -23.375 25.25 C-22.42564341 28.73559392 -21.05820915 31.51967298 -18.5625 34.1875 C-15.5646109 35.64361756 -13.67340909 35.7212013 -10.375 35.25 C-7.03738955 33.09909549 -5.64029067 32.04587201 -4.375 28.25 C-3.4775933 19.52344447 -3.4775933 19.52344447 -6.25 11.5 C-8.75106417 8.85181441 -9.59043165 8.33717426 -13.1875 7.9375 C-17.17593862 8.32852339 -18.60286279 9.40085898 -21.375 12.25 Z " fill="#003399" transform="translate(432.375,794.75)"/>
<path d="M0 0 C4.29 0 8.58 0 13 0 C13 21.12 13 42.24 13 64 C9.04 64 5.08 64 1 64 C0.505 62.02 0.505 62.02 0 60 C-0.9075 60.639375 -1.815 61.27875 -2.75 61.9375 C-7.62344033 65.03026021 -11.2061364 65.48282197 -17 65 C-23.66129568 62.97713071 -27.50306257 58.89276308 -31 53 C-32.36233092 48.91300724 -32.26350956 45.09426461 -32.3125 40.8125 C-32.34150391 39.98685547 -32.37050781 39.16121094 -32.40039062 38.31054688 C-32.4674416 31.76534043 -31.08868268 26.42596837 -26.62280273 21.47241211 C-22.67742922 17.92318367 -18.90981048 15.99531431 -13.57421875 16.00390625 C-8.15072093 16.38154239 -5.91386334 17.05168199 -1 20 C-0.67 13.4 -0.34 6.8 0 0 Z M-15.875 29.375 C-20.0346837 34.5134328 -19.47758492 39.58192891 -19 46 C-17.47506657 50.2117209 -16.72020689 51.51986208 -13 54 C-9.58500409 54.66707548 -9.58500409 54.66707548 -6 54 C-2.45968588 51.1370419 -0.30967911 47.57389029 0.23828125 43.01953125 C0.43378862 37.20575945 -0.63328506 32.81661408 -4 28 C-8.48642468 25.75678766 -12.09044159 26.24862566 -15.875 29.375 Z " fill="#003399" transform="translate(475,671)"/>
<path d="M0 0 C4.29 0 8.58 0 13 0 C13 21.12 13 42.24 13 64 C9.04 64 5.08 64 1 64 C0.505 62.02 0.505 62.02 0 60 C-0.9075 60.639375 -1.815 61.27875 -2.75 61.9375 C-7.62344033 65.03026021 -11.2061364 65.48282197 -17 65 C-22.87624682 63.04497492 -26.54411205 60.08218816 -30 55 C-32.10490573 49.98973144 -32.36607402 45.47166143 -32.375 40.125 C-32.39949219 39.36058594 -32.42398438 38.59617187 -32.44921875 37.80859375 C-32.48131783 31.50647373 -30.90395853 26.2273071 -26.62304688 21.46972656 C-22.67388698 17.92475056 -18.9106614 15.99531294 -13.57421875 16.00390625 C-8.15072093 16.38154239 -5.91386334 17.05168199 -1 20 C-0.67 13.4 -0.34 6.8 0 0 Z M-18 32 C-19.7097925 37.12937749 -20.06314945 43.10783042 -18.17578125 48.2421875 C-16.75707488 50.78425616 -15.64934887 52.67532557 -13 54 C-9.62693382 54.58414702 -9.62693382 54.58414702 -6 54 C-2.9652238 51.55982372 -1.23118478 48.69355434 0 45 C0.61276031 38.91953235 -0.04709872 34.35896899 -3 29 C-9.15614294 24.89590471 -13.60288239 26.4389395 -18 32 Z " fill="#003399" transform="translate(577,671)"/>
<path d="M0 0 C4.29 0 8.58 0 13 0 C13.33 6.6 13.66 13.2 14 20 C16.64 18.68 19.28 17.36 22 16 C28.43543589 15.26135599 33.88524709 17.21508285 39 21 C45.13248287 28.45842511 45.75342458 36.6915608 45 46 C43.78061414 53.072438 40.38091434 58.28737909 35 63 C30.67076097 65.16461952 26.79986792 65.49653806 22 65 C15.39233038 62.39233038 15.39233038 62.39233038 13 60 C12.67 61.32 12.34 62.64 12 64 C8.04 64 4.08 64 0 64 C0 42.88 0 21.76 0 0 Z M13.90625 31.234375 C11.2681457 36.37412992 11.82051967 41.50830469 13.21484375 46.91015625 C14.4804744 50.27887466 16.05665938 51.97236535 19 54 C22.5 54.91666667 22.5 54.91666667 26 54 C29.72631723 50.84073104 31.2108104 48.44453905 31.9375 43.625 C32.25763337 38.04149733 31.47850862 33.27462865 28.375 28.5 C25.57816526 26.73357806 23.27512631 26.30939149 19.96875 26.48828125 C17.13980899 27.22358139 15.54354872 28.86692955 13.90625 31.234375 Z " fill="#003399" transform="translate(625,671)"/>
<path d="M0 0 C4.29 0 8.58 0 13 0 C13 6.93 13 13.86 13 21 C15.31 19.68 17.62 18.36 20 17 C25.35558326 15.38538429 30.16260853 15.75711884 35.2734375 17.9765625 C38.97680729 20.17177265 40.67167718 23.01503154 42 27 C42.08518867 29.80426452 42.1158852 32.5829635 42.09765625 35.38671875 C42.0962413 36.20372757 42.09482635 37.02073639 42.09336853 37.86250305 C42.08777294 40.47087268 42.07522129 43.07915634 42.0625 45.6875 C42.05748443 47.45637897 42.05292162 49.22525928 42.04882812 50.99414062 C42.03780496 55.32946019 42.02054338 59.66471552 42 64 C37.71 64 33.42 64 29 64 C28.98018066 63.01604248 28.96036133 62.03208496 28.93994141 61.01831055 C28.86386013 57.36717161 28.775147 53.71642991 28.68261719 50.06567383 C28.64433779 48.48567549 28.60948303 46.90559031 28.578125 45.32543945 C28.53245124 43.05388355 28.47446216 40.78292491 28.4140625 38.51171875 C28.40251129 37.80536789 28.39096008 37.09901703 28.37905884 36.3712616 C28.26928952 32.72258607 28.07857636 31.11786454 26 28 C20.72541369 27.36474525 20.72541369 27.36474525 16.0625 29.3125 C13.71927843 33.0340872 13.81013849 36.57102548 13.68359375 40.85546875 C13.66281265 41.51710526 13.64203156 42.17874176 13.62062073 42.86042786 C13.55535273 44.96934852 13.49634656 47.07839135 13.4375 49.1875 C13.39429311 50.61915315 13.35067812 52.05079404 13.30664062 53.48242188 C13.19892815 56.98815796 13.09968692 60.49398975 13 64 C8.71 64 4.42 64 0 64 C0 42.88 0 21.76 0 0 Z " fill="#003399" transform="translate(71,776)"/>
<path d="M0 0 C4.62 0 9.24 0 14 0 C17.3 9.57 20.6 19.14 24 29 C27.3 19.43 30.6 9.86 34 0 C38.29 0 42.58 0 47 0 C46.40624643 6.59926297 44.26188729 12.4322875 41.9921875 18.62890625 C41.58847931 19.73676987 41.18477112 20.84463348 40.76882935 21.98606873 C39.91365123 24.32151312 39.0544226 26.65547781 38.19140625 28.98803711 C36.88076518 32.5468457 35.60038848 36.11565013 34.3203125 39.68554688 C33.48362079 41.95901502 32.64513795 44.23182494 31.8046875 46.50390625 C31.42835175 47.5665419 31.05201599 48.62917755 30.66427612 49.72401428 C28.29549439 56.00078867 25.84497709 60.44776558 20 64 C16.57767028 65.14077657 13.91326783 65.09815117 10.3125 65.0625 C9.13300781 65.05347656 7.95351563 65.04445313 6.73828125 65.03515625 C5.38283203 65.01775391 5.38283203 65.01775391 4 65 C2.71682108 61.15046324 2.93356363 58.05261865 3 54 C8.445 53.505 8.445 53.505 14 53 C16.97679128 45.5580218 14.36565661 41.00369285 11.62109375 33.8671875 C10.94071908 32.07423246 10.26038164 30.28126329 9.58007812 28.48828125 C8.50609674 25.6721291 7.43046804 22.85661458 6.35375977 20.04150391 C5.31375409 17.31827811 4.27968414 14.59285331 3.24609375 11.8671875 C2.92112411 11.02340546 2.59615448 10.17962341 2.26133728 9.31027222 C1.96425369 8.52580719 1.6671701 7.74134216 1.36108398 6.93310547 C0.96589821 5.8998262 0.96589821 5.8998262 0.56272888 4.84567261 C0 3 0 3 0 0 Z " fill="#003399" transform="translate(673,688)"/>
<path d="M0 0 C4.78477365 5.3476882 4.33801528 12.6567471 4.125 19.4375 C3.97749265 27.94347769 4.72056219 35.98599199 6.125 44.375 C4.00061661 44.45578641 1.8753677 44.51409141 -0.25 44.5625 C-1.43335938 44.59730469 -2.61671875 44.63210938 -3.8359375 44.66796875 C-5.34027344 44.52294922 -5.34027344 44.52294922 -6.875 44.375 C-7.535 43.385 -8.195 42.395 -8.875 41.375 C-9.6175 41.849375 -10.36 42.32375 -11.125 42.8125 C-15.84915986 45.49668174 -20.4617569 46.07979838 -25.875 45.375 C-29.8698693 44.06473984 -32.94499761 42.33406496 -35.875 39.3125 C-37.60834834 34.22078924 -38.17854086 28.50475753 -36.06640625 23.43359375 C-30.59547279 15.88029808 -18.27031214 15.20458116 -9.875 13.375 C-9.875 11.725 -9.875 10.075 -9.875 8.375 C-11.64449095 8.26684775 -13.41587487 8.18933917 -15.1875 8.125 C-16.66669922 8.05539062 -16.66669922 8.05539062 -18.17578125 7.984375 C-19.06652344 8.11328125 -19.95726562 8.2421875 -20.875 8.375 C-21.37 9.0453125 -21.865 9.715625 -22.375 10.40625 C-22.87 11.0559375 -23.365 11.705625 -23.875 12.375 C-26.57421875 12.546875 -26.57421875 12.546875 -29.5625 12.125 C-30.55636719 11.99609375 -31.55023438 11.8671875 -32.57421875 11.734375 C-33.33347656 11.61578125 -34.09273438 11.4971875 -34.875 11.375 C-35.47265625 9.5625 -35.47265625 9.5625 -35.875 7.375 C-33.3926746 2.60893523 -30.58604785 -0.08103416 -25.875 -2.625 C-17.37592893 -4.89141895 -7.70487457 -4.3549291 0 0 Z M-16.375 24.3125 C-17.5609375 24.67214844 -18.746875 25.03179688 -19.96875 25.40234375 C-22.73733886 26.08862828 -22.73733886 26.08862828 -23.875 27.375 C-24.16678308 30.14693929 -24.23866316 31.78909825 -22.75 34.1875 C-19.94806524 35.96205868 -18.13098452 35.83083783 -14.875 35.375 C-12.17509338 33.57506226 -10.3331135 32.291227 -8.875 29.375 C-8.83477609 27.0420134 -8.83179753 24.70793334 -8.875 22.375 C-11.3392301 22.375 -14.06009481 23.60544744 -16.375 24.3125 Z " fill="#003399" transform="translate(532.875,795.625)"/>
<path d="M0 0 C8.66011888 7.59198277 9.08421338 14.09477396 10 26 C0.1 26 -9.8 26 -20 26 C-17.82339631 32.55114891 -17.82339631 32.55114891 -15.1875 34.5 C-12.06861685 35.21288758 -10.04858839 34.97295374 -7 34 C-6.01 32.35 -5.02 30.7 -4 29 C0.29 29.66 4.58 30.32 9 31 C6.92741348 37.21775956 5.64903571 40.45472917 0 43.75 C-7.57742693 46.90726122 -15.20948817 46.99294947 -22.92578125 44.09765625 C-28.0251796 41.39910458 -30.83144579 37.02918172 -32.875 31.75 C-35.26800033 23.37449884 -34.77896076 14.8651541 -31 7 C-24.34422489 -3.68957821 -10.75230019 -5.72697471 0 0 Z M-17.9375 10.25 C-20.4 12.96041667 -20.4 12.96041667 -20 17 C-14.72 17 -9.44 17 -4 17 C-4.53832008 11.509845 -4.53832008 11.509845 -6.125 9.125 C-10.47609372 6.51434377 -14.078954 7.29451796 -17.9375 10.25 Z " fill="#003399" transform="translate(529,690)"/>
<path d="M0 0 C4.21804853 4.10088052 5.54625865 8.40309582 7 14 C7 17.3 7 20.6 7 24 C-2.9 24 -12.8 24 -23 24 C-20.49942303 29.77650891 -20.49942303 29.77650891 -16 33 C-12.90351124 33.16448881 -12.90351124 33.16448881 -10 32 C-9.01 30.35 -8.02 28.7 -7 27 C-2.71 27.66 1.58 28.32 6 29 C4.85911606 34.70441971 3.27967831 37.22381325 -1 41 C-6.49945525 44.3561986 -12.71286906 44.85217136 -19 44 C-24.98806041 42.39974248 -29.77516831 40.54671051 -33 35 C-35.66408886 29.67182229 -36.52179441 25.49695921 -36.4375 19.5625 C-36.42920166 18.81186279 -36.42090332 18.06122559 -36.41235352 17.2878418 C-36.17695159 9.59832465 -34.2973503 4.94424995 -28.6875 -0.375 C-20.03908507 -7.08529235 -8.60004171 -6.31839799 0 0 Z M-20.375 7.6875 C-22.39622744 10.23341776 -22.39622744 10.23341776 -23 15 C-17.39 15 -11.78 15 -6 15 C-7.03443502 9.42154035 -7.03443502 9.42154035 -11 6 C-14.98452984 5.43078145 -17.05493748 5.32850821 -20.375 7.6875 Z " fill="#003399" transform="translate(483,797)"/>
<path d="M0 0 C4.93664319 4.15914531 8.01436682 8.53862696 9 15 C9 18.63 9 22.26 9 26 C-0.57 26.33 -10.14 26.66 -20 27 C-17.69513278 32.62794262 -17.69513278 32.62794262 -15.25 34.4375 C-12.00348239 35.2491294 -9.24916753 34.62483991 -6 34 C-5.34 32.35 -4.68 30.7 -4 29 C0.29 29.66 4.58 30.32 9 31 C6.61819687 38.14540939 3.65725809 41.58602149 -3 45 C-9.60100116 46.96393423 -16.41708976 46.55493706 -22.85546875 44.17578125 C-27.74880193 41.49291552 -31.06795292 37.2662148 -33.16796875 32.16015625 C-35.34449016 23.89346225 -34.96046194 14.90127064 -31.328125 7.125 C-28.31483999 2.30374399 -24.74796366 -0.31329999 -19.5 -2.375 C-12.50954755 -3.62329508 -6.33764655 -3.35325214 0 0 Z M-18.375 10.25 C-20.22047156 13.07513829 -20.22047156 13.07513829 -21 17 C-15.39 17 -9.78 17 -4 17 C-4.4040194 11.35820953 -4.4040194 11.35820953 -6.625 9.125 C-11.1250757 6.9933852 -14.68005364 6.7495245 -18.375 10.25 Z " fill="#003399" transform="translate(155,795)"/>
<path d="M0 0 C4.63133748 3.79105262 7.77920653 7.67466873 8.9765625 13.640625 C9.62935421 21.63464806 9.62839262 28.8481297 4.9765625 35.640625 C0.36328212 40.95465683 -5.20955943 43.92253269 -12.14453125 44.95703125 C-19.12183049 45.34258611 -26.57131406 43.54260925 -31.984375 38.9921875 C-37.84758191 32.44255637 -39.11136265 25.27927112 -39.0234375 16.640625 C-37.76819349 9.75770367 -34.73069515 3.85565398 -29.2734375 -0.609375 C-19.92516372 -5.64306088 -9.03387496 -6.06908974 0 0 Z M-23.0234375 10.640625 C-25.97160024 15.25774766 -25.65058793 20.35573541 -25.0234375 25.640625 C-23.39839201 28.94875333 -22.06740886 30.81264772 -19.2109375 33.078125 C-15.8052295 33.95387848 -13.41063458 33.53199265 -10.0234375 32.640625 C-7.40273706 30.5326703 -5.55655908 28.87090556 -4.2109375 25.765625 C-3.68672344 19.82453227 -3.71397439 15.77599879 -7.0234375 10.640625 C-9.47504231 8.18902019 -11.05321608 6.83964478 -14.4609375 6.140625 C-18.03457481 6.83792009 -20.19741255 8.37980504 -23.0234375 10.640625 Z " fill="#003399" transform="translate(802.0234375,796.359375)"/>
<path d="M0 0 C5.28480617 5.73778955 7.84334329 11.90096276 8.4375 19.625 C7.85617065 28.34494032 4.67854231 34.50544047 -1.8125 40.375 C-7.88652213 44.06705266 -13.78748141 45.16285255 -20.8125 44.375 C-28.28134221 42.33602824 -33.15096686 39.27224496 -37.5625 32.8125 C-40.94469505 26.21721964 -40.90637907 17.82959188 -39.1640625 10.734375 C-36.6646772 4.45386835 -32.737634 0.20904491 -26.60546875 -2.65625 C-17.3570764 -6.0594063 -8.50292129 -4.91279897 0 0 Z M-24.8125 11.375 C-27.1051391 15.33501299 -27.20204791 18.85624428 -26.8125 23.375 C-25.59587125 27.21698554 -24.60855584 29.64717752 -21.625 32.375 C-17.78151232 33.7415734 -14.67561585 33.724666 -10.8125 32.375 C-6.88748083 28.44998083 -5.64142661 25.5736464 -5.5 20.125 C-5.54632447 15.07563299 -6.28931444 12.19178436 -9.8125 8.375 C-15.80123309 4.12493136 -20.02568736 6.58818736 -24.8125 11.375 Z " fill="#003399" transform="translate(263.8125,691.625)"/>
<path d="M0 0 C4.24439529 3.46560716 7.77229574 6.93217519 8.75390625 12.48828125 C9.47270078 20.63158631 10.1300619 28.82755744 4.75390625 35.48828125 C0.01295205 40.7213345 -5.40257504 43.86665318 -12.4375 44.76953125 C-19.60147999 45.06854955 -25.60069245 43.23524437 -31.55859375 39.30078125 C-37.66037365 32.91519764 -39.33595631 26.24346203 -39.24609375 17.48828125 C-38.68970751 10.93002644 -35.60237803 5.35200084 -31.24609375 0.48828125 C-21.88716622 -6.17835206 -9.54043761 -6.42112931 0 0 Z M-23.24609375 10.48828125 C-26.19425649 15.10540391 -25.87324418 20.20339166 -25.24609375 25.48828125 C-23.62104826 28.79640958 -22.29006511 30.66030397 -19.43359375 32.92578125 C-16.02788575 33.80153473 -13.63329083 33.3796489 -10.24609375 32.48828125 C-6.60209568 29.47802197 -4.5742582 27.26422972 -4.0078125 22.47265625 C-3.81201412 16.5780944 -4.73447552 13.26798384 -8.24609375 8.48828125 C-13.71967922 4.42723397 -18.34294906 6.5657655 -23.24609375 10.48828125 Z " fill="#003399" transform="translate(379.24609375,796.51171875)"/>
<path d="M0 0 C4.14353994 3.94141604 5.67792014 8.94011293 5.90307617 14.55859375 C5.90261048 15.99748327 5.88622219 17.43643909 5.85546875 18.875 C5.85122391 19.64054199 5.84697906 20.40608398 5.84260559 21.19482422 C5.82598328 23.60942687 5.78836506 26.02315511 5.75 28.4375 C5.73493178 30.08722742 5.72124714 31.73696809 5.70898438 33.38671875 C5.67613417 37.4039762 5.62446973 41.42059052 5.5625 45.4375 C1.2725 45.4375 -3.0175 45.4375 -7.4375 45.4375 C-7.51097656 42.27607422 -7.51097656 42.27607422 -7.5859375 39.05078125 C-7.64002219 36.99871009 -7.69730006 34.94675103 -7.75488281 32.89477539 C-7.79305149 31.4739627 -7.82792513 30.05305737 -7.859375 28.63208008 C-7.90529065 26.58381145 -7.96323805 24.53617392 -8.0234375 22.48828125 C-8.0548584 21.25762939 -8.0862793 20.02697754 -8.11865234 18.7590332 C-8.44600226 15.3489294 -8.91762739 11.95737261 -11.4375 9.4375 C-16.42414879 8.96275654 -16.42414879 8.96275654 -20.8125 11.0625 C-23.7759164 15.39364704 -23.57645476 20.59019461 -23.75390625 25.7109375 C-23.79580078 26.86464844 -23.83769531 28.01835938 -23.88085938 29.20703125 C-23.92017578 30.39683594 -23.95949219 31.58664062 -24 32.8125 C-24.04318359 34.02550781 -24.08636719 35.23851562 -24.13085938 36.48828125 C-24.23655451 39.47123284 -24.33749433 42.45435225 -24.4375 45.4375 C-28.7275 45.4375 -33.0175 45.4375 -37.4375 45.4375 C-37.4375 29.9275 -37.4375 14.4175 -37.4375 -1.5625 C-33.1475 -1.5625 -28.8575 -1.5625 -24.4375 -1.5625 C-24.1075 -0.2425 -23.7775 1.0775 -23.4375 2.4375 C-22.53 1.798125 -21.6225 1.15875 -20.6875 0.5 C-14.06176636 -3.7047925 -7.05913352 -3.20869705 0 0 Z " fill="#003399" transform="translate(584.4375,794.5625)"/>
<path d="M0 0 C5.03676367 4.91391578 5.7048524 10.7922732 5.84443665 17.57839966 C5.8633124 21.40759409 5.8130498 25.23391018 5.75 29.0625 C5.73492639 30.65949259 5.72124272 32.25649894 5.70898438 33.85351562 C5.67618925 37.73602124 5.62455574 41.61785633 5.5625 45.5 C1.2725 45.5 -3.0175 45.5 -7.4375 45.5 C-7.48648438 43.47617187 -7.53546875 41.45234375 -7.5859375 39.3671875 C-7.6415975 37.39125748 -7.69732388 35.41532874 -7.75488281 33.43945312 C-7.79299202 32.07398079 -7.82787536 30.70841423 -7.859375 29.34277344 C-7.90541878 27.37152393 -7.96431049 25.40058796 -8.0234375 23.4296875 C-8.0548584 22.24616699 -8.0862793 21.06264648 -8.11865234 19.84326172 C-8.64113011 14.22572419 -8.64113011 14.22572419 -11.4375 9.5 C-16.44564951 9.01370487 -16.44564951 9.01370487 -20.8125 11.1875 C-23.73039393 15.33988751 -23.58954726 19.94028171 -23.75390625 24.89453125 C-23.79580078 26.09658203 -23.83769531 27.29863281 -23.88085938 28.53710938 C-23.93983398 30.40592773 -23.93983398 30.40592773 -24 32.3125 C-24.04318359 33.57771484 -24.08636719 34.84292969 -24.13085938 36.14648438 C-24.23674407 39.2642004 -24.33760774 42.38208622 -24.4375 45.5 C-28.7275 45.5 -33.0175 45.5 -37.4375 45.5 C-37.4375 29.99 -37.4375 14.48 -37.4375 -1.5 C-33.4775 -1.5 -29.5175 -1.5 -25.4375 -1.5 C-25.1075 0.15 -24.7775 1.8 -24.4375 3.5 C-23.73625 2.88125 -23.035 2.2625 -22.3125 1.625 C-15.26841385 -3.58149846 -7.85527863 -3.42775795 0 0 Z " fill="#003399" transform="translate(725.4375,794.5)"/>
<path d="M0 0 C4.29 0 8.58 0 13 0 C13.06058594 1.61648438 13.12117188 3.23296875 13.18359375 4.8984375 C13.26807089 7.05729787 13.35271522 9.21615169 13.4375 11.375 C13.47681641 12.43589844 13.51613281 13.49679687 13.55664062 14.58984375 C13.68178578 17.72809916 13.83553038 20.86357936 14 24 C14.03883301 24.96196289 14.07766602 25.92392578 14.11767578 26.91503906 C14.17294434 27.8015918 14.22821289 28.68814453 14.28515625 29.6015625 C14.32648682 30.38096191 14.36781738 31.16036133 14.41040039 31.96337891 C15.22354066 34.77216404 16.49650975 35.58041597 19 37 C22.15411935 36.87126043 24.1994951 36.55207235 26.8125 34.75 C29.44890923 30.86476535 29.17106239 25.93390511 29.31640625 21.38671875 C29.35830078 20.13955078 29.40019531 18.89238281 29.44335938 17.60742188 C29.48267578 16.31384766 29.52199219 15.02027344 29.5625 13.6875 C29.60568359 12.37458984 29.64886719 11.06167969 29.69335938 9.70898438 C29.79927168 6.47277518 29.90012419 3.23640111 30 0 C34.29 0 38.58 0 43 0 C43 15.51 43 31.02 43 47 C39.04 47 35.08 47 31 47 C30.505 44.525 30.505 44.525 30 42 C28.9171875 42.928125 28.9171875 42.928125 27.8125 43.875 C23.36489848 47.23541004 19.78952174 48.48415217 14.125 48.3125 C10.27664902 47.74656603 7.11332062 46.31705659 4 44 C-0.21771345 37.87751273 -0.1276173 30.75576831 -0.09765625 23.53515625 C-0.0962413 22.85698349 -0.09482635 22.17881073 -0.09336853 21.48008728 C-0.08782745 19.34084422 -0.07528653 17.20171075 -0.0625 15.0625 C-0.05747736 13.60091298 -0.0529158 12.13932431 -0.04882812 10.67773438 C-0.03787745 7.11845474 -0.02065445 3.55923809 0 0 Z " fill="#003399" transform="translate(255,793)"/>
<path d="M0 0 C3.16844433 2.59236354 4.76765699 4.80297096 6.0625 8.6875 C6.14768867 11.49176452 6.1783852 14.2704635 6.16015625 17.07421875 C6.1587413 17.89122757 6.15732635 18.70823639 6.15586853 19.55000305 C6.15027294 22.15837268 6.13772129 24.76665634 6.125 27.375 C6.11998443 29.14387897 6.11542162 30.91275928 6.11132812 32.68164062 C6.10030496 37.01696019 6.08304338 41.35221552 6.0625 45.6875 C1.7725 45.6875 -2.5175 45.6875 -6.9375 45.6875 C-6.96255615 44.73907227 -6.9876123 43.79064453 -7.01342773 42.81347656 C-7.1086884 39.28731968 -7.20791441 35.76132041 -7.30981445 32.23535156 C-7.35306707 30.71065614 -7.39474885 29.18591531 -7.43481445 27.66113281 C-7.49275203 25.46665778 -7.55637795 23.27240932 -7.62109375 21.078125 C-7.63780624 20.3988092 -7.65451874 19.71949341 -7.67173767 19.01959229 C-7.77257472 15.78211448 -7.96889176 12.78980396 -8.9375 9.6875 C-10.35146973 9.55154137 -11.76926684 9.45506155 -13.1875 9.375 C-13.97640625 9.31699219 -14.7653125 9.25898437 -15.578125 9.19921875 C-18.13436032 9.5057834 -18.13436032 9.5057834 -20.046875 11.76367188 C-22.39363195 15.3929024 -22.47609871 17.65737169 -22.546875 21.95703125 C-22.56341125 22.63803391 -22.57994751 23.31903656 -22.59698486 24.02067566 C-22.64529303 26.18054371 -22.6667951 28.33970875 -22.6875 30.5 C-22.71567444 31.97073817 -22.74560394 33.44144383 -22.77734375 34.91210938 C-22.85104396 38.50375414 -22.90072485 42.09526571 -22.9375 45.6875 C-27.2275 45.6875 -31.5175 45.6875 -35.9375 45.6875 C-35.9375 30.1775 -35.9375 14.6675 -35.9375 -1.3125 C-31.9775 -1.3125 -28.0175 -1.3125 -23.9375 -1.3125 C-23.6075 0.0075 -23.2775 1.3275 -22.9375 2.6875 C-22.03 2.048125 -21.1225 1.40875 -20.1875 0.75 C-13.84311072 -3.27624705 -6.83786781 -3.05521753 0 0 Z " fill="#003399" transform="translate(427.9375,689.3125)"/>
<path d="M0 0 C4.07221047 3.77424385 5.68738608 8.0172701 5.90307617 13.47436523 C5.9026085 14.96085937 5.88609692 16.44741511 5.85546875 17.93359375 C5.85122391 18.72274673 5.84697906 19.51189972 5.84260559 20.32496643 C5.82594452 22.82117261 5.78831779 25.31654192 5.75 27.8125 C5.73493683 29.51496222 5.72125129 31.21743721 5.70898438 32.91992188 C5.6760825 37.0719322 5.62438951 41.2233247 5.5625 45.375 C1.2725 45.375 -3.0175 45.375 -7.4375 45.375 C-7.46255615 44.46210205 -7.4876123 43.5492041 -7.51342773 42.60864258 C-7.60881607 39.20732369 -7.70803402 35.80616061 -7.80981445 32.4050293 C-7.85300705 30.93567232 -7.89469256 29.4662702 -7.93481445 27.99682617 C-7.99289882 25.87925645 -8.05648098 23.76191063 -8.12109375 21.64453125 C-8.15775146 20.37198486 -8.19440918 19.09943848 -8.23217773 17.78833008 C-8.4075792 14.87241104 -8.77142883 12.21232095 -9.4375 9.375 C-10.87405854 9.29368537 -12.3119483 9.23566441 -13.75 9.1875 C-14.55050781 9.15269531 -15.35101562 9.11789062 -16.17578125 9.08203125 C-18.95377459 9.44187495 -19.73177215 10.20741353 -21.4375 12.375 C-22.9139236 15.3278472 -22.66022939 18.05948983 -22.75390625 21.3515625 C-22.77468735 22.03681 -22.79546844 22.7220575 -22.81687927 23.42807007 C-22.88230185 25.61861069 -22.94122554 27.80927189 -23 30 C-23.04319218 31.4843875 -23.0868067 32.96876278 -23.13085938 34.453125 C-23.23797553 38.09362084 -23.33926362 41.73425251 -23.4375 45.375 C-27.7275 45.375 -32.0175 45.375 -36.4375 45.375 C-36.4375 29.865 -36.4375 14.355 -36.4375 -1.625 C-32.4775 -1.625 -28.5175 -1.625 -24.4375 -1.625 C-24.1075 -0.305 -23.7775 1.015 -23.4375 2.375 C-22.53 1.735625 -21.6225 1.09625 -20.6875 0.4375 C-14.06982079 -3.76218104 -7.01469911 -3.31603958 0 0 Z " fill="#003399" transform="translate(856.4375,794.625)"/>
<path d="M0 0 C4.29 0 8.58 0 13 0 C13.01981934 0.94842773 13.03963867 1.89685547 13.06005859 2.87402344 C13.13825761 6.40032364 13.22495366 9.92620361 13.31738281 13.45214844 C13.35561266 14.97680658 13.390476 16.50155307 13.421875 18.02636719 C13.46765662 20.22102381 13.52562766 22.4150754 13.5859375 24.609375 C13.59748871 25.2886908 13.60903992 25.96800659 13.62094116 26.66790771 C13.73138191 30.22720076 13.92920023 33.03393989 16 36 C19.39297387 37.41373911 20.79524201 37.07875307 24.25 35.75 C27.27285258 34.23242997 27.27285258 34.23242997 28 31 C28.15179014 28.6444552 28.24899289 26.28524877 28.31640625 23.92578125 C28.33718735 23.2419487 28.35796844 22.55811615 28.37937927 21.8535614 C28.44466154 19.6733079 28.50366017 17.49293595 28.5625 15.3125 C28.60570553 13.83267014 28.64932047 12.35285217 28.69335938 10.87304688 C28.80032083 7.24882378 28.90164823 3.62446811 29 0 C33.29 0 37.58 0 42 0 C42 15.51 42 31.02 42 47 C38.04 47 34.08 47 30 47 C29.67 45.68 29.34 44.36 29 43 C28.0925 43.639375 27.185 44.27875 26.25 44.9375 C21.34909567 48.04768929 17.82067539 48.39462206 12 48 C6.84551313 46.3400805 3.91631728 44.59880801 1 40 C-0.25178484 35.94598946 -0.12595415 31.93858736 -0.09765625 27.734375 C-0.0962413 26.94097717 -0.09482635 26.14757935 -0.09336853 25.33013916 C-0.08778415 22.80338728 -0.07523454 20.27672496 -0.0625 17.75 C-0.05748298 16.03385545 -0.05292043 14.31770951 -0.04882812 12.6015625 C-0.03781984 8.40100731 -0.02056596 4.20051883 0 0 Z " fill="#003399" transform="translate(338,688)"/>
<path d="M0 0 C0.9178125 -0.00515625 1.835625 -0.0103125 2.78125 -0.015625 C5.6778282 0.26737402 7.86375653 1.04649755 10.5 2.25 C9.84 5.22 9.18 8.19 8.5 11.25 C5.86 11.25 3.22 11.25 0.5 11.25 C-0.16 13.56 -0.82 15.87 -1.5 18.25 C1.47 18.25 4.44 18.25 7.5 18.25 C7.5 21.88 7.5 25.51 7.5 29.25 C4.53 29.25 1.56 29.25 -1.5 29.25 C-1.5 41.13 -1.5 53.01 -1.5 65.25 C-5.79 65.25 -10.08 65.25 -14.5 65.25 C-14.5 53.37 -14.5 41.49 -14.5 29.25 C-16.81 29.25 -19.12 29.25 -21.5 29.25 C-21.5 25.62 -21.5 21.99 -21.5 18.25 C-19.19 18.25 -16.88 18.25 -14.5 18.25 C-14.54640625 17.51394531 -14.5928125 16.77789063 -14.640625 16.01953125 C-14.93574343 8.04079364 -14.93574343 8.04079364 -12.8125 4.1875 C-8.81658617 0.83957219 -5.15361621 -0.0289529 0 0 Z " fill="#003399" transform="translate(325.5,669.75)"/>
<path d="M0 0 C0 5.28 0 10.56 0 16 C2.97 16 5.94 16 9 16 C9 19.63 9 23.26 9 27 C6.03 27 3.06 27 0 27 C0.33 35.25 0.66 43.5 1 52 C3.64 52 6.28 52 9 52 C9.33 55.3 9.66 58.6 10 62 C3.8871723 64.44513108 -1.21685091 65.08233576 -7.375 62.6875 C-10.37931048 60.75615755 -11.68623102 59.16682454 -12.61889648 55.69848633 C-13.04179339 52.7040728 -13.11255413 49.84848822 -13.09765625 46.82421875 C-13.09443359 45.66728516 -13.09121094 44.51035156 -13.08789062 43.31835938 C-13.07951172 42.12017578 -13.07113281 40.92199219 -13.0625 39.6875 C-13.05798828 38.46998047 -13.05347656 37.25246094 -13.04882812 35.99804688 C-13.03706578 32.99864774 -13.02062826 29.99934911 -13 27 C-14.65 27 -16.3 27 -18 27 C-18 23.37 -18 19.74 -18 16 C-16.35 16 -14.7 16 -13 16 C-13.13921875 15.43152344 -13.2784375 14.86304688 -13.421875 14.27734375 C-13.81597333 11.46704731 -13.87435718 9.72213665 -13 7 C-9.79042589 4.37528162 -4.34891867 0 0 0 Z " fill="#003399" transform="translate(55,777)"/>
<path d="M0 0 C2.01003635 3.01505452 2.99171541 5.57496212 4.125 9 C4.47820312 10.051875 4.83140625 11.10375 5.1953125 12.1875 C6 15 6 15 6 18 C12.6 18 19.2 18 26 18 C22.80896523 21.19103477 19.88699761 23.65214456 16.25 26.25 C15.26515625 26.95640625 14.2803125 27.6628125 13.265625 28.390625 C12.51796875 28.92171875 11.7703125 29.4528125 11 30 C11.54140625 31.69769531 11.54140625 31.69769531 12.09375 33.4296875 C12.56264982 34.91141093 13.03139164 36.39318437 13.5 37.875 C13.73847656 38.62136719 13.97695313 39.36773438 14.22265625 40.13671875 C16 45.7734375 16 45.7734375 16 48 C12.41486894 46.37815499 9.41007677 44.20743761 6.25 41.875 C5.26515625 41.15054688 4.2803125 40.42609375 3.265625 39.6796875 C2.14414062 38.84824219 2.14414062 38.84824219 1 38 C-2.58513106 39.62184501 -5.58992323 41.79256239 -8.75 44.125 C-9.73484375 44.84945312 -10.7196875 45.57390625 -11.734375 46.3203125 C-12.85585938 47.15175781 -12.85585938 47.15175781 -14 48 C-15.39035371 43.82893888 -13.90230806 40.81793141 -12.5625 36.8125 C-12.31951172 36.06291016 -12.07652344 35.31332031 -11.82617188 34.54101562 C-11.22534944 32.69142499 -10.61370322 30.84535673 -10 29 C-10.54140625 28.75378906 -11.0828125 28.50757813 -11.640625 28.25390625 C-14.53939263 26.71333603 -17.09760026 24.87066436 -19.75 22.9375 C-20.73484375 22.22464844 -21.7196875 21.51179688 -22.734375 20.77734375 C-23.48203125 20.19082031 -24.2296875 19.60429687 -25 19 C-25 18.67 -25 18.34 -25 18 C-18.73 17.67 -12.46 17.34 -6 17 C-4.39609513 11.78047191 -4.39609513 11.78047191 -2.79907227 6.55883789 C-1.11111111 1.11111111 -1.11111111 1.11111111 0 0 Z " fill="#F1C308" transform="translate(449,483)"/>
<path d="M0 0 C2.86637669 2.86637669 3.23158126 6.29530734 4.125 10.125 C4.74375 12.72375 5.3625 15.3225 6 18 C12.6 18 19.2 18 26 18 C22.55687411 21.44312589 20.11379744 23.79263746 16.1875 26.3125 C15.39730469 26.82425781 14.60710937 27.33601563 13.79296875 27.86328125 C13.20128906 28.23839844 12.60960937 28.61351562 12 29 C12.73690113 35.48472993 14.35318751 41.69239743 16 48 C10.46234932 44.93661877 5.24135737 41.54799576 0 38 C-6.93 42.95 -6.93 42.95 -14 48 C-15.27386134 44.17841598 -14.43280593 42.79508416 -13.0625 39.0625 C-11.69797516 35.32971509 -11 33.02485683 -11 29 C-13.30557356 27.08555053 -15.51098832 25.44861675 -18 23.8125 C-20.34864309 22.22784602 -22.67892802 20.6253425 -25 19 C-25 18.67 -25 18.34 -25 18 C-18.4 18 -11.8 18 -5 18 C-4.731875 16.515 -4.46375 15.03 -4.1875 13.5 C-3.24606084 8.74539361 -1.82651635 4.4832674 0 0 Z " fill="#F1C308" transform="translate(310,403)"/>
<path d="M0 0 C2.59947787 2.59947787 3.0684435 4.92738453 4.125 8.4375 C4.47820313 9.59121094 4.83140625 10.74492187 5.1953125 11.93359375 C6 15 6 15 6 18 C12.6 18 19.2 18 26 18 C22.48022006 21.51977994 19.68948416 24.09115077 15.6875 26.8125 C14.80449219 27.41707031 13.92148437 28.02164063 13.01171875 28.64453125 C12.34785156 29.09183594 11.68398438 29.53914063 11 30 C11.37253906 31.13179687 11.74507812 32.26359375 12.12890625 33.4296875 C12.60715895 34.91133311 13.08500239 36.39311087 13.5625 37.875 C13.9327832 38.99455078 13.9327832 38.99455078 14.31054688 40.13671875 C16.11328125 45.7734375 16.11328125 45.7734375 15 48 C10.38 44.7 5.76 41.4 1 38 C-4.95494626 41.38811412 -4.95494626 41.38811412 -10.4375 45.25 C-11.45650391 46.03117187 -11.45650391 46.03117187 -12.49609375 46.828125 C-12.99238281 47.21484375 -13.48867188 47.6015625 -14 48 C-15 46 -15 46 -14.22265625 43.1015625 C-13.83980469 41.95429688 -13.45695313 40.80703125 -13.0625 39.625 C-11.77504292 35.7582645 -11 33.10518383 -11 29 C-13.30557356 27.08555053 -15.51098832 25.44861675 -18 23.8125 C-20.34864309 22.22784602 -22.67892802 20.6253425 -25 19 C-25 18.67 -25 18.34 -25 18 C-18.4 18 -11.8 18 -5 18 C-4.731875 16.515 -4.46375 15.03 -4.1875 13.5 C-3.24606084 8.74539361 -1.82651635 4.4832674 0 0 Z " fill="#F1C308" transform="translate(529,184)"/>
<path d="M0 0 C0.66 0 1.32 0 2 0 C2.83698386 2.45714547 3.66972424 4.91558857 4.5 7.375 C4.73847656 8.07367188 4.97695313 8.77234375 5.22265625 9.4921875 C7 14.7734375 7 14.7734375 7 17 C13.27 17 19.54 17 26 17 C26 17.66 26 18.32 26 19 C23.9055032 20.63429751 21.82217909 22.14167234 19.625 23.625 C19.02171875 24.04523438 18.4184375 24.46546875 17.796875 24.8984375 C13.26537135 28 13.26537135 28 11 28 C12.98 34.27 14.96 40.54 17 47 C13.39522241 45.19761121 10.47952297 43.25869552 7.25 40.875 C6.26515625 40.15054688 5.2803125 39.42609375 4.265625 38.6796875 C3.14414062 37.84824219 3.14414062 37.84824219 2 37 C-1.58513106 38.62184501 -4.58992323 40.79256239 -7.75 43.125 C-8.73484375 43.84945312 -9.7196875 44.57390625 -10.734375 45.3203125 C-11.85585938 46.15175781 -11.85585938 46.15175781 -13 47 C-13.66 46.67 -14.32 46.34 -15 46 C-13.02 40.06 -11.04 34.12 -9 28 C-11.475 27.01 -11.475 27.01 -14 26 C-15.80313186 24.88390086 -17.57462886 23.71522249 -19.3125 22.5 C-20.63701172 21.58734375 -20.63701172 21.58734375 -21.98828125 20.65625 C-22.65214844 20.1096875 -23.31601562 19.563125 -24 19 C-24 18.34 -24 17.68 -24 17 C-17.73 17 -11.46 17 -5 17 C-4.54625 15.30875 -4.0925 13.6175 -3.625 11.875 C-2.53455806 7.86982227 -1.37665135 3.91816154 0 0 Z " fill="#F1C407" transform="translate(587,404)"/>
<path d="M0 0 C0.66 0 1.32 0 2 0 C2.83698386 2.45714547 3.66972424 4.91558857 4.5 7.375 C4.73847656 8.07367188 4.97695313 8.77234375 5.22265625 9.4921875 C7 14.7734375 7 14.7734375 7 17 C13.27 17 19.54 17 26 17 C26 17.66 26 18.32 26 19 C23.9055032 20.63429751 21.82217909 22.14167234 19.625 23.625 C19.02171875 24.04523438 18.4184375 24.46546875 17.796875 24.8984375 C13.26537135 28 13.26537135 28 11 28 C12.98 34.27 14.96 40.54 17 47 C13.39522241 45.19761121 10.47952297 43.25869552 7.25 40.875 C6.26515625 40.15054688 5.2803125 39.42609375 4.265625 38.6796875 C3.14414062 37.84824219 3.14414062 37.84824219 2 37 C-1.58513106 38.62184501 -4.58992323 40.79256239 -7.75 43.125 C-8.73484375 43.84945312 -9.7196875 44.57390625 -10.734375 45.3203125 C-11.85585938 46.15175781 -11.85585938 46.15175781 -13 47 C-13.66 46.67 -14.32 46.34 -15 46 C-13.02 40.06 -11.04 34.12 -9 28 C-10.32 27.34 -11.64 26.68 -13 26 C-14.93794285 24.67646082 -16.85348521 23.31974821 -18.75 21.9375 C-19.73484375 21.22464844 -20.7196875 20.51179688 -21.734375 19.77734375 C-22.48203125 19.19082031 -23.2296875 18.60429687 -24 18 C-24 17.67 -24 17.34 -24 17 C-17.73 17 -11.46 17 -5 17 C-4.54625 15.30875 -4.0925 13.6175 -3.625 11.875 C-2.53455806 7.86982227 -1.37665135 3.91816154 0 0 Z " fill="#F1C407" transform="translate(368,185)"/>
<path d="M0 0 C2.47378124 2.47378124 3.03138231 4.56174345 4.125 7.875 C4.47820312 8.92429688 4.83140625 9.97359375 5.1953125 11.0546875 C6 14 6 14 6 18 C12.6 18 19.2 18 26 18 C22.92160854 21.07839146 20.28500151 23.33131476 16.75 25.75 C15.85796875 26.36359375 14.9659375 26.9771875 14.046875 27.609375 C13.37140625 28.06828125 12.6959375 28.5271875 12 29 C12.53176041 33.99854788 13.68550815 38.28491129 15.4765625 42.984375 C16 45 16 45 15 48 C10.38 44.7 5.76 41.4 1 38 C-2.60477759 39.80238879 -5.52047703 41.74130448 -8.75 44.125 C-9.73484375 44.84945312 -10.7196875 45.57390625 -11.734375 46.3203125 C-12.85585938 47.15175781 -12.85585938 47.15175781 -14 48 C-15.50570062 43.48289815 -13.46126991 40.33583351 -11.8125 36.0078125 C-10.90735549 32.65703713 -10.63172234 31.19092676 -12 28 C-14.17865772 26.20615168 -16.19298015 24.73313466 -18.5625 23.25 C-20.72259573 21.85215795 -22.86534506 20.43695826 -25 19 C-25 18.67 -25 18.34 -25 18 C-18.4 18 -11.8 18 -5 18 C-4.67 15.69 -4.34 13.38 -4 11 C-3.37089121 9.0015058 -2.68638523 7.01926464 -1.9375 5.0625 C-1.57527344 4.10472656 -1.21304687 3.14695313 -0.83984375 2.16015625 C-0.56269531 1.44730469 -0.28554688 0.73445312 0 0 Z " fill="#F3C506" transform="translate(310,243)"/>
<path d="M0 0 C2.01003635 3.01505452 2.99171541 5.57496212 4.125 9 C4.47820312 10.051875 4.83140625 11.10375 5.1953125 12.1875 C6 15 6 15 6 18 C12.27 18 18.54 18 25 18 C21.88946842 21.11053158 19.2506787 23.73885366 15.8125 26.3125 C15.13832031 26.82425781 14.46414063 27.33601563 13.76953125 27.86328125 C12 29 12 29 10 29 C10.54140625 30.44632812 10.54140625 30.44632812 11.09375 31.921875 C11.56283738 33.19779268 12.03156873 34.47384129 12.5 35.75 C12.73847656 36.38421875 12.97695313 37.0184375 13.22265625 37.671875 C14.44801758 41.03286607 15 43.36871587 15 47 C11.65291949 45.45158425 8.75332488 43.50894136 5.75 41.375 C4.85796875 40.74335938 3.9659375 40.11171875 3.046875 39.4609375 C2.37140625 38.97882813 1.6959375 38.49671875 1 38 C-2.58513106 39.62184501 -5.58992323 41.79256239 -8.75 44.125 C-9.73484375 44.84945312 -10.7196875 45.57390625 -11.734375 46.3203125 C-12.85585938 47.15175781 -12.85585938 47.15175781 -14 48 C-14.66 47.67 -15.32 47.34 -16 47 C-15.6390625 45.95199219 -15.278125 44.90398437 -14.90625 43.82421875 C-14.43726182 42.44539349 -13.9685249 41.06648275 -13.5 39.6875 C-13.26152344 38.99720703 -13.02304687 38.30691406 -12.77734375 37.59570312 C-11.76791737 34.61068511 -11 32.17341086 -11 29 C-13.30006231 27.16347065 -15.5626919 25.50771411 -18 23.875 C-20.35164588 22.27243051 -22.68111426 20.65043143 -25 19 C-25 18.67 -25 18.34 -25 18 C-18.73 17.67 -12.46 17.34 -6 17 C-4.39609513 11.78047191 -4.39609513 11.78047191 -2.79907227 6.55883789 C-1.11111111 1.11111111 -1.11111111 1.11111111 0 0 Z " fill="#F4C506" transform="translate(369,462)"/>
<path d="M0 0 C2.01003635 3.01505452 2.99171541 5.57496212 4.125 9 C4.47820313 10.051875 4.83140625 11.10375 5.1953125 12.1875 C6 15 6 15 6 18 C12.27 18 18.54 18 25 18 C21.88946842 21.11053158 19.2506787 23.73885366 15.8125 26.3125 C15.13832031 26.82425781 14.46414063 27.33601563 13.76953125 27.86328125 C12 29 12 29 10 29 C10.44472656 30.20398438 10.88945313 31.40796875 11.34765625 32.6484375 C11.91966802 34.22381417 12.49126099 35.79934296 13.0625 37.375 C13.35705078 38.1690625 13.65160156 38.963125 13.95507812 39.78125 C14.22900391 40.54179687 14.50292969 41.30234375 14.78515625 42.0859375 C15.04176025 42.7876709 15.29836426 43.4894043 15.56274414 44.21240234 C16 46 16 46 15 48 C10.38 44.7 5.76 41.4 1 38 C-2.60477759 39.80238879 -5.52047703 41.74130448 -8.75 44.125 C-9.73484375 44.84945312 -10.7196875 45.57390625 -11.734375 46.3203125 C-12.85585938 47.15175781 -12.85585938 47.15175781 -14 48 C-15.30279034 44.09162898 -14.35697465 42.37034845 -13.0625 38.5 C-11.47212495 33.8415944 -11.47212495 33.8415944 -11 29 C-13.30006231 27.16347065 -15.5626919 25.50771411 -18 23.875 C-20.35164588 22.27243051 -22.68111426 20.65043143 -25 19 C-25 18.67 -25 18.34 -25 18 C-18.4 18 -11.8 18 -5 18 C-4.67 15.69 -4.34 13.38 -4 11 C-3.54301166 9.19688295 -3.04703679 7.40286957 -2.5 5.625 C-2.2421875 4.77164062 -1.984375 3.91828125 -1.71875 3.0390625 C-1 1 -1 1 0 0 Z " fill="#F5C605" transform="translate(529,462)"/>
<path d="M0 0 C0.66 0 1.32 0 2 0 C2.83679277 2.62394306 3.66956942 5.24904384 4.5 7.875 C4.85771484 8.99455078 4.85771484 8.99455078 5.22265625 10.13671875 C7 15.7734375 7 15.7734375 7 18 C13.27 18 19.54 18 26 18 C22.55687411 21.44312589 20.11379744 23.79263746 16.1875 26.3125 C15.39730469 26.82425781 14.60710937 27.33601563 13.79296875 27.86328125 C13.20128906 28.23839844 12.60960937 28.61351562 12 29 C12.95280156 34.22013623 13.9196187 39.09624408 16 44 C16 44.99 16 45.98 16 47 C11.14816724 45.32577602 8.06211782 42.64710538 4.28125 39.265625 C2.05176753 37.6964537 2.05176753 37.6964537 -0.48828125 38.5703125 C-3.11316424 40.06441386 -5.35865805 41.70340885 -7.6875 43.625 C-11.78571429 47 -11.78571429 47 -14 47 C-13.71096738 45.49949022 -13.41860081 43.99962262 -13.125 42.5 C-12.96257812 41.6646875 -12.80015625 40.829375 -12.6328125 39.96875 C-11.8478399 36.28616252 -10.92789373 32.64919551 -10 29 C-11.010625 28.28972656 -12.02125 27.57945312 -13.0625 26.84765625 C-14.37512278 25.91944443 -15.68761614 24.99104959 -17 24.0625 C-17.66773438 23.59392578 -18.33546875 23.12535156 -19.0234375 22.64257812 C-20.70029767 21.45337627 -22.35238787 20.22940446 -24 19 C-24 18.67 -24 18.34 -24 18 C-17.73 18 -11.46 18 -5 18 C-4.54625 16.14375 -4.0925 14.2875 -3.625 12.375 C-2.57902772 8.18119645 -1.46951385 4.06942297 0 0 Z " fill="#F5C605" transform="translate(288,323)"/>
<path d="M0 0 C2.59947787 2.59947787 3.0684435 4.92738453 4.125 8.4375 C4.47820313 9.59121094 4.83140625 10.74492187 5.1953125 11.93359375 C6 15 6 15 6 18 C12.27 18 18.54 18 25 18 C21.55687411 21.44312589 19.11379744 23.79263746 15.1875 26.3125 C14.39730469 26.82425781 13.60710938 27.33601563 12.79296875 27.86328125 C12.20128906 28.23839844 11.60960937 28.61351562 11 29 C11.19335938 29.70125 11.38671875 30.4025 11.5859375 31.125 C13.125617 36.73492134 14.61417657 42.35010447 16 48 C7.55214724 42.47852761 7.55214724 42.47852761 4.1875 39.5625 C2.20355444 37.78934304 2.20355444 37.78934304 0.21484375 38.1484375 C-2.80916621 39.311108 -5.05495011 41.09859395 -7.625 43.0625 C-12.78734622 47 -12.78734622 47 -15 47 C-13.66666667 41 -12.33333333 35 -11 29 C-12.010625 28.28972656 -13.02125 27.57945312 -14.0625 26.84765625 C-15.37512278 25.91944443 -16.68761614 24.99104959 -18 24.0625 C-18.66773438 23.59392578 -19.33546875 23.12535156 -20.0234375 22.64257812 C-21.70029767 21.45337627 -23.35238787 20.22940446 -25 19 C-25 18.67 -25 18.34 -25 18 C-18.73 17.67 -12.46 17.34 -6 17 C-4.39609513 11.78047191 -4.39609513 11.78047191 -2.79907227 6.55883789 C-1.11111111 1.11111111 -1.11111111 1.11111111 0 0 Z " fill="#F7C704" transform="translate(609,323)"/>
<path d="M0 0 C0.66 0 1.32 0 2 0 C2.83679277 2.62394306 3.66956942 5.24904384 4.5 7.875 C4.85771484 8.99455078 4.85771484 8.99455078 5.22265625 10.13671875 C7 15.7734375 7 15.7734375 7 18 C13.27 18 19.54 18 26 18 C22.92160854 21.07839146 20.28500151 23.33131476 16.75 25.75 C15.85796875 26.36359375 14.9659375 26.9771875 14.046875 27.609375 C13.37140625 28.06828125 12.6959375 28.5271875 12 29 C12.79994729 33.37618223 14.0796047 37.47880685 15.4765625 41.6953125 C16 44 16 44 15 47 C14.11957031 46.32710938 13.23914063 45.65421875 12.33203125 44.9609375 C11.15955992 44.0979986 9.98634331 43.23607168 8.8125 42.375 C8.23435547 41.92898438 7.65621094 41.48296875 7.06054688 41.0234375 C5.13610137 39.57182852 5.13610137 39.57182852 2 38 C-2.01016844 38.77304452 -5.0271806 41.25957003 -8.3125 43.625 C-9.19550781 44.25664062 -10.07851563 44.88828125 -10.98828125 45.5390625 C-11.65214844 46.02117187 -12.31601562 46.50328125 -13 47 C-14.5120188 42.46394359 -12.45194686 39.26224051 -10.8125 34.91015625 C-9.73355064 31.31264601 -9.73355064 31.31264601 -11 28 C-13.16537458 26.28898024 -15.25031 24.79142448 -17.5625 23.3125 C-19.72563523 21.89683558 -21.86748633 20.46221035 -24 19 C-24 18.67 -24 18.34 -24 18 C-17.73 18 -11.46 18 -5 18 C-4.54625 16.14375 -4.0925 14.2875 -3.625 12.375 C-2.57902772 8.18119645 -1.46951385 4.06942297 0 0 Z " fill="#F7C704" transform="translate(587,243)"/>
<path d="M0 0 C2.59947787 2.59947787 3.0684435 4.92738453 4.125 8.4375 C4.47820312 9.59121094 4.83140625 10.74492187 5.1953125 11.93359375 C6 15 6 15 6 18 C12.27 18 18.54 18 25 18 C21.55687411 21.44312589 19.11379744 23.79263746 15.1875 26.3125 C14.39730469 26.82425781 13.60710937 27.33601563 12.79296875 27.86328125 C12.20128906 28.23839844 11.60960937 28.61351562 11 29 C11.20496094 29.71285156 11.40992188 30.42570312 11.62109375 31.16015625 C13.10620647 36.43976749 14.39412346 41.54711116 15 47 C13.2063257 45.8782037 11.4151227 44.75245517 9.625 43.625 C8.62726563 42.99851563 7.62953125 42.37203125 6.6015625 41.7265625 C4 40 4 40 2 38 C-2.47594316 38.23557596 -4.86238876 40.21024875 -8.1875 43.0625 C-12.80316344 47 -12.80316344 47 -15 47 C-13.29836423 38.69094875 -13.29836423 38.69094875 -11.8125 35.25 C-10.73004431 32.2524304 -10.91153739 31.00875844 -12 28 C-14.17865772 26.20615168 -16.19298015 24.73313466 -18.5625 23.25 C-20.72259573 21.85215795 -22.86534506 20.43695826 -25 19 C-25 18.67 -25 18.34 -25 18 C-18.4 18 -11.8 18 -5 18 C-4.67 15.36 -4.34 12.72 -4 10 C-3.02734375 7.03125 -3.02734375 7.03125 -1.9375 4.5 C-1.57527344 3.6440625 -1.21304687 2.788125 -0.83984375 1.90625 C-0.56269531 1.2771875 -0.28554688 0.648125 0 0 Z " fill="#F8C704" transform="translate(449,163)"/>
<path d="M0 0 C1.17755859 0.13535156 1.17755859 0.13535156 2.37890625 0.2734375 C4.4375 0.625 4.4375 0.625 6.4375 1.625 C6.12700274 3.06293392 5.8140224 4.5003318 5.5 5.9375 C5.23896484 7.13826172 5.23896484 7.13826172 4.97265625 8.36328125 C4.4375 10.625 4.4375 10.625 3.4375 13.625 C2.82261719 13.51800781 2.20773437 13.41101563 1.57421875 13.30078125 C0.76597656 13.18089844 -0.04226563 13.06101562 -0.875 12.9375 C-1.67550781 12.80988281 -2.47601563 12.68226563 -3.30078125 12.55078125 C-5.6201994 12.41106036 -5.6201994 12.41106036 -7.29296875 13.91796875 C-9.92061877 17.45114739 -9.74898981 21.0115952 -9.87890625 25.26171875 C-9.92080078 26.56044922 -9.96269531 27.85917969 -10.00585938 29.19726562 C-10.04566987 30.56900761 -10.08538216 31.94075244 -10.125 33.3125 C-10.16820835 34.69597645 -10.21182339 36.07944027 -10.25585938 37.46289062 C-10.36207965 40.85013714 -10.46280688 44.23755509 -10.5625 47.625 C-14.8525 47.625 -19.1425 47.625 -23.5625 47.625 C-23.5625 32.115 -23.5625 16.605 -23.5625 0.625 C-19.6025 0.625 -15.6425 0.625 -11.5625 0.625 C-11.2325 1.615 -10.9025 2.605 -10.5625 3.625 C-10.129375 3.150625 -9.69625 2.67625 -9.25 2.1875 C-6.28967283 -0.55354367 -3.78799518 -0.46179842 0 0 Z " fill="#003399" transform="translate(332.5625,792.375)"/>
<path d="M0 0 C4.29 0 8.58 0 13 0 C13 15.51 13 31.02 13 47 C8.71 47 4.42 47 0 47 C0 31.49 0 15.98 0 0 Z " fill="#003399" transform="translate(742,793)"/>
<path d="M0 0 C7.92 0 15.84 0 24 0 C24 4.29 24 8.58 24 13 C16.08 13 8.16 13 0 13 C0 8.71 0 4.42 0 0 Z " fill="#003399" transform="translate(279,705)"/>
<path d="M0 0 C4.29 0 8.58 0 13 0 C13 3.96 13 7.92 13 12 C8.71 12 4.42 12 0 12 C0 8.04 0 4.08 0 0 Z " fill="#003399" transform="translate(742,776)"/>
</svg>
