<?xml version="1.0" encoding="UTF-8"?>
<svg version="1.1" xmlns="http://www.w3.org/2000/svg" width="2708" height="562">
<path d="M0 0 C3.91263903 2.74807859 6.8847957 5.69600476 9.71484375 9.57421875 C10.69714873 10.59160605 11.68953972 11.60017992 12.71484375 12.57421875 C12.97265625 11.98511719 13.23046875 11.39601562 13.49609375 10.7890625 C18.00056818 2.60304646 27.82698369 -1.94539856 36.390625 -4.5390625 C49.56640239 -7.64859535 65.49828845 -6.69837814 77.2890625 0.046875 C86.46404832 6.46178244 91.02220222 16.39971172 93.24168396 27.11856079 C93.83612946 31.46001239 93.84632779 35.69169627 93.82836914 40.06787109 C93.82851517 41.00509003 93.82866119 41.94230896 93.82881165 42.90792847 C93.82811745 45.9920283 93.82034819 49.07606702 93.8125 52.16015625 C93.81063407 54.30392422 93.80921099 56.44769263 93.80821228 58.59146118 C93.80440091 64.2237059 93.79458241 69.85592468 93.7835083 75.48815918 C93.77326449 81.23949838 93.7687083 86.99084179 93.76367188 92.7421875 C93.7529589 104.01954446 93.73537328 115.29687539 93.71484375 126.57421875 C83.81484375 126.57421875 73.91484375 126.57421875 63.71484375 126.57421875 C63.69296997 122.45663086 63.69296997 122.45663086 63.6706543 118.25585938 C63.62024653 109.17138862 63.55364041 100.08708815 63.47912884 91.00278473 C63.43446133 85.49666313 63.39519708 79.99061491 63.3684082 74.484375 C63.34233933 69.1674243 63.30191122 63.85075651 63.25165749 58.53398132 C63.23501306 56.50871813 63.22348372 54.48340604 63.21722984 52.45808411 C63.20756247 49.61433474 63.17947143 46.77130521 63.1472168 43.92773438 C63.14865189 43.09622864 63.15008698 42.2647229 63.15156555 41.40802002 C63.04209275 34.55317586 61.85347663 28.91653095 57.08984375 23.69921875 C49.75735122 19.0824642 42.09839115 18.87769586 33.71484375 20.57421875 C26.62402243 22.89769671 22.52221177 27.04982284 19.10514832 33.71315002 C17.34001492 37.97905904 17.27434759 41.97063708 17.2824707 46.53881836 C17.27227905 47.40790833 17.2620874 48.27699829 17.25158691 49.17242432 C17.22157136 52.02387027 17.21220851 54.87497964 17.203125 57.7265625 C17.18626983 59.71197109 17.16811846 61.69736907 17.14872742 63.68275452 C17.10131238 68.89243248 17.07144803 74.10206738 17.04528809 79.31188965 C17.0154397 84.6344452 16.96892405 89.95685253 16.92382812 95.27929688 C16.83789151 105.71087684 16.77204487 116.1424416 16.71484375 126.57421875 C6.81484375 126.57421875 -3.08515625 126.57421875 -13.28515625 126.57421875 C-13.29973877 123.85945312 -13.31432129 121.1446875 -13.3293457 118.34765625 C-13.37975574 109.36296912 -13.44636224 100.37845413 -13.52087116 91.39393616 C-13.56553677 85.94834889 -13.60480142 80.50283578 -13.6315918 75.05712891 C-13.65766259 69.79853125 -13.69809202 64.54021955 -13.74834251 59.28179932 C-13.76498565 57.27886521 -13.77651579 55.27588167 -13.78277016 53.27288818 C-13.79243896 50.46026868 -13.82053159 47.64837655 -13.8527832 44.8359375 C-13.85134811 44.0137825 -13.84991302 43.1916275 -13.84843445 42.34455872 C-13.93812397 36.78867099 -15.10810985 32.69066397 -17.28515625 27.57421875 C-17.61515625 26.58421875 -17.94515625 25.59421875 -18.28515625 24.57421875 C-20.06744561 23.43212058 -20.06744561 23.43212058 -22.28515625 22.57421875 C-23.42984375 22.07341797 -23.42984375 22.07341797 -24.59765625 21.5625 C-31.81881578 18.90704453 -40.09945672 18.77128631 -47.28515625 21.57421875 C-52.61671868 24.39281545 -56.65253797 27.01724394 -59.28515625 32.57421875 C-59.73186271 35.63924222 -59.72268539 38.67731418 -59.7175293 41.77075195 C-59.72772095 42.68831772 -59.7379126 43.60588348 -59.74841309 44.55125427 C-59.77854167 47.57589831 -59.78780892 50.60022562 -59.796875 53.625 C-59.81372176 55.72536776 -59.831872 57.82572544 -59.85127258 59.92607117 C-59.89877882 65.44813893 -59.92858428 70.97016582 -59.95471191 76.49237061 C-59.98451417 82.12976149 -60.03104569 87.76701151 -60.07617188 93.40429688 C-60.1622123 104.46088004 -60.22800798 115.51744846 -60.28515625 126.57421875 C-70.18515625 126.57421875 -80.08515625 126.57421875 -90.28515625 126.57421875 C-90.28515625 83.67421875 -90.28515625 40.77421875 -90.28515625 -3.42578125 C-81.04515625 -3.42578125 -71.80515625 -3.42578125 -62.28515625 -3.42578125 C-60.62172788 -1.76235288 -60.92467528 0.35678965 -60.72265625 2.63671875 C-60.59697266 4.01537109 -60.59697266 4.01537109 -60.46875 5.421875 C-60.40816406 6.13214844 -60.34757812 6.84242188 -60.28515625 7.57421875 C-59.7746875 7.12691406 -59.26421875 6.67960938 -58.73828125 6.21875 C-43.08339106 -6.79923493 -17.88845372 -11.16117198 0 0 Z " fill="#034EA2" transform="translate(2180.28515625,171.42578125)"/>
<path d="M0 0 C37.62 0 75.24 0 114 0 C114 8.58 114 17.16 114 26 C86.61 26 59.22 26 31 26 C31 41.51 31 57.02 31 73 C54.43 73 77.86 73 102 73 C102 81.25 102 89.5 102 98 C78.57 98 55.14 98 31 98 C31 115.16 31 132.32 31 150 C58.39 150 85.78 150 114 150 C114 158.25 114 166.5 114 175 C76.38 175 38.76 175 0 175 C0 117.25 0 59.5 0 0 Z " fill="#034EA2" transform="translate(1614,123)"/>
<path d="M0 0 C9.9086155 7.90531843 14.31531038 17.63914971 16 30 C16.25305309 34.85169992 16.29897749 39.69208811 16.30496025 44.54964638 C16.3086735 46.97793258 16.32553329 49.40582802 16.34571838 51.83403015 C16.40065626 58.73099443 16.43170781 65.6280141 16.45629883 72.52514648 C16.47231295 76.76435036 16.50266959 81.00327354 16.54106331 85.24233055 C16.55258733 86.84201227 16.55864254 88.44174444 16.55874443 90.04146767 C16.55958654 99.74299671 17.44664595 108.58391665 20 118 C20.495 120.475 20.495 120.475 21 123 C10.44 123 -0.12 123 -11 123 C-11.99 119.7 -12.98 116.4 -14 113 C-14.928125 113.886875 -15.85625 114.77375 -16.8125 115.6875 C-27.18087344 124.51209148 -39.78715567 126.66234602 -53.00854492 125.72875977 C-66.74418485 124.43158667 -76.44572568 118.90262144 -85.234375 108.453125 C-91.93905927 99.1377672 -92.21341841 88.06658421 -91 77 C-88.83095163 66.64218476 -83.04932493 58.82679902 -74.62109375 52.6015625 C-60.08596429 43.72018682 -43.4792569 42.82317632 -26.9375 42.9375 C-25.69033203 42.94201172 -24.44316406 42.94652344 -23.15820312 42.95117188 C-20.10541779 42.96286837 -17.05273502 42.97925914 -14 43 C-14.83186985 30.78141369 -14.83186985 30.78141369 -20 20 C-27.38826398 14.119545 -34.96877009 14.3313688 -44 15 C-49.98007071 16.57845004 -53.58137782 19.97261444 -57 25 C-57.66 26.98 -58.32 28.96 -59 31 C-68.9 31 -78.8 31 -89 31 C-87.71492347 19.43431122 -84.29834483 11.02008488 -75.67578125 3.03515625 C-54.9429242 -12.73392189 -21.70282634 -14.86985253 0 0 Z M-58 72 C-61.73491187 77.22887662 -61.80198025 82.80042232 -61 89 C-59.25606735 94.35988339 -55.86625105 97.30803133 -51 100 C-44.21687066 102.26104311 -35.66149712 102.13901345 -29.0625 99.3125 C-27.68557864 98.58308999 -26.32931204 97.81294581 -25 97 C-24.35289063 96.61457031 -23.70578125 96.22914063 -23.0390625 95.83203125 C-19.09396915 93.26022989 -15.79196365 90.47633728 -14 86 C-13.52225755 82.02750357 -13.62212664 78.11858336 -13.75 74.125 C-13.76804687 73.05507812 -13.78609375 71.98515625 -13.8046875 70.8828125 C-13.85162561 68.25427822 -13.91727067 65.62761087 -14 63 C-18.27059561 62.88234027 -22.54076597 62.81226369 -26.8125 62.75 C-28.00810547 62.71648437 -29.20371094 62.68296875 -30.43554688 62.6484375 C-40.89287713 62.53446115 -50.54750411 64.17487932 -58 72 Z " fill="#034EA2" transform="translate(1919,175)"/>
<path d="M0 0 C9.9 0 19.8 0 30 0 C30.01981934 2.51729736 30.03963867 5.03459473 30.06005859 7.62817383 C30.12719316 15.97818214 30.2048284 24.32806958 30.28752708 32.67793751 C30.33731145 37.73668021 30.38364205 42.79540381 30.421875 47.85424805 C30.45895467 52.74322903 30.50537391 57.63204296 30.55806351 62.52087975 C30.57648766 64.3789951 30.59163899 66.2371461 30.60334396 68.09531593 C30.17956134 86.468472 30.17956134 86.468472 37 103 C42.77144415 107.32858311 49.00009619 107.68132397 56 107 C63.78138762 105.25776356 70.52643043 103.42787754 75.61677551 96.93904114 C77.54180918 92.84877727 77.43982169 89.272338 77.43237305 84.8034668 C77.4425647 83.88590103 77.45275635 82.96833527 77.46325684 82.02296448 C77.49338542 78.99832044 77.50265267 75.97399313 77.51171875 72.94921875 C77.52856551 70.84885099 77.54671575 68.74849331 77.56611633 66.64814758 C77.61362257 61.12607982 77.64342803 55.60405293 77.66955566 50.08184814 C77.69935792 44.44445726 77.74588944 38.80720724 77.79101562 33.16992188 C77.87705605 22.11333871 77.94285173 11.05677029 78 0 C87.9 0 97.8 0 108 0 C108 42.9 108 85.8 108 130 C98.76 130 89.52 130 80 130 C79.67 126.7 79.34 123.4 79 120 C77.2675 121.36125 77.2675 121.36125 75.5 122.75 C63.0309812 132.07427508 48.38476245 134.29151045 33.125 132.375 C22.6782852 130.43563463 13.42587035 125.2555736 7.3125 116.4375 C0.94526586 105.46820554 -0.16858945 93.11013001 -0.11352539 80.71655273 C-0.11367142 79.83741714 -0.11381744 78.95828156 -0.1139679 78.05250549 C-0.11327755 75.17950881 -0.10552674 72.30657895 -0.09765625 69.43359375 C-0.09578895 67.428635 -0.09436652 65.4236758 -0.09336853 63.41871643 C-0.08956796 58.16627725 -0.07975891 52.91386615 -0.06866455 47.66143799 C-0.05839731 42.29187398 -0.05385957 36.92230539 -0.04882812 31.55273438 C-0.03813424 21.03514199 -0.02055759 10.51757773 0 0 Z " fill="#034EA2" transform="translate(2302,168)"/>
<path d="M0 0 C1.06444336 0.00563965 2.12888672 0.0112793 3.22558594 0.01708984 C10.57316059 0.13087473 17.29430583 0.57396516 24.1875 3.3125 C25.18523438 3.70308594 26.18296875 4.09367188 27.2109375 4.49609375 C37.78200806 9.19582663 45.46599267 16.47793795 50.34765625 26.98828125 C52.29913246 32.38887819 52.1875 36.31209186 52.1875 42.3125 C42.2875 42.3125 32.3875 42.3125 22.1875 42.3125 C21.1975 39.0125 20.2075 35.7125 19.1875 32.3125 C12.76891648 25.77721496 7.34290938 23.4334966 -1.8125 23.3125 C-8.68488293 24.0052362 -14.15430682 26.12266818 -18.6875 31.5625 C-20.42577136 35.81160777 -20.65250934 39.99326131 -19.05566406 44.40209961 C-14.19281595 51.87495634 -1.05989682 53.31181444 6.9375 55.25 C22.36101993 59.00399697 38.97225319 63.17828449 48.625 76.8125 C53.91089471 85.55399347 54.72777053 95.43379183 52.5 105.3828125 C48.94998724 116.00326734 42.8873497 122.8042751 33.1875 128.3125 C15.04167408 137.22045091 -6.12019166 137.36415954 -25.125 131.125 C-31.30585885 128.76742408 -35.97472408 125.78333882 -40.8125 121.3125 C-41.44800781 120.76722656 -42.08351563 120.22195313 -42.73828125 119.66015625 C-49.61656078 113.40048001 -53.12767862 105.34926919 -54.8125 96.3125 C-54.8125 94.6625 -54.8125 93.0125 -54.8125 91.3125 C-45.2425 91.3125 -35.6725 91.3125 -25.8125 91.3125 C-24.4925 94.6125 -23.1725 97.9125 -21.8125 101.3125 C-17.81624965 106.41881989 -12.54050471 109.13523535 -6.4375 111.0625 C1.51196114 111.81959154 8.78525603 111.6461347 16.1875 108.3125 C20.61828461 104.6175674 20.61828461 104.6175674 22.42578125 99.359375 C22.55046143 95.50085155 22.33663381 92.70024789 20.9375 89.0625 C13.26936272 81.39436272 1.15745058 79.98680103 -9.00683594 77.54516602 C-19.49395299 74.98907493 -28.93815214 71.6142841 -37.8125 65.3125 C-38.864375 64.57 -39.91625 63.8275 -41 63.0625 C-46.34872976 57.8326309 -50.09415155 50.84233104 -50.8125 43.3125 C-50.92913131 31.83889446 -48.52881658 23.54893986 -40.65234375 15.15625 C-40.04519531 14.5478125 -39.43804688 13.939375 -38.8125 13.3125 C-38.27753906 12.7659375 -37.74257812 12.219375 -37.19140625 11.65625 C-26.9006265 1.98242347 -13.56355866 -0.07485408 0 0 Z " fill="#034EA2" transform="translate(2487.8125,165.6875)"/>
<path d="M0 0 C1.59448975 0.00737183 1.59448975 0.00737183 3.22119141 0.01489258 C10.55742395 0.1246827 17.29670887 0.60226846 24.1875 3.3125 C25.46367188 3.80556641 25.46367188 3.80556641 26.765625 4.30859375 C36.49767258 8.62233877 46.08476442 16.64395026 50.1484375 26.6875 C52.03583519 32.36700865 52.1875 35.97224301 52.1875 42.3125 C42.2875 42.3125 32.3875 42.3125 22.1875 42.3125 C21.1975 39.0125 20.2075 35.7125 19.1875 32.3125 C14.3733163 26.90882442 9.34138362 24.42461345 2.1875 23.3125 C-5.15279439 23.04598402 -11.87009433 24.880288 -17.47265625 29.7578125 C-20.18357405 32.90342558 -19.95858843 36.29612661 -20.04296875 40.27734375 C-19.7629547 42.75001016 -19.11843703 44.1894903 -17.8125 46.3125 C-10.62794702 51.4995666 -1.51513343 53.20148691 6.9375 55.25 C22.36101993 59.00399697 38.97225319 63.17828449 48.625 76.8125 C53.91089471 85.55399347 54.72777053 95.43379183 52.5 105.3828125 C48.94998724 116.00326734 42.8873497 122.8042751 33.1875 128.3125 C15.04167408 137.22045091 -6.12019166 137.36415954 -25.125 131.125 C-31.30585885 128.76742408 -35.97472408 125.78333882 -40.8125 121.3125 C-41.44800781 120.76722656 -42.08351563 120.22195313 -42.73828125 119.66015625 C-49.61656078 113.40048001 -53.12767862 105.34926919 -54.8125 96.3125 C-54.8125 94.6625 -54.8125 93.0125 -54.8125 91.3125 C-45.2425 91.3125 -35.6725 91.3125 -25.8125 91.3125 C-24.4925 94.6125 -23.1725 97.9125 -21.8125 101.3125 C-17.81624965 106.41881989 -12.54050471 109.13523535 -6.4375 111.0625 C1.51196114 111.81959154 8.78525603 111.6461347 16.1875 108.3125 C20.61828461 104.6175674 20.61828461 104.6175674 22.42578125 99.359375 C22.55046143 95.50085155 22.33663381 92.70024789 20.9375 89.0625 C13.26739559 81.39239559 1.15448902 79.98857612 -9.01123047 77.54296875 C-16.33075194 75.75688186 -23.08826317 73.78101457 -29.8125 70.3125 C-30.7096875 69.85101563 -31.606875 69.38953125 -32.53125 68.9140625 C-41.40588643 63.98080872 -46.49916319 57.92967249 -49.8125 48.3125 C-51.9264445 40.15106869 -50.91494221 30.87611353 -47.10546875 23.3671875 C-44.74417396 19.61479759 -41.93739956 16.44403417 -38.8125 13.3125 C-38.27753906 12.7659375 -37.74257812 12.219375 -37.19140625 11.65625 C-26.90005961 1.98189057 -13.56395704 -0.07379854 0 0 Z " fill="#034EA2" transform="translate(2012.8125,165.6875)"/>
<path d="M0 0 C9.57 0 19.14 0 29 0 C29 16.17 29 32.34 29 49 C44.18 49 59.36 49 75 49 C75 57.91 75 66.82 75 76 C59.82 76 44.64 76 29 76 C29 93.16 29 110.32 29 128 C19.43 128 9.86 128 0 128 C0 110.84 0 93.68 0 76 C-15.18 76 -30.36 76 -46 76 C-46 67.09 -46 58.18 -46 49 C-30.82 49 -15.64 49 0 49 C0 32.83 0 16.66 0 0 Z " fill="#034EA2" transform="translate(2604,153)"/>
<path d="M0 0 C0 9.24 0 18.48 0 28 C-10 28.3125 -10 28.3125 -13.1015625 28.38793945 C-21.93070264 28.73902078 -28.58214347 30.73139595 -35 37 C-38.37298669 41.35350863 -38.44172796 45.429769 -38.43237305 50.73754883 C-38.4425647 51.60634674 -38.45275635 52.47514465 -38.46325684 53.37026978 C-38.49337222 56.23258933 -38.50265058 59.09457412 -38.51171875 61.95703125 C-38.52856651 63.94529837 -38.54671688 65.93355485 -38.56611633 67.92179871 C-38.61361185 73.1479459 -38.6434242 78.37404993 -38.66955566 83.6003418 C-38.69936336 88.93612187 -38.74589301 94.27175323 -38.79101562 99.60742188 C-38.87704385 110.07155389 -38.94284548 120.53567039 -39 131 C-48.9 131 -58.8 131 -69 131 C-69 88.1 -69 45.2 -69 1 C-59.43 1 -49.86 1 -40 1 C-40 4.96 -40 8.92 -40 13 C-39.34 13 -38.68 13 -38 13 C-37.731875 12.401875 -37.46375 11.80375 -37.1875 11.1875 C-34.06742628 5.43999578 -28.08409336 1.91546672 -22.1015625 -0.31640625 C-15.91803201 -1.67927506 -5.75411073 -2.87705537 0 0 Z " fill="#034EA2" transform="translate(1818,167)"/>
<path d="M0 0 C2.57191889 1.42218396 4.48892839 3.04767075 6.5 5.1875 C7.386875 4.40375 8.27375 3.62 9.1875 2.8125 C14.43407289 -1.82400628 19.70459232 -2.2629421 26.48828125 -2.12109375 C30.82753313 -1.6764752 34.11980855 -0.6062486 37.5 2.1875 C41.23036005 6.87492035 42.63044475 11.79272584 42.61352539 17.68066406 C42.61341209 19.00158051 42.61341209 19.00158051 42.61329651 20.34918213 C42.60813522 21.29098328 42.60297394 22.23278442 42.59765625 23.203125 C42.5962413 24.17409119 42.59482635 25.14505737 42.59336853 26.14544678 C42.58777663 29.24282935 42.57522559 32.34013932 42.5625 35.4375 C42.55748395 37.53906146 42.55292123 39.64062404 42.54882812 41.7421875 C42.53780985 46.89065292 42.52055074 52.03906416 42.5 57.1875 C37.88 57.1875 33.26 57.1875 28.5 57.1875 C28.48541748 55.93614258 28.47083496 54.68478516 28.45581055 53.39550781 C28.39782073 48.75101197 28.3205877 44.10700061 28.23754883 39.46289062 C28.20430274 37.45320501 28.17626981 35.44342609 28.15356445 33.43359375 C28.12001278 30.54386653 28.06769663 27.65499407 28.01171875 24.765625 C28.00532883 23.86757141 27.9989389 22.96951782 27.99235535 22.04425049 C27.88909922 17.14827823 27.88909922 17.14827823 26.13989258 12.64746094 C23.63096398 10.413816 21.8349489 10.25163363 18.5 10.1875 C14.15013709 11.6374543 12.0674355 12.33634675 9.5 16.1875 C9.17508765 18.14270809 9.17508765 18.14270809 9.18115234 20.29174805 C9.16128265 21.11237228 9.14141296 21.93299652 9.12094116 22.77848816 C9.10361435 24.1004998 9.10361435 24.1004998 9.0859375 25.44921875 C9.06657135 26.35501175 9.0472052 27.26080475 9.0272522 28.19404602 C8.96746458 31.08760151 8.92107432 33.9811968 8.875 36.875 C8.83681946 38.83660591 8.79776769 40.79819506 8.7578125 42.75976562 C8.66176368 47.5688744 8.57772957 52.37806166 8.5 57.1875 C3.88 57.1875 -0.74 57.1875 -5.5 57.1875 C-5.5093457 55.93614258 -5.51869141 54.68478516 -5.52832031 53.39550781 C-5.56820482 48.7509405 -5.63395941 44.10703665 -5.70751953 39.46289062 C-5.73573807 37.45321173 -5.75694821 35.44342166 -5.77099609 33.43359375 C-5.79241335 30.54369151 -5.83905703 27.6551271 -5.890625 24.765625 C-5.89185364 23.86757141 -5.89308228 22.96951782 -5.89434814 22.04425049 C-5.98284079 16.99429047 -5.98284079 16.99429047 -8.36230469 12.64746094 C-11.21471198 10.69938012 -13.03643628 10.25541301 -16.5 10.1875 C-19.08831738 10.93005007 -21.08742556 11.91025471 -23.5 13.1875 C-24.63019427 15.44788854 -24.65268957 16.75868826 -24.70532227 19.27001953 C-24.72526749 20.11074005 -24.74521271 20.95146057 -24.76576233 21.81765747 C-24.79083107 23.18022171 -24.79083107 23.18022171 -24.81640625 24.5703125 C-24.83718735 25.49971649 -24.85796844 26.42912048 -24.87937927 27.38668823 C-24.94487646 30.3618821 -25.00376052 33.33716577 -25.0625 36.3125 C-25.10568506 38.32683228 -25.14929934 40.34115541 -25.19335938 42.35546875 C-25.30055803 47.29938663 -25.40182501 52.24339503 -25.5 57.1875 C-30.12 57.1875 -34.74 57.1875 -39.5 57.1875 C-39.5 38.0475 -39.5 18.9075 -39.5 -0.8125 C-35.21 -0.8125 -30.92 -0.8125 -26.5 -0.8125 C-25.84 0.1775 -25.18 1.1675 -24.5 2.1875 C-23.97792969 1.89875 -23.45585937 1.61 -22.91796875 1.3125 C-15.39481157 -2.48201711 -7.83377492 -3.72283982 0 0 Z " fill="#034EA2" transform="translate(2398.5,386.8125)"/>
<path d="M0 0 C4.29 0 8.58 0 13 0 C17.56024161 10.70549924 21.68984911 21.55777102 25.8125 32.4375 C26.83293217 35.12462992 27.85389916 37.81155612 28.87496948 40.4984436 C29.55259658 42.28306378 30.22929927 44.06803524 30.90505981 45.85336304 C32.68362115 50.55013132 34.47737326 55.24034084 36.29443359 59.92236328 C36.66581955 60.88376724 37.03720551 61.8451712 37.41984558 62.83570862 C38.13313199 64.68083144 38.85034118 66.52444389 39.57197571 68.36631775 C39.89071152 69.1929744 40.20944733 70.01963104 40.5378418 70.87133789 C40.82088669 71.59817276 41.10393158 72.32500763 41.39555359 73.0738678 C42 75 42 75 42 78 C37.05 78 32.1 78 27 78 C24.03 69.585 24.03 69.585 21 61 C11.43 60.67 1.86 60.34 -8 60 C-8.66 62.97 -9.32 65.94 -10 69 C-11.169417 72.11133209 -12.56811304 74.99303739 -14 78 C-18.95 78 -23.9 78 -29 78 C-23.54029841 62.06798172 -17.65728123 46.30945867 -11.6875 30.5625 C-10.77257311 28.14265878 -9.85785837 25.72273734 -8.94335938 23.30273438 C-7.28075813 18.90652104 -5.6180939 14.51033323 -3.9519043 10.11547852 C-3.45728951 8.81031029 -3.45728951 8.81031029 -2.9526825 7.47877502 C-1.9911619 4.97700425 -0.99539484 2.48848709 0 0 Z M6 20 C4.49500991 24.28993333 2.99685363 28.58222158 1.5 32.875 C0.85611328 34.70998047 0.85611328 34.70998047 0.19921875 36.58203125 C-0.20683594 37.74863281 -0.61289063 38.91523438 -1.03125 40.1171875 C-1.40830078 41.19597168 -1.78535156 42.27475586 -2.17382812 43.38623047 C-3.10046237 45.86096201 -3.10046237 45.86096201 -3 48 C3.6 48 10.2 48 17 48 C15.76177626 44.17067842 14.51916906 40.3432554 13.26464844 36.51928711 C12.83908966 35.21743458 12.41622513 33.91469816 11.99609375 32.61108398 C11.39247787 30.73973238 10.7784223 28.87175822 10.1640625 27.00390625 C9.79748535 25.87799072 9.4309082 24.7520752 9.05322266 23.59204102 C8.27678759 20.86327515 8.27678759 20.86327515 6 20 Z " fill="#034EA2" transform="translate(1120,366)"/>
<path d="M0 0 C6.70391934 6.70391934 8.33228305 16.13259919 8.5625 25.3125 C8.29290331 34.89815993 6.25490719 42.6099011 0.3125 50.3125 C-4.81741206 55.10126027 -10.41768192 55.59265006 -17.14453125 55.54296875 C-20.84532979 55.20756612 -23.40258225 54.02339466 -26.6875 52.3125 C-27.3475 51.9825 -28.0075 51.6525 -28.6875 51.3125 C-28.6875 59.5625 -28.6875 67.8125 -28.6875 76.3125 C-33.3075 76.3125 -37.9275 76.3125 -42.6875 76.3125 C-42.6875 49.9125 -42.6875 23.5125 -42.6875 -3.6875 C-38.3975 -3.6875 -34.1075 -3.6875 -29.6875 -3.6875 C-29.3575 -2.6975 -29.0275 -1.7075 -28.6875 -0.6875 C-27.945 -1.161875 -27.2025 -1.63625 -26.4375 -2.125 C-17.57604251 -7.15991903 -8.21589431 -5.15881736 0 0 Z M-26.6875 9.3125 C-30.53513515 13.16013515 -29.10186372 19.99983099 -29.125 25.1875 C-29.15787109 26.48042969 -29.19074219 27.77335937 -29.22460938 29.10546875 C-29.23169922 30.34683594 -29.23878906 31.58820313 -29.24609375 32.8671875 C-29.25954834 34.00655762 -29.27300293 35.14592773 -29.28686523 36.31982422 C-28.93737634 39.48994449 -28.93737634 39.48994449 -26.36743164 41.65673828 C-22.98854046 43.74434327 -20.65644028 44.24286947 -16.6875 44.3125 C-11.49977031 42.58325677 -9.26035084 40.0770386 -6.6875 35.3125 C-4.62831455 27.06212119 -4.81596131 18.92207604 -8.6875 11.3125 C-11.23941817 8.62264031 -13.05235472 7.51961259 -16.5625 6.375 C-20.58847084 6.29448058 -23.14072367 7.4709046 -26.6875 9.3125 Z " fill="#034EA2" transform="translate(2106.6875,389.6875)"/>
<path d="M0 0 C4.62 0 9.24 0 14 0 C14.33 9.24 14.66 18.48 15 28 C16.98 26.68 18.96 25.36 21 24 C26.96005735 22.01331422 33.66780719 22.01128578 39.4375 24.625 C44.0584371 27.28582649 46.33209424 30.99628273 48 36 C48.08669529 37.51907624 48.117694 39.04169001 48.11352539 40.56323242 C48.11344986 41.48396042 48.11337433 42.40468842 48.11329651 43.35331726 C48.10813522 44.34402725 48.10297394 45.33473724 48.09765625 46.35546875 C48.0962413 47.37224197 48.09482635 48.3890152 48.09336853 49.43659973 C48.08776707 52.68692964 48.07521432 55.93719088 48.0625 59.1875 C48.05748519 61.38997296 48.05292225 63.59244701 48.04882812 65.79492188 C48.03779716 71.19664107 48.02053154 76.59830889 48 82 C43.38 82 38.76 82 34 82 C33.98541748 80.71311279 33.97083496 79.42622559 33.95581055 78.1003418 C33.89788852 73.3310145 33.82065537 68.56216238 33.73754883 63.79321289 C33.70427076 61.7281871 33.67624786 59.66306973 33.65356445 57.59790039 C33.62007145 54.63127568 33.56775855 51.66549252 33.51171875 48.69921875 C33.50532883 47.7741301 33.4989389 46.84904144 33.49235535 45.8959198 C33.47256119 45.03525406 33.45276703 44.17458832 33.43237305 43.2878418 C33.41571846 42.15199898 33.41571846 42.15199898 33.39872742 40.99320984 C32.89103676 38.45530056 32.01817093 37.57872913 30 36 C26.03028497 34.73690885 24.22703875 34.92053644 20.25 36.3125 C17.01319976 37.78566098 17.01319976 37.78566098 15 40 C14.67087115 41.89611525 14.67087115 41.89611525 14.68115234 44.08251953 C14.66128265 44.92324005 14.64141296 45.76396057 14.62094116 46.63015747 C14.60361435 47.99272171 14.60361435 47.99272171 14.5859375 49.3828125 C14.56657135 50.31221649 14.5472052 51.24162048 14.5272522 52.19918823 C14.46736315 55.1743648 14.4210339 58.14957988 14.375 61.125 C14.33682879 63.13934 14.29777757 65.15366354 14.2578125 67.16796875 C14.161654 72.11184575 14.0776576 77.05579917 14 82 C9.38 82 4.76 82 0 82 C0 54.94 0 27.88 0 0 Z " fill="#034EA2" transform="translate(1384,362)"/>
<path d="M0 0 C5.24401205 4.08427862 6.35700983 7.45178935 7.25 13.828125 C7.3842129 16.59557418 7.48051503 19.34470624 7.53125 22.11328125 C7.55886414 23.2813456 7.55886414 23.2813456 7.58703613 24.4730072 C7.66515601 27.78176127 7.73334303 31.09070138 7.80224609 34.3996582 C7.8541915 36.82512734 7.91134204 39.25043624 7.96875 41.67578125 C7.98232544 42.41860855 7.99590088 43.16143585 8.0098877 43.92677307 C8.10094 47.74479908 8.49410605 51.04865526 9.25 54.828125 C4.3 54.828125 -0.65 54.828125 -5.75 54.828125 C-5.75 53.508125 -5.75 52.188125 -5.75 50.828125 C-6.34425781 51.1890625 -6.93851563 51.55 -7.55078125 51.921875 C-14.03962255 55.55481881 -19.33279763 57.01620981 -26.75 55.828125 C-32.71767422 54.01143506 -36.16568302 50.82444564 -39.75 45.828125 C-41.71624161 41.89564178 -41.07860277 37.12430194 -40.75 32.828125 C-39.08673837 27.8383401 -36.24397495 24.52450997 -31.75 21.828125 C-23.74795794 18.08185063 -15.38003874 18.51744361 -6.75 18.828125 C-7.20082469 17.36745301 -7.66093537 15.90964468 -8.125 14.453125 C-8.38023438 13.64101563 -8.63546875 12.82890625 -8.8984375 11.9921875 C-9.64854283 9.66353315 -9.64854283 9.66353315 -11.75 7.828125 C-15.83248976 7.22126841 -19.57243483 7.20990328 -23.25 9.140625 C-24.98115403 10.86505493 -24.98115403 10.86505493 -25.75 13.828125 C-30.37 13.828125 -34.99 13.828125 -39.75 13.828125 C-39.46044575 9.00222092 -38.67702493 5.80365501 -35.34375 2.1796875 C-25.71944064 -5.98210426 -10.46923509 -7.0106485 0 0 Z M-24.75 30.828125 C-27.21324069 34.52298603 -27.13991688 36.46105592 -26.75 40.828125 C-25.14294141 43.66411076 -23.71123701 43.83952588 -20.5625 44.765625 C-15.81086187 44.84352071 -12.60987209 43.5610919 -8.75 40.828125 C-6.54086 37.514415 -6.52518447 36.4835229 -6.625 32.640625 C-6.64304687 31.73957031 -6.66109375 30.83851563 -6.6796875 29.91015625 C-6.70289063 29.22308594 -6.72609375 28.53601563 -6.75 27.828125 C-13.50386291 27.49837039 -18.79860481 27.4092384 -24.75 30.828125 Z " fill="#034EA2" transform="translate(2044.75,389.171875)"/>
<path d="M0 0 C4.64123552 4.16228738 6.81747063 8.67874414 7.30297852 14.85302734 C7.33761937 16.34714353 7.36239505 17.84151101 7.37890625 19.3359375 C7.39590073 20.13351471 7.4128952 20.93109192 7.43040466 21.75283813 C7.48332756 24.29347891 7.52370223 26.83410749 7.5625 29.375 C7.60665817 31.90866564 7.65359583 34.44221554 7.70530701 36.97573853 C7.73685419 38.54838307 7.76386475 40.1211276 7.78553772 41.69393921 C7.86976252 46.21491542 8.269785 50.53630793 9 55 C4.38 55 -0.24 55 -5 55 C-5.495 53.02 -5.495 53.02 -6 51 C-6.90878906 51.54140625 -6.90878906 51.54140625 -7.8359375 52.09375 C-14.87950141 55.99480078 -20.32035605 57.21351412 -28.23046875 55.5234375 C-34.34133788 53.62023999 -37.23375664 50.19605941 -40.3125 44.625 C-41.98896956 38.22393442 -41.40447026 33.43619587 -38.1796875 27.75390625 C-34.67143785 22.53799866 -30.07362737 21.01100897 -24.203125 19.52734375 C-18.484754 18.58590462 -12.77444603 18.7723941 -7 19 C-7.268125 17.741875 -7.53625 16.48375 -7.8125 15.1875 C-7.96332031 14.47980469 -8.11414062 13.77210938 -8.26953125 13.04296875 C-9.13572652 10.62040124 -9.93620084 9.53364892 -12 8 C-15.04580823 7.37737622 -17.9393391 7.48527764 -21 8 C-23.50160818 9.87620613 -24.61945652 11.23891303 -26 14 C-30.62 14 -35.24 14 -40 14 C-38.88386308 8.01344745 -37.82957773 5.02464811 -33 1 C-32.38125 0.443125 -31.7625 -0.11375 -31.125 -0.6875 C-22.09463971 -6.26507547 -8.73588498 -5.9272706 0 0 Z M-26.5625 32.75 C-27.23514856 36.20933543 -26.98508018 38.61378688 -26 42 C-23.22942186 44.28572696 -21.35751019 45.07985354 -17.7421875 44.8671875 C-14.28936158 44.24043692 -11.500109 43.28054895 -8.4375 41.5625 C-6.05468389 37.31487128 -6.70464693 32.75846607 -7 28 C-13.82217149 27.62254379 -21.60202832 27.19427172 -26.5625 32.75 Z " fill="#034EA2" transform="translate(1936,389)"/>
<path d="M0 0 C4.27220153 2.75319654 6.0755042 5.32232173 8 10 C8.30247072 12.85751497 8.46418092 15.50802329 8.4765625 18.36328125 C8.49214203 19.15470016 8.50772156 19.94611908 8.52377319 20.76152039 C8.57103102 23.27850338 8.59893167 25.79521639 8.625 28.3125 C8.66176241 30.81887397 8.70268536 33.32510452 8.74765015 35.8313446 C8.7743839 37.38514284 8.79593899 38.93904283 8.81118774 40.49299622 C8.88560453 45.71936944 9.36093777 50.81154545 10 56 C7.70890403 56.08075665 5.41700733 56.13907731 3.125 56.1875 C1.21074219 56.23970703 1.21074219 56.23970703 -0.7421875 56.29296875 C-1.81726562 56.19628906 -2.89234375 56.09960938 -4 56 C-4.66 55.01 -5.32 54.02 -6 53 C-6.7425 53.474375 -7.485 53.94875 -8.25 54.4375 C-14.12486861 57.77549353 -20.97912645 58.05278393 -27.4765625 56.3515625 C-31.98958539 54.58559702 -35.59251472 52.42570551 -38.1875 48.25390625 C-40.32177194 42.3333538 -40.26914195 34.76903698 -37.625 29 C-33.04959725 23.77096829 -26.85788315 20.96375577 -20 20 C-17.56333235 19.93298494 -15.12498258 19.91471979 -12.6875 19.9375 C-11.43324219 19.94652344 -10.17898437 19.95554687 -8.88671875 19.96484375 C-7.93410156 19.97644531 -6.98148438 19.98804688 -6 20 C-6.25554054 18.53890937 -6.53000372 17.08111904 -6.8125 15.625 C-6.96332031 14.81289063 -7.11414062 14.00078125 -7.26953125 13.1640625 C-7.87544942 10.64179359 -7.87544942 10.64179359 -11 9 C-16.45976961 8.5057437 -16.45976961 8.5057437 -21.4375 10.3125 C-23.23686957 12.02309613 -23.23686957 12.02309613 -24 15 C-28.62 15 -33.24 15 -38 15 C-37.78108236 9.63651783 -36.63995078 6.49825391 -32.9140625 2.578125 C-23.72318758 -4.99965759 -10.35582618 -5.17791309 0 0 Z M-25.0625 34.3125 C-26.24867864 37.02959643 -26.24867864 37.02959643 -25.5 40.125 C-23.70343386 43.56841843 -22.62736206 44.62966322 -19 46 C-14.20763277 45.82884403 -10.86725064 44.84356665 -7 42 C-5.67770811 39.35541621 -5.90322806 37.32238699 -5.9375 34.375 C-5.94652344 33.37210937 -5.95554687 32.36921875 -5.96484375 31.3359375 C-5.97644531 30.56507813 -5.98804687 29.79421875 -6 29 C-13.4273036 28.59650463 -19.76663267 28.37470936 -25.0625 34.3125 Z " fill="#034EA2" transform="translate(2312,388)"/>
<path d="M0 0 C4.79832603 4.1564447 7.47603531 8.81947655 9 15 C9 20.28 9 25.56 9 31 C-2.88 31.33 -14.76 31.66 -27 32 C-24.30847531 39.01190065 -24.30847531 39.01190065 -19 43 C-12.96595966 44.48378041 -8.47049718 44.05668579 -3 41 C-1.30527754 39.46778181 -1.30527754 39.46778181 0 38 C6.09411765 40.14117647 6.09411765 40.14117647 8 43 C8.1875 45.3125 8.1875 45.3125 7 48 C0.8854317 54.01093154 -5.39766022 56.04422975 -13.875 56.3125 C-22.60014014 56.11667391 -28.85476956 54.06633221 -35.2734375 48.03125 C-41.03590114 41.25188101 -42.38247806 32.75375161 -42.27734375 24.109375 C-41.56720498 16.14781921 -39.34038477 8.17449383 -33.64453125 2.36328125 C-24.16206094 -5.49748393 -10.45065188 -7.02930752 0 0 Z M-23 10 C-25.93348499 13.72631878 -27 15.18872494 -27 20 C-19.41 20 -11.82 20 -4 20 C-5.33585042 12.47052238 -5.33585042 12.47052238 -10 8 C-15.07515986 6.46787627 -18.83125863 6.41025048 -23 10 Z " fill="#034EA2" transform="translate(2646,389)"/>
<path d="M0 0 C4.79832603 4.1564447 7.47603531 8.81947655 9 15 C9 20.28 9 25.56 9 31 C-2.88 31.33 -14.76 31.66 -27 32 C-24.30847531 39.01190065 -24.30847531 39.01190065 -19 43 C-12.96595966 44.48378041 -8.47049718 44.05668579 -3 41 C-1.30527754 39.46778181 -1.30527754 39.46778181 0 38 C6.09411765 40.14117647 6.09411765 40.14117647 8 43 C8.1875 45.3125 8.1875 45.3125 7 48 C0.8854317 54.01093154 -5.39766022 56.04422975 -13.875 56.3125 C-22.60014014 56.11667391 -28.85476956 54.06633221 -35.2734375 48.03125 C-41.03590114 41.25188101 -42.38247806 32.75375161 -42.27734375 24.109375 C-41.56720498 16.14781921 -39.34038477 8.17449383 -33.64453125 2.36328125 C-24.16206094 -5.49748393 -10.45065188 -7.02930752 0 0 Z M-23 10 C-25.93348499 13.72631878 -27 15.18872494 -27 20 C-19.41 20 -11.82 20 -4 20 C-5.33585042 12.47052238 -5.33585042 12.47052238 -10 8 C-15.07515986 6.46787627 -18.83125863 6.41025048 -23 10 Z " fill="#034EA2" transform="translate(1623,389)"/>
<path d="M0 0 C5.27171551 4.46246094 7.50150883 9.34003925 9 16 C9 20.95 9 25.9 9 31 C-3.21 31 -15.42 31 -28 31 C-24.68290885 38.54591157 -24.68290885 38.54591157 -19 43 C-12.90598604 44.47435822 -9.65008853 44.04235536 -4 41 C-1.66121124 39.43671635 -1.66121124 39.43671635 0 38 C2.95409701 39.37154504 5.44008376 40.98863724 8 43 C7.68153629 46.07500207 7.44511885 47.5848681 5.14453125 49.73046875 C-3.99723764 55.4421602 -11.66673906 57.43452066 -22.49609375 55.5703125 C-29.16596616 53.69766202 -34.53936044 49.74785273 -38.3515625 43.94140625 C-43.02749231 35.0436837 -43.4163419 24.34459921 -40.875 14.6875 C-38.21430453 7.0642981 -33.83284352 1.99937518 -26.9296875 -2.08984375 C-18.48992584 -6.07054105 -7.68008581 -5.15053374 0 0 Z M-23 10 C-25.93348499 13.72631878 -27 15.18872494 -27 20 C-19.41 20 -11.82 20 -4 20 C-5.33585042 12.47052238 -5.33585042 12.47052238 -10 8 C-15.07515986 6.46787627 -18.83125863 6.41025048 -23 10 Z " fill="#034EA2" transform="translate(2202,389)"/>
<path d="M0 0 C8.35851696 8.81032869 8.3125 18.61851869 8.3125 30.4375 C-3.8975 30.4375 -16.1075 30.4375 -28.6875 30.4375 C-25.53216418 38.95750743 -25.53216418 38.95750743 -18.90234375 42.91015625 C-14.97102712 43.84618402 -11.52541434 43.71205782 -7.6875 42.4375 C-5.90712043 41.24747153 -5.90712043 41.24747153 -4.375 39.8125 C-1.6875 37.4375 -1.6875 37.4375 0.375 37.3125 C3.154778 38.92656465 5.14378935 41.08806346 7.3125 43.4375 C5.51978305 48.27783576 1.81101976 51.21254478 -2.6953125 53.421875 C-10.76628429 56.48826572 -19.46103328 56.63248192 -27.5546875 53.54296875 C-34.56111354 49.91143291 -39.7002572 44.2258448 -42.26953125 36.7421875 C-44.10926769 26.59784639 -43.95932644 14.71718731 -38.05859375 6.04296875 C-28.13569186 -6.36567018 -13.34402272 -7.75815275 0 0 Z M-24.6875 9.4375 C-26.70249795 12.49430803 -28.6875 15.70941412 -28.6875 19.4375 C-21.0975 19.4375 -13.5075 19.4375 -5.6875 19.4375 C-6.07126904 12.79537134 -6.07126904 12.79537134 -8.8125 9.5625 C-14.26423036 5.53296017 -19.21553404 5.42472496 -24.6875 9.4375 Z " fill="#034EA2" transform="translate(2493.6875,389.5625)"/>
<path d="M0 0 C2.5 2.5 2.5 2.5 4 5 C4.35312256 5.54833496 4.70624512 6.09666992 5.07006836 6.66162109 C6.40866336 10.02761293 6.33804185 13.34230374 6.37890625 16.9140625 C6.39590073 17.68374359 6.4128952 18.45342468 6.43040466 19.24642944 C6.48340702 21.70586951 6.52369812 24.16529832 6.5625 26.625 C6.62101994 29.84647467 6.68519075 33.06778961 6.75390625 36.2890625 C6.77778915 37.44103119 6.77778915 37.44103119 6.80215454 38.61627197 C6.93386676 44.1194967 7.32909356 49.5329442 8 55 C5.70890403 55.08075665 3.41700733 55.13907731 1.125 55.1875 C-0.78925781 55.23970703 -0.78925781 55.23970703 -2.7421875 55.29296875 C-3.81726562 55.19628906 -4.89234375 55.09960938 -6 55 C-6.66 54.01 -7.32 53.02 -8 52 C-8.7425 52.474375 -9.485 52.94875 -10.25 53.4375 C-15.55617196 56.45237043 -21.0036423 56.6321197 -27 56 C-32.68583473 54.37294931 -36.82770055 52.15498661 -40 47 C-42.01138947 40.9658316 -42.07756502 34.23494967 -39.3125 28.5 C-33.11420589 21.79914151 -27.14777732 19.2372015 -18.015625 18.81640625 C-14.34090887 18.78351126 -10.67252578 18.86778907 -7 19 C-7.42423244 17.53775201 -7.86490245 16.08026588 -8.3125 14.625 C-8.55613281 13.81289063 -8.79976562 13.00078125 -9.05078125 12.1640625 C-9.91368185 9.66815371 -9.91368185 9.66815371 -13 8 C-18.45976961 7.5057437 -18.45976961 7.5057437 -23.4375 9.3125 C-25.23686957 11.02309613 -25.23686957 11.02309613 -26 14 C-30.62 14 -35.24 14 -40 14 C-39.78108236 8.63651783 -38.63995078 5.49825391 -34.9140625 1.578125 C-25.18008286 -6.44744188 -10.58422646 -6.30159148 0 0 Z M-27 33 C-28.12917067 36.21379345 -28.20514718 37.53571953 -26.8125 40.6875 C-24.87318316 43.1618008 -24.01209383 44.16330727 -21 45 C-16.2186443 44.73919878 -12.85587939 43.86436755 -9 41 C-6.79086 37.68629 -6.77518447 36.6553979 -6.875 32.8125 C-6.89304687 31.91144531 -6.91109375 31.01039063 -6.9296875 30.08203125 C-6.95289063 29.39496094 -6.97609375 28.70789063 -7 28 C-17.93638057 27.45679767 -17.93638057 27.45679767 -27 33 Z " fill="#034EA2" transform="translate(1735,389)"/>
<path d="M0 0 C5.77438397 4.12455998 7.86629385 7.62764372 9.24554443 14.37960815 C9.87223149 18.50085422 9.87081737 22.56206497 9.8203125 26.72265625 C9.8174826 27.61995956 9.81465271 28.51726288 9.81173706 29.4417572 C9.80064979 32.27381414 9.77556747 35.10554061 9.75 37.9375 C9.73995537 39.87174019 9.73083213 41.80598539 9.72265625 43.74023438 C9.70074814 48.4519479 9.66629901 53.16341816 9.625 57.875 C5.005 57.875 0.385 57.875 -4.375 57.875 C-4.404729 56.04340332 -4.404729 56.04340332 -4.43505859 54.17480469 C-4.51116123 49.64220646 -4.59987161 45.1099273 -4.69238281 40.57763672 C-4.73065327 38.6164378 -4.76550954 36.65516916 -4.796875 34.69384766 C-4.8425674 31.87377003 -4.900555 29.05417162 -4.9609375 26.234375 C-4.97248871 25.35819519 -4.98403992 24.48201538 -4.99594116 23.57928467 C-5.01581085 22.75873596 -5.03568054 21.93818726 -5.05615234 21.09277344 C-5.06947601 20.37329529 -5.08279968 19.65381714 -5.0965271 18.91253662 C-5.42851946 16.48340767 -6.01904154 14.92061137 -7.375 12.875 C-11.81426719 11.14443822 -14.7559271 10.27240807 -19.25 12.0625 C-22.56083531 13.67551944 -22.56083531 13.67551944 -24.375 16.875 C-24.69991235 18.83020809 -24.69991235 18.83020809 -24.69384766 20.97924805 C-24.71371735 21.79987228 -24.73358704 22.62049652 -24.75405884 23.46598816 C-24.77138565 24.7879998 -24.77138565 24.7879998 -24.7890625 26.13671875 C-24.80842865 27.04251175 -24.8277948 27.94830475 -24.8477478 28.88154602 C-24.90753542 31.77510151 -24.95392568 34.6686968 -25 37.5625 C-25.03818054 39.52410591 -25.07723231 41.48569506 -25.1171875 43.44726562 C-25.21323632 48.2563744 -25.29727043 53.06556166 -25.375 57.875 C-29.665 57.875 -33.955 57.875 -38.375 57.875 C-38.375 38.735 -38.375 19.595 -38.375 -0.125 C-34.085 -0.125 -29.795 -0.125 -25.375 -0.125 C-25.045 1.195 -24.715 2.515 -24.375 3.875 C-23.4675 3.235625 -22.56 2.59625 -21.625 1.9375 C-15.18081173 -2.15208102 -7.19797273 -2.39932424 0 0 Z " fill="#034EA2" transform="translate(2549.375,386.125)"/>
<path d="M0 0 C5.06279505 3.92844239 5.99499991 8.96999947 7 15 C2.38 15 -2.24 15 -7 15 C-7.66 13.02 -8.32 11.04 -9 9 C-13.0319464 7.65601787 -16.7840052 7.41402238 -21 8 C-23.56990998 9.81264648 -23.56990998 9.81264648 -25 12 C-24.67750316 14.4819125 -24.67750316 14.4819125 -23 17 C-20.06822954 18.45612568 -16.96947108 19.22997044 -13.8125 20.0625 C-6.48009849 22.07454254 0.10471658 23.88200247 5.4375 29.625 C7.79911589 34.72609032 8.12055672 39.68239669 6.3046875 45.05859375 C3.49565174 50.54683589 -0.56564474 53.0262579 -6.125 55.25 C-14.50927358 56.87276263 -23.28744128 57.07806908 -31 53 C-35.48885647 49.86012631 -39.82286655 46.59138387 -41 41 C-41 39.35 -41 37.7 -41 36 C-36.71 36 -32.42 36 -28 36 C-27.5875 36.94875 -27.175 37.8975 -26.75 38.875 C-24.8931138 42.19086821 -24.4027738 42.73525222 -21 44 C-18.51263746 44.31423015 -18.51263746 44.31423015 -15.9375 44.25 C-15.08027344 44.25515625 -14.22304687 44.2603125 -13.33984375 44.265625 C-10.72947202 44.14992488 -10.72947202 44.14992488 -8 42 C-7.33319632 39.04279372 -7.33319632 39.04279372 -8 36 C-12.82835041 32.33081878 -18.51548604 31.51051738 -24.30859375 30.16015625 C-29.88125307 28.40874904 -34.17104869 25.39620336 -38 21 C-39.7421488 15.77355359 -40.00347147 10.27899996 -37.5 5.25 C-34.63217744 0.84584393 -30.07917143 -1.98864035 -25.1328125 -3.61328125 C-16.39513911 -5.19758467 -7.69585319 -4.60889715 0 0 Z " fill="#034EA2" transform="translate(1510,389)"/>
<path d="M0 0 C4.34781435 2.76679095 7.08641406 6.22560309 9 11 C9.56749767 13.70034309 9.80601462 16.23570832 10 19 C5.71 19 1.42 19 -3 19 C-3.556875 17.72125 -4.11375 16.4425 -4.6875 15.125 C-6.0707765 12.39230342 -6.73654269 11.1780117 -9.3125 9.4375 C-12.91361047 8.85127271 -15.46450476 9.05299235 -19 10 C-22.11905047 12.57660691 -23.7181368 14.1544104 -25 18 C-25.24904978 20.93312719 -25.2311822 23.86986607 -25.25 26.8125 C-25.270625 27.60720703 -25.29125 28.40191406 -25.3125 29.22070312 C-25.34564606 34.2299008 -24.81103216 37.67737507 -22 42 C-18.54074541 44.4372021 -16.61662038 45.01063139 -12.375 44.9375 C-8.66109913 43.90586087 -7.32698232 43.01645857 -5 40 C-4.34 38.68 -3.68 37.36 -3 36 C1.29 36 5.58 36 10 36 C9.42310451 43.21119359 6.91172391 47.40145062 1.6875 52.25 C-3.97842116 56.82586021 -10.06025712 57.47999365 -17.16015625 57.3046875 C-24.99916349 56.46363858 -30.39346593 53.37899609 -35.52734375 47.48828125 C-39.4577859 40.84718935 -40.53480777 34.12089762 -40.4375 26.5 C-40.42992676 25.66629883 -40.42235352 24.83259766 -40.41455078 23.97363281 C-40.25181386 17.91791878 -39.54234042 13.05890491 -36 8 C-35.5875 7.35933594 -35.175 6.71867187 -34.75 6.05859375 C-26.71074832 -4.88118339 -11.46280885 -5.63085347 0 0 Z " fill="#034EA2" transform="translate(1565,388)"/>
<path d="M0 0 C4.34781435 2.76679095 7.08641406 6.22560309 9 11 C9.56749767 13.70034309 9.80601462 16.23570832 10 19 C5.71 19 1.42 19 -3 19 C-3.556875 17.72125 -4.11375 16.4425 -4.6875 15.125 C-6.0707765 12.39230342 -6.73654269 11.1780117 -9.3125 9.4375 C-12.91361047 8.85127271 -15.46450476 9.05299235 -19 10 C-22.11905047 12.57660691 -23.7181368 14.1544104 -25 18 C-25.24904978 20.93312719 -25.2311822 23.86986607 -25.25 26.8125 C-25.270625 27.60720703 -25.29125 28.40191406 -25.3125 29.22070312 C-25.34564606 34.2299008 -24.81103216 37.67737507 -22 42 C-18.54074541 44.4372021 -16.61662038 45.01063139 -12.375 44.9375 C-8.66109913 43.90586087 -7.32698232 43.01645857 -5 40 C-4.34 38.68 -3.68 37.36 -3 36 C1.29 36 5.58 36 10 36 C9.42084076 43.23949048 6.90773178 47.42307915 1.625 52.25 C-4.92869856 57.52055337 -11.83004432 57.8036022 -20 57 C-27.68872521 55.27685307 -32.72641262 51.58844721 -37 45 C-41.89484888 36.55638569 -40.97414514 24.47674878 -39.56640625 15.1171875 C-37.72356421 8.54705499 -33.54527782 3.17746302 -27.7421875 -0.38671875 C-18.63494186 -4.55965284 -8.93682342 -4.39001852 0 0 Z " fill="#034EA2" transform="translate(1366,388)"/>
<path d="M0 0 C6.84957905 5.49322676 8.97824716 10.31510085 10 19 C5.38 19 0.76 19 -4 19 C-4.5878125 17.3603125 -4.5878125 17.3603125 -5.1875 15.6875 C-6.3192197 13.10445457 -7.0517784 11.95265975 -9.1875 10 C-13.05053319 8.62647709 -16.11356027 8.68007707 -20 10 C-24.35903372 13.90018807 -25.68146404 18.63022488 -26.22265625 24.35546875 C-26.45925903 30.99063358 -25.77078147 37.8333926 -21.25 43 C-16.81447317 44.97134526 -13.39232883 45.45518443 -8.75 43.9375 C-5.51361988 41.6573231 -4.45453684 39.6363421 -3 36 C1.29 36 5.58 36 10 36 C8.95145843 43.45629558 6.90276243 48.1575486 1 53 C-6.41373555 57.47597979 -14.29924166 58.33351072 -22.671875 56.375 C-29.88353559 53.9274061 -34.24051499 49.70436189 -38.05859375 43.1953125 C-42.06782215 34.25607598 -42.2164041 22.18515401 -39 13 C-35.78928633 6.02887849 -30.89344686 0.6795261 -23.8125 -2.375 C-15.82815813 -3.6839085 -7.15562463 -4.38570542 0 0 Z " fill="#034EA2" transform="translate(1310,388)"/>
<path d="M0 0 C4.62 0 9.24 0 14 0 C17.13528051 6.68596096 19.113258 13.67582205 21.1875 20.75 C21.55552734 21.98105469 21.92355469 23.21210938 22.30273438 24.48046875 C25 33.61814413 25 33.61814413 25 37 C25.66 37 26.32 37 27 37 C27.14477783 36.16299561 27.14477783 36.16299561 27.29248047 35.30908203 C28.70906085 27.66631558 30.87280911 20.30802575 33.125 12.875 C33.49753906 11.63234375 33.87007812 10.3896875 34.25390625 9.109375 C35.1652101 6.07169549 36.08203935 3.03567452 37 0 C41.95 0 46.9 0 52 0 C50.09285248 7.22622447 47.97456727 14.29111053 45.49609375 21.33984375 C45.17214127 22.26922256 44.84818878 23.19860138 44.51441956 24.15614319 C43.83636544 26.09862163 43.15649325 28.04046634 42.47485352 29.98168945 C41.43209668 32.9528961 40.39631956 35.92647121 39.36132812 38.90039062 C38.69832614 40.79701819 38.03492885 42.69350762 37.37109375 44.58984375 C37.06272079 45.47526352 36.75434784 46.36068329 36.43663025 47.27293396 C36.14615311 48.09801956 35.85567596 48.92310516 35.55639648 49.77319336 C35.30341293 50.49502304 35.05042938 51.21685272 34.78977966 51.96055603 C33.98897722 54.02846407 32.99171853 56.01656294 32 58 C28.04 58 24.08 58 20 58 C17.17752117 51.0685317 14.56441197 44.10042317 12.109375 37.03125 C11.75989807 36.02912476 11.41042114 35.02699951 11.050354 33.99450684 C10.31983781 31.89746 9.59050127 29.80000188 8.86230469 27.70214844 C7.74295035 24.47970517 6.61776737 21.25933576 5.4921875 18.0390625 C4.78089923 15.99491369 4.06994936 13.95064709 3.359375 11.90625 C3.02194275 10.94174927 2.6845105 9.97724854 2.33685303 8.98352051 C2.02943176 8.0949939 1.7220105 7.20646729 1.40527344 6.29101562 C1.13309998 5.50843384 0.86092651 4.72585205 0.58050537 3.91955566 C0 2 0 2 0 0 Z " fill="#034EA2" transform="translate(1775,386)"/>
<path d="M0 0 C4.62 0 9.24 0 14 0 C14 4.62 14 9.24 14 14 C17.3 14 20.6 14 24 14 C24 17.63 24 21.26 24 25 C20.7 25 17.4 25 14 25 C14.11811981 29.66326382 14.24235866 34.3263088 14.37231445 38.98925781 C14.41567241 40.57612657 14.45734687 42.16304224 14.49731445 43.75 C14.55499632 46.02878979 14.61869638 48.30734322 14.68359375 50.5859375 C14.70030624 51.29744965 14.71701874 52.00896179 14.73423767 52.74203491 C14.79721937 56.49660817 14.79721937 56.49660817 16 60 C18.12576782 60.46651207 18.12576782 60.46651207 20.5625 60.625 C22.7590625 60.810625 22.7590625 60.810625 25 61 C25 64.63 25 68.26 25 72 C18.99706183 73.50073454 13.40667019 73.91891044 7.5625 71.6875 C2.87571778 68.60108244 1.75626806 66.84022143 0.41461182 61.22705078 C-0.23615098 57.73153587 -0.24741669 54.32677517 -0.1953125 50.78125 C-0.1924826 50.03790405 -0.18965271 49.29455811 -0.18673706 48.52868652 C-0.17566157 46.18561783 -0.15058228 43.84295053 -0.125 41.5 C-0.11495381 39.89844307 -0.10583085 38.29688007 -0.09765625 36.6953125 C-0.0757639 32.7967235 -0.04132386 28.89842948 0 25 C-2.97 25 -5.94 25 -9 25 C-9 21.37 -9 17.74 -9 14 C-6.03 14 -3.06 14 0 14 C0 9.38 0 4.76 0 0 Z " fill="#034EA2" transform="translate(1864,372)"/>
<path d="M0 0 C4.62 0 9.24 0 14 0 C14 4.62 14 9.24 14 14 C17.3 14 20.6 14 24 14 C24 17.63 24 21.26 24 25 C20.7 25 17.4 25 14 25 C14.11795429 29.82398914 14.24218018 34.64775958 14.37231445 39.47143555 C14.41572297 41.11364303 14.45739358 42.75589739 14.49731445 44.39819336 C14.5548744 46.75388745 14.61860892 49.10934428 14.68359375 51.46484375 C14.70030624 52.20339096 14.71701874 52.94193817 14.73423767 53.7028656 C14.53548013 57.14300627 14.53548013 57.14300627 16 60 C17.34747084 60.23075082 18.70377565 60.41153063 20.0625 60.5625 C21.361875 60.706875 22.66125 60.85125 24 61 C24 64.63 24 68.26 24 72 C18.00484686 73.49878828 12.42753998 73.88274181 6.5625 71.75 C2.91262053 69.25739939 1.39008573 67.1702572 0 63 C-0.0853013 60.12305329 -0.11585645 57.27099818 -0.09765625 54.39453125 C-0.0962413 53.55532639 -0.09482635 52.71612152 -0.09336853 51.85148621 C-0.08777215 49.17178784 -0.07522035 46.4921731 -0.0625 43.8125 C-0.05748453 41.99544392 -0.05292171 40.17838652 -0.04882812 38.36132812 C-0.03780391 33.90751987 -0.02054178 29.45377411 0 25 C-2.97 25 -5.94 25 -9 25 C-9 21.37 -9 17.74 -9 14 C-6.03 14 -3.06 14 0 14 C0 9.38 0 4.76 0 0 Z " fill="#034EA2" transform="translate(2574,372)"/>
<path d="M0 0 C4.62 0 9.24 0 14 0 C14 27.06 14 54.12 14 82 C9.38 82 4.76 82 0 82 C0 54.94 0 27.88 0 0 Z " fill="#034EA2" transform="translate(2248,362)"/>
<path d="M0 0 C4.62 0 9.24 0 14 0 C14 27.06 14 54.12 14 82 C9.38 82 4.76 82 0 82 C0 54.94 0 27.88 0 0 Z " fill="#034EA2" transform="translate(1669,362)"/>
<path d="M0 0 C2.1346875 0.0309375 2.1346875 0.0309375 4.3125 0.0625 C4.3125 4.6825 4.3125 9.3025 4.3125 14.0625 C2.518125 13.9696875 2.518125 13.9696875 0.6875 13.875 C-3.44120482 13.8676796 -6.1399984 14.86642758 -9.6875 17.0625 C-12.77393773 20.14893773 -12.04615008 23.86009417 -12.1015625 28.0078125 C-12.12092865 28.8928244 -12.1402948 29.7778363 -12.1602478 30.68966675 C-12.22012723 33.52217916 -12.26646213 36.35473203 -12.3125 39.1875 C-12.35067211 41.10548668 -12.38972338 43.02345607 -12.4296875 44.94140625 C-12.52583555 49.64829748 -12.60983542 54.35526896 -12.6875 59.0625 C-17.3075 59.0625 -21.9275 59.0625 -26.6875 59.0625 C-26.6875 39.9225 -26.6875 20.7825 -26.6875 1.0625 C-22.0675 1.0625 -17.4475 1.0625 -12.6875 1.0625 C-12.3575 2.0525 -12.0275 3.0425 -11.6875 4.0625 C-11.089375 3.588125 -10.49125 3.11375 -9.875 2.625 C-6.55830434 0.25593167 -3.96183083 -0.05741784 0 0 Z " fill="#034EA2" transform="translate(2150.6875,384.9375)"/>
<path d="M0 0 C1 1 1 1 1.09765625 3.94140625 C1.08605469 5.13636719 1.07445312 6.33132813 1.0625 7.5625 C1.05347656 8.76003906 1.04445313 9.95757812 1.03515625 11.19140625 C1.02355469 12.11824219 1.01195312 13.04507812 1 14 C0.41992188 13.96519531 -0.16015625 13.93039062 -0.7578125 13.89453125 C-5.97130919 13.71386552 -9.50338296 14.03881317 -14 17 C-16.60368313 20.9055247 -16.35148497 24.28663889 -16.4140625 28.82421875 C-16.43342865 29.68561966 -16.4527948 30.54702057 -16.4727478 31.43452454 C-16.5325203 34.18541568 -16.57891948 36.93634873 -16.625 39.6875 C-16.66318194 41.55275261 -16.7022338 43.41798763 -16.7421875 45.28320312 C-16.8382199 49.85532586 -16.9222595 54.42753114 -17 59 C-21.29 59 -25.58 59 -30 59 C-30 39.86 -30 20.72 -30 1 C-25.71 1 -21.42 1 -17 1 C-16.67 1.99 -16.34 2.98 -16 4 C-15.030625 3.34 -14.06125 2.68 -13.0625 2 C-8.8103486 -0.46085654 -4.81710457 -0.63056519 0 0 Z " fill="#034EA2" transform="translate(1199,385)"/>
<path d="M0 0 C0 4.62 0 9.24 0 14 C-1.794375 13.9071875 -1.794375 13.9071875 -3.625 13.8125 C-7.75714528 13.8125 -10.47788178 14.73578114 -14 17 C-16.60368313 20.9055247 -16.35148497 24.28663889 -16.4140625 28.82421875 C-16.43342865 29.68561966 -16.4527948 30.54702057 -16.4727478 31.43452454 C-16.5325203 34.18541568 -16.57891948 36.93634873 -16.625 39.6875 C-16.66318194 41.55275261 -16.7022338 43.41798763 -16.7421875 45.28320312 C-16.8382199 49.85532586 -16.9222595 54.42753114 -17 59 C-21.29 59 -25.58 59 -30 59 C-30 39.86 -30 20.72 -30 1 C-25.71 1 -21.42 1 -17 1 C-16.67 1.99 -16.34 2.98 -16 4 C-15.030625 3.34 -14.06125 2.68 -13.0625 2 C-8.64055339 -0.57342795 -5.02820629 -0.30942808 0 0 Z " fill="#034EA2" transform="translate(1237,385)"/>
<path d="M0 0 C4.62 0 9.24 0 14 0 C14 19.14 14 38.28 14 58 C9.38 58 4.76 58 0 58 C0 38.86 0 19.72 0 0 Z " fill="#034EA2" transform="translate(1834,386)"/>
<path d="M0 0 C4.62 0 9.24 0 14 0 C14 19.14 14 38.28 14 58 C9.38 58 4.76 58 0 58 C0 38.86 0 19.72 0 0 Z " fill="#034EA2" transform="translate(1445,386)"/>
<path d="M0 0 C4.62 0 9.24 0 14 0 C14 19.14 14 38.28 14 58 C9.38 58 4.76 58 0 58 C0 38.86 0 19.72 0 0 Z " fill="#034EA2" transform="translate(1245,386)"/>
<path d="M0 0 C3.96 0 7.92 0 12 0 C12.51880015 10.80833641 12.36056428 19.89379428 5.25 28.625 C4.5075 29.40875 3.765 30.1925 3 31 C-0.82097239 30.46930939 -3.06171403 29.50298434 -6 27 C-4 22 -4 22 -3 19.875 C-1.65921078 16.02023099 -1.28869807 12.23292457 -0.875 8.1875 C-0.78863281 7.39923828 -0.70226563 6.61097656 -0.61328125 5.79882812 C-0.40248936 3.86656916 -0.20037104 1.93336737 0 0 Z " fill="#034EA2" transform="translate(1956,430)"/>
<path d="M0 0 C2.59393856 2.8371203 3.02858292 4.28542702 2.875 8.125 C1.9581787 11.13741285 1.43154398 12.10757663 -1 14 C-3.15625 14.3984375 -3.15625 14.3984375 -5.5 14.375 C-6.2734375 14.38273437 -7.046875 14.39046875 -7.84375 14.3984375 C-10.53181041 13.90173068 -11.41247034 13.20656639 -13 11 C-13.55618667 8.295406 -13.42629934 5.72263177 -13 3 C-9.77008473 -1.76797016 -5.13727771 -1.28431943 0 0 Z " fill="#034EA2" transform="translate(2678,430)"/>
<path d="M0 0 C2.59393856 2.8371203 3.02858292 4.28542702 2.875 8.125 C1.53492334 12.52810903 1.53492334 12.52810903 -1 14 C-4.54329495 14.53260383 -7.74841596 14.68635254 -10.9375 12.9375 C-12.58128695 9.94000615 -12.88081199 7.39685818 -13 4 C-10.02061211 -1.66083699 -5.77095897 -1.44273974 0 0 Z " fill="#034EA2" transform="translate(1457,365)"/>
<path d="M0 0 C2.5881216 2.25417042 2.94242643 3.60520979 3.4375 7 C3 10 3 10 1.4375 12.375 C-1.91283535 14.6085569 -4.0481433 14.49398209 -8 14 C-10.90186138 12.54906931 -11.75431539 11.66685823 -12.875 8.625 C-13.02521993 5.47038147 -12.55730159 3.74381709 -11 1 C-7.5166186 -1.83831077 -4.15534713 -1.05772473 0 0 Z " fill="#034EA2" transform="translate(1257,365)"/>
<path d="M0 0 C1.9375 1.125 1.9375 1.125 3 3 C3.49573337 6.89504791 3.58016848 9.09493717 1.4375 12.4375 C-1.91852406 14.58879747 -4.08421671 14.48947291 -8 14 C-10.4375 13 -10.4375 13 -12 11 C-12.50433692 8.24907132 -12.48845191 5.75257015 -12 3 C-8.70230902 -1.64674638 -5.25326061 -1.1059496 0 0 Z " fill="#034EA2" transform="translate(1846,365)"/>
</svg>
