<?xml version="1.0" encoding="UTF-8"?>
<svg version="1.1" xmlns="http://www.w3.org/2000/svg" width="782" height="782">
<path d="M0 0 C258.06 0 516.12 0 782 0 C782 258.06 782 516.12 782 782 C523.94 782 265.88 782 0 782 C0 523.94 0 265.88 0 0 Z " fill="#FEFEFE" transform="translate(0,0)"/>
<path d="M0 0 C167.97 0 335.94 0 509 0 C509 0.99 509 1.98 509 3 C342.35 3 175.7 3 4 3 C4 81.87 4 160.74 4 242 C169.66 242 335.32 242 506 242 C506 190.52 506 139.04 506 86 C507.32 86 508.64 86 510 86 C510 139.13 510 192.26 510 247 C341.7 246.67 173.4 246.34 0 246 C0 164.82 0 83.64 0 0 Z " fill="#4C4C4C" transform="translate(95,255)"/>
<path d="M0 0 C0.66 0 1.32 0 2 0 C2 79.2 2 158.4 2 240 C168.32 240 334.64 240 506 240 C506 188.52 506 137.04 506 84 C506.66 84 507.32 84 508 84 C508 136.47 508 188.94 508 243 C340.36 243 172.72 243 0 243 C0 162.81 0 82.62 0 0 Z " fill="#000000" transform="translate(96,258)"/>
<path d="M0 0 C6.03653729 2.61761352 9.99503614 6.49131324 13.25 12.1875 C15.05830051 18.9686269 14.72234406 25.12698137 11.19921875 31.24609375 C7.88551537 36.09251987 4.77054082 38.75537355 -1 40 C-5.585915 40.59736368 -8.25775699 40.41235723 -12.375 38.125 C-15 36 -15 36 -17 34 C-17.33 40.6 -17.66 47.2 -18 54 C-19.65 54 -21.3 54 -23 54 C-23 36.51 -23 19.02 -23 1 C-21.02 1 -19.04 1 -17 1 C-17 2.32 -17 3.64 -17 5 C-16.52691406 4.6390625 -16.05382812 4.278125 -15.56640625 3.90625 C-10.42912816 0.30114257 -6.27136459 -1.36809873 0 0 Z " fill="#0D0D0D" transform="translate(320,434)"/>
<path d="M0 0 C3.125 1.625 3.125 1.625 5.125 3.625 C5.455 2.305 5.785 0.985 6.125 -0.375 C7.775 -0.375 9.425 -0.375 11.125 -0.375 C11.125 11.835 11.125 24.045 11.125 36.625 C9.475 36.625 7.825 36.625 6.125 36.625 C5.795 35.305 5.465 33.985 5.125 32.625 C3.949375 33.5840625 3.949375 33.5840625 2.75 34.5625 C-1.97190754 38.27257021 -6.00181299 38.2589872 -11.875 37.625 C-16.73281962 35.94168774 -20.0672235 32.88866062 -22.875 28.625 C-25.49964669 23.03336141 -25.64741586 17.70186357 -24.875 11.625 C-22.84573796 6.43444957 -19.53049336 2.68782458 -14.875 -0.375 C-9.74945864 -2.08351379 -4.96626868 -2.05715732 0 0 Z " fill="#F7FCFE" transform="translate(364.875,435.375)"/>
<path d="M0 0 C5.01541264 3.00171976 8.81734252 6.38952755 10.70703125 12.05859375 C11.37710102 19.47330025 11.32659346 25.95568587 6.70703125 32.05859375 C2.6158705 36.3313465 -1.13165356 38.19669159 -7.04296875 38.37109375 C-12.33266774 38.3094063 -15.04882388 37.19926096 -19.29296875 34.05859375 C-24.81316681 28.2400066 -25.75874115 22.80731278 -25.60546875 15 C-25.00661061 9.36324775 -22.45189221 5.89970966 -18.23046875 2.18359375 C-12.907617 -1.66697986 -6.16514557 -2.53117561 0 0 Z " fill="#FAFAFA" transform="translate(172.29296875,434.94140625)"/>
<path d="M0 0 C0.66 0 1.32 0 2 0 C2.33 79.86 2.66 159.72 3 242 C168.66 242 334.32 242 505 242 C505 242.33 505 242.66 505 243 C338.35 243 171.7 243 0 243 C0 162.81 0 82.62 0 0 Z " fill="#1F1F1F" transform="translate(96,258)"/>
<path d="M0 0 C3.69552303 1.30430225 5.67681821 2.65980864 8.375 5.5 C11.1444391 11.46494575 10.94702676 17.34832508 8.75 23.5 C6.23581413 27.0916941 4.13970343 28.62009886 0 30 C-5.83700441 30.66079295 -5.83700441 30.66079295 -8.71875 29.0234375 C-12.76831316 25.78775713 -14.71361618 23.10657326 -15.40625 18.01171875 C-15.6904931 7.93293215 -15.6904931 7.93293215 -12.125 3.75 C-8.22913991 -0.05175719 -5.46821038 -0.36454736 0 0 Z " fill="#FBFBFB" transform="translate(318,439)"/>
<path d="M0 0 C3.125 1.625 3.125 1.625 5.125 3.625 C5.455 2.305 5.785 0.985 6.125 -0.375 C7.775 -0.375 9.425 -0.375 11.125 -0.375 C11.125 11.835 11.125 24.045 11.125 36.625 C9.475 36.625 7.825 36.625 6.125 36.625 C5.795 35.305 5.465 33.985 5.125 32.625 C3.949375 33.5840625 3.949375 33.5840625 2.75 34.5625 C-1.97190754 38.27257021 -6.00181299 38.2589872 -11.875 37.625 C-16.73281962 35.94168774 -20.0672235 32.88866062 -22.875 28.625 C-25.49964669 23.03336141 -25.64741586 17.70186357 -24.875 11.625 C-22.84573796 6.43444957 -19.53049336 2.68782458 -14.875 -0.375 C-9.74945864 -2.08351379 -4.96626868 -2.05715732 0 0 Z M-16.875 7.625 C-19.92966836 12.10518026 -20.61557941 16.30722841 -19.875 21.625 C-18.60040678 25.87364408 -17.47720434 28.07881467 -14.1875 31.0625 C-10.16179924 32.96141545 -7.24174259 33.47045715 -2.875 32.625 C1.15502555 30.72404455 2.77122947 29.23820225 5 25.375 C6.70218902 19.7010366 7.22558392 15.19599537 4.4375 9.8125 C2.07299411 6.5533162 0.85072164 5.06448336 -2.875 3.625 C-8.93037964 2.95218004 -12.1446145 3.44465932 -16.875 7.625 Z " fill="#134E9A" transform="translate(364.875,435.375)"/>
<path d="M0 0 C1.65 0 3.3 0 5 0 C5.33 8.25 5.66 16.5 6 25 C8.31 23.02 10.62 21.04 13 19 C19.75278424 18.0621133 23.5463355 18.96428827 29 23 C32.01278991 26.9838653 32.35823178 29.89379543 32.29296875 34.83203125 C32.2784668 36.77045898 32.2784668 36.77045898 32.26367188 38.74804688 C32.23860985 40.1028707 32.21321506 41.45768841 32.1875 42.8125 C32.17244013 44.18683445 32.15875401 45.56118468 32.14648438 46.93554688 C32.11116628 50.29076632 32.06183851 53.64518166 32 57 C30.02 57 28.04 57 26 57 C25.9906543 56.17274414 25.98130859 55.34548828 25.97167969 54.49316406 C25.91799681 50.74483585 25.8343429 46.99775838 25.75 43.25 C25.73582031 41.94804687 25.72164063 40.64609375 25.70703125 39.3046875 C25.67480469 38.05429687 25.64257812 36.80390625 25.609375 35.515625 C25.58842773 34.36352539 25.56748047 33.21142578 25.54589844 32.02441406 C24.88819784 28.38058804 23.95802591 27.17567319 21 25 C16.32709654 24.40661543 14.18194415 24.30625018 10.125 26.6875 C6.54751524 30.58064519 5.75996365 34.32775101 5.5859375 39.51953125 C5.54726563 40.54111328 5.50859375 41.56269531 5.46875 42.61523438 C5.4378125 43.67033203 5.406875 44.72542969 5.375 45.8125 C5.33632813 46.88693359 5.29765625 47.96136719 5.2578125 49.06835938 C5.16381387 51.71207088 5.07815427 54.3557805 5 57 C3.35 57 1.7 57 0 57 C0 38.19 0 19.38 0 0 Z " fill="#0A0A0A" transform="translate(255,415)"/>
<path d="M0 0 C1.65 0 3.3 0 5 0 C5.33 8.25 5.66 16.5 6 25 C8.97 22.525 8.97 22.525 12 20 C15.12856476 18.43571762 17.52712131 18.71992914 21 19 C24.98360909 20.34246167 28.06049998 21.72795526 30.59399414 25.15820312 C32.30665753 28.61981137 32.34385435 30.98168729 32.29296875 34.83203125 C32.2784668 36.77045898 32.2784668 36.77045898 32.26367188 38.74804688 C32.23860985 40.1028707 32.21321506 41.45768841 32.1875 42.8125 C32.17244013 44.18683445 32.15875401 45.56118468 32.14648438 46.93554688 C32.11116628 50.29076632 32.06183851 53.64518166 32 57 C30.35 57 28.7 57 27 57 C26.98541748 56.27409668 26.97083496 55.54819336 26.95581055 54.80029297 C26.88105141 51.49134268 26.7844821 48.18337048 26.6875 44.875 C26.66494141 43.73289062 26.64238281 42.59078125 26.61914062 41.4140625 C26.46359026 33.24814493 26.46359026 33.24814493 23 26 C19.39427296 24.79809099 16.7897565 24.67329685 13 25 C8.94496505 27.43302097 7.45443477 29.58278337 6 34 C5.64023194 36.69993904 5.64023194 36.69993904 5.5859375 39.51953125 C5.54726563 40.54111328 5.50859375 41.56269531 5.46875 42.61523438 C5.4378125 43.67033203 5.406875 44.72542969 5.375 45.8125 C5.33632813 46.88693359 5.29765625 47.96136719 5.2578125 49.06835938 C5.16381387 51.71207088 5.07815427 54.3557805 5 57 C3.35 57 1.7 57 0 57 C0 38.19 0 19.38 0 0 Z " fill="#0C4896" transform="translate(408,415)"/>
<path d="M0 0 C5.01541264 3.00171976 8.81734252 6.38952755 10.70703125 12.05859375 C11.37710102 19.47330025 11.32659346 25.95568587 6.70703125 32.05859375 C2.6158705 36.3313465 -1.13165356 38.19669159 -7.04296875 38.37109375 C-12.33266774 38.3094063 -15.04882388 37.19926096 -19.29296875 34.05859375 C-24.81316681 28.2400066 -25.75874115 22.80731278 -25.60546875 15 C-25.00661061 9.36324775 -22.45189221 5.89970966 -18.23046875 2.18359375 C-12.907617 -1.66697986 -6.16514557 -2.53117561 0 0 Z M-17.29296875 8.05859375 C-20.14749161 12.15007652 -20.88044176 15.84876632 -20.71484375 20.7421875 C-19.98169223 24.76773244 -18.03433469 28.05030533 -15.29296875 31.05859375 C-11.56334478 33.34688893 -8.65425667 33.43456685 -4.29296875 33.05859375 C-0.07722668 31.736008 1.96378322 30.15421041 4.08203125 26.37109375 C6.19648428 21.52028975 6.84141046 17.2450522 5.01171875 12.10546875 C3.4397421 8.96151545 1.77831821 7.10770255 -1.10546875 5.12109375 C-7.70710955 2.92054682 -11.98231229 3.47211772 -17.29296875 8.05859375 Z " fill="#0B0B0B" transform="translate(172.29296875,434.94140625)"/>
<path d="M0 0 C3.45128672 1.33207558 5.40996081 2.40996081 8 5 C8.06443686 8.41515352 8.01721479 10.92689429 5.578125 13.5 C-2.10966403 19.21481663 -9.81459143 19.90708899 -19.08984375 18.546875 C-21.73644598 18.07000973 -24.36985918 17.56002998 -27 17 C-27.96070434 14.11788698 -28.10581883 12.30149956 -28.0625 9.3125 C-28.05347656 8.50425781 -28.04445313 7.69601562 -28.03515625 6.86328125 C-28.02355469 6.24839844 -28.01195312 5.63351562 -28 5 C-27.27554688 4.89042969 -26.55109375 4.78085937 -25.8046875 4.66796875 C-19.68257763 3.71082734 -19.68257763 3.71082734 -14 1.375 C-9.40802507 -0.72965518 -4.96931098 -0.56117033 0 0 Z " fill="#064BA6" transform="translate(608,303)"/>
<path d="M0 0 C1.640625 0.9375 1.640625 0.9375 3.953125 3.3125 C4.640625 6.25 4.640625 6.25 3.953125 9.3125 C0.56735691 13.75632062 -3.75102377 16.6374544 -9.046875 18.3125 C-12.34084813 18.72323993 -15.58108504 18.9346422 -18.8984375 19.0390625 C-22.21538546 19.3271349 -24.93948685 20.14606301 -28.046875 21.3125 C-28.74624702 19.8807384 -29.43100218 18.44182968 -30.109375 17 C-30.49222656 16.19949219 -30.87507812 15.39898437 -31.26953125 14.57421875 C-32.046875 12.3125 -32.046875 12.3125 -31.046875 9.3125 C-28.98437176 7.84136422 -26.97089799 6.53205513 -24.796875 5.25 C-24.22324219 4.89873047 -23.64960937 4.54746094 -23.05859375 4.18554688 C-15.80442977 -0.18512823 -8.43097384 -2.83177747 0 0 Z " fill="#0149A9" transform="translate(581.046875,273.6875)"/>
<path d="M0 0 C2 2 2 2 2.5 5.5625 C2.3495001 11.07079618 -0.38844286 15.00035887 -4 19 C-6.26215131 20.67180919 -8.44772667 21.74706582 -11 23 C-14.27412507 25.43655819 -17.16843541 28.06356265 -20 31 C-22.64 28.69 -25.28 26.38 -28 24 C-25.22179565 13.44282346 -18.82023033 4.99232995 -9.4375 -0.5 C-6.05505925 -1.193834 -3.34726399 -0.75787109 0 0 Z " fill="#054BA6" transform="translate(428,361)"/>
<path d="M0 0 C2.06747843 1.53530289 2.88896833 2.39237613 3.35546875 4.9453125 C2.89274918 10.949906 0.82401284 14.60297399 -3.33984375 18.91796875 C-9.2151084 23.51637706 -16.73296148 26.41708072 -24 28 C-25.03319813 26.7391988 -26.05124379 25.46596742 -27.0625 24.1875 C-27.91521484 23.12595703 -27.91521484 23.12595703 -28.78515625 22.04296875 C-29.18605469 21.36878906 -29.58695312 20.69460938 -30 20 C-28.82666533 16.479996 -27.6826114 16.15664446 -24.6640625 14.296875 C-22.69842203 12.7649674 -21.57655987 11.12668952 -20.1875 9.0625 C-15.18929588 2.0806744 -8.52115782 -1.17533211 0 0 Z " fill="#034AA8" transform="translate(469,372)"/>
<path d="M0 0 C2.5625 1.5625 2.5625 1.5625 4 4 C4.17122811 8.53754489 3.08833913 11.28569417 0.3125 14.75 C-4.28947224 19.63550607 -9.71498383 21.26663919 -15.953125 23.234375 C-18.31583823 24.11813796 -20.01319007 25.47168467 -22 27 C-25.34998521 25.88333826 -25.79340222 25.25305075 -27.6875 22.4375 C-28.34298828 21.47650391 -28.34298828 21.47650391 -29.01171875 20.49609375 C-29.33785156 20.00238281 -29.66398437 19.50867188 -30 19 C-26.02373726 10.3975085 -19.31554165 5.20138381 -11 1 C-7.28706685 -0.23764438 -3.85863391 -0.54237826 0 0 Z " fill="#074BA5" transform="translate(498,307)"/>
<path d="M0 0 C2.5 1.5625 2.5 1.5625 4 4 C4.27920636 8.83957694 2.86387928 11.56441157 -0.125 15.1875 C-6.22576919 21.58466283 -13.32507997 24.57853531 -22 26 C-24.60884961 25.7437737 -25.59137457 25.47857032 -27.30078125 23.4765625 C-28.27666299 21.69058589 -29.14108347 19.84507995 -30 18 C-28.83747024 14.51241071 -28.32701175 14.37060229 -25.25 12.6875 C-22.22378983 10.90926677 -20.81701631 9.77009742 -18.5625 6.9375 C-13.82928513 1.51161954 -7.21325201 -1.13149051 0 0 Z " fill="#064BA5" transform="translate(689,251)"/>
<path d="M0 0 C1.53333984 -0.04253906 1.53333984 -0.04253906 3.09765625 -0.0859375 C6.63259142 0.48782089 7.80152636 1.54917842 9.9375 4.375 C10.02161964 8.32862304 9.28350659 9.95979209 6.75 13 C-1.78980972 20.21139487 -10.89291004 23.01939942 -22.0625 22.375 C-22.73369549 20.9187455 -23.39931807 19.45992133 -24.0625 18 C-24.43375 17.18789063 -24.805 16.37578125 -25.1875 15.5390625 C-26.0625 13.375 -26.0625 13.375 -26.0625 11.375 C-25.39863281 11.14425781 -24.73476563 10.91351563 -24.05078125 10.67578125 C-18.5395298 8.64023874 -15.09917127 6.75767166 -11.0625 2.375 C-7.326774 0.51360019 -4.15347304 0.05250914 0 0 Z " fill="#0A4DA4" transform="translate(530.0625,328.625)"/>
<path d="M0 0 C2 1.0625 2 1.0625 3 3 C3.53928203 7.08313535 3.31677908 9.379113 1.4375 13.0625 C-3.07759878 18.50377288 -7.730325 22.09011158 -14.1328125 25.0546875 C-16.71568356 26.36233352 -18.82929281 28.1006312 -21 30 C-22.20205464 28.93283928 -23.38632333 27.84561663 -24.5625 26.75 C-25.22378906 26.14671875 -25.88507812 25.5434375 -26.56640625 24.921875 C-28 23 -28 23 -27.90625 21.1015625 C-22.70711438 9.04494627 -13.82421807 -1.09716016 0 0 Z " fill="#064BA5" transform="translate(649,236)"/>
<path d="M0 0 C1.98 0 3.96 0 6 0 C6.38333496 0.68626465 6.76666992 1.3725293 7.16162109 2.07958984 C8.89597837 5.17999648 10.63542041 8.27752073 12.375 11.375 C12.97828125 12.45523437 13.5815625 13.53546875 14.203125 14.6484375 C14.78320312 15.6796875 15.36328125 16.7109375 15.9609375 17.7734375 C16.49509277 18.72653809 17.02924805 19.67963867 17.57958984 20.66162109 C18.92229604 23.08046049 18.92229604 23.08046049 21 25 C21.38857178 24.27820557 21.77714355 23.55641113 22.17749023 22.81274414 C23.92899517 19.56167204 25.68320983 16.31206996 27.4375 13.0625 C28.04916016 11.92619141 28.66082031 10.78988281 29.29101562 9.61914062 C29.87431641 8.53955078 30.45761719 7.45996094 31.05859375 6.34765625 C31.86768188 4.84730835 31.86768188 4.84730835 32.69311523 3.31665039 C34 1 34 1 35 0 C36.66617115 -0.04063832 38.33388095 -0.042721 40 0 C38.61763765 3.74687391 36.88329971 6.97847771 34.77734375 10.3671875 C25.96227395 25.13214359 21.67390025 36.72096992 23 54 C21.02 54 19.04 54 17 54 C17.1134375 52.68773437 17.226875 51.37546875 17.34375 50.0234375 C18.12031577 31.60390132 10.64438237 18.80264984 1.45288086 3.50244141 C0 1 0 1 0 0 Z " fill="#0B0B0B" transform="translate(104,418)"/>
<path d="M0 0 C1.65 0 3.3 0 5 0 C5.01458252 0.76143311 5.02916504 1.52286621 5.04418945 2.30737305 C5.11880541 5.76791888 5.21542259 9.22751445 5.3125 12.6875 C5.33505859 13.88568359 5.35761719 15.08386719 5.38085938 16.31835938 C5.41630859 17.47529297 5.45175781 18.63222656 5.48828125 19.82421875 C5.51446533 20.88729248 5.54064941 21.95036621 5.56762695 23.0456543 C6.09679626 26.66139559 7.39414949 29.39414949 10 32 C15.23734819 32.34915655 18.82501471 32.56101686 23 29 C24.78639987 25.36140211 25.28478873 22.29075114 25.4140625 18.26171875 C25.45273438 17.19501953 25.49140625 16.12832031 25.53125 15.02929688 C25.5621875 13.92650391 25.593125 12.82371094 25.625 11.6875 C25.66367188 10.56537109 25.70234375 9.44324219 25.7421875 8.28710938 C25.83622011 5.52490148 25.92187341 2.762696 26 0 C27.65 0 29.3 0 31 0 C31 12.21 31 24.42 31 37 C29.35 37 27.7 37 26 37 C25.67 35.68 25.34 34.36 25 33 C23.824375 33.9590625 23.824375 33.9590625 22.625 34.9375 C18.6663173 38.04789355 16.24563389 38.34058591 11.3203125 38.28515625 C6.98749277 37.75267167 4.29310274 35.3404839 1.35424805 32.29394531 C-0.52205564 29.11569591 -0.33966413 26.72024507 -0.29296875 23.046875 C-0.28872391 22.38665344 -0.28447906 21.72643188 -0.28010559 21.04620361 C-0.26337435 18.94704609 -0.22573551 16.84886504 -0.1875 14.75 C-0.17244584 13.32293058 -0.15875871 11.89584604 -0.14648438 10.46875 C-0.11349001 6.97885183 -0.06174743 3.4895213 0 0 Z " fill="#060606" transform="translate(192,435)"/>
<path d="M0 0 C1.65 0 3.3 0 5 0 C5 3.96 5 7.92 5 12 C7.97 12 10.94 12 14 12 C14 13.65 14 15.3 14 17 C11.03 17 8.06 17 5 17 C5 27.56 5 38.12 5 49 C3.35 49 1.7 49 0 49 C0 38.44 0 27.88 0 17 C-1.98 17 -3.96 17 -6 17 C-6 15.35 -6 13.7 -6 12 C-4.02 12 -2.04 12 0 12 C0 8.04 0 4.08 0 0 Z " fill="#0A489A" transform="translate(388,423)"/>
<path d="M0 0 C1.65 0 3.3 0 5 0 C5 3.96 5 7.92 5 12 C7.97 12 10.94 12 14 12 C14 13.65 14 15.3 14 17 C11.03 17 8.06 17 5 17 C5 27.56 5 38.12 5 49 C3.35 49 1.7 49 0 49 C0 38.44 0 27.88 0 17 C-1.98 17 -3.96 17 -6 17 C-6 15.35 -6 13.7 -6 12 C-4.02 12 -2.04 12 0 12 C0 8.04 0 4.08 0 0 Z " fill="#010101" transform="translate(235,423)"/>
<path d="M0 0 C3.98360909 1.34246167 7.06049998 2.72795526 9.59399414 6.15820312 C11.30665753 9.61981137 11.34385435 11.98168729 11.29296875 15.83203125 C11.28330078 17.12431641 11.27363281 18.41660156 11.26367188 19.74804688 C11.23860985 21.1028707 11.21321506 22.45768841 11.1875 23.8125 C11.17244013 25.18683445 11.15875401 26.56118468 11.14648438 27.93554688 C11.11116628 31.29076632 11.06183851 34.64518166 11 38 C9.35 38 7.7 38 6 38 C5.98541748 37.27409668 5.97083496 36.54819336 5.95581055 35.80029297 C5.88105141 32.49134268 5.7844821 29.18337048 5.6875 25.875 C5.66494141 24.73289062 5.64238281 23.59078125 5.61914062 22.4140625 C5.46359026 14.24814493 5.46359026 14.24814493 2 7 C-1.61930698 5.79356434 -4.19231005 5.67731441 -8 6 C-11.3832553 7.8646306 -11.3832553 7.8646306 -14 10 C-14 9.34 -14 8.68 -14 8 C-14.66 7.67 -15.32 7.34 -16 7 C-14.87720538 6.01830524 -13.75168527 5.03972702 -12.625 4.0625 C-11.68527344 3.24458984 -11.68527344 3.24458984 -10.7265625 2.41015625 C-7.19241639 -0.4763296 -4.51030687 -0.36373442 0 0 Z " fill="#154F9A" transform="translate(429,434)"/>
<path d="M0 0 C1.5078125 2.1875 1.5078125 2.1875 3.125 5 C3.66382813 5.928125 4.20265625 6.85625 4.7578125 7.8125 C5.37269531 8.8953125 5.37269531 8.8953125 6 10 C0.76470588 14.01778386 0.76470588 14.01778386 -2.6875 13.9375 C-5.25109588 12.89820437 -6.53312519 12.36329831 -8 10 C-8 7.0625 -8 7.0625 -7 4 C-2.89473684 0 -2.89473684 0 0 0 Z " fill="#0F4FA1" transform="translate(437,392)"/>
<path d="M0 0 C0.67408308 1.26691507 1.33900497 2.53870749 2 3.8125 C2.556875 4.87404297 2.556875 4.87404297 3.125 5.95703125 C4 8 4 8 4 11 C0.60686626 13.0880823 -2.04599009 13.50476722 -6 13 C-7.9375 11.3125 -7.9375 11.3125 -9 9 C-9.0625 6.5 -9.0625 6.5 -8 4 C-2.91891892 0 -2.91891892 0 0 0 Z " fill="#14509E" transform="translate(657,269)"/>
<path d="M0 0 C3.43595166 1.52708963 6.11912454 3.59927045 9 6 C8.60856977 8.27029534 8.11258722 9.83408198 6.8125 11.75 C4.09504195 13.624109 2.21414378 13.4687293 -1 13 C-2.9375 11.375 -2.9375 11.375 -4 9 C-3.86321065 5.64866084 -3.60270411 3.72324494 -1.4375 1.125 C-0.963125 0.75375 -0.48875 0.3825 0 0 Z " fill="#0F4E9F" transform="translate(397,387)"/>
<path d="M0 0 C2 1 2 1 2.8515625 3.28515625 C3.10679687 4.20167969 3.36203125 5.11820312 3.625 6.0625 C3.88539063 6.98160156 4.14578125 7.90070313 4.4140625 8.84765625 C4.60742188 9.55792969 4.80078125 10.26820313 5 11 C1.29584707 13.46943529 -0.62144505 13.46913089 -5 13 C-7 11.3125 -7 11.3125 -8 9 C-8 6.4375 -8 6.4375 -7 4 C-4.5625 2.25 -4.5625 2.25 -2 1 C-1.34 0.67 -0.68 0.34 0 0 Z " fill="#0349A6" transform="translate(545,285)"/>
<path d="M0 0 C3.81684226 1.55500981 6.19195732 4.03595495 9 7 C7.84826645 9.46800047 6.95216435 11.04783565 5 13 C1.5 13.3125 1.5 13.3125 -2 13 C-4 10 -4 10 -3.8125 6.5 C-3.03631971 3.15645412 -2.68478605 1.98440708 0 0 Z " fill="#094BA1" transform="translate(617,260)"/>
<path d="M0 0 C0.50615298 1.26839526 1.00469099 2.53983102 1.5 3.8125 C1.7784375 4.52019531 2.056875 5.22789062 2.34375 5.95703125 C3 8 3 8 3 11 C-0.52059568 12.17353189 -3.306493 12.20146402 -7 12 C-9 10 -9 10 -9.4375 6.5625 C-9 3 -9 3 -6.75 1.0625 C-4 0 -4 0 0 0 Z " fill="#0349A6" transform="translate(502,342)"/>
<path d="M0 0 C4.20763224 1.5027258 5.8027758 4.23332995 8 8 C8 8.66 8 9.32 8 10 C4.85984197 12.56922021 3.35551583 13.01777579 -0.75 12.8125 C-1.8225 12.544375 -2.895 12.27625 -4 12 C-5.43735246 9.12529507 -5.38172649 7.18105412 -5 4 C-2.5 1.625 -2.5 1.625 0 0 Z " fill="#0249A7" transform="translate(464,327)"/>
<path d="M0 0 C1.8871875 0.061875 1.8871875 0.061875 3.8125 0.125 C3.8125 3.755 3.8125 7.385 3.8125 11.125 C-3.0234375 11.3203125 -3.0234375 11.3203125 -5.1875 11.125 C-7.1875 9.125 -7.1875 9.125 -7.5 5.625 C-7.396875 4.47 -7.29375 3.315 -7.1875 2.125 C-4.09861478 0.06574319 -3.47814073 -0.1140374 0 0 Z " fill="#08499F" transform="translate(574.1875,308.875)"/>
<path d="M0 0 C2 2 2 2 2.375 5.75 C2.29288504 10.24989977 0.77033261 12.53708423 -2 16 C-2 12.47344294 -1.19520085 9.46325043 -0.33984375 6.05859375 C0.2162174 3.94332945 0.2162174 3.94332945 -1 2 C-6.08303686 1.88679144 -6.08303686 1.88679144 -11 3 C-12.81501254 4.82847958 -12.81501254 4.82847958 -14.5625 7 C-17.80152672 10.90076336 -17.80152672 10.90076336 -20 12 C-20.69658363 13.65438613 -21.36096883 15.32254318 -22 17 C-22.66 17.99 -23.32 18.98 -24 20 C-24.66 20 -25.32 20 -26 20 C-23.75885517 11.03542067 -17.71659767 4.75500368 -10 0 C-6.25976024 -1.24674659 -3.83399823 -0.76679965 0 0 Z " fill="#1B5299" transform="translate(428,361)"/>
<path d="M0 0 C2.97 0 5.94 0 9 0 C6 3 6 3 3 4 C2.67 6.31 2.34 8.62 2 11 C10.25 11 18.5 11 27 11 C27 10.34 27 9.68 27 9 C27.99 9 28.98 9 30 9 C30 9.66 30 10.32 30 11 C20.04546694 15.42423691 11.4581846 14.22683778 1 12 C-0.37020997 7.88937009 -0.06276637 4.33087938 0 0 Z " fill="#275C9F" transform="translate(580,308)"/>
<path d="M0 0 C0.66 0 1.32 0 2 0 C2 9.57 2 19.14 2 29 C0.35 29 -1.3 29 -3 29 C-3 20.75 -3 12.5 -3 4 C-2.67 4 -2.34 4 -2 4 C-2 11.59 -2 19.18 -2 27 C-1.34 27 -0.68 27 0 27 C0 18.09 0 9.18 0 0 Z " fill="#1B5094" transform="translate(438,443)"/>
<path d="M0 0 C0 0.99 0 1.98 0 3 C-1.7015625 3.8353125 -1.7015625 3.8353125 -3.4375 4.6875 C-6.48250002 6.40690966 -6.48250002 6.40690966 -8 9.5625 C-8.12846753 12.14164369 -8.12846753 12.14164369 -7 15 C-4.47891897 14.85775413 -1.95819597 14.71129879 0.5625 14.5625 C1.26697266 14.52318359 1.97144531 14.48386719 2.69726562 14.44335938 C7.1798541 14.17481721 11.56293497 13.69383803 16 13 C11.99288745 17.00711255 6.68088633 16.32868565 1.32421875 16.62109375 C-2.02652361 17.00302326 -4.84929579 17.82265667 -8 19 C-8.69937202 17.5682384 -9.38412718 16.12932968 -10.0625 14.6875 C-10.44535156 13.88699219 -10.82820312 13.08648437 -11.22265625 12.26171875 C-12 10 -12 10 -11 7 C-8.49609375 5.17578125 -8.49609375 5.17578125 -5.4375 3.3125 C-4.42558594 2.68988281 -3.41367187 2.06726563 -2.37109375 1.42578125 C-1.58863281 0.95527344 -0.80617188 0.48476563 0 0 Z " fill="#1D5294" transform="translate(561,276)"/>
<path d="M0 0 C0 0.66 0 1.32 0 2 C-0.99 2 -1.98 2 -3 2 C-3.2475 2.5775 -3.495 3.155 -3.75 3.75 C-5.18299988 6.32939979 -6.78424676 8.06121592 -9 10 C-9.66 10 -10.32 10 -11 10 C-11.1546875 10.8971875 -11.1546875 10.8971875 -11.3125 11.8125 C-12.08876455 14.28243264 -13.07088921 15.32251235 -15 17 C-15.66 16.67 -16.32 16.34 -17 16 C-16.484375 15.5875 -15.96875 15.175 -15.4375 14.75 C-13.7577168 13.12500443 -13.7577168 13.12500443 -14.1875 11.0625 C-15.19423538 8.50694095 -16.28493563 7.74076941 -18.5625 6.25 C-19.20316406 5.82203125 -19.84382813 5.3940625 -20.50390625 4.953125 C-20.99761719 4.63859375 -21.49132812 4.3240625 -22 4 C-21.34 3.67 -20.68 3.34 -20 3 C-19.67 2.34 -19.34 1.68 -19 1 C-16.36 3.31 -13.72 5.62 -11 8 C-10.2575 7.236875 -9.515 6.47375 -8.75 5.6875 C-2.93023256 0 -2.93023256 0 0 0 Z " fill="#E9F9FE" transform="translate(419,383)"/>
<path d="M0 0 C1.640625 0.9375 1.640625 0.9375 3.953125 3.3125 C4.640625 6.25 4.640625 6.25 3.953125 9.3125 C1.40288135 12.41414769 -0.22386747 14.03816416 -4.046875 15.3125 C-4.046875 14.6525 -4.046875 13.9925 -4.046875 13.3125 C-2.726875 12.9825 -1.406875 12.6525 -0.046875 12.3125 C-0.046875 11.3225 -0.046875 10.3325 -0.046875 9.3125 C0.613125 9.3125 1.273125 9.3125 1.953125 9.3125 C1.623125 7.3325 1.293125 5.3525 0.953125 3.3125 C-2.10104313 2.29444396 -4.22624461 2.17874485 -7.421875 2.1875 C-8.35773437 2.18492187 -9.29359375 2.18234375 -10.2578125 2.1796875 C-12.95417247 2.30808559 -15.41959009 2.71061291 -18.046875 3.3125 C-18.046875 2.6525 -18.046875 1.9925 -18.046875 1.3125 C-12.33425841 -1.27005723 -6.04827953 -2.0314832 0 0 Z " fill="#295B9A" transform="translate(581.046875,273.6875)"/>
<path d="M0 0 C2.4375 2 2.4375 2 4 4 C3.01 4.495 3.01 4.495 2 5 C2 4.34 2 3.68 2 3 C-4.68653453 2.50470115 -10.18011065 3.51008368 -16 7 C-17.5086726 8.7581986 -18.65571007 10.52933625 -19.83984375 12.515625 C-21 14 -21 14 -24.3125 14.9375 C-25.199375 14.958125 -26.08625 14.97875 -27 15 C-26.29875 14.484375 -25.5975 13.96875 -24.875 13.4375 C-22.55531397 11.47080967 -21.06565526 9.85832318 -19.25 7.5 C-14.44114131 1.75162136 -7.48746215 -1.17450387 0 0 Z " fill="#1F5598" transform="translate(689,251)"/>
<path d="M0 0 C1.65 0 3.3 0 5 0 C5 3.63 5 7.26 5 11 C4.34 10.67 3.68 10.34 3 10 C2.01 11.485 2.01 11.485 1 13 C-2.125 13.1875 -2.125 13.1875 -5 13 C-5 13.99 -5 14.98 -5 16 C-3.35 16 -1.7 16 0 16 C0 16.33 0 16.66 0 17 C-1.98 17 -3.96 17 -6 17 C-6 15.35 -6 13.7 -6 12 C-4.02 12 -2.04 12 0 12 C0 8.04 0 4.08 0 0 Z " fill="#14498C" transform="translate(388,423)"/>
<path d="M0 0 C0 3.74194053 -1.01641341 4.6769419 -3.3125 7.5625 C-3.92738281 8.34753906 -4.54226563 9.13257813 -5.17578125 9.94140625 C-7 12 -7 12 -10 14 C-10.72382467 16.05925139 -10.72382467 16.05925139 -11 18 C-10.01 18.33 -9.02 18.66 -8 19 C-8 19.66 -8 20.32 -8 21 C-5.03 20.67 -2.06 20.34 1 20 C-1.6855594 22.6855594 -4.37621328 23.06049974 -8 24 C-9.03319813 22.7391988 -10.05124379 21.46596742 -11.0625 20.1875 C-11.91521484 19.12595703 -11.91521484 19.12595703 -12.78515625 18.04296875 C-13.18605469 17.36878906 -13.58695312 16.69460938 -14 16 C-12.82949877 12.48849631 -11.70245041 12.17198624 -8.6953125 10.3125 C-5.45709127 7.80549002 -3.33419713 4.32261936 -1 1 C-0.67 0.67 -0.34 0.34 0 0 Z " fill="#235696" transform="translate(453,376)"/>
<path d="M0 0 C0.33 0 0.66 0 1 0 C1.33 6.6 1.66 13.2 2 20 C3.65 19.34 5.3 18.68 7 18 C10.04296875 17.69921875 10.04296875 17.69921875 13.1875 17.6875 C14.23292969 17.67074219 15.27835937 17.65398437 16.35546875 17.63671875 C17.22816406 17.75660156 18.10085938 17.87648438 19 18 C19.66 18.99 20.32 19.98 21 21 C20.319375 20.835 19.63875 20.67 18.9375 20.5 C13.82344983 19.62952338 10.3525898 19.21965973 5.75 21.875 C4.8425 22.57625 3.935 23.2775 3 24 C2.01 24.66 1.02 25.32 0 26 C0 17.42 0 8.84 0 0 Z " fill="#C1DCF4" transform="translate(413,415)"/>
<path d="M0 0 C0.66 0.33 1.32 0.66 2 1 C2 5.62 2 10.24 2 15 C1.01 15 0.02 15 -1 15 C-2.06775224 13.03533587 -3.06553465 11.03144641 -4 9 C-3.67 8.34 -3.34 7.68 -3 7 C-2.960008 5.00039988 -2.95653201 2.99952758 -3 1 C-2.01 0.67 -1.02 0.34 0 0 Z " fill="#094CA4" transform="translate(373,456)"/>
<path d="M0 0 C2 1 2 1 2.8515625 3.28515625 C3.10679687 4.20167969 3.36203125 5.11820312 3.625 6.0625 C3.88539063 6.98160156 4.14578125 7.90070313 4.4140625 8.84765625 C4.60742188 9.55792969 4.80078125 10.26820313 5 11 C1.29584707 13.46943529 -0.62144505 13.46913089 -5 13 C-7 11.3125 -7 11.3125 -8 9 C-8 6.4375 -8 6.4375 -7 4 C-4.5625 2.25 -4.5625 2.25 -2 1 C-1.34 0.67 -0.68 0.34 0 0 Z M-5 3 C-5.33 5.31 -5.66 7.62 -6 10 C-4.2857711 11.23396041 -4.2857711 11.23396041 -2 12 C0.7193293 11.21297649 0.7193293 11.21297649 3 10 C2.67 8.35 2.34 6.7 2 5 C1.34 5 0.68 5 0 5 C0 4.34 0 3.68 0 3 C-1.65 3 -3.3 3 -5 3 Z " fill="#245796" transform="translate(545,285)"/>
<path d="M0 0 C0.66 0 1.32 0 2 0 C3.35700647 2.71401294 3.1123861 4.84846316 3.09765625 7.8828125 C3.09443359 9.04941406 3.09121094 10.21601563 3.08789062 11.41796875 C3.07951172 12.64128906 3.07113281 13.86460937 3.0625 15.125 C3.05798828 16.35605469 3.05347656 17.58710938 3.04882812 18.85546875 C3.0370133 21.90369392 3.02054028 24.95182314 3 28 C2.34 28 1.68 28 1 28 C0.67 18.76 0.34 9.52 0 0 Z " fill="#0449A4" transform="translate(435,442)"/>
<path d="M0 0 C0 0.66 0 1.32 0 2 C-0.62648438 2.15855469 -1.25296875 2.31710938 -1.8984375 2.48046875 C-4.36742423 3.1853372 -6.67208891 3.91307092 -9 5 C-10.45291273 7.46255685 -10.45291273 7.46255685 -11 10 C-11.99 10.66 -12.98 11.32 -14 12 C-15.20450304 14.55183404 -15.20450304 14.55183404 -16 17 C-16.66 17 -17.32 17 -18 17 C-18.99 19.475 -18.99 19.475 -20 22 C-20.33 21.01 -20.66 20.02 -21 19 C-19.79807452 16.73808496 -18.59162201 14.76761288 -17.125 12.6875 C-16.51567627 11.81508667 -16.51567627 11.81508667 -15.89404297 10.92504883 C-12.00268496 5.5970775 -7.00256229 0 0 0 Z " fill="#1F5498" transform="translate(642,237)"/>
<path d="M0 0 C4.20763224 1.5027258 5.8027758 4.23332995 8 8 C8 8.66 8 9.32 8 10 C4.85984197 12.56922021 3.35551583 13.01777579 -0.75 12.8125 C-1.8225 12.544375 -2.895 12.27625 -4 12 C-5.43735246 9.12529507 -5.38172649 7.18105412 -5 4 C-2.5 1.625 -2.5 1.625 0 0 Z M-1 2 C-3.33278733 3.89107141 -3.33278733 3.89107141 -3.1875 7.0625 C-3.33187793 9.88833136 -3.33187793 9.88833136 -2 11 C-0.00041636 11.04080783 2.00045254 11.04254356 4 11 C4.77802187 8.6984589 4.77802187 8.6984589 5 6 C3.8727078 3.63517472 3.8727078 3.63517472 2 2 C1.01 2 0.02 2 -1 2 Z " fill="#1F5292" transform="translate(464,327)"/>
<path d="M0 0 C0.50615298 1.26839526 1.00469099 2.53983102 1.5 3.8125 C1.7784375 4.52019531 2.056875 5.22789062 2.34375 5.95703125 C3 8 3 8 3 11 C-0.52059568 12.17353189 -3.306493 12.20146402 -7 12 C-9 10 -9 10 -9.4375 6.5625 C-9 3 -9 3 -6.75 1.0625 C-4 0 -4 0 0 0 Z M-5.6875 3.25 C-8.29726436 5.69906504 -8.29726436 5.69906504 -7.8125 8.3125 C-7.544375 8.869375 -7.27625 9.42625 -7 10 C-4.03 10.495 -4.03 10.495 -1 11 C-1 10.34 -1 9.68 -1 9 C-0.34 9 0.32 9 1 9 C0.43260132 4.87026372 0.43260132 4.87026372 -1 1 C-3.3285839 0.78602111 -3.3285839 0.78602111 -5.6875 3.25 Z " fill="#215493" transform="translate(502,342)"/>
<path d="M0 0 C1.74609375 1.25390625 1.74609375 1.25390625 3 3 C3.46960777 6.85225122 2.85984767 10.61296703 0.80859375 13.921875 C-0.5625 15.5625 -0.5625 15.5625 -3 18 C-3.33 17.01 -3.66 16.02 -4 15 C-3.34 15 -2.68 15 -2 15 C-0.82334031 10.99935704 0.18079905 7.09600476 1 3 C-3.29 3 -7.58 3 -12 3 C-7.0753753 -0.69346852 -5.8933514 -0.56127156 0 0 Z " fill="#1E5296" transform="translate(469,372)"/>
<path d="M0 0 C0.66 0.33 1.32 0.66 2 1 C-0.30529274 3.37733314 -2.4926921 5.61998027 -5.1484375 7.609375 C-7.360531 9.30143249 -9.25276647 10.82704459 -11 13 C-11.40164407 16.09374488 -10.861272 17.93171849 -10 21 C-11.65 19.35 -13.3 17.7 -15 16 C-11.84255902 9.06601197 -6.51328839 3.81265662 0 0 Z " fill="#1C5297" transform="translate(483,310)"/>
<path d="M0 0 C0.33 0 0.66 0 1 0 C1.33 3.96 1.66 7.92 2 12 C3.32 12.33 4.64 12.66 6 13 C0.06 13 -5.88 13 -12 13 C-13.35439668 10.29120665 -13.06501451 7.99066732 -13 5 C-12.67 5 -12.34 5 -12 5 C-11.34 6.98 -10.68 8.96 -10 11 C-7.03 11.33 -4.06 11.66 -1 12 C-1.01160156 11.21753906 -1.02320313 10.43507813 -1.03515625 9.62890625 C-1.04417969 8.61699219 -1.05320312 7.60507812 -1.0625 6.5625 C-1.07410156 5.55316406 -1.08570313 4.54382813 -1.09765625 3.50390625 C-1 1 -1 1 0 0 Z " fill="#CDE4F2" transform="translate(579,308)"/>
<path d="M0 0 C1.65 2.97 3.3 5.94 5 9 C7.31 9 9.62 9 12 9 C11.67 9.66 11.34 10.32 11 11 C8.93359375 11.6328125 8.93359375 11.6328125 6.4375 12.125 C5.61121094 12.29257812 4.78492188 12.46015625 3.93359375 12.6328125 C3.29550781 12.75398438 2.65742187 12.87515625 2 13 C1.32880451 11.5437455 0.66318193 10.08492133 0 8.625 C-0.556875 7.40683594 -0.556875 7.40683594 -1.125 6.1640625 C-2 4 -2 4 -2 2 C-2.66 1.67 -3.32 1.34 -4 1 C-2 0 -2 0 0 0 Z " fill="#DAF0F9" transform="translate(659,267)"/>
<path d="M0 0 C0.5775 0.7425 1.155 1.485 1.75 2.25 C2.4925 3.1575 3.235 4.065 4 5 C4.639375 5.78375 5.27875 6.5675 5.9375 7.375 C7.92567487 9.32444008 7.92567487 9.32444008 10.75 8.75 C11.4925 8.5025 12.235 8.255 13 8 C10.71889899 11.42165151 9.75392681 11.69049065 6 13 C5.071875 13.37125 4.14375 13.7425 3.1875 14.125 C2.465625 14.41375 1.74375 14.7025 1 15 C1.99 13.68 2.98 12.36 4 11 C3.62746094 10.54109375 3.25492187 10.0821875 2.87109375 9.609375 C2.39800781 8.99578125 1.92492187 8.3821875 1.4375 7.75 C0.96183594 7.14671875 0.48617188 6.5434375 -0.00390625 5.921875 C-1 4 -1 4 -0.65234375 1.765625 C-0.43707031 1.18296875 -0.22179687 0.6003125 0 0 Z " fill="#DAF0FA" transform="translate(438,390)"/>
<path d="M0 0 C4.31392226 0.4793247 6.16569547 1.7457985 9 5 C8.01 5.99 7.02 6.98 6 8 C5.319375 7.525625 4.63875 7.05125 3.9375 6.5625 C0.58158044 4.7774364 -2.24161481 4.36846914 -6 4 C-6 3.67 -6 3.34 -6 3 C-3.03 3 -0.06 3 3 3 C3 2.34 3 1.68 3 1 C2.01 0.67 1.02 0.34 0 0 Z " fill="#1B5194" transform="translate(361,435)"/>
<path d="M0 0 C0.99 0.33 1.98 0.66 3 1 C2.34 1.37125 1.68 1.7425 1 2.125 C-1.35303045 3.90894778 -1.35303045 3.90894778 -1.25 7.1875 C-1.1675 8.115625 -1.085 9.04375 -1 10 C1.31 10.33 3.62 10.66 6 11 C5.67 11.66 5.34 12.32 5 13 C1.625 13.1875 1.625 13.1875 -2 13 C-4 10 -4 10 -3.8125 6.5 C-3.03631971 3.15645412 -2.68478605 1.98440708 0 0 Z " fill="#235594" transform="translate(617,260)"/>
<path d="M0 0 C2.97 0 5.94 0 9 0 C9 1.65 9 3.3 9 5 C6.03 5 3.06 5 0 5 C0.33 4.01 0.66 3.02 1 2 C0.67 1.34 0.34 0.68 0 0 Z " fill="#1D508F" transform="translate(393,435)"/>
<path d="M0 0 C1.98567708 0.09765625 3.97135417 0.1953125 5.95703125 0.29296875 C6.08203125 8.04296875 6.08203125 8.04296875 4.95703125 10.29296875 C4.29703125 9.96296875 3.63703125 9.63296875 2.95703125 9.29296875 C3.28703125 6.98296875 3.61703125 4.67296875 3.95703125 2.29296875 C-0.49796875 2.78796875 -0.49796875 2.78796875 -5.04296875 3.29296875 C-2.04296875 0.29296875 -2.04296875 0.29296875 0 0 Z " fill="#2C5FA0" transform="translate(572.04296875,308.70703125)"/>
<path d="M0 0 C0.66 0 1.32 0 2 0 C3.32 3.63 4.64 7.26 6 11 C5.34 11 4.68 11 4 11 C4 11.66 4 12.32 4 13 C2 12 2 12 1.1484375 9.49609375 C0.89320313 8.48675781 0.63796875 7.47742188 0.375 6.4375 C0.11460937 5.42558594 -0.14578125 4.41367187 -0.4140625 3.37109375 C-0.60742188 2.58863281 -0.80078125 1.80617188 -1 1 C-0.67 0.67 -0.34 0.34 0 0 Z " fill="#D5EDF8" transform="translate(547,284)"/>
<path d="M0 0 C1.31611677 0.95336021 2.62778961 1.91285774 3.9375 2.875 C4.66839844 3.40867187 5.39929688 3.94234375 6.15234375 4.4921875 C8 6 8 6 9 8 C8.01 9.485 8.01 9.485 7 11 C4 8 1 5 -2 2 C-1.34 2 -0.68 2 0 2 C0 1.34 0 0.68 0 0 Z " fill="#D3ECF8" transform="translate(399,384)"/>
<path d="M0 0 C4.875 0.875 4.875 0.875 6 2 C6.375 4.75 6.375 4.75 6 8 C3.44975635 11.10164769 1.82300753 12.72566416 -2 14 C-2 13.34 -2 12.68 -2 12 C-0.68 11.67 0.64 11.34 2 11 C2 10.01 2 9.02 2 8 C2.66 8 3.32 8 4 8 C3.73343428 5.06556598 3.73343428 5.06556598 3 2 C2.01 1.34 1.02 0.68 0 0 Z " fill="#215494" transform="translate(579,275)"/>
<path d="M0 0 C2.93200474 2.85276137 5.64315404 5.65079784 8 9 C7.01 10.485 7.01 10.485 6 12 C4.85157077 10.71064081 3.70633773 9.41843421 2.5625 8.125 C1.92441406 7.40570313 1.28632812 6.68640625 0.62890625 5.9453125 C-1 4 -1 4 -2 2 C-1.34 2 -0.68 2 0 2 C0 1.34 0 0.68 0 0 Z " fill="#D7EFFC" transform="translate(620,257)"/>
<path d="M0 0 C2.47859908 2.2008849 3.61210366 4.06372969 4.6875 7.1875 C4.93886719 7.90292969 5.19023437 8.61835938 5.44921875 9.35546875 C5.63097656 9.89816406 5.81273437 10.44085938 6 11 C4.68 11.33 3.36 11.66 2 12 C1.01 8.37 0.02 4.74 -1 1 C-0.67 0.67 -0.34 0.34 0 0 Z " fill="#D5EEF8" transform="translate(503,341)"/>
<path d="M0 0 C2.6486859 3.19668988 4.93992341 6.39486597 7 10 C6.01 10.33 5.02 10.66 4 11 C2.02 8.03 0.04 5.06 -2 2 C-1.34 2 -0.68 2 0 2 C0 1.34 0 0.68 0 0 Z " fill="#D3EDF9" transform="translate(467,324)"/>
<path d="M0 0 C0.66 1.32 1.32 2.64 2 4 C-0.31 4.33 -2.62 4.66 -5 5 C-5.33 6.98 -5.66 8.96 -6 11 C-6.66 10.67 -7.32 10.34 -8 10 C-7.7312159 6.05783322 -7.44655191 4.43510186 -4.5625 1.625 C-2 0 -2 0 0 0 Z " fill="#315F99" transform="translate(437,392)"/>
<path d="M0 0 C2.4375 2 2.4375 2 4 4 C3.01 4.495 3.01 4.495 2 5 C2 4.34 2 3.68 2 3 C-1.63 3 -5.26 3 -9 3 C-9.33 2.34 -9.66 1.68 -10 1 C-6.40735548 -0.19754817 -3.77282526 -0.33094958 0 0 Z " fill="#3464A0" transform="translate(689,251)"/>
<path d="M0 0 C0.66 0 1.32 0 2 0 C1 2 0 4 -1 6 C-1.66 6 -2.32 6 -3 6 C-3.33 9.3 -3.66 12.6 -4 16 C-4.33 16 -4.66 16 -5 16 C-5.45376195 9.53389228 -4.62353082 6.38039425 -1 1 C-0.67 0.67 -0.34 0.34 0 0 Z " fill="#D0E9F9" transform="translate(350,441)"/>
<path d="M0 0 C0.99 1.32 1.98 2.64 3 4 C1.02 5.32 -0.96 6.64 -3 8 C-3 7.34 -3 6.68 -3 6 C-3.66 5.67 -4.32 5.34 -5 5 C-3.35 3.35 -1.7 1.7 0 0 Z " fill="#215698" transform="translate(418,436)"/>
<path d="M0 0 C1.22376937 3.6713081 0.61664584 4.59653508 -1 8 C-1.99 9.485 -1.99 9.485 -3 11 C-3.66 11 -4.32 11 -5 11 C-3.77472971 6.94718288 -2.30119506 3.55639236 0 0 Z " fill="#265B9D" transform="translate(407,370)"/>
<path d="M0 0 C1.4540625 0.0309375 1.4540625 0.0309375 2.9375 0.0625 C2.9375 0.3925 2.9375 0.7225 2.9375 1.0625 C1.2875 1.0625 -0.3625 1.0625 -2.0625 1.0625 C-2.0625 2.7125 -2.0625 4.3625 -2.0625 6.0625 C-4.0425 4.7425 -6.0225 3.4225 -8.0625 2.0625 C-7.423125 1.918125 -6.78375 1.77375 -6.125 1.625 C-0.18014706 0.00367647 -0.18014706 0.00367647 0 0 Z " fill="#DFF8FD" transform="translate(373.0625,433.9375)"/>
<path d="M0 0 C4.8 2.46153846 4.8 2.46153846 5.8125 5.1875 C5.874375 5.785625 5.93625 6.38375 6 7 C5.01 7.66 4.02 8.32 3 9 C2.67 6.69 2.34 4.38 2 2 C1.34 2 0.68 2 0 2 C0 1.34 0 0.68 0 0 Z " fill="#1D5295" transform="translate(400,389)"/>
<path d="M0 0 C0.33 0 0.66 0 1 0 C1.45732667 5.71658336 0.52273754 8.48649253 -3 13 C-3 9.90124328 -2.41738748 7.75578485 -1.5 4.8125 C-1.2215625 3.91144531 -0.943125 3.01039063 -0.65625 2.08203125 C-0.4396875 1.39496094 -0.223125 0.70789063 0 0 Z " fill="#174D92" transform="translate(429,364)"/>
<path d="M0 0 C0.33 0 0.66 0 1 0 C1.08142927 1.7492214 1.13938541 3.49954542 1.1875 5.25 C1.23970703 6.71179688 1.23970703 6.71179688 1.29296875 8.203125 C0.96075202 11.37468742 0.11327721 12.67040307 -2 15 C-2.042721 13.33388095 -2.04063832 11.66617115 -2 10 C-1.67 9.67 -1.34 9.34 -1 9 C-0.76807135 7.48530552 -0.58784762 5.96245438 -0.4375 4.4375 C-0.35371094 3.61121094 -0.26992188 2.78492188 -0.18359375 1.93359375 C-0.12300781 1.29550781 -0.06242187 0.65742188 0 0 Z " fill="#0D4892" transform="translate(344,448)"/>
<path d="M0 0 C0 0.66 0 1.32 0 2 C-0.99 2 -1.98 2 -3 2 C-3.66 3.32 -4.32 4.64 -5 6 C-5.99 5.67 -6.98 5.34 -8 5 C-2.25 0 -2.25 0 0 0 Z " fill="#D6ECFA" transform="translate(419,383)"/>
</svg>
