<svg xmlns="http://www.w3.org/2000/svg" xmlns:xlink="http://www.w3.org/1999/xlink" width="794" zoomAndPan="magnify" viewBox="0 0 594.95996 595.499999" height="794" preserveAspectRatio="xMidYMid meet" version="1.0"><defs><g/><clipPath id="58df71e62e"><path d="M 0.230469 0 L 594.691406 0 L 594.691406 595 L 0.230469 595 Z M 0.230469 0 " clip-rule="nonzero"/></clipPath><clipPath id="e94d7a825d"><path d="M 11.847656 11.617188 L 583.390625 11.617188 L 583.390625 583.160156 L 11.847656 583.160156 Z M 11.847656 11.617188 " clip-rule="nonzero"/></clipPath><clipPath id="1790039a27"><path d="M 298.507812 11.648438 C 456.316406 12.140625 583.832031 140.472656 583.34375 298.28125 C 582.855469 456.085938 454.523438 583.628906 296.714844 583.136719 C 138.90625 582.648438 11.390625 454.292969 11.878906 296.484375 C 12.367188 138.679688 140.703125 11.160156 298.507812 11.648438 " clip-rule="nonzero"/></clipPath><clipPath id="965a57f468"><path d="M 0.847656 0.617188 L 572.390625 0.617188 L 572.390625 572.160156 L 0.847656 572.160156 Z M 0.847656 0.617188 " clip-rule="nonzero"/></clipPath><clipPath id="973aa992af"><path d="M 287.507812 0.648438 C 445.316406 1.140625 572.832031 129.472656 572.34375 287.28125 C 571.855469 445.085938 443.523438 572.628906 285.714844 572.136719 C 127.90625 571.648438 0.390625 443.292969 0.878906 285.484375 C 1.367188 127.679688 129.703125 0.160156 287.507812 0.648438 " clip-rule="nonzero"/></clipPath><clipPath id="8f1562ffda"><rect x="0" width="573" y="0" height="573"/></clipPath><clipPath id="1d25008a98"><path d="M 22 373 L 574 373 L 574 583.160156 L 22 583.160156 Z M 22 373 " clip-rule="nonzero"/></clipPath><clipPath id="ed4e9fdb31"><path d="M 22.132812 373.28125 C 35.203125 420.902344 60.761719 465.753906 98.808594 502.617188 C 212.136719 612.425781 393.035156 609.558594 502.84375 496.230469 C 537.445312 460.511719 560.859375 418.085938 573.140625 373.304688 Z M 22.132812 373.28125 " clip-rule="nonzero"/></clipPath><clipPath id="9ccbc090a4"><path d="M 0.0507812 0.125 L 551.347656 0.125 L 551.347656 210.160156 L 0.0507812 210.160156 Z M 0.0507812 0.125 " clip-rule="nonzero"/></clipPath><clipPath id="6a784d5f0b"><path d="M 0.132812 0.28125 C 13.203125 47.902344 38.761719 92.753906 76.808594 129.617188 C 190.136719 239.425781 371.035156 236.558594 480.84375 123.230469 C 515.445312 87.511719 538.859375 45.085938 551.140625 0.304688 Z M 0.132812 0.28125 " clip-rule="nonzero"/></clipPath><clipPath id="2eff4d3e3d"><rect x="0" width="552" y="0" height="211"/></clipPath><clipPath id="97318ed64a"><path d="M 92 11.617188 L 504 11.617188 L 504 99 L 92 99 Z M 92 11.617188 " clip-rule="nonzero"/></clipPath><clipPath id="e6881eb6ab"><path d="M 503.054688 98.765625 C 500.910156 96.554688 498.699219 94.339844 496.460938 92.171875 C 383.132812 -17.636719 202.234375 -14.773438 92.425781 98.554688 C 92.355469 98.625 92.285156 98.695312 92.238281 98.765625 Z M 503.054688 98.765625 " clip-rule="nonzero"/></clipPath><clipPath id="b3ffb07f62"><path d="M 0.0742188 0.617188 L 411.085938 0.617188 L 411.085938 87.796875 L 0.0742188 87.796875 Z M 0.0742188 0.617188 " clip-rule="nonzero"/></clipPath><clipPath id="8cfd9e40c5"><path d="M 411.054688 87.765625 C 408.910156 85.554688 406.699219 83.339844 404.460938 81.171875 C 291.132812 -28.636719 110.234375 -25.773438 0.425781 87.554688 C 0.355469 87.625 0.285156 87.695312 0.238281 87.765625 Z M 411.054688 87.765625 " clip-rule="nonzero"/></clipPath><clipPath id="a3f529b4d5"><rect x="0" width="412" y="0" height="88"/></clipPath><clipPath id="d105634f9e"><path d="M 11.847656 107 L 294 107 L 294 364.765625 L 11.847656 364.765625 Z M 11.847656 107 " clip-rule="nonzero"/></clipPath><clipPath id="34c936eab7"><path d="M 293.058594 107.78125 L 83.875 107.78125 C 19.871094 179.824219 -1.308594 276.167969 19.800781 364.261719 L 293.058594 364.261719 Z M 293.058594 107.78125 " clip-rule="nonzero"/></clipPath><clipPath id="aac398ffb4"><path d="M 0.847656 0.667969 L 282.261719 0.667969 L 282.261719 257.492188 L 0.847656 257.492188 Z M 0.847656 0.667969 " clip-rule="nonzero"/></clipPath><clipPath id="9fb854fdd1"><path d="M 282.058594 0.78125 L 72.875 0.78125 C 8.871094 72.824219 -12.308594 169.167969 8.800781 257.261719 L 282.058594 257.261719 Z M 282.058594 0.78125 " clip-rule="nonzero"/></clipPath><clipPath id="08fca904ee"><rect x="0" width="283" y="0" height="258"/></clipPath><clipPath id="38301cf36b"><path d="M 302 107 L 583.390625 107 L 583.390625 364.765625 L 302 364.765625 Z M 302 107 " clip-rule="nonzero"/></clipPath><clipPath id="d3ea30ae99"><path d="M 511.417969 107.78125 L 302.191406 107.78125 L 302.191406 364.261719 L 575.46875 364.261719 C 596.648438 275.867188 575.144531 179.476562 511.417969 107.78125 " clip-rule="nonzero"/></clipPath><clipPath id="c5a10cd8c7"><path d="M 0.136719 0.667969 L 281.390625 0.667969 L 281.390625 257.492188 L 0.136719 257.492188 Z M 0.136719 0.667969 " clip-rule="nonzero"/></clipPath><clipPath id="074908229b"><path d="M 209.417969 0.78125 L 0.191406 0.78125 L 0.191406 257.261719 L 273.46875 257.261719 C 294.648438 168.867188 273.144531 72.476562 209.417969 0.78125 " clip-rule="nonzero"/></clipPath><clipPath id="c6aee92661"><rect x="0" width="282" y="0" height="258"/></clipPath><clipPath id="b461150b02"><path d="M 133 85 L 455.605469 85 L 455.605469 390 L 133 390 Z M 133 85 " clip-rule="nonzero"/></clipPath><clipPath id="63a00710f1"><path d="M 149.113281 175.910156 L 149.113281 88.746094 L 152.609375 88.746094 L 152.609375 175.910156 Z M 161.90625 114.679688 L 149.300781 90.191406 L 150.859375 89.398438 L 152.375 90.261719 L 136.113281 118.546875 L 133.082031 116.800781 L 149.347656 88.515625 L 150.953125 85.742188 L 152.421875 88.585938 L 165.027344 113.070312 Z M 149.113281 388.308594 L 149.113281 301.144531 L 152.609375 301.144531 L 152.609375 388.308594 Z M 162.789062 327.101562 L 150.183594 302.613281 L 151.746094 301.820312 L 153.261719 302.683594 L 136.996094 330.96875 L 133.96875 329.222656 L 150.230469 300.933594 L 151.839844 298.164062 L 153.308594 301.003906 L 165.910156 325.492188 Z M 439.65625 175.910156 L 439.65625 88.746094 L 443.152344 88.746094 L 443.152344 175.910156 Z M 452.449219 114.679688 L 439.84375 90.191406 L 441.402344 89.398438 L 442.917969 90.261719 L 426.632812 118.546875 L 423.601562 116.800781 L 439.890625 88.515625 L 441.496094 85.742188 L 442.964844 88.585938 L 455.570312 113.070312 Z M 300.210938 90.449219 L 300.070312 389.984375 L 296.574219 389.984375 L 296.714844 90.449219 Z M 300.210938 90.449219 " clip-rule="nonzero"/></clipPath><clipPath id="7b6ff7b250"><path d="M 0.078125 0.609375 L 322.605469 0.609375 L 322.605469 305 L 0.078125 305 Z M 0.078125 0.609375 " clip-rule="nonzero"/></clipPath><clipPath id="cd77356cc5"><path d="M 16.113281 90.910156 L 16.113281 3.746094 L 19.609375 3.746094 L 19.609375 90.910156 Z M 28.90625 29.679688 L 16.300781 5.191406 L 17.859375 4.398438 L 19.375 5.261719 L 3.113281 33.546875 L 0.0820312 31.800781 L 16.347656 3.515625 L 17.953125 0.742188 L 19.421875 3.585938 L 32.027344 28.070312 Z M 16.113281 303.308594 L 16.113281 216.144531 L 19.609375 216.144531 L 19.609375 303.308594 Z M 29.789062 242.101562 L 17.183594 217.613281 L 18.746094 216.820312 L 20.261719 217.683594 L 3.996094 245.96875 L 0.96875 244.222656 L 17.230469 215.933594 L 18.839844 213.164062 L 20.308594 216.003906 L 32.910156 240.492188 Z M 306.65625 90.910156 L 306.65625 3.746094 L 310.152344 3.746094 L 310.152344 90.910156 Z M 319.449219 29.679688 L 306.84375 5.191406 L 308.402344 4.398438 L 309.917969 5.261719 L 293.632812 33.546875 L 290.601562 31.800781 L 306.890625 3.515625 L 308.496094 0.742188 L 309.964844 3.585938 L 322.570312 28.070312 Z M 167.210938 5.449219 L 167.070312 304.984375 L 163.574219 304.984375 L 163.714844 5.449219 Z M 167.210938 5.449219 " clip-rule="nonzero"/></clipPath><clipPath id="48c1858ac0"><rect x="0" width="323" y="0" height="305"/></clipPath><clipPath id="dc626ed56f"><path d="M 292 88.285156 L 305 88.285156 L 305 97 L 292 97 Z M 292 88.285156 " clip-rule="nonzero"/></clipPath><clipPath id="4f377a5167"><path d="M 292.03125 95.644531 L 293.171875 96.714844 L 298.460938 91.054688 L 303.75 96.738281 L 304.894531 95.667969 L 298.460938 88.746094 Z M 292.03125 95.644531 " clip-rule="nonzero"/></clipPath><clipPath id="1eb9cf964a"><path d="M 0 0.726562 L 13 0.726562 L 13 8.878906 L 0 8.878906 Z M 0 0.726562 " clip-rule="nonzero"/></clipPath><clipPath id="03aa095353"><path d="M 0.03125 7.644531 L 1.171875 8.714844 L 6.460938 3.054688 L 11.75 8.738281 L 12.894531 7.667969 L 6.460938 0.746094 Z M 0.03125 7.644531 " clip-rule="nonzero"/></clipPath><clipPath id="a215276dc0"><rect x="0" width="13" y="0" height="9"/></clipPath><clipPath id="b19ffe6d43"><path d="M 280 85 L 455.605469 85 L 455.605469 389 L 280 389 Z M 280 85 " clip-rule="nonzero"/></clipPath><clipPath id="e85b972fe2"><path d="M 309.507812 114.679688 L 296.785156 90.191406 L 298.347656 89.375 L 299.859375 90.238281 L 283.714844 118.523438 L 280.683594 116.800781 L 296.832031 88.515625 L 298.414062 85.742188 L 299.882812 88.585938 L 312.605469 113.070312 Z M 439.65625 388.285156 L 439.65625 301.121094 L 443.152344 301.121094 L 443.152344 388.285156 Z M 452.449219 327.078125 L 439.84375 302.589844 L 441.402344 301.796875 L 442.917969 302.660156 L 426.65625 330.945312 L 423.625 329.199219 L 439.890625 300.914062 L 441.496094 298.140625 L 442.964844 300.980469 L 455.570312 325.46875 Z M 452.449219 327.078125 " clip-rule="nonzero"/></clipPath><clipPath id="2f1198b21c"><path d="M 0.554688 0.609375 L 175.605469 0.609375 L 175.605469 303.472656 L 0.554688 303.472656 Z M 0.554688 0.609375 " clip-rule="nonzero"/></clipPath><clipPath id="78a7d412d2"><path d="M 29.507812 29.679688 L 16.785156 5.191406 L 18.347656 4.375 L 19.859375 5.238281 L 3.714844 33.523438 L 0.683594 31.800781 L 16.832031 3.515625 L 18.414062 0.742188 L 19.882812 3.585938 L 32.605469 28.070312 Z M 159.65625 303.285156 L 159.65625 216.121094 L 163.152344 216.121094 L 163.152344 303.285156 Z M 172.449219 242.078125 L 159.84375 217.589844 L 161.402344 216.796875 L 162.917969 217.660156 L 146.65625 245.945312 L 143.625 244.199219 L 159.890625 215.914062 L 161.496094 213.140625 L 162.964844 215.980469 L 175.570312 240.46875 Z M 172.449219 242.078125 " clip-rule="nonzero"/></clipPath><clipPath id="7d8f3b81d2"><rect x="0" width="176" y="0" height="304"/></clipPath><clipPath id="13796e7029"><rect x="0" width="166" y="0" height="31"/></clipPath><clipPath id="5a1aadb92e"><rect x="0" width="134" y="0" height="31"/></clipPath><clipPath id="f843ab6236"><rect x="0" width="169" y="0" height="31"/></clipPath><clipPath id="3b61f4957b"><rect x="0" width="84" y="0" height="31"/></clipPath></defs><g clip-path="url(#58df71e62e)"><path fill="#ffffff" d="M 0.230469 0 L 595.230469 0 L 595.230469 595 L 0.230469 595 Z M 0.230469 0 " fill-opacity="1" fill-rule="nonzero"/></g><g clip-path="url(#e94d7a825d)"><g clip-path="url(#1790039a27)"><g transform="matrix(1, 0, 0, 1, 11, 11)"><g clip-path="url(#8f1562ffda)"><g clip-path="url(#965a57f468)"><g clip-path="url(#973aa992af)"><rect x="-141.891191" width="856.742342" fill="#ffd100" height="857.519999" y="-142.01" fill-opacity="1"/></g></g></g></g></g></g><g clip-path="url(#1d25008a98)"><g clip-path="url(#ed4e9fdb31)"><g transform="matrix(1, 0, 0, 1, 22, 373)"><g clip-path="url(#2eff4d3e3d)"><g clip-path="url(#9ccbc090a4)"><g clip-path="url(#6a784d5f0b)"><rect x="-152.891191" width="856.742342" fill="#ffd100" height="857.519999" y="-504.01" fill-opacity="1"/></g></g></g></g></g></g><g clip-path="url(#97318ed64a)"><g clip-path="url(#e6881eb6ab)"><g transform="matrix(1, 0, 0, 1, 92, 11)"><g clip-path="url(#a3f529b4d5)"><g clip-path="url(#b3ffb07f62)"><g clip-path="url(#8cfd9e40c5)"><rect x="-222.891191" width="856.742342" fill="#8f1a6f" height="857.519999" y="-142.01" fill-opacity="1"/></g></g></g></g></g></g><g clip-path="url(#d105634f9e)"><g clip-path="url(#34c936eab7)"><g transform="matrix(1, 0, 0, 1, 11, 107)"><g clip-path="url(#08fca904ee)"><g clip-path="url(#aac398ffb4)"><g clip-path="url(#9fb854fdd1)"><rect x="-141.891191" width="856.742342" fill="#939598" height="857.519999" y="-238.01" fill-opacity="1"/></g></g></g></g></g></g><g clip-path="url(#38301cf36b)"><g clip-path="url(#d3ea30ae99)"><g transform="matrix(1, 0, 0, 1, 302, 107)"><g clip-path="url(#c6aee92661)"><g clip-path="url(#c5a10cd8c7)"><g clip-path="url(#074908229b)"><rect x="-432.891191" width="856.742342" fill="#cfd5da" height="857.519999" y="-238.01" fill-opacity="1"/></g></g></g></g></g></g><g clip-path="url(#b461150b02)"><g clip-path="url(#63a00710f1)"><g transform="matrix(1, 0, 0, 1, 133, 85)"><g clip-path="url(#48c1858ac0)"><g clip-path="url(#7b6ff7b250)"><g clip-path="url(#cd77356cc5)"><rect x="-263.891191" width="856.742342" fill="#231f20" height="857.519999" y="-216.01" fill-opacity="1"/></g></g></g></g></g></g><g clip-path="url(#dc626ed56f)"><g clip-path="url(#4f377a5167)"><g transform="matrix(1, 0, 0, 1, 292, 88)"><g clip-path="url(#a215276dc0)"><g clip-path="url(#1eb9cf964a)"><g clip-path="url(#03aa095353)"><rect x="-422.891191" width="856.742342" fill="#8f1a6f" height="857.519999" y="-219.01" fill-opacity="1"/></g></g></g></g></g></g><g clip-path="url(#b19ffe6d43)"><g clip-path="url(#e85b972fe2)"><g transform="matrix(1, 0, 0, 1, 280, 85)"><g clip-path="url(#7d8f3b81d2)"><g clip-path="url(#2f1198b21c)"><g clip-path="url(#78a7d412d2)"><rect x="-410.891191" width="856.742342" fill="#231f20" height="857.519999" y="-216.01" fill-opacity="1"/></g></g></g></g></g></g><g transform="matrix(1, 0, 0, 1, 86, 235)"><g clip-path="url(#13796e7029)"><g fill="#ebebec" fill-opacity="1"><g transform="translate(0.679681, 23.387541)"><g><path d="M 19.96875 -21.578125 L 25.796875 -21.578125 L 15.09375 -12.75 L 21.703125 0 L 15.90625 0 L 11.25 -9.46875 L 8.6875 -7.3125 L 7.125 0 L 2.609375 0 L 7.21875 -21.578125 L 11.71875 -21.578125 L 9.859375 -12.8125 Z M 19.96875 -21.578125 "/></g></g></g><g fill="#ebebec" fill-opacity="1"><g transform="translate(22.364623, 23.387541)"><g><path d="M 18.90625 -12.453125 C 18.90625 -11.960938 18.859375 -11.488281 18.765625 -11.03125 L 16.421875 0 L 12.203125 0 L 14.21875 -9.4375 C 14.363281 -10.039062 14.4375 -10.5625 14.4375 -11 C 14.4375 -12.238281 13.691406 -12.859375 12.203125 -12.859375 C 11.203125 -12.859375 10.332031 -12.53125 9.59375 -11.875 C 8.851562 -11.226562 8.359375 -10.335938 8.109375 -9.203125 L 6.15625 0 L 1.953125 0 L 5.34375 -16 L 9.375 -16 L 8.90625 -13.640625 L 8.953125 -13.640625 C 10.316406 -15.492188 12.113281 -16.421875 14.34375 -16.421875 C 15.738281 -16.421875 16.847656 -16.070312 17.671875 -15.375 C 18.492188 -14.6875 18.90625 -13.710938 18.90625 -12.453125 Z M 18.90625 -12.453125 "/></g></g></g><g fill="#ebebec" fill-opacity="1"><g transform="translate(40.715731, 23.387541)"><g><path d="M 19.328125 -10.25 C 19.328125 -8.40625 18.898438 -6.660156 18.046875 -5.015625 C 17.203125 -3.378906 16 -2.0625 14.4375 -1.0625 C 12.882812 -0.0703125 11.109375 0.421875 9.109375 0.421875 C 7.066406 0.421875 5.453125 -0.113281 4.265625 -1.1875 C 3.085938 -2.257812 2.5 -3.769531 2.5 -5.71875 C 2.5 -7.914062 2.984375 -9.828125 3.953125 -11.453125 C 4.921875 -13.078125 6.1875 -14.3125 7.75 -15.15625 C 9.3125 -16 10.957031 -16.421875 12.6875 -16.421875 C 14.707031 -16.421875 16.316406 -15.878906 17.515625 -14.796875 C 18.722656 -13.710938 19.328125 -12.195312 19.328125 -10.25 Z M 9.921875 -3.125 C 11.085938 -3.125 12.046875 -3.476562 12.796875 -4.1875 C 13.546875 -4.90625 14.085938 -5.773438 14.421875 -6.796875 C 14.765625 -7.816406 14.9375 -8.796875 14.9375 -9.734375 C 14.9375 -10.773438 14.6875 -11.554688 14.1875 -12.078125 C 13.6875 -12.597656 12.882812 -12.859375 11.78125 -12.859375 C 10.695312 -12.859375 9.789062 -12.519531 9.0625 -11.84375 C 8.332031 -11.164062 7.78125 -10.304688 7.40625 -9.265625 C 7.039062 -8.234375 6.859375 -7.195312 6.859375 -6.15625 C 6.859375 -4.132812 7.878906 -3.125 9.921875 -3.125 Z M 9.921875 -3.125 "/></g></g></g><g fill="#ebebec" fill-opacity="1"><g transform="translate(59.066839, 23.387541)"><g><path d="M 8.296875 -4.515625 L 12.984375 -16 L 17.21875 -16 L 17.21875 -4.515625 L 17.25 -4.515625 L 22.1875 -16 L 26.515625 -16 L 18.515625 0 L 14.1875 0 L 14.1875 -11.671875 L 14.09375 -11.671875 L 9.140625 0 L 4.8125 0 L 3.703125 -16 L 8.171875 -16 L 8.171875 -4.515625 Z M 8.296875 -4.515625 "/></g></g></g><g fill="#ebebec" fill-opacity="1"><g transform="translate(82.433723, 23.387541)"><g><path d="M 2.078125 0 L 6.671875 -21.578125 L 10.875 -21.578125 L 6.28125 0 Z M 2.078125 0 "/></g></g></g><g fill="#ebebec" fill-opacity="1"><g transform="translate(90.783331, 23.387541)"><g><path d="M 17.828125 -10.515625 C 17.828125 -9.378906 17.65625 -8.160156 17.3125 -6.859375 L 6.34375 -6.859375 C 6.28125 -6.554688 6.25 -6.203125 6.25 -5.796875 C 6.25 -3.898438 7.265625 -2.953125 9.296875 -2.953125 C 9.910156 -2.953125 10.503906 -3.097656 11.078125 -3.390625 C 11.648438 -3.691406 12.078125 -4.125 12.359375 -4.6875 L 16.6875 -4.6875 C 15.90625 -3.101562 14.789062 -1.851562 13.34375 -0.9375 C 11.90625 -0.03125 10.3125 0.421875 8.5625 0.421875 C 6.4375 0.421875 4.828125 -0.0546875 3.734375 -1.015625 C 2.648438 -1.984375 2.109375 -3.421875 2.109375 -5.328125 C 2.109375 -7.304688 2.492188 -9.140625 3.265625 -10.828125 C 4.035156 -12.523438 5.15625 -13.878906 6.625 -14.890625 C 8.101562 -15.910156 9.84375 -16.421875 11.84375 -16.421875 C 13.769531 -16.421875 15.25 -15.910156 16.28125 -14.890625 C 17.3125 -13.878906 17.828125 -12.421875 17.828125 -10.515625 Z M 13.640625 -10.25 C 13.640625 -11.050781 13.410156 -11.703125 12.953125 -12.203125 C 12.492188 -12.703125 11.851562 -12.953125 11.03125 -12.953125 C 9.101562 -12.953125 7.78125 -11.832031 7.0625 -9.59375 L 13.59375 -9.59375 C 13.625 -9.789062 13.640625 -10.007812 13.640625 -10.25 Z M 13.640625 -10.25 "/></g></g></g><g fill="#ebebec" fill-opacity="1"><g transform="translate(107.482548, 23.387541)"><g><path d="M 12.453125 0 L 12.859375 -2.015625 L 12.8125 -2.015625 C 12.144531 -1.148438 11.363281 -0.523438 10.46875 -0.140625 C 9.582031 0.234375 8.648438 0.421875 7.671875 0.421875 C 6.023438 0.421875 4.742188 -0.078125 3.828125 -1.078125 C 2.921875 -2.078125 2.46875 -3.550781 2.46875 -5.5 C 2.46875 -7.582031 2.875 -9.457031 3.6875 -11.125 C 4.5 -12.789062 5.570312 -14.085938 6.90625 -15.015625 C 8.238281 -15.953125 9.664062 -16.421875 11.1875 -16.421875 C 12.207031 -16.421875 13.0625 -16.207031 13.75 -15.78125 C 14.445312 -15.363281 14.941406 -14.742188 15.234375 -13.921875 L 15.296875 -13.921875 L 16.953125 -21.578125 L 21.15625 -21.578125 L 16.5625 0 Z M 9.4375 -3.03125 C 10.394531 -3.03125 11.25 -3.328125 12 -3.921875 C 12.757812 -4.515625 13.347656 -5.316406 13.765625 -6.328125 C 14.191406 -7.335938 14.40625 -8.445312 14.40625 -9.65625 C 14.40625 -10.675781 14.171875 -11.453125 13.703125 -11.984375 C 13.242188 -12.515625 12.554688 -12.78125 11.640625 -12.78125 C 10.671875 -12.78125 9.828125 -12.453125 9.109375 -11.796875 C 8.390625 -11.148438 7.832031 -10.316406 7.4375 -9.296875 C 7.050781 -8.285156 6.859375 -7.257812 6.859375 -6.21875 C 6.859375 -5.175781 7.082031 -4.382812 7.53125 -3.84375 C 7.976562 -3.300781 8.613281 -3.03125 9.4375 -3.03125 Z M 9.4375 -3.03125 "/></g></g></g><g fill="#ebebec" fill-opacity="1"><g transform="translate(125.833657, 23.387541)"><g><path d="M 20.015625 -16 L 16.6875 -0.328125 C 16.1875 2.054688 15.140625 3.796875 13.546875 4.890625 C 11.953125 5.984375 9.800781 6.53125 7.09375 6.53125 C 5.269531 6.53125 3.820312 6.160156 2.75 5.421875 C 1.675781 4.691406 1.140625 3.71875 1.140625 2.5 C 1.140625 2.257812 1.160156 2 1.203125 1.71875 L 5.765625 1.71875 L 5.765625 1.953125 C 5.765625 2.878906 6.609375 3.34375 8.296875 3.34375 C 9.253906 3.34375 10.015625 3.175781 10.578125 2.84375 C 11.140625 2.507812 11.566406 2.046875 11.859375 1.453125 C 12.148438 0.867188 12.394531 0.101562 12.59375 -0.84375 L 12.890625 -2.25 L 12.84375 -2.3125 C 12.175781 -1.445312 11.46875 -0.828125 10.71875 -0.453125 C 9.96875 -0.0859375 9.082031 0.09375 8.0625 0.09375 C 6.53125 0.09375 5.242188 -0.347656 4.203125 -1.234375 C 3.160156 -2.117188 2.640625 -3.550781 2.640625 -5.53125 C 2.640625 -7.269531 2.992188 -8.984375 3.703125 -10.671875 C 4.421875 -12.359375 5.441406 -13.738281 6.765625 -14.8125 C 8.085938 -15.882812 9.609375 -16.421875 11.328125 -16.421875 C 12.410156 -16.421875 13.296875 -16.179688 13.984375 -15.703125 C 14.679688 -15.234375 15.160156 -14.539062 15.421875 -13.625 L 15.484375 -13.625 L 16 -16 Z M 14.34375 -9.53125 C 14.34375 -10.46875 14.125 -11.242188 13.6875 -11.859375 C 13.257812 -12.472656 12.523438 -12.78125 11.484375 -12.78125 C 10.597656 -12.78125 9.8125 -12.441406 9.125 -11.765625 C 8.445312 -11.097656 7.925781 -10.253906 7.5625 -9.234375 C 7.207031 -8.222656 7.03125 -7.238281 7.03125 -6.28125 C 7.03125 -5.382812 7.253906 -4.6875 7.703125 -4.1875 C 8.160156 -3.695312 8.800781 -3.453125 9.625 -3.453125 C 10.5625 -3.453125 11.390625 -3.75 12.109375 -4.34375 C 12.835938 -4.9375 13.390625 -5.695312 13.765625 -6.625 C 14.148438 -7.5625 14.34375 -8.53125 14.34375 -9.53125 Z M 14.34375 -9.53125 "/></g></g></g><g fill="#ebebec" fill-opacity="1"><g transform="translate(144.184765, 23.387541)"><g><path d="M 17.828125 -10.515625 C 17.828125 -9.378906 17.65625 -8.160156 17.3125 -6.859375 L 6.34375 -6.859375 C 6.28125 -6.554688 6.25 -6.203125 6.25 -5.796875 C 6.25 -3.898438 7.265625 -2.953125 9.296875 -2.953125 C 9.910156 -2.953125 10.503906 -3.097656 11.078125 -3.390625 C 11.648438 -3.691406 12.078125 -4.125 12.359375 -4.6875 L 16.6875 -4.6875 C 15.90625 -3.101562 14.789062 -1.851562 13.34375 -0.9375 C 11.90625 -0.03125 10.3125 0.421875 8.5625 0.421875 C 6.4375 0.421875 4.828125 -0.0546875 3.734375 -1.015625 C 2.648438 -1.984375 2.109375 -3.421875 2.109375 -5.328125 C 2.109375 -7.304688 2.492188 -9.140625 3.265625 -10.828125 C 4.035156 -12.523438 5.15625 -13.878906 6.625 -14.890625 C 8.101562 -15.910156 9.84375 -16.421875 11.84375 -16.421875 C 13.769531 -16.421875 15.25 -15.910156 16.28125 -14.890625 C 17.3125 -13.878906 17.828125 -12.421875 17.828125 -10.515625 Z M 13.640625 -10.25 C 13.640625 -11.050781 13.410156 -11.703125 12.953125 -12.203125 C 12.492188 -12.703125 11.851562 -12.953125 11.03125 -12.953125 C 9.101562 -12.953125 7.78125 -11.832031 7.0625 -9.59375 L 13.59375 -9.59375 C 13.625 -9.789062 13.640625 -10.007812 13.640625 -10.25 Z M 13.640625 -10.25 "/></g></g></g></g></g><g transform="matrix(1, 0, 0, 1, 237, 476)"><g clip-path="url(#5a1aadb92e)"><g fill="#8f1a6f" fill-opacity="1"><g transform="translate(0.731475, 23.457836)"><g><path d="M 16.203125 0 L 15.75 -4.453125 L 7.78125 -4.453125 L 5.34375 0 L 0.59375 0 L 12.890625 -21.578125 L 18.09375 -21.578125 L 21.109375 0 Z M 15.296875 -8.171875 L 14.4375 -16.71875 L 14.375 -16.71875 L 9.796875 -8.171875 Z M 15.296875 -8.171875 "/></g></g></g><g fill="#8f1a6f" fill-opacity="1"><g transform="translate(22.416416, 23.457836)"><g><path d="M 12.6875 -16 L 12.0625 -12.984375 L 9.4375 -12.984375 L 7.671875 -4.75 C 7.546875 -4.1875 7.484375 -3.816406 7.484375 -3.640625 C 7.484375 -3.398438 7.597656 -3.234375 7.828125 -3.140625 C 8.054688 -3.046875 8.453125 -3 9.015625 -3 C 9.203125 -3 9.515625 -3.019531 9.953125 -3.0625 L 9.265625 0.125 C 8.492188 0.164062 7.726562 0.1875 6.96875 0.1875 C 5.507812 0.1875 4.488281 0.00390625 3.90625 -0.359375 C 3.320312 -0.722656 3.03125 -1.316406 3.03125 -2.140625 C 3.03125 -2.515625 3.070312 -2.882812 3.15625 -3.25 L 5.234375 -12.984375 L 3.0625 -12.984375 L 3.703125 -16 L 5.859375 -16 L 6.796875 -20.328125 L 11 -20.328125 L 10.078125 -16 Z M 12.6875 -16 "/></g></g></g><g fill="#8f1a6f" fill-opacity="1"><g transform="translate(32.417916, 23.457836)"><g><path d="M 12.6875 -16 L 12.0625 -12.984375 L 9.4375 -12.984375 L 7.671875 -4.75 C 7.546875 -4.1875 7.484375 -3.816406 7.484375 -3.640625 C 7.484375 -3.398438 7.597656 -3.234375 7.828125 -3.140625 C 8.054688 -3.046875 8.453125 -3 9.015625 -3 C 9.203125 -3 9.515625 -3.019531 9.953125 -3.0625 L 9.265625 0.125 C 8.492188 0.164062 7.726562 0.1875 6.96875 0.1875 C 5.507812 0.1875 4.488281 0.00390625 3.90625 -0.359375 C 3.320312 -0.722656 3.03125 -1.316406 3.03125 -2.140625 C 3.03125 -2.515625 3.070312 -2.882812 3.15625 -3.25 L 5.234375 -12.984375 L 3.0625 -12.984375 L 3.703125 -16 L 5.859375 -16 L 6.796875 -20.328125 L 11 -20.328125 L 10.078125 -16 Z M 12.6875 -16 "/></g></g></g><g fill="#8f1a6f" fill-opacity="1"><g transform="translate(42.419416, 23.457836)"><g><path d="M 5.859375 -17.890625 L 6.703125 -21.796875 L 10.90625 -21.796875 L 10.078125 -17.890625 Z M 2.078125 0 L 5.46875 -16 L 9.6875 -16 L 6.28125 0 Z M 2.078125 0 "/></g></g></g><g fill="#8f1a6f" fill-opacity="1"><g transform="translate(50.769025, 23.457836)"><g><path d="M 12.6875 -16 L 12.0625 -12.984375 L 9.4375 -12.984375 L 7.671875 -4.75 C 7.546875 -4.1875 7.484375 -3.816406 7.484375 -3.640625 C 7.484375 -3.398438 7.597656 -3.234375 7.828125 -3.140625 C 8.054688 -3.046875 8.453125 -3 9.015625 -3 C 9.203125 -3 9.515625 -3.019531 9.953125 -3.0625 L 9.265625 0.125 C 8.492188 0.164062 7.726562 0.1875 6.96875 0.1875 C 5.507812 0.1875 4.488281 0.00390625 3.90625 -0.359375 C 3.320312 -0.722656 3.03125 -1.316406 3.03125 -2.140625 C 3.03125 -2.515625 3.070312 -2.882812 3.15625 -3.25 L 5.234375 -12.984375 L 3.0625 -12.984375 L 3.703125 -16 L 5.859375 -16 L 6.796875 -20.328125 L 11 -20.328125 L 10.078125 -16 Z M 12.6875 -16 "/></g></g></g><g fill="#8f1a6f" fill-opacity="1"><g transform="translate(60.770525, 23.457836)"><g><path d="M 7.359375 -5.078125 C 7.359375 -3.773438 8.09375 -3.125 9.5625 -3.125 C 10.539062 -3.125 11.398438 -3.4375 12.140625 -4.0625 C 12.878906 -4.695312 13.375 -5.609375 13.625 -6.796875 L 15.578125 -16 L 19.78125 -16 L 16.390625 0 L 12.359375 0 L 12.84375 -2.25 L 12.75 -2.25 C 12.082031 -1.394531 11.285156 -0.734375 10.359375 -0.265625 C 9.441406 0.191406 8.429688 0.421875 7.328125 0.421875 C 5.910156 0.421875 4.828125 0.078125 4.078125 -0.609375 C 3.328125 -1.304688 2.953125 -2.304688 2.953125 -3.609375 C 2.953125 -4.265625 3.019531 -4.875 3.15625 -5.4375 L 5.375 -16 L 9.59375 -16 L 7.515625 -6.1875 C 7.410156 -5.6875 7.359375 -5.316406 7.359375 -5.078125 Z M 7.359375 -5.078125 "/></g></g></g><g fill="#8f1a6f" fill-opacity="1"><g transform="translate(79.121633, 23.457836)"><g><path d="M 12.453125 0 L 12.859375 -2.015625 L 12.8125 -2.015625 C 12.144531 -1.148438 11.363281 -0.523438 10.46875 -0.140625 C 9.582031 0.234375 8.648438 0.421875 7.671875 0.421875 C 6.023438 0.421875 4.742188 -0.078125 3.828125 -1.078125 C 2.921875 -2.078125 2.46875 -3.550781 2.46875 -5.5 C 2.46875 -7.582031 2.875 -9.457031 3.6875 -11.125 C 4.5 -12.789062 5.570312 -14.085938 6.90625 -15.015625 C 8.238281 -15.953125 9.664062 -16.421875 11.1875 -16.421875 C 12.207031 -16.421875 13.0625 -16.207031 13.75 -15.78125 C 14.445312 -15.363281 14.941406 -14.742188 15.234375 -13.921875 L 15.296875 -13.921875 L 16.953125 -21.578125 L 21.15625 -21.578125 L 16.5625 0 Z M 9.4375 -3.03125 C 10.394531 -3.03125 11.25 -3.328125 12 -3.921875 C 12.757812 -4.515625 13.347656 -5.316406 13.765625 -6.328125 C 14.191406 -7.335938 14.40625 -8.445312 14.40625 -9.65625 C 14.40625 -10.675781 14.171875 -11.453125 13.703125 -11.984375 C 13.242188 -12.515625 12.554688 -12.78125 11.640625 -12.78125 C 10.671875 -12.78125 9.828125 -12.453125 9.109375 -11.796875 C 8.390625 -11.148438 7.832031 -10.316406 7.4375 -9.296875 C 7.050781 -8.285156 6.859375 -7.257812 6.859375 -6.21875 C 6.859375 -5.175781 7.082031 -4.382812 7.53125 -3.84375 C 7.976562 -3.300781 8.613281 -3.03125 9.4375 -3.03125 Z M 9.4375 -3.03125 "/></g></g></g><g fill="#8f1a6f" fill-opacity="1"><g transform="translate(97.472742, 23.457836)"><g><path d="M 17.828125 -10.515625 C 17.828125 -9.378906 17.65625 -8.160156 17.3125 -6.859375 L 6.34375 -6.859375 C 6.28125 -6.554688 6.25 -6.203125 6.25 -5.796875 C 6.25 -3.898438 7.265625 -2.953125 9.296875 -2.953125 C 9.910156 -2.953125 10.503906 -3.097656 11.078125 -3.390625 C 11.648438 -3.691406 12.078125 -4.125 12.359375 -4.6875 L 16.6875 -4.6875 C 15.90625 -3.101562 14.789062 -1.851562 13.34375 -0.9375 C 11.90625 -0.03125 10.3125 0.421875 8.5625 0.421875 C 6.4375 0.421875 4.828125 -0.0546875 3.734375 -1.015625 C 2.648438 -1.984375 2.109375 -3.421875 2.109375 -5.328125 C 2.109375 -7.304688 2.492188 -9.140625 3.265625 -10.828125 C 4.035156 -12.523438 5.15625 -13.878906 6.625 -14.890625 C 8.101562 -15.910156 9.84375 -16.421875 11.84375 -16.421875 C 13.769531 -16.421875 15.25 -15.910156 16.28125 -14.890625 C 17.3125 -13.878906 17.828125 -12.421875 17.828125 -10.515625 Z M 13.640625 -10.25 C 13.640625 -11.050781 13.410156 -11.703125 12.953125 -12.203125 C 12.492188 -12.703125 11.851562 -12.953125 11.03125 -12.953125 C 9.101562 -12.953125 7.78125 -11.832031 7.0625 -9.59375 L 13.59375 -9.59375 C 13.625 -9.789062 13.640625 -10.007812 13.640625 -10.25 Z M 13.640625 -10.25 "/></g></g></g><g fill="#8f1a6f" fill-opacity="1"><g transform="translate(114.171958, 23.457836)"><g><path d="M 17.53125 -11.125 L 13.375 -11.125 L 13.375 -11.390625 C 13.375 -12.078125 13.179688 -12.554688 12.796875 -12.828125 C 12.421875 -13.097656 11.820312 -13.234375 11 -13.234375 C 10 -13.234375 9.253906 -13.066406 8.765625 -12.734375 C 8.273438 -12.398438 8.03125 -11.972656 8.03125 -11.453125 C 8.03125 -11.066406 8.328125 -10.765625 8.921875 -10.546875 C 9.523438 -10.328125 10.507812 -10.078125 11.875 -9.796875 C 13.59375 -9.441406 14.835938 -8.960938 15.609375 -8.359375 C 16.390625 -7.753906 16.78125 -6.921875 16.78125 -5.859375 C 16.78125 -4.816406 16.445312 -3.8125 15.78125 -2.84375 C 15.125 -1.875 14.175781 -1.085938 12.9375 -0.484375 C 11.707031 0.117188 10.257812 0.421875 8.59375 0.421875 C 6.445312 0.421875 4.785156 0.0390625 3.609375 -0.71875 C 2.441406 -1.476562 1.859375 -2.570312 1.859375 -4 C 1.859375 -4.414062 1.898438 -4.785156 1.984375 -5.109375 L 6.3125 -5.109375 L 6.25 -4.5625 C 6.25 -3.363281 7.253906 -2.765625 9.265625 -2.765625 C 10.203125 -2.765625 10.953125 -2.945312 11.515625 -3.3125 C 12.078125 -3.6875 12.359375 -4.132812 12.359375 -4.65625 C 12.359375 -5.039062 12.085938 -5.351562 11.546875 -5.59375 C 11.003906 -5.832031 10.125 -6.0625 8.90625 -6.28125 C 7.050781 -6.601562 5.71875 -7.066406 4.90625 -7.671875 C 4.101562 -8.285156 3.703125 -9.085938 3.703125 -10.078125 C 3.703125 -11.035156 3.972656 -12 4.515625 -12.96875 C 5.066406 -13.945312 5.929688 -14.765625 7.109375 -15.421875 C 8.285156 -16.085938 9.734375 -16.421875 11.453125 -16.421875 C 12.640625 -16.421875 13.648438 -16.289062 14.484375 -16.03125 C 15.328125 -15.78125 15.972656 -15.425781 16.421875 -14.96875 C 17.179688 -14.164062 17.5625 -13.144531 17.5625 -11.90625 C 17.5625 -11.601562 17.550781 -11.34375 17.53125 -11.125 Z M 17.53125 -11.125 "/></g></g></g></g></g><g transform="matrix(1, 0, 0, 1, 222, 48)"><g clip-path="url(#f843ab6236)"><g fill="#ffd100" fill-opacity="1"><g transform="translate(0.373077, 23.395819)"><g><path d="M 17.53125 -21.578125 C 19.226562 -21.578125 20.554688 -21.195312 21.515625 -20.4375 C 22.484375 -19.675781 22.96875 -18.613281 22.96875 -17.25 C 22.96875 -14.53125 21.722656 -12.660156 19.234375 -11.640625 C 20.015625 -11.335938 20.609375 -10.875 21.015625 -10.25 C 21.429688 -9.625 21.640625 -8.90625 21.640625 -8.09375 C 21.640625 -6.769531 21.300781 -5.488281 20.625 -4.25 C 19.957031 -3.019531 18.9375 -2.003906 17.5625 -1.203125 C 16.195312 -0.398438 14.539062 0 12.59375 0 L 2.28125 0 L 6.890625 -21.578125 Z M 18.453125 -16.046875 C 18.453125 -16.753906 18.207031 -17.234375 17.71875 -17.484375 C 17.226562 -17.734375 16.484375 -17.859375 15.484375 -17.859375 L 10.40625 -17.859375 L 9.40625 -13.140625 L 14.796875 -13.140625 C 15.773438 -13.140625 16.628906 -13.382812 17.359375 -13.875 C 18.085938 -14.363281 18.453125 -15.085938 18.453125 -16.046875 Z M 12.890625 -3.734375 C 14.160156 -3.734375 15.1875 -4.0625 15.96875 -4.71875 C 16.75 -5.382812 17.140625 -6.316406 17.140625 -7.515625 C 17.140625 -8.078125 16.910156 -8.546875 16.453125 -8.921875 C 16.003906 -9.304688 15.28125 -9.5 14.28125 -9.5 L 8.625 -9.5 L 7.390625 -3.734375 Z M 12.890625 -3.734375 "/></g></g></g><g fill="#ffd100" fill-opacity="1"><g transform="translate(22.058019, 23.395819)"><g><path d="M 17.828125 -10.515625 C 17.828125 -9.378906 17.65625 -8.160156 17.3125 -6.859375 L 6.34375 -6.859375 C 6.28125 -6.554688 6.25 -6.203125 6.25 -5.796875 C 6.25 -3.898438 7.265625 -2.953125 9.296875 -2.953125 C 9.910156 -2.953125 10.503906 -3.097656 11.078125 -3.390625 C 11.648438 -3.691406 12.078125 -4.125 12.359375 -4.6875 L 16.6875 -4.6875 C 15.90625 -3.101562 14.789062 -1.851562 13.34375 -0.9375 C 11.90625 -0.03125 10.3125 0.421875 8.5625 0.421875 C 6.4375 0.421875 4.828125 -0.0546875 3.734375 -1.015625 C 2.648438 -1.984375 2.109375 -3.421875 2.109375 -5.328125 C 2.109375 -7.304688 2.492188 -9.140625 3.265625 -10.828125 C 4.035156 -12.523438 5.15625 -13.878906 6.625 -14.890625 C 8.101562 -15.910156 9.84375 -16.421875 11.84375 -16.421875 C 13.769531 -16.421875 15.25 -15.910156 16.28125 -14.890625 C 17.3125 -13.878906 17.828125 -12.421875 17.828125 -10.515625 Z M 13.640625 -10.25 C 13.640625 -11.050781 13.410156 -11.703125 12.953125 -12.203125 C 12.492188 -12.703125 11.851562 -12.953125 11.03125 -12.953125 C 9.101562 -12.953125 7.78125 -11.832031 7.0625 -9.59375 L 13.59375 -9.59375 C 13.625 -9.789062 13.640625 -10.007812 13.640625 -10.25 Z M 13.640625 -10.25 "/></g></g></g><g fill="#ffd100" fill-opacity="1"><g transform="translate(38.757235, 23.395819)"><g><path d="M 9.171875 -13.921875 C 9.648438 -14.679688 10.367188 -15.285156 11.328125 -15.734375 C 12.296875 -16.191406 13.300781 -16.421875 14.34375 -16.421875 C 15.738281 -16.421875 16.847656 -16.066406 17.671875 -15.359375 C 18.492188 -14.660156 18.90625 -13.691406 18.90625 -12.453125 C 18.90625 -11.910156 18.859375 -11.4375 18.765625 -11.03125 L 16.421875 0 L 12.203125 0 L 14.21875 -9.4375 C 14.363281 -10.132812 14.4375 -10.65625 14.4375 -11 C 14.4375 -12.238281 13.691406 -12.859375 12.203125 -12.859375 C 11.203125 -12.859375 10.332031 -12.535156 9.59375 -11.890625 C 8.851562 -11.253906 8.359375 -10.359375 8.109375 -9.203125 L 6.15625 0 L 1.953125 0 L 6.546875 -21.578125 L 10.765625 -21.578125 L 9.109375 -13.921875 Z M 9.171875 -13.921875 "/></g></g></g><g fill="#ffd100" fill-opacity="1"><g transform="translate(57.108344, 23.395819)"><g><path d="M 17.40625 -11.75 L 15.578125 -3.09375 C 15.453125 -2.613281 15.390625 -2.175781 15.390625 -1.78125 C 15.390625 -1.414062 15.429688 -1.144531 15.515625 -0.96875 C 15.609375 -0.800781 15.757812 -0.6875 15.96875 -0.625 L 15.84375 0 L 11.296875 0 C 11.265625 -0.476562 11.25 -0.769531 11.25 -0.875 C 11.25 -1.03125 11.265625 -1.367188 11.296875 -1.890625 C 10.316406 -1.085938 9.414062 -0.5 8.59375 -0.125 C 7.769531 0.238281 6.789062 0.421875 5.65625 0.421875 C 4.40625 0.421875 3.421875 0.113281 2.703125 -0.5 C 1.984375 -1.125 1.625 -1.957031 1.625 -3 C 1.625 -4.769531 2.1875 -6.210938 3.3125 -7.328125 C 4.40625 -8.429688 5.875 -9.113281 7.71875 -9.375 L 9.859375 -9.6875 C 10.859375 -9.820312 11.550781 -9.929688 11.9375 -10.015625 C 12.332031 -10.109375 12.644531 -10.28125 12.875 -10.53125 C 13.113281 -10.78125 13.234375 -11.164062 13.234375 -11.6875 C 13.234375 -12.132812 13.046875 -12.472656 12.671875 -12.703125 C 12.296875 -12.929688 11.679688 -13.046875 10.828125 -13.046875 C 10.046875 -13.046875 9.40625 -12.875 8.90625 -12.53125 C 8.414062 -12.195312 8.03125 -11.628906 7.75 -10.828125 L 3.703125 -10.828125 C 4.316406 -12.742188 5.257812 -14.15625 6.53125 -15.0625 C 7.8125 -15.96875 9.632812 -16.421875 12 -16.421875 C 13.625 -16.421875 14.945312 -16.117188 15.96875 -15.515625 C 16.988281 -14.910156 17.5 -14.019531 17.5 -12.84375 C 17.5 -12.394531 17.46875 -12.03125 17.40625 -11.75 Z M 9.625 -6.9375 C 8.195312 -6.738281 7.234375 -6.394531 6.734375 -5.90625 C 6.234375 -5.414062 5.984375 -4.8125 5.984375 -4.09375 C 5.984375 -3.488281 6.140625 -3.082031 6.453125 -2.875 C 6.773438 -2.675781 7.207031 -2.578125 7.75 -2.578125 C 8.289062 -2.578125 8.867188 -2.707031 9.484375 -2.96875 C 10.097656 -3.226562 10.640625 -3.601562 11.109375 -4.09375 C 11.578125 -4.59375 11.882812 -5.148438 12.03125 -5.765625 L 12.453125 -7.78125 C 12.191406 -7.625 11.796875 -7.460938 11.265625 -7.296875 C 10.734375 -7.140625 10.1875 -7.019531 9.625 -6.9375 Z M 9.625 -6.9375 "/></g></g></g><g fill="#ffd100" fill-opacity="1"><g transform="translate(73.807561, 23.395819)"><g><path d="M 9.34375 -4.203125 L 15.234375 -16 L 19.71875 -16 L 10.546875 0 L 6.125 0 L 3.78125 -16 L 8.484375 -16 L 9.296875 -4.203125 Z M 9.34375 -4.203125 "/></g></g></g><g fill="#ffd100" fill-opacity="1"><g transform="translate(90.506777, 23.395819)"><g><path d="M 5.859375 -17.890625 L 6.703125 -21.796875 L 10.90625 -21.796875 L 10.078125 -17.890625 Z M 2.078125 0 L 5.46875 -16 L 9.6875 -16 L 6.28125 0 Z M 2.078125 0 "/></g></g></g><g fill="#ffd100" fill-opacity="1"><g transform="translate(98.856386, 23.395819)"><g><path d="M 19.328125 -10.25 C 19.328125 -8.40625 18.898438 -6.660156 18.046875 -5.015625 C 17.203125 -3.378906 16 -2.0625 14.4375 -1.0625 C 12.882812 -0.0703125 11.109375 0.421875 9.109375 0.421875 C 7.066406 0.421875 5.453125 -0.113281 4.265625 -1.1875 C 3.085938 -2.257812 2.5 -3.769531 2.5 -5.71875 C 2.5 -7.914062 2.984375 -9.828125 3.953125 -11.453125 C 4.921875 -13.078125 6.1875 -14.3125 7.75 -15.15625 C 9.3125 -16 10.957031 -16.421875 12.6875 -16.421875 C 14.707031 -16.421875 16.316406 -15.878906 17.515625 -14.796875 C 18.722656 -13.710938 19.328125 -12.195312 19.328125 -10.25 Z M 9.921875 -3.125 C 11.085938 -3.125 12.046875 -3.476562 12.796875 -4.1875 C 13.546875 -4.90625 14.085938 -5.773438 14.421875 -6.796875 C 14.765625 -7.816406 14.9375 -8.796875 14.9375 -9.734375 C 14.9375 -10.773438 14.6875 -11.554688 14.1875 -12.078125 C 13.6875 -12.597656 12.882812 -12.859375 11.78125 -12.859375 C 10.695312 -12.859375 9.789062 -12.519531 9.0625 -11.84375 C 8.332031 -11.164062 7.78125 -10.304688 7.40625 -9.265625 C 7.039062 -8.234375 6.859375 -7.195312 6.859375 -6.15625 C 6.859375 -4.132812 7.878906 -3.125 9.921875 -3.125 Z M 9.921875 -3.125 "/></g></g></g><g fill="#ffd100" fill-opacity="1"><g transform="translate(117.207494, 23.395819)"><g><path d="M 7.359375 -5.078125 C 7.359375 -3.773438 8.09375 -3.125 9.5625 -3.125 C 10.539062 -3.125 11.398438 -3.4375 12.140625 -4.0625 C 12.878906 -4.695312 13.375 -5.609375 13.625 -6.796875 L 15.578125 -16 L 19.78125 -16 L 16.390625 0 L 12.359375 0 L 12.84375 -2.25 L 12.75 -2.25 C 12.082031 -1.394531 11.285156 -0.734375 10.359375 -0.265625 C 9.441406 0.191406 8.429688 0.421875 7.328125 0.421875 C 5.910156 0.421875 4.828125 0.078125 4.078125 -0.609375 C 3.328125 -1.304688 2.953125 -2.304688 2.953125 -3.609375 C 2.953125 -4.265625 3.019531 -4.875 3.15625 -5.4375 L 5.375 -16 L 9.59375 -16 L 7.515625 -6.1875 C 7.410156 -5.6875 7.359375 -5.316406 7.359375 -5.078125 Z M 7.359375 -5.078125 "/></g></g></g><g fill="#ffd100" fill-opacity="1"><g transform="translate(135.558603, 23.395819)"><g><path d="M 14.703125 -16.359375 L 13.765625 -12.078125 C 13.566406 -12.117188 13.195312 -12.140625 12.65625 -12.140625 C 11.457031 -12.160156 10.441406 -11.875 9.609375 -11.28125 C 8.773438 -10.695312 8.207031 -9.710938 7.90625 -8.328125 L 6.125 0 L 1.921875 0 L 5.328125 -16 L 9.34375 -16 L 8.78125 -13.234375 L 8.84375 -13.234375 C 9.738281 -14.453125 10.566406 -15.285156 11.328125 -15.734375 C 12.085938 -16.191406 12.941406 -16.421875 13.890625 -16.421875 C 14.066406 -16.421875 14.335938 -16.398438 14.703125 -16.359375 Z M 14.703125 -16.359375 "/></g></g></g><g fill="#ffd100" fill-opacity="1"><g transform="translate(147.242044, 23.395819)"><g><path d="M 17.53125 -11.125 L 13.375 -11.125 L 13.375 -11.390625 C 13.375 -12.078125 13.179688 -12.554688 12.796875 -12.828125 C 12.421875 -13.097656 11.820312 -13.234375 11 -13.234375 C 10 -13.234375 9.253906 -13.066406 8.765625 -12.734375 C 8.273438 -12.398438 8.03125 -11.972656 8.03125 -11.453125 C 8.03125 -11.066406 8.328125 -10.765625 8.921875 -10.546875 C 9.523438 -10.328125 10.507812 -10.078125 11.875 -9.796875 C 13.59375 -9.441406 14.835938 -8.960938 15.609375 -8.359375 C 16.390625 -7.753906 16.78125 -6.921875 16.78125 -5.859375 C 16.78125 -4.816406 16.445312 -3.8125 15.78125 -2.84375 C 15.125 -1.875 14.175781 -1.085938 12.9375 -0.484375 C 11.707031 0.117188 10.257812 0.421875 8.59375 0.421875 C 6.445312 0.421875 4.785156 0.0390625 3.609375 -0.71875 C 2.441406 -1.476562 1.859375 -2.570312 1.859375 -4 C 1.859375 -4.414062 1.898438 -4.785156 1.984375 -5.109375 L 6.3125 -5.109375 L 6.25 -4.5625 C 6.25 -3.363281 7.253906 -2.765625 9.265625 -2.765625 C 10.203125 -2.765625 10.953125 -2.945312 11.515625 -3.3125 C 12.078125 -3.6875 12.359375 -4.132812 12.359375 -4.65625 C 12.359375 -5.039062 12.085938 -5.351562 11.546875 -5.59375 C 11.003906 -5.832031 10.125 -6.0625 8.90625 -6.28125 C 7.050781 -6.601562 5.71875 -7.066406 4.90625 -7.671875 C 4.101562 -8.285156 3.703125 -9.085938 3.703125 -10.078125 C 3.703125 -11.035156 3.972656 -12 4.515625 -12.96875 C 5.066406 -13.945312 5.929688 -14.765625 7.109375 -15.421875 C 8.285156 -16.085938 9.734375 -16.421875 11.453125 -16.421875 C 12.640625 -16.421875 13.648438 -16.289062 14.484375 -16.03125 C 15.328125 -15.78125 15.972656 -15.425781 16.421875 -14.96875 C 17.179688 -14.164062 17.5625 -13.144531 17.5625 -11.90625 C 17.5625 -11.601562 17.550781 -11.34375 17.53125 -11.125 Z M 17.53125 -11.125 "/></g></g></g></g></g><g transform="matrix(1, 0, 0, 1, 411, 235)"><g clip-path="url(#3b61f4957b)"><g fill="#77787b" fill-opacity="1"><g transform="translate(0.965039, 23.387541)"><g><path d="M 21.4375 -15.1875 L 17.109375 -15.1875 L 17.109375 -15.8125 C 17.109375 -16.65625 16.785156 -17.300781 16.140625 -17.75 C 15.503906 -18.195312 14.570312 -18.421875 13.34375 -18.421875 C 12.164062 -18.421875 11.148438 -18.144531 10.296875 -17.59375 C 9.441406 -17.050781 9.015625 -16.296875 9.015625 -15.328125 C 9.015625 -14.867188 9.171875 -14.507812 9.484375 -14.25 C 9.796875 -13.988281 10.347656 -13.742188 11.140625 -13.515625 C 11.929688 -13.285156 13.316406 -12.929688 15.296875 -12.453125 C 16.785156 -12.085938 17.914062 -11.648438 18.6875 -11.140625 C 19.457031 -10.628906 19.941406 -10.113281 20.140625 -9.59375 C 20.335938 -9.070312 20.4375 -8.5 20.4375 -7.875 C 20.4375 -6.375 20.019531 -4.976562 19.1875 -3.6875 C 18.363281 -2.394531 17.164062 -1.359375 15.59375 -0.578125 C 14.03125 0.191406 12.226562 0.578125 10.1875 0.578125 C 7.644531 0.578125 5.710938 0.09375 4.390625 -0.875 C 3.066406 -1.851562 2.40625 -3.222656 2.40625 -4.984375 C 2.40625 -5.523438 2.460938 -6.078125 2.578125 -6.640625 L 6.890625 -6.640625 C 6.847656 -6.285156 6.828125 -6.015625 6.828125 -5.828125 C 6.828125 -4.972656 7.160156 -4.3125 7.828125 -3.84375 C 8.503906 -3.382812 9.460938 -3.15625 10.703125 -3.15625 C 12.441406 -3.15625 13.738281 -3.445312 14.59375 -4.03125 C 15.445312 -4.613281 15.875 -5.40625 15.875 -6.40625 C 15.875 -7.28125 15.140625 -7.910156 13.671875 -8.296875 L 11.96875 -8.71875 C 10.019531 -9.195312 8.578125 -9.609375 7.640625 -9.953125 C 6.710938 -10.296875 5.972656 -10.757812 5.421875 -11.34375 C 4.867188 -11.9375 4.59375 -12.753906 4.59375 -13.796875 C 4.59375 -15.097656 4.929688 -16.390625 5.609375 -17.671875 C 6.296875 -18.953125 7.375 -20.019531 8.84375 -20.875 C 10.320312 -21.726562 12.164062 -22.15625 14.375 -22.15625 C 16.675781 -22.15625 18.453125 -21.660156 19.703125 -20.671875 C 20.953125 -19.691406 21.578125 -18.289062 21.578125 -16.46875 C 21.578125 -16.113281 21.53125 -15.6875 21.4375 -15.1875 Z M 21.4375 -15.1875 "/></g></g></g><g fill="#77787b" fill-opacity="1"><g transform="translate(20.998089, 23.387541)"><g><path d="M 14.96875 -16 L 20.140625 -16 L 13.171875 -9.796875 L 16.890625 0 L 11.84375 0 L 9.46875 -6.859375 L 7.359375 -5.046875 L 6.28125 0 L 2.078125 0 L 6.671875 -21.578125 L 10.875 -21.578125 L 8.390625 -9.953125 Z M 14.96875 -16 "/></g></g></g><g fill="#77787b" fill-opacity="1"><g transform="translate(37.697306, 23.387541)"><g><path d="M 5.859375 -17.890625 L 6.703125 -21.796875 L 10.90625 -21.796875 L 10.078125 -17.890625 Z M 2.078125 0 L 5.46875 -16 L 9.6875 -16 L 6.28125 0 Z M 2.078125 0 "/></g></g></g><g fill="#77787b" fill-opacity="1"><g transform="translate(46.046914, 23.387541)"><g><path d="M 2.078125 0 L 6.671875 -21.578125 L 10.875 -21.578125 L 6.28125 0 Z M 2.078125 0 "/></g></g></g><g fill="#77787b" fill-opacity="1"><g transform="translate(54.396523, 23.387541)"><g><path d="M 2.078125 0 L 6.671875 -21.578125 L 10.875 -21.578125 L 6.28125 0 Z M 2.078125 0 "/></g></g></g><g fill="#77787b" fill-opacity="1"><g transform="translate(62.746131, 23.387541)"><g><path d="M 17.53125 -11.125 L 13.375 -11.125 L 13.375 -11.390625 C 13.375 -12.078125 13.179688 -12.554688 12.796875 -12.828125 C 12.421875 -13.097656 11.820312 -13.234375 11 -13.234375 C 10 -13.234375 9.253906 -13.066406 8.765625 -12.734375 C 8.273438 -12.398438 8.03125 -11.972656 8.03125 -11.453125 C 8.03125 -11.066406 8.328125 -10.765625 8.921875 -10.546875 C 9.523438 -10.328125 10.507812 -10.078125 11.875 -9.796875 C 13.59375 -9.441406 14.835938 -8.960938 15.609375 -8.359375 C 16.390625 -7.753906 16.78125 -6.921875 16.78125 -5.859375 C 16.78125 -4.816406 16.445312 -3.8125 15.78125 -2.84375 C 15.125 -1.875 14.175781 -1.085938 12.9375 -0.484375 C 11.707031 0.117188 10.257812 0.421875 8.59375 0.421875 C 6.445312 0.421875 4.785156 0.0390625 3.609375 -0.71875 C 2.441406 -1.476562 1.859375 -2.570312 1.859375 -4 C 1.859375 -4.414062 1.898438 -4.785156 1.984375 -5.109375 L 6.3125 -5.109375 L 6.25 -4.5625 C 6.25 -3.363281 7.253906 -2.765625 9.265625 -2.765625 C 10.203125 -2.765625 10.953125 -2.945312 11.515625 -3.3125 C 12.078125 -3.6875 12.359375 -4.132812 12.359375 -4.65625 C 12.359375 -5.039062 12.085938 -5.351562 11.546875 -5.59375 C 11.003906 -5.832031 10.125 -6.0625 8.90625 -6.28125 C 7.050781 -6.601562 5.71875 -7.066406 4.90625 -7.671875 C 4.101562 -8.285156 3.703125 -9.085938 3.703125 -10.078125 C 3.703125 -11.035156 3.972656 -12 4.515625 -12.96875 C 5.066406 -13.945312 5.929688 -14.765625 7.109375 -15.421875 C 8.285156 -16.085938 9.734375 -16.421875 11.453125 -16.421875 C 12.640625 -16.421875 13.648438 -16.289062 14.484375 -16.03125 C 15.328125 -15.78125 15.972656 -15.425781 16.421875 -14.96875 C 17.179688 -14.164062 17.5625 -13.144531 17.5625 -11.90625 C 17.5625 -11.601562 17.550781 -11.34375 17.53125 -11.125 Z M 17.53125 -11.125 "/></g></g></g></g></g></svg>