<?xml version="1.0" encoding="UTF-8"?>
<svg id="Layer_1" xmlns="http://www.w3.org/2000/svg" version="1.1" viewBox="0 0 2750 1944">
  <!-- Generator: Adobe Illustrator 30.2.1, SVG Export Plug-In . SVG Version: 2.1.1 Build 1)  -->
  <defs>
    <style>
      .st0 {
        fill: #ef3931;
      }

      .st1 {
        fill: #008e5a;
      }

      .st2 {
        fill: #fff;
      }

      .st3 {
        fill: #fcfdfd;
      }
    </style>
  </defs>
  <path class="st2" d="M462,620c1.15.23,2.3.45,3.48.68q59.37,12.04,74.39,34.19c5.5,9.75,6.3,19.38,4,30.19-2.2,7.91-5.51,13.72-12.44,18.31-15.64,8.33-35.64,7.31-52.93,8.05-61.41,2.65-122.51,14.61-166.25,61.45-24.33,28.34-38.03,61.31-43.25,98.12-.1.72-.21,1.44-.32,2.18-6.51,50.5,8.56,104.34,38.69,145.02,2.14,2.67,4.35,5.24,6.62,7.79.84.97,1.68,1.94,2.54,2.94,24.5,27.94,60.19,47.12,97.46,50.06,16.87.7,33.41.25,50-3q1.06-.2,2.15-.41c18.61-3.61,37-9.95,53.85-18.59-1.07-.39-2.15-.78-3.25-1.19-1.58-.6-3.17-1.21-4.75-1.81-.88-.33-1.77-.66-2.68-1-27.42-10.72-48.55-31.43-60.93-58.03-10.21-23.43-12.01-51.6-4.4-75.98q.31-1.02.63-2.07c9.27-29.32,30.23-50.08,56.57-64.71,14.07-7.08,30.52-10.37,46.19-10.37.93,0,1.85,0,2.81-.01,3.1-.01,6.19-.01,9.29-.02,2.22,0,4.45-.01,6.67-.02,7.3-.02,14.6-.03,21.9-.04,2.52,0,5.04,0,7.56-.01,10.49-.02,20.98-.03,31.48-.04,2.72,0,5.44,0,8.16,0,.68,0,1.35,0,2.05,0,10.92,0,21.84-.03,32.75-.07,11.24-.03,22.48-.05,33.73-.05,6.3,0,12.6-.01,18.9-.04,5.94-.02,11.87-.03,17.81-.02,2.16,0,4.33,0,6.49-.02,33.74-.2,63.09,9.23,87.7,32.74,19.9,20.62,30.66,47.3,30.58,75.93,0,1.17,0,2.33.01,3.53.01,3.2.01,6.4,0,9.6,0,3.46.01,6.93.02,10.39.02,6.77.02,13.55.02,20.32,0,5.51,0,11.03.01,16.54.02,15.66.03,31.33.03,46.99q0,1.26,0,2.55c0,.84,0,1.69,0,2.56,0,13.66.02,27.33.05,40.99.03,14.06.04,28.13.04,42.19,0,7.88,0,15.76.03,23.65.02,6.71.02,13.43,0,20.14,0,3.42,0,6.83.01,10.25.13,30.75-6.06,57.27-26.5,81.11-.48.61-.96,1.22-1.45,1.85-15.66,19.65-42.18,31.55-66.55,35.15-22.58,1.4-43.75-.16-64-11-.9-.44-1.81-.88-2.74-1.33-25.03-12.61-42.46-35.46-51.67-61.52-1.72-5.38-2.86-10.54-3.59-16.15q-1.44,1.11-2.9,2.24c-14.06,10.75-28.66,20.28-44.21,28.73-1.77.97-3.52,1.98-5.27,2.99-36.79,20.68-79.02,30.4-120.61,35.05q-1.28.16-2.59.32c-9.68,1.07-19.44.88-29.16.87-.96,0-1.92,0-2.92,0-14.2-.02-28.24-.3-42.33-2.19-.97-.12-1.95-.25-2.95-.37-39.1-5.07-76.45-15.66-112.05-32.63-.9-.43-1.8-.85-2.73-1.29-30.13-14.39-57.66-33.13-82.27-55.71-1-.91-2.01-1.82-3.02-2.73-61.74-56.06-97.56-136.59-103.98-219.27-.09-1.11-.17-2.23-.26-3.38-.79-11.27-.98-22.52-.99-33.81,0-.96,0-1.93,0-2.92.08-72.48,22.26-145.95,68.93-202.29.88-1.06,1.75-2.12,2.61-3.19,6.76-8.38,14.19-16.09,21.78-23.72.91-.92,1.82-1.84,2.76-2.79,6.09-6.06,12.47-11.55,19.18-16.9,1.19-.99,2.37-1.98,3.55-2.98,65.79-54.81,166.95-88.87,252.45-72.02Z"/>
  <path class="st0" d="M2467,602h156v740h-156v-740Z"/>
  <path class="st1" d="M2467,602h52v740h-52v-740Z"/>
  <path class="st3" d="M2519,602h51v740h-51v-740Z"/>
  <path class="st2" d="M1136.72,830.52c4.1.51,8.15.61,12.28.58.72,0,1.44,0,2.19,0,2.27,0,4.54-.02,6.81-.03,1.55,0,3.11,0,4.66-.01,3.78-.01,7.56-.03,11.34-.05v18h-15c.47.89.95,1.77,1.44,2.69,3.95,9.29,3.27,20.26-.29,29.53-3.04,6.62-7.26,10.6-13.7,13.89-7.85,2.86-15.6,3.23-23.88,3.29q-4.77,0-8.6,2.52-1.85,3.92-1.48,8.14,1.45,2.32,4.89,2.7c1.47.14,2.94.26,4.42.37.79.07,1.58.15,2.39.22,3.5.32,7.01.59,10.52.86q26.09,2.02,32.77,8.98c5.9,8.09,6.47,17.05,5.5,26.81-1.8,8.08-5.15,14.83-12.19,19.43-9.21,4.99-19.43,7.03-29.81,7.57-.74.04-1.48.08-2.25.12-13.52.36-29.28-.74-40.25-9.31-5.65-5.47-6.63-11.35-6.81-19,.36-10.9,5.69-17.39,13.31-24.81-.64-.8-1.28-1.61-1.94-2.44-2.62-3.99-3.27-7.82-3.06-12.56,1.16-5.35,3.41-10.19,6-15-1.05-.76-2.1-1.53-3.19-2.31-5.4-4.61-7.77-10.9-9.62-17.62-.69-11.33-.89-22.9,6.81-32.06,7.03-7.73,16.18-11.17,26.52-11.98,6.76-.05,13.51.57,20.2,1.5ZM1107.06,853.19c-2.7,7.14-2.69,14.62-.06,21.81,3.53,3.82,7.67,5.72,12.83,6.34,6.53.09,11.92-.13,17.17-4.34,3.97-4.55,4.25-7.57,3.94-13.56q-.82-7.75-5.49-13.68c-8.93-5.39-21.35-4.52-28.38,3.43ZM1106,935.5c-2.4,4.33-2.56,7.63-2,12.5.09.86.18,1.71.27,2.59q.51,2.5,2.46,3.77c10.54,4.07,23.87,4.56,34.81,1.72,3.85-1.76,6.01-3.52,8.65-6.83,1.08-4.3,1.19-8-.19-12.25-5.93-5.13-14.41-4.52-21.86-4.88-2.16-.12-4.31-.29-6.47-.46q-8.72-.76-15.67,3.84Z"/>
  <path class="st2" d="M997,795h44c3.17,11.42,6.26,22.81,9.07,34.32.37,1.5.74,3.01,1.11,4.51.97,3.95,1.94,7.91,2.91,11.86,1.6,6.54,3.21,13.08,4.82,19.62.4,1.62.79,3.23,1.19,4.85,2.41,9.8,4.83,19.6,7.3,29.38q.36,1.44.73,2.91c1.07,4.23,2.14,8.46,3.22,12.68.36,1.43.72,2.86,1.09,4.29.3,1.19.61,2.38.92,3.61q.63,2.97.63,6.97h-23c-2.31-9.24-4.62-18.48-7-28h-50c-2.31,9.24-4.62,18.48-7,28h-23c1.17-6.43,2.32-12.72,3.9-19.03.18-.73.36-1.45.54-2.2.59-2.37,1.18-4.74,1.77-7.12.42-1.69.84-3.38,1.26-5.07,1.11-4.48,2.22-8.96,3.34-13.44,1.15-4.61,2.29-9.22,3.43-13.82.23-.91.45-1.82.68-2.76.45-1.83.9-3.65,1.36-5.48.67-2.71,1.34-5.42,2.02-8.13,2.43-9.78,4.84-19.56,7.21-29.35.24-.99.48-1.99.73-3.01,1.05-4.32,2.09-8.63,3.13-12.95.35-1.44.7-2.89,1.05-4.33.29-1.19.57-2.38.87-3.61q.71-2.71,1.71-4.71ZM1015,814c-2.62,7.42-4.54,14.91-6.36,22.57-.31,1.27-.61,2.55-.93,3.86-.81,3.36-1.61,6.72-2.41,10.08-.82,3.44-1.65,6.88-2.47,10.32-1.61,6.72-3.22,13.45-4.83,20.18h42c-5.18-22.37-10.54-44.7-16-67h-9Z"/>
  <path class="st2" d="M1520.19,988.69q1.68,0,3.4,0c13.97.17,27.9,1.68,41.41,5.3.03,2.44.05,4.87.06,7.31,0,.69.02,1.38.03,2.09.02,3.14-.09,5.59-1.09,8.6-2.52-.15-5.04-.29-7.56-.44q-1.16-.07-2.34-.13c-4.91-.29-9.82-.63-14.73-.99q-20.63-1.71-39.38,5.56c-8.63,8.13-9.63,22.38-10.11,33.55q-.99,26.56,8.17,50.89c8.62,7.52,19.32,7.07,30.12,6.81,4.89-.08,9.78-.17,14.81-.25v-32h-17v-20h39v69c-14.66,2.2-28.59,4.18-43.31,4.25q-1.7.03-3.44.06c-13.29.06-26.28-2.32-36.54-11.32-17.47-18.26-16.32-46.91-15.85-70.37.64-17.11,4.37-35.67,17.32-47.88,10.81-8.57,23.66-10.13,37-10.06Z"/>
  <path class="st2" d="M1040.34,1029.25c9.12,6.41,13.59,14.91,15.66,25.75,3.36,21.21,4.05,44.35-8.8,62.55-2.47,2.75-4.64,4.04-7.95,5.64-.98.49-1.97.98-2.98,1.48-7.38,3.01-13.82,3.63-21.7,3.52-.89,0-1.78,0-2.7,0-5.75-.04-11.07-.54-16.87-1.19v41h-22v-141h22v6c.65-.24,1.31-.48,1.98-.73,3-1.1,6.01-2.18,9.02-3.27,1.03-.38,2.06-.76,3.12-1.16,10.67-3.81,20.9-4.13,31.21,1.41ZM1005.19,1046.94c-.76.18-1.52.36-2.31.55q-4.04.96-7.88,2.51c-.02,7.41-.04,14.83-.05,22.24,0,3.44-.01,6.89-.02,10.33-.01,3.95-.02,7.91-.02,11.86,0,1.24-.01,2.48-.02,3.76,0,1.14,0,2.28,0,3.46,0,1.01,0,2.02,0,3.06q-.14,2.25,1.12,3.28c10.25,1.8,22.01,3.19,31-3,6.59-6.24,7.76-15.27,8.2-23.95.22-11.67.2-24.06-8.2-33.05-7.03-4.74-14.11-2.99-21.81-1.06Z"/>
  <path class="st2" d="M1396.38,1032.27c7.74,8.28,7.92,19.76,8,30.44.02,1.2.03,2.4.05,3.64.05,3.82.09,7.64.13,11.46.04,3.84.09,7.68.14,11.52.03,2.38.06,4.77.08,7.15.01,1.08.03,2.15.04,3.26,0,.95.02,1.89.03,2.87q.05,2.54,1.14,5.39.98.65,1.98,1.32c2.76,2.3,2.79,4.05,3.27,7.55.15,1.03.3,2.06.45,3.12.27,2.7.36,5.3.3,8.01-8.91.56-17.28-.12-24.88-5.28-3.41-1.16-5.73.29-8.99,1.59-11.44,4.51-27.03,6.36-38.94,2.19-6.28-3.16-10.61-8.26-13.06-14.81-2.9-10.52-2.56-20.75,1.06-31.06,5.29-7.66,12.86-11.47,21.9-13.23,3.3-.46,6.6-.82,9.91-1.15,1.11-.13,2.22-.25,3.37-.38,6.57-.7,13.03-1.04,19.63-.87-.11-1.9-.24-3.79-.38-5.69q-.1-1.58-.21-3.2c-.58-4.36-1.13-7.07-4.62-9.91-3.4-1.46-5.85-1.53-9.55-1.45q-.97.02-1.96.03c-5.74.13-11.47.48-17.2.86-5.71.37-11.37.44-17.09.36-.33-5.28-.66-10.56-1-16,3.14-.65,6.29-1.3,9.44-1.94q1.32-.27,2.66-.55c16.66-3.38,40.24-7.04,54.28,4.76ZM1363.75,1081.81q-1,.11-2.02.21c-5.54.68-10,1.82-13.58,6.29-1.32,3.09-1.55,5.34-1.52,8.69,0,1.01-.02,2.02-.02,3.06.53,3.94,1.92,6.79,5.09,9.25,6.35,1.89,13.3.38,19.69-.75.81-.13,1.61-.27,2.44-.41q4.22-.67,8.18-2.15v-25c-6.26,0-12.1.04-18.25.81Z"/>
  <path class="st2" d="M2235.62,835.56c6.21,6.38,8.45,14.39,8.56,23.1.02,1.11.03,2.22.05,3.37.01,1.19.03,2.38.04,3.61.02,1.23.04,2.46.06,3.72.08,5.26.15,10.51.22,15.77.05,3.84.11,7.67.17,11.51.01,1.19.03,2.39.04,3.62.02,1.1.03,2.21.05,3.35.01.97.03,1.95.04,2.95q.05,2.59,1.15,5.45c.65.45,1.31.89,1.98,1.36,2.65,2.16,2.77,3.62,3.27,6.96.15.92.3,1.85.45,2.8.31,2.98.35,5.89.3,8.89-8.91.56-17.28-.12-24.88-5.28-3.41-1.16-5.73.29-8.99,1.59-7.86,3.1-14.64,3.89-23,3.94-.86.02-1.72.04-2.61.06-8.27.05-14.78-1.89-20.98-7.57-7.77-8.82-7.26-20.34-6.76-31.4.55-5.94,2.88-10.03,7.05-14.16,8.05-6.59,16.99-7.82,27.04-8.87,1.12-.13,2.24-.26,3.39-.39,6.6-.73,13.09-1.1,19.73-.92-.11-2.08-.24-4.17-.38-6.25q-.1-1.74-.21-3.52-.48-3.93-2.41-7.23c-5.67-4.33-12.21-3.1-18.94-2.69-2.42.12-4.84.24-7.27.36-1.17.06-2.33.12-3.53.18-6.09.27-12.16.21-18.26.15-.33-5.28-.66-10.56-1-16,3.46-.65,6.92-1.3,10.38-1.94.97-.18,1.93-.36,2.93-.55,17.52-3.23,36.38-5.44,52.32,4.05ZM2204.81,885.81c-.78.07-1.56.14-2.37.21-5.96.63-10.49,2.22-14.45,6.97-1.74,5.22-1.92,10.85.25,15.94q2.51,2.98,5.75,5.06c5.97.28,11.51-.4,17.38-1.44.81-.13,1.61-.27,2.44-.41q4.22-.67,8.18-2.15v-25c-5.89,0-11.38.19-17.19.81Z"/>
  <path class="st2" d="M1556.41,828.88c10.98-.2,21.83.38,30.53,7.77,8.28,8.47,8.48,19.24,8.39,30.5.01,2.49.03,4.99.04,7.48,0,3.89,0,7.78-.01,11.67,0,3.78.01,7.56.04,11.35-.01,1.16-.03,2.33-.04,3.53q-.05,6.47,3.12,11.91c.83.63,1.66,1.26,2.52,1.91q.93,2.94,1.31,6c.14,1.01.28,2.02.43,3.06.24,2.67.32,5.26.26,7.94-8.91.56-17.28-.12-24.88-5.28-3.41-1.16-5.73.29-8.99,1.59-11.44,4.51-27.03,6.36-38.94,2.19-6.25-3.15-10.59-8.23-13.06-14.75-2.85-10.29-3.39-21.92,1.62-31.62,5.39-7.48,12.36-10.98,21.34-12.73,3.3-.46,6.6-.82,9.91-1.15,1.11-.13,2.22-.25,3.37-.38,6.57-.7,13.03-1.04,19.63-.87-.11-1.9-.24-3.79-.38-5.69q-.1-1.58-.21-3.2c-.6-4.49-1.09-7.07-4.73-9.95-5.58-1.77-10.83-1.21-16.62-.86-2.42.12-4.84.24-7.27.36-1.17.06-2.33.12-3.53.18-6.09.27-12.16.21-18.26.15-.33-5.28-.66-10.56-1-16q23.54-4.7,35.41-5.12ZM1555.31,885.81c-.72.07-1.44.14-2.18.21-5.6.64-10.29,1.68-13.98,6.29-1.32,3.09-1.55,5.34-1.52,8.69,0,1.01-.02,2.02-.02,3.06.46,3.39,1.32,5.23,3.4,7.94,5.64,4.2,15.05,1.41,21.52.52q5.4-.72,10.48-2.52v-25c-6.04,0-11.74.12-17.69.81Z"/>
  <path class="st2" d="M1841,834c7.07,6.26,10.39,12.62,11.29,22.03.13,3.37.18,6.72.19,10.09.02,1.22.03,2.44.05,3.7.05,3.87.08,7.74.1,11.61.04,3.9.08,7.79.12,11.69.03,2.42.05,4.83.06,7.25.01,1.09.02,2.18.03,3.3q0,1.44.02,2.9.04,2.56,1.14,5.42.98.65,1.98,1.32c2.76,2.3,2.79,4.05,3.27,7.55.15,1.03.3,2.06.45,3.12.27,2.7.36,5.3.3,8.01-8.91.56-17.28-.12-24.88-5.28-3.41-1.16-5.73.29-8.99,1.59-11.44,4.51-27.03,6.36-38.94,2.19-6.34-3.19-10.41-8.06-12.85-14.65-1.55-4.95-1.88-9.62-1.84-14.79,0-.88,0-1.75.02-2.66.23-8.53,2.32-14.03,8.17-20.28,8.29-5.32,16.62-6.92,26.31-7.88,1.11-.13,2.22-.25,3.37-.38,6.57-.7,13.03-1.04,19.63-.87-.11-1.9-.24-3.79-.38-5.69q-.1-1.58-.21-3.2c-.6-4.49-1.09-7.07-4.73-9.95-5.58-1.77-10.83-1.21-16.62-.86-2.42.12-4.84.24-7.27.36-1.17.06-2.33.12-3.53.18-6.09.27-12.16.21-18.26.15-.33-5.28-.66-10.56-1-16,3.46-.65,6.92-1.3,10.38-1.94.97-.18,1.93-.36,2.93-.55,16.19-2.99,34.56-5.52,49.7,2.49ZM1812.88,885.81c-.77.07-1.54.14-2.34.21-4.75.51-8.39,1.42-12.54,3.97-3.83,5.11-3.69,10.87-3,17,1.23,3.02,2.16,4.34,4.69,6.31,6.35,1.89,13.3.38,19.69-.75.81-.13,1.61-.27,2.44-.41q4.22-.67,8.18-2.15v-25c-5.87,0-11.33.19-17.12.81Z"/>
  <path class="st2" d="M2034,836c5.77,5.29,7.58,13.55,8.29,21.08.13,3.31.18,6.61.18,9.92.02,1.2.03,2.4.05,3.63.05,3.79.08,7.58.1,11.37.04,3.82.08,7.64.12,11.46.03,2.37.05,4.73.06,7.1.01,1.07.02,2.13.03,3.23,0,.94.01,1.87.02,2.84q.04,2.52,1.14,5.37.98.65,1.98,1.32c2.76,2.3,2.79,4.05,3.27,7.55.15,1.03.3,2.06.45,3.12.27,2.7.36,5.3.3,8.01-8.91.56-17.28-.12-24.88-5.28-3.41-1.16-5.73.29-8.99,1.59-11.44,4.51-27.03,6.36-38.94,2.19-6.34-3.19-10.41-8.06-12.85-14.65-1.55-4.95-1.88-9.62-1.84-14.79,0-.88,0-1.75.02-2.66.23-8.53,2.32-14.03,8.17-20.28,8.29-5.32,16.62-6.92,26.31-7.88,1.11-.13,2.22-.25,3.37-.38,6.57-.7,13.03-1.04,19.63-.87-.11-1.9-.24-3.79-.38-5.69q-.1-1.58-.21-3.2c-.6-4.49-1.09-7.07-4.73-9.95-5.58-1.77-10.83-1.21-16.62-.86-2.42.12-4.84.24-7.27.36-1.17.06-2.33.12-3.53.18-6.09.27-12.16.21-18.26.15-.33-5.28-.66-10.56-1-16,3.46-.65,6.92-1.3,10.38-1.94.97-.18,1.93-.36,2.93-.55,17.41-3.21,37.17-5.87,52.7,4.49ZM2002.31,885.81c-.72.07-1.44.14-2.18.21-5.6.64-10.29,1.68-13.98,6.29-1.32,3.09-1.55,5.34-1.52,8.69,0,1.01-.02,2.02-.02,3.06.53,3.94,1.92,6.79,5.09,9.25,6.35,1.89,13.3.38,19.69-.75.81-.13,1.61-.27,2.44-.41q4.22-.67,8.18-2.15v-25c-6.04,0-11.74.12-17.69.81Z"/>
  <path class="st2" d="M1890,1032c9.67,7.37,12.69,17.72,14.5,29.23.57,4.35.83,8.4.5,12.77-.07.97-.13,1.95-.2,2.95q-.61,7.86-1.8,9.05c-1.87.09-3.75.12-5.62.11-1.2,0-2.4,0-3.64,0-1.31,0-2.61-.01-3.96-.02-1.34,0-2.69,0-4.03,0-3.54,0-7.09-.01-10.63-.02-3.61-.01-7.23-.01-10.84-.02-7.09-.01-14.19-.03-21.28-.05.31,1.76.62,3.52.93,5.29.17.98.35,1.96.52,2.97.83,4.18,1.66,7.42,5.27,9.95,7.1,3.87,14.37,3.94,22.27,3.67.83-.02,1.67-.05,2.53-.07,2.64-.08,5.28-.16,7.92-.24,1.8-.05,3.6-.11,5.4-.16,4.39-.13,8.78-.27,13.17-.4v17c-2.45.47-4.91.95-7.44,1.44-.75.15-1.51.3-2.28.45-9.37,1.78-18.56,2.34-28.09,2.43q-1.65.04-3.33.09c-11.72.09-21.24-2.55-29.73-10.84-10.71-12.87-11.18-32.63-10.13-48.56,1.43-12.96,4.54-25.52,14-35,15.55-12.35,39.46-12.47,56-2ZM1847.25,1049.75c-4.54,6.55-4.25,11.12-4.25,19.25h40q-.29-12.81-7-21.81c-4.38-3.19-7.5-3.37-12.81-3.44-1.2-.03-2.41-.05-3.64-.08-5.37.5-8.51,2.3-12.29,6.08Z"/>
  <path class="st2" d="M1141,1032c8.91,7.29,13.25,17.37,14.69,28.56.7,8.14.48,16.34-.69,24.44q-1,1-3.4,1.12c-1.06,0-2.13,0-3.22,0-1.2,0-2.4,0-3.64,0-1.31,0-2.61-.01-3.96-.02-1.34,0-2.69,0-4.03,0-3.54,0-7.09-.01-10.63-.02-3.61-.01-7.23-.01-10.84-.02-7.09-.01-14.19-.03-21.28-.05.37,2.23.77,4.46,1.19,6.69.22,1.24.44,2.48.67,3.76,1.55,4.81,4.07,7.46,8.52,9.8,6.21,1.78,12.23,1.85,18.62,1.63.83-.02,1.67-.05,2.53-.07,2.64-.08,5.28-.16,7.92-.24,1.8-.05,3.6-.11,5.4-.16,4.39-.13,8.78-.27,13.17-.4v17c-2.45.47-4.91.95-7.44,1.44-.75.15-1.51.3-2.28.45-9.37,1.78-18.56,2.34-28.09,2.43q-1.65.04-3.33.09c-11.66.09-21.27-2.53-29.73-10.77-3.59-4.43-5.44-9.23-7.13-14.63-.23-.72-.46-1.45-.7-2.19-5.2-18.39-3.57-40.68,4.7-57.81,5.11-9.05,13.27-13.97,23-17,13.93-2.78,27.82-1.47,40,6ZM1098.25,1049.81c-4.79,6.78-4.25,10.35-4.25,19.19h40q-.25-12.59-6.55-22.37c-9.01-5.58-21.89-4.29-29.2,3.18Z"/>
  <path class="st2" d="M1254.75,837.69c9.48,9.75,12.4,22.48,12.38,35.69q0,1.84,0,3.71c-.15,4.32-.66,8.62-1.13,12.91h-61q2.38,11.81,5,18,2.22,1.31,5,2c1.04.34,2.07.69,3.14,1.04,4.29,1.07,8.03,1.22,12.42,1.15q1.21,0,2.44-.02c10.01-.12,20.01-.63,30-1.17,1.23,5.67,1.09,11.24,1,17-12.44,2.87-24.46,4.4-37.25,4.44q-1.82.01-3.67.03c-11-.1-20.64-2.03-29.08-9.47-13.15-15.51-12.12-36.86-11-56,1.38-11.98,6.4-22.91,15.88-30.54,17-11.72,39.11-9.07,55.88,1.22ZM1211,852c-5.51,6.55-6,12.67-6,21h40q.03-11.47-5.44-20.94c-7.78-6.26-20.81-6.61-28.56-.06Z"/>
  <path class="st2" d="M1701.55,1032.85c10.56,9.28,13.23,22.79,14.45,36.15.91,15.86.15,34.59-10.45,47.32-6.65,7.17-15.16,11.18-24.95,11.84q-29.94.51-41.6-10.16c-12.5-13.79-11.66-34.36-11.18-51.73.66-12.11,4.4-23.98,13.3-32.58,16.14-12.63,43.84-12.3,60.43-.84ZM1656.19,1049.19c-8.15,10.48-7.18,26.33-5.99,38.94.89,6.83,2.31,12.55,7.1,17.64,6.37,4.64,14.21,3.84,21.7,3.23,4.51-.95,6.98-2.47,9.55-6.32,4.48-8.46,4.63-16.02,4.64-25.43q.02-1.71.04-3.46c.02-9.02-.09-17.66-6.22-24.79-9.55-6.94-21.46-7.08-30.81.19Z"/>
  <path class="st2" d="M1991.19,1029.06c7.56,5.15,10.96,13.24,12.81,21.94.77,4.73,1.12,9.25,1.11,14.04,0,.66,0,1.33,0,2.01,0,2.17,0,4.34-.02,6.51,0,1.51,0,3.03,0,4.54,0,3.97-.01,7.93-.02,11.9-.01,4.06-.01,8.11-.02,12.17-.01,7.94-.03,15.89-.05,23.83h-22c-.01-1.92-.03-3.83-.04-5.81-.05-6.37-.12-12.73-.19-19.1-.04-3.86-.08-7.71-.11-11.57-.03-3.73-.07-7.46-.12-11.18-.02-1.42-.03-2.83-.03-4.25q.3-13.16-4.97-24.79c-4.33-3.69-7.78-3.31-13.54-3.31-5.94,1.32-11.88,2.64-18,4-.33,25.08-.66,50.16-1,76h-23c-.02-12.76-.04-25.52-.05-38.28,0-5.92-.01-11.85-.02-17.77-.01-5.71-.02-11.42-.02-17.14,0-2.18,0-4.37-.01-6.55,0-3.05,0-6.1,0-9.15,0-.91,0-1.83-.01-2.77q.01-6.23,1.12-7.34c1.55-.1,3.1-.13,4.66-.13q1.41,0,2.85,0c.99,0,1.98,0,3,.01q1.48,0,3-.01c.94,0,1.88,0,2.85,0,.87,0,1.74,0,2.63,0q2.03.13,3.03,1.13c.04,1.67.04,3.33,0,5,.68-.24,1.36-.48,2.06-.73,3.12-1.1,6.25-2.18,9.38-3.27q1.6-.57,3.24-1.16c10.79-3.69,21.22-4.46,31.51,1.22Z"/>
  <path class="st2" d="M2094,1027h23c.01,2.01.03,4.03.04,6.1.05,6.68.12,13.36.19,20.03.04,4.05.08,8.09.11,12.14.03,3.91.07,7.82.12,11.73.02,1.49.03,2.97.03,4.46q-.34,13.26,5.5,24.61c8.91,2.78,22.65,1.11,31-3.06.33-25.08.66-50.16,1-76h22v99h-22c-.33-1.65-.66-3.3-1-5-.59.21-1.19.42-1.8.64q-28.09,9.9-42.79,3.75c-5.99-3.45-9.79-8.74-11.86-15.28-3.35-12.87-3.71-25.82-3.65-39.07,0-1.27,0-2.54,0-3.85,0-3.33.01-6.65.02-9.98.01-3.41.01-6.83.02-10.24.01-6.66.03-13.32.05-19.98Z"/>
  <path class="st2" d="M2136,834c7.34,5.17,9.83,12.34,11.6,20.87,1.41,8.57,1.67,16.94,1.6,25.62,0,1.44,0,2.88,0,4.32,0,3.74-.03,7.48-.05,11.22-.02,3.84-.03,7.67-.04,11.51-.02,7.49-.06,14.98-.1,22.47h-22q-.03-2.74-.06-5.53c-.07-6.07-.14-12.13-.23-18.2-.05-3.67-.1-7.35-.13-11.02-.04-3.55-.08-7.11-.14-10.66-.03-2-.05-4-.06-6q.12-13.62-5.38-25.59c-10.1-6.18-22.17-1.03-33,1v76h-22v-99h22v6c.72-.25,1.45-.5,2.2-.75,3.34-1.13,6.7-2.22,10.05-3.31,1.14-.39,2.28-.78,3.45-1.18,11.22-3.6,21.82-3.69,32.3,2.24Z"/>
  <path class="st2" d="M1355.75,835.09c7.91,5.84,9.75,15.73,11.25,24.91.95,8.63,1.13,17.19,1.1,25.86,0,1.27,0,2.54,0,3.85,0,3.33-.01,6.67-.02,10-.01,3.42-.01,6.84-.02,10.26-.01,6.68-.03,13.35-.05,20.03h-22q-.03-2.48-.06-5.01c-.07-5.52-.15-11.04-.23-16.56-.05-3.34-.09-6.68-.13-10.02-.05-3.86-.1-7.72-.16-11.57-.01-1.17-.02-2.35-.04-3.56q-.16-15.72-5.38-30.28c-3.52-2.6-7.7-3.26-12-2.88-7.01,1.23-14,2.56-21,3.88v76h-22v-99h22v6c.72-.25,1.45-.5,2.2-.75,3.34-1.13,6.7-2.22,10.05-3.31,1.14-.39,2.28-.78,3.45-1.18,12.03-3.86,22.25-3.42,33.04,3.34Z"/>
  <path class="st2" d="M1385,831h73q0,22.75-6.96,30.8c-.51.51-1.03,1.01-1.56,1.54-3.67,3.78-6.78,7.88-9.92,12.11-4.87,6.42-9.87,12.72-14.99,18.95-3.95,4.81-7.75,9.7-11.58,14.62,14.85.33,29.7.66,45,1v20h-73q0-23,8.52-32.14c2.89-3.18,5.63-6.45,8.32-9.8,1.61-2,3.23-3.98,4.86-5.96,4.55-5.58,8.89-11.32,13.24-17.06,3.32-4.37,6.7-8.7,10.07-13.04-14.85-.33-29.7-.66-45-1v-20Z"/>
  <path class="st2" d="M1723,1027h23c1.84,5.51,3.49,10.62,4.81,16.22.16.66.31,1.32.47,2,.51,2.14,1.01,4.29,1.51,6.43.35,1.5.71,3.01,1.06,4.51.74,3.13,1.47,6.27,2.21,9.4.94,4.02,1.89,8.04,2.83,12.05.73,3.1,1.46,6.2,2.18,9.3.35,1.48.7,2.96,1.05,4.45.49,2.06.97,4.13,1.45,6.2.28,1.17.55,2.35.83,3.56q.59,2.88.59,5.88h6q.15-1.03.31-2.09c1.33-8.52,3.27-16.84,5.35-25.2.35-1.43.71-2.87,1.06-4.3.73-2.98,1.47-5.95,2.21-8.93.95-3.81,1.89-7.63,2.83-11.44.9-3.65,1.81-7.31,2.71-10.96.17-.69.34-1.39.52-2.1.48-1.96.97-3.91,1.46-5.87.28-1.11.55-2.22.84-3.37.5-1.93,1.08-3.85,1.71-5.75h23c-2.71,12.49-5.69,24.86-8.95,37.22-.46,1.77-.93,3.53-1.39,5.3-.96,3.66-1.92,7.31-2.88,10.96-1.24,4.69-2.46,9.38-3.69,14.08-.95,3.63-1.9,7.25-2.85,10.87-.46,1.73-.91,3.46-1.36,5.2-.63,2.4-1.26,4.8-1.89,7.2-.19.72-.37,1.43-.57,2.17q-1.3,4.89-2.41,6c-2.88.09-5.74.12-8.63.1q-1.3,0-2.62,0c-2.77,0-5.54-.02-8.31-.03-1.87,0-3.75,0-5.62-.01-4.6-.01-9.21-.03-13.81-.05-2.82-10.99-5.64-21.98-8.45-32.97-1.31-5.1-2.62-10.21-3.92-15.31-1.27-4.93-2.53-9.87-3.79-14.8-.48-1.87-.96-3.75-1.44-5.62-2.59-10.08-5.11-20.15-7.39-30.3Z"/>
  <path class="st2" d="M2032,999h22v28h27v19h-27c.1,7.74.2,15.48.32,23.22.04,2.63.07,5.27.1,7.9.05,3.79.1,7.57.16,11.36.01,1.18.02,2.35.04,3.57.02,1.1.04,2.2.06,3.34.01.97.03,1.93.04,2.93.33,3.16.96,6.37,3.28,8.69,1.71.16,3.42.25,5.13.32q1.55.06,3.13.13c1.09.04,2.18.08,3.3.12,1.09.04,2.18.09,3.31.13,2.71.11,5.42.21,8.13.31q.49,8.91,1,18c-7.11,1.67-13.91,2.24-21.19,2.31-.84.02-1.69.03-2.55.05-8.07,0-14.73-2.02-20.79-7.56-4.97-6.09-5.6-15.26-5.59-22.81,0-1.16,0-2.32,0-3.52,0-1.24.01-2.48.02-3.75,0-1.28,0-2.56,0-3.88,0-3.38.01-6.77.02-10.15.01-3.46.01-6.92.02-10.38.01-6.77.03-13.55.05-20.32h-13v-19h13v-28Z"/>
  <path class="st2" d="M1715,803h22v28h27v19h-27c.1,7.28.2,14.55.32,21.83.04,2.47.07,4.95.1,7.42.05,3.56.1,7.12.16,10.69.01,1.1.02,2.2.04,3.34q-.1,9.54,4.21,17.64c2.52,1.25,4.13,1.43,6.94,1.37.89,0,1.78-.02,2.7-.03.92-.03,1.84-.05,2.79-.08.94-.01,1.87-.03,2.84-.04,2.31-.04,4.61-.08,6.91-.15.82,6.07,1.09,11.88,1,18-6.62,1.69-12.68,2.34-19.5,2.31-.89.02-1.77.03-2.68.05-7.22,0-13.35-1.36-19.63-4.99-8.79-9.54-8.5-24.17-8.38-36.36,0-1.18,0-2.36,0-3.58.01-3.73.04-7.46.06-11.18.01-2.55.02-5.09.03-7.64.02-6.2.06-12.41.1-18.61h-12v-19h12v-28Z"/>
  <path class="st2" d="M1284,987h23v139h-23v-139Z"/>
  <path class="st2" d="M1877,791h22v139h-22v-139Z"/>
  <path class="st2" d="M1229,1025v22c-3.34,1.34-6.41,2.47-9.84,3.44-.9.26-1.8.51-2.73.77q-1.39.39-2.81.79c-.92.26-1.84.52-2.79.79-1.73.49-3.46.98-5.19,1.46-3.22.91-6.43,1.83-9.64,2.75v69h-23c-.02-12.76-.04-25.52-.05-38.28,0-5.92-.01-11.85-.02-17.77-.01-5.71-.02-11.42-.02-17.14,0-2.18,0-4.37-.01-6.55,0-3.05,0-6.1,0-9.15,0-.91,0-1.83-.01-2.77q.01-6.23,1.12-7.34c1.55-.1,3.1-.13,4.66-.13q1.41,0,2.85,0c.99,0,1.98,0,3,.01q1.48,0,3-.01c.94,0,1.88,0,2.85,0,.87,0,1.74,0,2.63,0q2.03.13,3.03,1.13c.23,1.51.41,3.04.56,4.56q.13,1.24.25,2.5c.06.64.12,1.28.18,1.93,1-.53,2.01-1.06,3.04-1.61q19.99-10.39,28.96-10.39Z"/>
  <path class="st2" d="M1663,795h22v135h-22v-135Z"/>
  <path class="st2" d="M1477,831h22v99h-22c-.68-6.14-1.15-11.94-1.13-18.07,0-.86,0-1.71,0-2.6,0-2.8,0-5.6,0-8.4,0-1.96,0-3.91,0-5.87,0-4.08,0-8.16,0-12.24,0-5.24,0-10.48,0-15.71,0-4.03,0-8.06,0-12.09,0-1.93,0-3.87,0-5.8,0-2.69,0-5.38,0-8.07,0-.8,0-1.6,0-2.43q.02-5.5,1.14-7.73Z"/>
  <path class="st2" d="M1587,1027h22v99h-22v-99Z"/>
  <path class="st2" d="M1924,831h22v99h-22v-99Z"/>
  <path class="st2" d="M2110,979c7.23,2.26,14.14,5.08,21.09,8.08,1.84.79,3.68,1.58,5.51,2.36,6.92,2.97,13.69,6.12,20.39,9.56-1.65,4.62-3.3,9.24-5,14q-7.88-1.13-11.43-2.29c-.79-.26-1.59-.51-2.41-.78-.83-.28-1.67-.55-2.52-.84-.87-.28-1.75-.57-2.65-.86-1.83-.6-3.67-1.2-5.5-1.81-2.81-.93-5.62-1.85-8.44-2.77-1.78-.58-3.57-1.17-5.35-1.75-.84-.28-1.69-.55-2.55-.84q-1.17-.39-2.36-.78c-.69-.23-1.37-.45-2.08-.68q-1.71-.61-3.71-1.61c1.82-6.62,4.08-12.79,7-19Z"/>
  <path class="st2" d="M1479.13,791.89c.92,0,1.83.01,2.78.02.89,0,1.78,0,2.7,0q1.71.01,3.45.03,5.41.03,10.94.06v24h-22c-.95-2.86-1.13-4.67-1.13-7.63,0-.89,0-1.78,0-2.69,0-.92,0-1.85.01-2.8,0-.93,0-1.86-.01-2.82,0-.89,0-1.77,0-2.68,0-.81,0-1.63,0-2.47.19-2.73.53-2.87,3.26-3.02Z"/>
  <path class="st2" d="M1924,792h22v24h-22v-24Z"/>
  <path class="st2" d="M1587,988h22v23h-22v-23Z"/>
</svg>