<?xml version="1.0" encoding="UTF-8"?>
<svg version="1.1" xmlns="http://www.w3.org/2000/svg" width="2750" height="1944">
<path d="M0 0 C1.14984375 0.22574707 2.2996875 0.45149414 3.484375 0.68408203 C62.85538544 12.72441116 62.85538544 12.72441116 77.875 34.875 C83.3766903 44.62193921 84.17711656 54.25077401 81.875 65.0625 C79.67148386 72.97281832 76.36976078 78.7835026 69.4375 83.375 C53.7970157 91.70125782 33.79261342 90.6845501 16.50390625 91.42578125 C-44.91033556 94.07264847 -106.00877192 106.03155716 -149.75 152.875 C-174.0755788 181.21680945 -187.77971488 214.18530273 -193 251 C-193.1045752 251.72082764 -193.20915039 252.44165527 -193.31689453 253.18432617 C-199.82908748 303.68003336 -184.75577014 357.52058013 -154.625 398.20703125 C-152.48624657 400.87665384 -150.27704236 403.44766754 -148 406 C-147.16082031 406.97066406 -146.32164062 407.94132812 -145.45703125 408.94140625 C-120.95377367 436.88183311 -85.26225854 456.05979023 -48 459 C-31.12711038 459.69886898 -14.58675885 459.24531219 2 456 C3.06371826 455.79914795 3.06371826 455.79914795 4.14892578 455.59423828 C22.7540584 451.98010256 41.14707959 445.64252329 58 437 C56.9275 436.608125 55.855 436.21625 54.75 435.8125 C53.16585346 435.21046883 51.58261172 434.60605441 50 434 C49.11699219 433.67128906 48.23398437 433.34257813 47.32421875 433.00390625 C19.90658188 422.28171808 -1.22763332 401.5752212 -13.60473633 374.97558594 C-23.81352139 351.54281384 -25.61566551 323.37596539 -18 299 C-17.68651611 297.97688721 -17.68651611 297.97688721 -17.36669922 296.93310547 C-8.09720974 267.61096759 12.86225161 246.85117328 39.20703125 232.21875 C53.27519538 225.13951978 69.73139277 221.84945804 85.40092468 221.85282898 C86.32792783 221.84915229 87.25493098 221.8454756 88.21002513 221.8416875 C91.30628222 221.83070325 94.40250569 221.8268157 97.4987793 221.82299805 C99.72349147 221.81672916 101.9482026 221.81008199 104.1729126 221.80308533 C111.47334062 221.78208382 118.77376875 221.77168296 126.07421875 221.76171875 C128.59449588 221.757669 131.11477291 221.75355201 133.63504982 221.74936867 C144.12748094 221.73250228 154.61991094 221.71787056 165.11235332 221.71061993 C167.83116851 221.70871042 170.54998368 221.70679003 173.26879883 221.70483398 C173.94444489 221.70435024 174.62009096 221.7038665 175.31621114 221.7033681 C186.23397055 221.69508757 197.15161969 221.66978291 208.06933107 221.63725331 C219.311012 221.60403523 230.55263933 221.58648943 241.79437572 221.58297569 C248.09282063 221.58063585 254.39109129 221.57181576 260.68948936 221.54651451 C266.62640013 221.52305109 272.56302418 221.51907333 278.49996948 221.52927589 C280.66369906 221.52976704 282.82744364 221.52357317 284.99112892 221.50971985 C318.72621376 221.30603961 348.07722741 230.74425577 372.6875 254.25 C392.58264874 274.86808293 403.35064127 301.54960199 403.26742554 330.17959595 C403.27195665 331.34504484 403.27648776 332.51049372 403.28115618 333.71125925 C403.29154404 336.91029004 403.29314028 340.1091776 403.29076743 343.30821967 C403.29035615 346.77261408 403.30142789 350.23697604 403.31088257 353.70135498 C403.32742695 360.4756115 403.33298914 367.2498332 403.33410732 374.02410825 C403.33506098 379.53663965 403.33918705 385.04915967 403.34550858 390.56168747 C403.36310353 406.22614666 403.37235025 421.89057856 403.37084763 437.55504771 C403.37072776 438.81919802 403.37072776 438.81919802 403.37060547 440.10888672 C403.37052371 440.95269494 403.37044195 441.79650316 403.37035771 442.66588132 C403.36954543 456.32970914 403.38867292 469.99342656 403.4168822 483.65722246 C403.44568744 497.72183145 403.45941829 511.78638674 403.45769465 525.85102594 C403.45703335 533.73326751 403.46241065 541.61539336 403.48405075 549.49760818 C403.50236354 556.2103547 403.50652787 562.92293304 403.4930319 569.63569386 C403.48655236 573.05279732 403.48842265 576.46931907 403.5037384 579.88643265 C403.63256594 610.63920161 397.44112588 637.15919213 377 661 C376.52175781 661.61101563 376.04351563 662.22203125 375.55078125 662.8515625 C359.89059601 682.50531934 333.36942363 694.40130502 309 698 C286.41784692 699.40416379 265.2504192 697.83746572 245 687 C244.09636719 686.56171875 243.19273437 686.1234375 242.26171875 685.671875 C217.23192361 673.06642101 199.80587262 650.21133969 190.58984375 624.1484375 C188.86524616 618.77066007 187.72525291 613.60676288 187 608 C185.56333984 609.10794922 185.56333984 609.10794922 184.09765625 610.23828125 C170.03628688 620.98972716 155.44112235 630.51329627 139.88818359 638.96337891 C138.11709222 639.93571586 136.36440428 640.94136363 134.61328125 641.94921875 C97.82238735 662.63098693 55.59151698 672.34893953 14 677 C12.71730225 677.15795044 12.71730225 677.15795044 11.40869141 677.3190918 C1.73206591 678.38615744 -8.02784562 678.19871224 -17.75 678.1875 C-18.71219452 678.18689575 -19.67438904 678.1862915 -20.66574097 678.18566895 C-34.8701097 678.16141957 -48.9020894 677.88161943 -63 676 C-63.97437012 675.87641113 -64.94874023 675.75282227 -65.95263672 675.62548828 C-105.05760219 670.55370766 -142.40138022 659.96890351 -178 643 C-178.90024902 642.57332031 -179.80049805 642.14664063 -180.72802734 641.70703125 C-210.85533148 627.32117436 -238.38844601 608.57272704 -263 586 C-264.00481125 585.08810393 -265.0100346 584.17666179 -266.015625 583.265625 C-327.75099046 527.20964133 -363.57363133 446.67622993 -370 364 C-370.08685059 362.88584717 -370.17370117 361.77169434 -370.26318359 360.6237793 C-371.05679363 349.35437431 -371.24282302 338.10772804 -371.25 326.8125 C-371.25067474 325.84845245 -371.25134949 324.88440491 -371.25204468 323.8911438 C-371.17195924 251.40933445 -348.9914 177.94381606 -302.32568359 121.60205078 C-301.44961759 120.54335002 -300.5799998 119.47927649 -299.71728516 118.40966797 C-292.95431534 110.02563091 -285.52705384 102.32105171 -277.9375 94.6875 C-277.02766357 93.76839844 -276.11782715 92.84929687 -275.18041992 91.90234375 C-269.09237983 85.84221789 -262.71440113 80.35050742 -256 75 C-254.8143983 74.01177015 -253.63160182 73.0201531 -252.453125 72.0234375 C-186.66180331 17.21425251 -85.50186008 -16.84510071 0 0 Z " fill="#000039" transform="translate(462,620)"/>
<path d="M0 0 C51.48 0 102.96 0 156 0 C156 244.2 156 488.4 156 740 C104.52 740 53.04 740 0 740 C0 495.8 0 251.6 0 0 Z " fill="#EF3931" transform="translate(2467,602)"/>
<path d="M0 0 C17.16 0 34.32 0 52 0 C52 244.2 52 488.4 52 740 C34.84 740 17.68 740 0 740 C0 495.8 0 251.6 0 0 Z " fill="#008E5A" transform="translate(2467,602)"/>
<path d="M0 0 C16.83 0 33.66 0 51 0 C51 244.2 51 488.4 51 740 C34.17 740 17.34 740 0 740 C0 495.8 0 251.6 0 0 Z " fill="#FCFDFD" transform="translate(2519,602)"/>
<path d="M0 0 C4.09635497 0.51481142 8.15458356 0.61307101 12.27954102 0.58178711 C13.00069092 0.58037216 13.72184082 0.57895721 14.46484375 0.57749939 C16.73645426 0.57196467 19.00796101 0.55942509 21.27954102 0.54663086 C22.83292499 0.5416074 24.38631054 0.53704598 25.93969727 0.53295898 C29.71971594 0.52287356 33.49951428 0.5032864 37.27954102 0.48413086 C37.27954102 6.42413086 37.27954102 12.36413086 37.27954102 18.48413086 C32.32954102 18.48413086 27.37954102 18.48413086 22.27954102 18.48413086 C22.75391602 19.37100586 23.22829102 20.25788086 23.71704102 21.17163086 C27.66451191 30.45758619 26.9880057 41.42721371 23.42797852 50.70288086 C20.39119683 57.31960843 16.1695373 61.30119797 9.73266602 64.58959961 C1.88317657 67.45191343 -5.86574251 67.82397922 -14.14233398 67.87475586 C-18.91594482 67.87305481 -18.91594482 67.87305481 -22.73999023 70.39819336 C-24.58571359 74.31823693 -24.58571359 74.31823693 -24.22045898 78.53881836 C-22.76606181 80.85398589 -22.76606181 80.85398589 -19.32592773 81.24194336 C-17.85493004 81.3828793 -16.38193503 81.50381337 -14.90795898 81.60913086 C-14.11768311 81.68276855 -13.32740723 81.75640625 -12.51318359 81.83227539 C-9.00902501 82.15415909 -5.50149614 82.4242877 -1.99291992 82.69311523 C24.09516377 84.71343575 24.09516377 84.71343575 30.77954102 91.67163086 C36.68135156 99.75677016 37.24811611 108.72219989 36.27954102 118.48413086 C34.4751818 126.5680679 31.13034962 133.31378095 24.09204102 137.91381836 C14.88411696 142.90144389 4.66482537 144.94375834 -5.72045898 145.48413086 C-6.46166992 145.52538086 -7.20288086 145.56663086 -7.96655273 145.60913086 C-21.49125991 145.97404707 -37.24771898 144.86846392 -48.22045898 136.29663086 C-53.87525879 130.82723433 -54.85299584 124.94980033 -55.03295898 117.29663086 C-54.67499216 106.39241082 -49.34568157 99.90780571 -41.72045898 92.48413086 C-42.35983398 91.67975586 -42.99920898 90.87538086 -43.65795898 90.04663086 C-46.28100153 86.05585899 -46.93158829 82.22281079 -46.72045898 77.48413086 C-45.56409045 72.134823 -43.30820535 67.28994555 -40.72045898 62.48413086 C-41.77233398 61.72100586 -42.82420898 60.95788086 -43.90795898 60.17163086 C-49.30925428 55.55916571 -51.67387846 49.26792198 -53.53295898 42.54663086 C-54.22678659 31.21411329 -54.4266317 19.64822814 -46.72045898 10.48413086 C-39.6919326 2.7578573 -30.54249819 -0.68634239 -20.20092773 -1.49633789 C-13.44234442 -1.54955508 -6.68910785 -0.92749425 0 0 Z M-29.65795898 22.67163086 C-32.35356112 29.80704827 -32.34946157 37.29646369 -29.72045898 44.48413086 C-26.18551026 48.30569705 -22.04841805 50.20798675 -16.88842773 50.82006836 C-10.35555961 50.90568917 -4.96774236 50.68699093 0.27954102 46.48413086 C4.24754887 41.93543893 4.53090748 38.91238636 4.21704102 32.92163086 C3.39561489 25.17514656 3.39561489 25.17514656 -1.27514648 19.24584961 C-10.20614036 13.85390102 -22.62278982 14.72869793 -29.65795898 22.67163086 Z M-30.72045898 104.98413086 C-33.12076861 109.31695815 -33.27918547 112.61522865 -32.72045898 117.48413086 C-32.63280273 118.34006836 -32.54514648 119.19600586 -32.45483398 120.07788086 C-31.94265373 122.57582 -31.94265373 122.57582 -29.98999023 123.84741211 C-19.45225937 127.91842737 -6.1248427 128.40469396 4.81860352 125.56616211 C8.67187937 123.81002311 10.83121298 122.04774325 13.46704102 118.73413086 C14.54244983 114.4324956 14.65703446 110.73348943 13.27954102 106.48413086 C7.34675355 101.35307143 -1.12880635 101.96189487 -8.58129883 101.60131836 C-10.74218697 101.48294056 -12.8952247 101.31160013 -15.05249023 101.14038086 C-23.77596982 100.37913307 -23.77596982 100.37913307 -30.72045898 104.98413086 Z " fill="#000039" transform="translate(1136.720458984375,830.515869140625)"/>
<path d="M0 0 C14.52 0 29.04 0 44 0 C47.1728128 11.42212609 50.26460146 22.81182806 53.07421875 34.3203125 C53.44358353 35.82401283 53.81321464 37.32764776 54.18309021 38.83122253 C55.15504095 42.78481773 56.12390352 46.73916283 57.09201813 50.69369888 C58.69379342 57.23360924 60.30091019 63.77221096 61.90753937 70.31093025 C62.30453934 71.92681188 62.70142587 73.54272138 63.09819794 75.15865898 C65.50515194 84.96051702 67.93033832 94.75726457 70.40234375 104.54296875 C70.76518715 105.98119995 70.76518715 105.98119995 71.13536072 107.44848633 C72.20328458 111.67775423 73.27658077 115.9055506 74.3581543 120.13134766 C74.72068888 121.56278791 75.08308583 122.99426304 75.4453125 124.42578125 C75.74969238 125.61598877 76.05407227 126.80619629 76.36767578 128.0324707 C77 131 77 131 77 135 C69.41 135 61.82 135 54 135 C51.69 125.76 49.38 116.52 47 107 C30.5 107 14 107 -3 107 C-5.31 116.24 -7.62 125.48 -10 135 C-17.59 135 -25.18 135 -33 135 C-31.83005517 128.56530344 -30.68215932 122.28309226 -29.09570312 115.96630859 C-28.91622981 115.23981582 -28.7367565 114.51332304 -28.5518446 113.76481533 C-27.96482456 111.3918887 -27.37305156 109.02017569 -26.78125 106.6484375 C-26.36213532 104.95781676 -25.94334473 103.26711565 -25.52485657 101.57633972 C-24.41502086 97.09561662 -23.30123754 92.615884 -22.18664932 88.13634109 C-21.0409386 83.52889739 -19.89874795 78.92058179 -18.7565918 74.31225586 C-18.53125228 73.40306617 -18.30591276 72.49387648 -18.07374477 71.55713558 C-17.62143403 69.73210852 -17.16914149 67.90707694 -16.71686745 66.08204079 C-16.04550622 63.37351835 -15.37369816 60.66510704 -14.701828 57.95671082 C-12.2768195 48.17788265 -9.86528211 38.39609797 -7.48828125 28.60546875 C-7.24709564 27.61214539 -7.00591003 26.61882202 -6.75741577 25.59539795 C-5.71065884 21.27921675 -4.66789654 16.96209976 -3.62890625 12.64404297 C-3.27997013 11.20149202 -2.93101354 9.75894603 -2.58203125 8.31640625 C-2.29561768 7.12474854 -2.0092041 5.93309082 -1.71411133 4.70532227 C-1 2 -1 2 0 0 Z M18 19 C15.37850163 26.42005566 13.46488143 33.91416369 11.64453125 41.56640625 C11.33803146 42.84104233 11.03153168 44.11567841 10.71574402 45.42893982 C9.90839156 48.78665819 9.10574581 52.14548383 8.30413818 55.50457764 C7.48233982 58.94450011 6.65605093 62.38334355 5.83007812 65.82226562 C4.21524053 72.54704099 2.60781207 79.27352598 1 86 C14.86 86 28.72 86 43 86 C37.82017439 63.62756171 32.46157257 41.30499526 27 19 C24.03 19 21.06 19 18 19 Z " fill="#000039" transform="translate(997,795)"/>
<path d="M0 0 C1.68391846 0.00410889 1.68391846 0.00410889 3.40185547 0.00830078 C17.36773895 0.17892736 31.3055128 1.69174585 44.8125 5.3125 C44.83948422 7.75007413 44.85933099 10.18734915 44.875 12.625 C44.88337891 13.31529297 44.89175781 14.00558594 44.90039062 14.71679688 C44.91557906 17.8608025 44.81443327 20.30670019 43.8125 23.3125 C41.29161765 23.16747984 38.77079531 23.02152022 36.25 22.875 C35.09395264 22.80841187 35.09395264 22.80841187 33.91455078 22.74047852 C29.00168211 22.45365087 24.09534453 22.11431508 19.1875 21.75 C-1.4415644 20.04232837 -1.4415644 20.04232837 -20.1875 27.3125 C-28.81348303 35.44556972 -29.81728378 49.6900981 -30.296875 60.85986328 C-31.28738185 87.42116218 -31.28738185 87.42116218 -22.125 111.75 C-13.50288426 119.27142011 -2.80966455 118.82177134 8 118.5625 C12.888125 118.48 17.77625 118.3975 22.8125 118.3125 C22.8125 107.7525 22.8125 97.1925 22.8125 86.3125 C17.2025 86.3125 11.5925 86.3125 5.8125 86.3125 C5.8125 79.7125 5.8125 73.1125 5.8125 66.3125 C18.6825 66.3125 31.5525 66.3125 44.8125 66.3125 C44.8125 89.0825 44.8125 111.8525 44.8125 135.3125 C30.15169275 137.51162109 16.2179401 139.49624028 1.5 139.5625 C-0.2005957 139.5934375 -0.2005957 139.5934375 -1.93554688 139.625 C-15.22652607 139.68558566 -28.21610884 137.30279686 -38.47265625 128.30859375 C-55.94507937 110.052361 -54.79510853 81.40197813 -54.32373047 57.93847656 C-53.68098463 40.83084007 -49.95201881 22.27263706 -37 10.0625 C-26.18851403 1.48951553 -13.34137529 -0.06655561 0 0 Z " fill="#000039" transform="translate(1520.1875,988.6875)"/>
<path d="M0 0 C9.12235165 6.41360738 13.59225086 14.90557621 15.6640625 25.74609375 C19.02782463 46.95660426 19.71208928 70.09671958 6.86328125 88.296875 C4.39604231 91.0445816 2.22825809 92.33230495 -1.0859375 93.93359375 C-2.07078125 94.42214844 -3.055625 94.91070313 -4.0703125 95.4140625 C-11.4553001 98.42636007 -17.88684337 99.04162929 -25.7734375 98.93359375 C-26.66353516 98.93294922 -27.55363281 98.93230469 -28.47070312 98.93164062 C-34.22441802 98.89381489 -39.54064035 98.39001566 -45.3359375 97.74609375 C-45.3359375 111.27609375 -45.3359375 124.80609375 -45.3359375 138.74609375 C-52.5959375 138.74609375 -59.8559375 138.74609375 -67.3359375 138.74609375 C-67.3359375 92.21609375 -67.3359375 45.68609375 -67.3359375 -2.25390625 C-60.0759375 -2.25390625 -52.8159375 -2.25390625 -45.3359375 -2.25390625 C-45.3359375 -0.27390625 -45.3359375 1.70609375 -45.3359375 3.74609375 C-44.68109375 3.50375 -44.02625 3.26140625 -43.3515625 3.01171875 C-40.3510615 1.90983985 -37.3437384 0.82787876 -34.3359375 -0.25390625 C-33.30597656 -0.63546875 -32.27601563 -1.01703125 -31.21484375 -1.41015625 C-20.54003003 -5.21773312 -10.31838877 -5.53880066 0 0 Z M-35.1484375 17.68359375 C-35.91091797 17.86599609 -36.67339844 18.04839844 -37.45898438 18.23632812 C-41.50125986 19.19172281 -41.50125986 19.19172281 -45.3359375 20.74609375 C-45.35906633 28.16069317 -45.37685535 35.57528486 -45.38774967 42.98991299 C-45.39297732 46.43249723 -45.40007281 49.87505687 -45.41137695 53.31762695 C-45.42427985 57.27164418 -45.42916668 61.22565131 -45.43359375 65.1796875 C-45.43875504 66.42133163 -45.44391632 67.66297577 -45.44923401 68.94224548 C-45.44930954 70.08335281 -45.44938507 71.22446014 -45.44946289 72.40014648 C-45.4516835 73.41052475 -45.45390411 74.42090302 -45.45619202 75.4618988 C-45.59311355 77.71190229 -45.59311355 77.71190229 -44.3359375 78.74609375 C-34.0818323 80.54120789 -22.32831874 81.93723659 -13.3359375 75.74609375 C-6.74607604 69.5030671 -5.57954651 60.47773033 -5.1328125 51.80078125 C-4.91509393 40.12718277 -4.92888295 27.73968699 -13.3359375 18.74609375 C-20.36673957 14.00794453 -27.44263363 15.75213033 -35.1484375 17.68359375 Z " fill="#000039" transform="translate(1040.3359375,1029.25390625)"/>
<path d="M0 0 C7.73850859 8.28057804 7.91811546 19.75802057 7.99609375 30.4375 C8.01308823 31.63984787 8.0300827 32.84219574 8.04759216 34.08097839 C8.10049133 37.90158925 8.14093331 41.72219031 8.1796875 45.54296875 C8.22363794 49.38154694 8.27030699 53.22004219 8.32249451 57.05851746 C8.35441852 59.44233432 8.38131885 61.82622479 8.40272522 64.2101593 C8.41621506 65.28525253 8.4297049 66.36034576 8.44360352 67.46801758 C8.45311539 68.4142952 8.46262726 69.36057281 8.47242737 70.33552551 C8.52253133 72.87718999 8.52253133 72.87718999 9.6171875 75.73046875 C10.59945313 76.38402344 10.59945313 76.38402344 11.6015625 77.05078125 C14.36001215 79.34948929 14.39466653 81.09656301 14.8671875 84.60546875 C15.01671875 85.63414063 15.16625 86.6628125 15.3203125 87.72265625 C15.586497 90.41952551 15.67712141 93.023454 15.6171875 95.73046875 C6.70729295 96.2902527 -1.66655816 95.60850852 -9.265625 90.453125 C-12.6729888 89.29009492 -14.99420039 90.74103317 -18.2578125 92.04296875 C-29.69828491 96.55244222 -45.2893895 98.40766275 -57.1953125 94.23046875 C-63.47819309 91.06682746 -67.80202297 85.9745743 -70.2578125 79.41796875 C-73.15798824 68.89807662 -72.82220686 58.66348431 -69.1953125 48.35546875 C-63.90673343 40.69614734 -56.33041744 36.88696056 -47.29663086 35.13037109 C-43.99591244 34.6732909 -40.69886776 34.30745796 -37.3828125 33.98046875 C-36.27164062 33.85542969 -35.16046875 33.73039062 -34.015625 33.6015625 C-27.44713012 32.89834717 -20.98719989 32.56275011 -14.3828125 32.73046875 C-14.49775007 30.83399877 -14.62520892 28.93828543 -14.7578125 27.04296875 C-14.86222656 25.45935547 -14.86222656 25.45935547 -14.96875 23.84375 C-15.54880725 19.48237613 -16.10154827 16.77547149 -19.5859375 13.93359375 C-22.98768231 12.47027336 -25.43392191 12.39970695 -29.1328125 12.48046875 C-30.10202637 12.4969043 -30.10202637 12.4969043 -31.09082031 12.51367188 C-36.83023918 12.6399336 -42.56014561 12.99612252 -48.2878418 13.37182617 C-54.00157233 13.74064619 -59.65944164 13.81107961 -65.3828125 13.73046875 C-65.7128125 8.45046875 -66.0428125 3.17046875 -66.3828125 -2.26953125 C-63.23792975 -2.92030102 -60.09203156 -3.56525157 -56.9453125 -4.20703125 C-55.62756836 -4.48063477 -55.62756836 -4.48063477 -54.28320312 -4.75976562 C-37.62157863 -8.14127613 -14.03931263 -11.79651788 0 0 Z M-32.6328125 49.54296875 C-33.63441406 49.64834961 -33.63441406 49.64834961 -34.65625 49.75585938 C-40.19588657 50.43473641 -44.65806809 51.57635759 -48.234375 56.04296875 C-49.55406405 59.13122067 -49.78345596 61.37972369 -49.7578125 64.73046875 C-49.76554687 65.74109375 -49.77328125 66.75171875 -49.78125 67.79296875 C-49.24743563 71.72854132 -47.85847971 74.58272758 -44.6953125 77.04296875 C-38.34186546 78.93183138 -31.3919659 77.42360547 -25.0078125 76.29296875 C-24.20214844 76.15826172 -23.39648438 76.02355469 -22.56640625 75.88476562 C-18.35094094 75.2176339 -18.35094094 75.2176339 -14.3828125 73.73046875 C-14.3828125 65.48046875 -14.3828125 57.23046875 -14.3828125 48.73046875 C-20.64595584 48.73046875 -26.48324281 48.77123421 -32.6328125 49.54296875 Z " fill="#000039" transform="translate(1396.3828125,1032.26953125)"/>
<path d="M0 0 C6.214752 6.37829811 8.45256168 14.39300832 8.56445312 23.09814453 C8.58117065 24.20924591 8.59788818 25.32034729 8.6151123 26.46511841 C8.62868774 27.65483246 8.64226318 28.84454651 8.65625 30.0703125 C8.67465942 31.29910126 8.69306885 32.52789001 8.71203613 33.79391479 C8.79066458 39.0492082 8.85856023 44.3046273 8.92724609 49.56005859 C8.97892199 53.39687527 9.03617934 57.23358049 9.09375 61.0703125 C9.10732544 62.26407501 9.12090088 63.45783752 9.1348877 64.68777466 C9.15160522 65.79257172 9.16832275 66.89736877 9.18554688 68.03564453 C9.19807495 69.00873566 9.21060303 69.98182678 9.22351074 70.98440552 C9.27794979 73.57493699 9.27794979 73.57493699 10.375 76.4375 C11.02984375 76.88480469 11.6846875 77.33210937 12.359375 77.79296875 C15.00618062 79.95247489 15.12692448 81.41566113 15.625 84.75 C15.77453125 85.67425781 15.9240625 86.59851563 16.078125 87.55078125 C16.38492433 90.53400102 16.42811903 93.44070128 16.375 96.4375 C7.46510545 96.99728395 -0.90874566 96.31553977 -8.5078125 91.16015625 C-11.9151763 89.99712617 -14.23638789 91.44806442 -17.5 92.75 C-25.36016224 95.8482281 -32.1402694 96.63781364 -40.5 96.6875 C-41.35980469 96.708125 -42.21960937 96.72875 -43.10546875 96.75 C-51.37628809 96.80020224 -57.88553177 94.86022091 -64.0859375 89.18359375 C-71.8576096 80.36649368 -71.34379725 68.83885247 -70.84277344 57.78320312 C-70.29122757 51.84233688 -67.95968408 47.75227206 -63.79296875 43.62109375 C-55.73876824 37.02840497 -46.80244738 35.80119878 -36.75 34.75 C-35.62980469 34.62044922 -34.50960937 34.49089844 -33.35546875 34.35742188 C-26.75058322 33.62911186 -20.26865026 33.25989747 -13.625 33.4375 C-13.73943603 31.3535597 -13.86695547 29.27033507 -14 27.1875 C-14.10441406 25.44726562 -14.10441406 25.44726562 -14.2109375 23.671875 C-14.68999895 19.74267564 -14.68999895 19.74267564 -16.625 16.4375 C-22.29310487 12.10756491 -28.83647388 13.33436997 -35.5625 13.75 C-37.98427184 13.87185934 -40.40614799 13.99166382 -42.828125 14.109375 C-43.99408203 14.16931641 -45.16003906 14.22925781 -46.36132812 14.29101562 C-52.45532183 14.56453419 -58.52626753 14.50307777 -64.625 14.4375 C-64.955 9.1575 -65.285 3.8775 -65.625 -1.5625 C-62.16755628 -2.21341979 -58.70916493 -2.85834489 -55.25 -3.5 C-54.28449219 -3.68240234 -53.31898438 -3.86480469 -52.32421875 -4.05273438 C-34.80371408 -7.28638457 -15.94340978 -9.49012487 0 0 Z M-30.8125 50.25 C-31.59302734 50.32025391 -32.37355469 50.39050781 -33.17773438 50.46289062 C-39.13612522 51.09461145 -43.66542137 52.68600564 -47.625 57.4375 C-49.36484917 62.65704752 -49.54199243 68.2825678 -47.375 73.375 C-44.86274274 76.3513856 -44.86274274 76.3513856 -41.625 78.4375 C-35.65837763 78.71258028 -30.11635931 78.03893513 -24.25 77 C-23.44433594 76.86529297 -22.63867188 76.73058594 -21.80859375 76.59179688 C-17.59312844 75.92466515 -17.59312844 75.92466515 -13.625 74.4375 C-13.625 66.1875 -13.625 57.9375 -13.625 49.4375 C-19.51576997 49.4375 -25.00241828 49.63149172 -30.8125 50.25 Z " fill="#000039" transform="translate(2235.625,835.5625)"/>
<path d="M0 0 C10.9815815 -0.19987889 21.82707427 0.38013161 30.53125 7.7734375 C38.80997592 16.24267804 39.01267888 27.01132607 38.921875 38.26953125 C38.93437335 40.76302351 38.94740979 43.25651312 38.9609375 45.75 C38.96488313 49.6408817 38.96080538 53.53150552 38.94628906 57.42236328 C38.93774255 61.20514297 38.95934204 64.98684654 38.984375 68.76953125 C38.97103119 69.93414886 38.95768738 71.09876648 38.94393921 72.29867554 C38.89363191 78.77073715 38.89363191 78.77073715 42.06567383 84.20947266 C42.89736084 84.84030762 43.72904785 85.47114258 44.5859375 86.12109375 C45.51171875 89.05859375 45.51171875 89.05859375 45.8984375 92.12109375 C46.03894531 93.13171875 46.17945313 94.14234375 46.32421875 95.18359375 C46.56187063 97.85097011 46.6400425 100.44535549 46.5859375 103.12109375 C37.67604295 103.6808777 29.30219184 102.99913352 21.703125 97.84375 C18.2957612 96.68071992 15.97454961 98.13165817 12.7109375 99.43359375 C1.27046509 103.94306722 -14.3206395 105.79828775 -26.2265625 101.62109375 C-32.4805579 98.47199713 -36.81657138 93.38947943 -39.2890625 86.87109375 C-42.13458128 76.58480849 -42.67632775 64.95604694 -37.6640625 55.24609375 C-32.27611126 47.76282814 -25.30843159 44.27061221 -16.32568359 42.51879883 C-13.02567516 42.0637545 -9.72914637 41.69798717 -6.4140625 41.37109375 C-5.30289062 41.24605469 -4.19171875 41.12101563 -3.046875 40.9921875 C3.52161988 40.28897217 9.98155011 39.95337511 16.5859375 40.12109375 C16.47099993 38.22462377 16.34354108 36.32891043 16.2109375 34.43359375 C16.10652344 32.84998047 16.10652344 32.84998047 16 31.234375 C15.40258909 26.74252129 14.91056532 24.16873363 11.26953125 21.2890625 C5.69309436 19.52092397 0.43769413 20.07585073 -5.3515625 20.43359375 C-7.77333434 20.55545309 -10.19521049 20.67525757 -12.6171875 20.79296875 C-13.78314453 20.85291016 -14.94910156 20.91285156 -16.15039062 20.97460938 C-22.24438433 21.24812794 -28.31533003 21.18667152 -34.4140625 21.12109375 C-34.7440625 15.84109375 -35.0740625 10.56109375 -35.4140625 5.12109375 C-11.8699558 0.42101674 -11.8699558 0.42101674 0 0 Z M-1.1015625 56.93359375 C-1.82150391 57.00384766 -2.54144531 57.07410156 -3.28320312 57.14648438 C-8.88688591 57.78500794 -13.57591882 58.82535312 -17.265625 63.43359375 C-18.58531405 66.52184567 -18.81470596 68.77034869 -18.7890625 72.12109375 C-18.79679687 73.13171875 -18.80453125 74.14234375 -18.8125 75.18359375 C-18.35278915 78.57283452 -17.49020654 80.41553047 -15.4140625 83.12109375 C-9.77532805 87.3254133 -0.36891043 84.52820613 6.1015625 83.63671875 C11.50453831 82.91406949 11.50453831 82.91406949 16.5859375 81.12109375 C16.5859375 72.87109375 16.5859375 64.62109375 16.5859375 56.12109375 C10.55089032 56.12109375 4.85029772 56.24579917 -1.1015625 56.93359375 Z " fill="#000039" transform="translate(1556.4140625,828.87890625)"/>
<path d="M0 0 C7.0650486 6.26220217 10.39269001 12.61617589 11.28839111 22.03146362 C11.42328324 25.39743671 11.46714789 28.75245529 11.4765625 32.12109375 C11.49214203 33.34280777 11.50772156 34.56452179 11.52377319 35.82325745 C11.5709955 39.69466587 11.59897241 43.56589616 11.625 47.4375 C11.66151667 51.33397331 11.702096 55.23034616 11.74765015 59.12672424 C11.77483802 61.54393097 11.79620604 63.96121158 11.81118774 66.37852478 C11.82144989 67.46718338 11.83171204 68.55584198 11.84228516 69.67749023 C11.85202866 71.11450539 11.85202866 71.11450539 11.86196899 72.58055115 C11.90229599 75.14302016 11.90229599 75.14302016 13 78 C13.98226563 78.65355469 13.98226563 78.65355469 14.984375 79.3203125 C17.74282465 81.61902054 17.77747903 83.36609426 18.25 86.875 C18.39953125 87.90367187 18.5490625 88.93234375 18.703125 89.9921875 C18.9693095 92.68905676 19.05993391 95.29298525 19 98 C10.09010545 98.55978395 1.71625434 97.87803977 -5.8828125 92.72265625 C-9.2901763 91.55962617 -11.61138789 93.01056442 -14.875 94.3125 C-26.31547241 98.82197347 -41.906577 100.677194 -53.8125 96.5 C-60.1488014 93.30945954 -64.22254758 88.44237548 -66.66015625 81.8515625 C-68.20959912 76.9003582 -68.53870384 72.22747795 -68.5 67.0625 C-68.49500488 66.18585693 -68.49000977 65.30921387 -68.48486328 64.40600586 C-68.25466922 55.87215625 -66.16022226 50.38070288 -60.3125 44.125 C-52.02484355 38.8083902 -43.68924075 37.20543557 -34 36.25 C-32.88882812 36.12496094 -31.77765625 35.99992188 -30.6328125 35.87109375 C-24.06431762 35.16787842 -17.60438739 34.83228136 -11 35 C-11.11493757 33.10353002 -11.24239642 31.20781668 -11.375 29.3125 C-11.47941406 27.72888672 -11.47941406 27.72888672 -11.5859375 26.11328125 C-12.18334841 21.62142754 -12.67537218 19.04763988 -16.31640625 16.16796875 C-21.89284314 14.39983022 -27.14824337 14.95475698 -32.9375 15.3125 C-35.35927184 15.43435934 -37.78114799 15.55416382 -40.203125 15.671875 C-41.36908203 15.73181641 -42.53503906 15.79175781 -43.73632812 15.85351562 C-49.83032183 16.12703419 -55.90126753 16.06557777 -62 16 C-62.33 10.72 -62.66 5.44 -63 0 C-59.54255628 -0.65091979 -56.08416493 -1.29584489 -52.625 -1.9375 C-51.65949219 -2.11990234 -50.69398437 -2.30230469 -49.69921875 -2.49023438 C-33.50480258 -5.47913669 -15.13538316 -8.01284991 0 0 Z M-28.125 51.8125 C-28.89714844 51.88275391 -29.66929688 51.95300781 -30.46484375 52.02539062 C-35.21191737 52.53082862 -38.8596163 53.44381799 -43 56 C-46.82905789 61.10541052 -46.69095969 66.8747357 -46 73 C-44.76669872 76.02158813 -43.84362995 77.34384337 -41.3125 79.3125 C-34.95905296 81.20136263 -28.0091534 79.69313672 -21.625 78.5625 C-20.81933594 78.42779297 -20.01367188 78.29308594 -19.18359375 78.15429688 C-14.96812844 77.48716515 -14.96812844 77.48716515 -11 76 C-11 67.75 -11 59.5 -11 51 C-16.87292334 51 -22.33439678 51.19242697 -28.125 51.8125 Z " fill="#000039" transform="translate(1841,834)"/>
<path d="M0 0 C5.77198894 5.28868843 7.57829949 13.54909873 8.29205322 21.08251953 C8.42204312 24.39098243 8.46708899 27.68902299 8.4765625 31 C8.49214203 32.19810303 8.50772156 33.39620605 8.52377319 34.63061523 C8.57092603 38.42040443 8.59895197 42.2100122 8.625 46 C8.66152616 49.81842576 8.70210019 53.63674939 8.74765015 57.45507812 C8.7748242 59.8222044 8.79619818 62.18940584 8.81118774 64.55664062 C8.82144989 65.62205078 8.83171204 66.68746094 8.84228516 67.78515625 C8.84878082 68.72238525 8.85527649 69.65961426 8.86196899 70.62524414 C8.90521071 73.15004263 8.90521071 73.15004263 10 76 C10.98226563 76.65355469 10.98226563 76.65355469 11.984375 77.3203125 C14.74282465 79.61902054 14.77747903 81.36609426 15.25 84.875 C15.39953125 85.90367187 15.5490625 86.93234375 15.703125 87.9921875 C15.9693095 90.68905676 16.05993391 93.29298525 16 96 C7.09010545 96.55978395 -1.28374566 95.87803977 -8.8828125 90.72265625 C-12.2901763 89.55962617 -14.61138789 91.01056442 -17.875 92.3125 C-29.31547241 96.82197347 -44.906577 98.677194 -56.8125 94.5 C-63.1488014 91.30945954 -67.22254758 86.44237548 -69.66015625 79.8515625 C-71.20959912 74.9003582 -71.53870384 70.22747795 -71.5 65.0625 C-71.49500488 64.18585693 -71.49000977 63.30921387 -71.48486328 62.40600586 C-71.25466922 53.87215625 -69.16022226 48.38070288 -63.3125 42.125 C-55.02484355 36.8083902 -46.68924075 35.20543557 -37 34.25 C-35.88882812 34.12496094 -34.77765625 33.99992188 -33.6328125 33.87109375 C-27.06431762 33.16787842 -20.60438739 32.83228136 -14 33 C-14.11493757 31.10353002 -14.24239642 29.20781668 -14.375 27.3125 C-14.47941406 25.72888672 -14.47941406 25.72888672 -14.5859375 24.11328125 C-15.18334841 19.62142754 -15.67537218 17.04763988 -19.31640625 14.16796875 C-24.89284314 12.39983022 -30.14824337 12.95475698 -35.9375 13.3125 C-38.35927184 13.43435934 -40.78114799 13.55416382 -43.203125 13.671875 C-44.36908203 13.73181641 -45.53503906 13.79175781 -46.73632812 13.85351562 C-52.83032183 14.12703419 -58.90126753 14.06557777 -65 14 C-65.33 8.72 -65.66 3.44 -66 -2 C-62.54255628 -2.65091979 -59.08416493 -3.29584489 -55.625 -3.9375 C-54.65949219 -4.11990234 -53.69398437 -4.30230469 -52.69921875 -4.49023438 C-35.292041 -7.70296852 -15.53290461 -10.36448262 0 0 Z M-31.6875 49.8125 C-32.40744141 49.88275391 -33.12738281 49.95300781 -33.86914062 50.02539062 C-39.47282341 50.66391419 -44.16185632 51.70425937 -47.8515625 56.3125 C-49.17125155 59.40075192 -49.40064346 61.64925494 -49.375 65 C-49.38273437 66.010625 -49.39046875 67.02125 -49.3984375 68.0625 C-48.86462313 71.99807257 -47.47566721 74.85225883 -44.3125 77.3125 C-37.95905296 79.20136263 -31.0091534 77.69313672 -24.625 76.5625 C-23.81933594 76.42779297 -23.01367188 76.29308594 -22.18359375 76.15429688 C-17.96812844 75.48716515 -17.96812844 75.48716515 -14 74 C-14 65.75 -14 57.5 -14 49 C-20.03504718 49 -25.73563978 49.12470542 -31.6875 49.8125 Z " fill="#000039" transform="translate(2034,836)"/>
<path d="M0 0 C9.66530184 7.37120296 12.69214801 17.72261597 14.50390625 29.234375 C15.07675478 33.58261106 15.33824748 37.6342477 15 42 C14.93425781 42.97324219 14.86851563 43.94648437 14.80078125 44.94921875 C14.18654514 52.81345486 14.18654514 52.81345486 13 54 C11.1281906 54.09386381 9.2528194 54.11743804 7.37866211 54.11352539 C6.17749252 54.11344986 4.97632294 54.11337433 3.73875427 54.11329651 C2.4314888 54.10813522 1.12422333 54.10297394 -0.22265625 54.09765625 C-1.56644132 54.09579198 -2.91022707 54.09436812 -4.25401306 54.09336853 C-7.79682277 54.08954402 -11.3395917 54.07971432 -14.88238525 54.06866455 C-18.49515227 54.05844899 -22.10792584 54.0538706 -25.72070312 54.04882812 C-32.8138188 54.03809198 -39.90690674 54.02101636 -47 54 C-46.69314506 55.76225096 -46.38252322 57.52384627 -46.0703125 59.28515625 C-45.89773926 60.26621338 -45.72516602 61.24727051 -45.54736328 62.25805664 C-44.71390617 66.43314889 -43.88820383 69.67569415 -40.2734375 72.2109375 C-33.17125421 76.07737705 -25.90337841 76.14751342 -18.00390625 75.87890625 C-17.17036118 75.85529526 -16.3368161 75.83168427 -15.47801208 75.80735779 C-12.8393076 75.73133732 -10.2009435 75.6470516 -7.5625 75.5625 C-5.76368803 75.50921746 -3.9648599 75.45647759 -2.16601562 75.40429688 C2.22293237 75.27681706 6.6113231 75.13814237 11 75 C11 80.61 11 86.22 11 92 C8.545625 92.474375 6.09125 92.94875 3.5625 93.4375 C2.80912354 93.58501709 2.05574707 93.73253418 1.27954102 93.88452148 C-8.08777361 95.66653728 -17.28016952 96.22951395 -26.8125 96.3125 C-28.46088867 96.35600586 -28.46088867 96.35600586 -30.14257812 96.40039062 C-41.86387495 96.49018253 -51.38686719 93.85216353 -59.87109375 85.55859375 C-70.57920663 72.68921038 -71.05512804 52.92950243 -70 37 C-68.56904367 24.03792053 -65.46471536 11.4828818 -56 2 C-40.44614227 -10.34604305 -16.53691707 -10.46781283 0 0 Z M-42.75 17.75 C-47.28619291 24.30227865 -47 28.86956555 -47 37 C-33.8 37 -20.6 37 -7 37 C-7.29386398 24.19261928 -7.29386398 24.19261928 -14 15.1875 C-18.37965749 11.99399974 -21.49812025 11.8179154 -26.8125 11.75 C-28.01519531 11.72421875 -29.21789063 11.6984375 -30.45703125 11.671875 C-35.82630504 12.16913961 -38.97073896 13.97073896 -42.75 17.75 Z " fill="#000039" transform="translate(1890,1032)"/>
<path d="M0 0 C8.90722255 7.28772754 13.24659356 17.36626754 14.6875 28.5625 C15.38629228 36.70556921 15.17074947 44.90592959 14 53 C13 54 13 54 10.60191345 54.12025452 C9.53824051 54.11803391 8.47456757 54.11581329 7.37866211 54.11352539 C6.17749252 54.11344986 4.97632294 54.11337433 3.73875427 54.11329651 C2.4314888 54.10813522 1.12422333 54.10297394 -0.22265625 54.09765625 C-1.56644132 54.09579198 -2.91022707 54.09436812 -4.25401306 54.09336853 C-7.79682277 54.08954402 -11.3395917 54.07971432 -14.88238525 54.06866455 C-18.49515227 54.05844899 -22.10792584 54.0538706 -25.72070312 54.04882812 C-32.8138188 54.03809198 -39.90690674 54.02101636 -47 54 C-46.62828452 56.23331495 -46.22655905 58.46164665 -45.8125 60.6875 C-45.59207031 61.92886719 -45.37164063 63.17023438 -45.14453125 64.44921875 C-43.59413941 69.25913747 -41.07656753 71.90706972 -36.625 74.25 C-30.41172263 76.02522211 -24.39206495 76.09612396 -18.00390625 75.87890625 C-17.17036118 75.85529526 -16.3368161 75.83168427 -15.47801208 75.80735779 C-12.8393076 75.73133732 -10.2009435 75.6470516 -7.5625 75.5625 C-5.76368803 75.50921746 -3.9648599 75.45647759 -2.16601562 75.40429688 C2.22293237 75.27681706 6.6113231 75.13814237 11 75 C11 80.61 11 86.22 11 92 C8.545625 92.474375 6.09125 92.94875 3.5625 93.4375 C2.80912354 93.58501709 2.05574707 93.73253418 1.27954102 93.88452148 C-8.08777361 95.66653728 -17.28016952 96.22951395 -26.8125 96.3125 C-28.46088867 96.35600586 -28.46088867 96.35600586 -30.14257812 96.40039062 C-41.80041827 96.48969641 -51.41118182 93.87154918 -59.87109375 85.62890625 C-63.46111035 81.19572979 -65.31041057 76.40223987 -67 71 C-67.23203125 70.27683594 -67.4640625 69.55367187 -67.703125 68.80859375 C-72.90537048 50.41494009 -71.27562781 28.125952 -63 11 C-57.88981461 1.95318923 -49.73412253 -2.9680602 -40 -6 C-26.06793143 -8.78254906 -12.17858198 -7.47272561 0 0 Z M-42.75 17.8125 C-47.53784464 24.5952799 -47 28.1588045 -47 37 C-33.8 37 -20.6 37 -7 37 C-7.25108649 24.41364858 -7.25108649 24.41364858 -13.55078125 14.62890625 C-22.56313006 9.05167112 -35.43986957 10.33623024 -42.75 17.8125 Z " fill="#000039" transform="translate(1141,1032)"/>
<path d="M0 0 C9.48489578 9.7483651 12.402687 22.48080276 12.375 35.6875 C12.37886719 37.52441406 12.37886719 37.52441406 12.3828125 39.3984375 C12.23626871 43.71716929 11.72719863 48.01771236 11.25 52.3125 C-8.88 52.3125 -29.01 52.3125 -49.75 52.3125 C-47.37401069 64.12247218 -47.37401069 64.12247218 -44.75 70.3125 C-42.53223378 71.61764736 -42.53223378 71.61764736 -39.75 72.3125 C-38.71359375 72.65539062 -37.6771875 72.99828125 -36.609375 73.3515625 C-32.31564425 74.4206493 -28.58173661 74.57443916 -24.1875 74.5 C-22.98130005 74.49033203 -22.98130005 74.49033203 -21.75073242 74.48046875 C-11.74241347 74.35807792 -1.74345959 73.84646914 8.25 73.3125 C9.47517308 78.97892551 9.34228867 84.54958518 9.25 90.3125 C-3.19190379 93.18272291 -15.21136914 94.71729878 -28 94.75 C-29.81794067 94.76450195 -29.81794067 94.76450195 -31.67260742 94.77929688 C-42.66908611 94.67587933 -52.31312528 92.74729382 -60.75 85.3125 C-73.90421069 69.80316862 -72.86528472 48.45078573 -71.75 29.3125 C-70.36805869 17.33567533 -65.34605456 6.40082517 -55.875 -1.22265625 C-38.87369346 -12.94230689 -16.76802904 -10.28947237 0 0 Z M-43.75 14.3125 C-49.25716549 20.86156167 -49.75 26.98350507 -49.75 35.3125 C-36.55 35.3125 -23.35 35.3125 -9.75 35.3125 C-9.71704765 23.84558604 -9.71704765 23.84558604 -15.1875 14.375 C-22.96860672 8.11215801 -36.00207436 7.76980724 -43.75 14.3125 Z " fill="#000039" transform="translate(1254.75,837.6875)"/>
<path d="M0 0 C10.55749096 9.27575084 13.22757021 22.79431975 14.4453125 36.1484375 C15.35452073 52.00690212 14.5951676 70.74264145 4 83.47265625 C-2.65090936 90.64160126 -11.15807489 94.65116091 -20.95141602 95.30957031 C-50.88703501 95.81600549 -50.88703501 95.81600549 -62.5546875 85.1484375 C-75.05217349 71.35810813 -74.21309033 50.7836781 -73.73388672 33.41552734 C-73.06956679 21.30390698 -69.33428008 9.43721062 -60.4296875 0.8359375 C-44.28521687 -11.79262619 -16.58782984 -11.46156173 0 0 Z M-45.3671875 16.3359375 C-53.52009561 26.81824793 -52.54914762 42.66817304 -51.35253906 55.27880859 C-50.45785453 62.10710843 -49.04287994 67.83308595 -44.25 72.9140625 C-37.87841577 77.55328051 -30.03782656 76.7528143 -22.5546875 76.1484375 C-18.04641682 75.19358441 -15.57714508 73.67568523 -13.00390625 69.83203125 C-8.52768382 61.3713404 -8.37243009 53.81412516 -8.3671875 44.3984375 C-8.34881836 42.68527344 -8.34881836 42.68527344 -8.33007812 40.9375 C-8.31453386 31.92182467 -8.42285867 23.27461695 -14.5546875 16.1484375 C-24.10330856 9.20398582 -36.01768727 9.06410399 -45.3671875 16.3359375 Z " fill="#000039" transform="translate(1701.5546875,1032.8515625)"/>
<path d="M0 0 C7.56093396 5.15107453 10.96473118 13.24368125 12.8125 21.9375 C13.58602802 26.66503386 13.93494229 31.18599189 13.92602539 35.97436523 C13.92617142 36.63863022 13.92631744 37.3028952 13.9264679 37.98728943 C13.92577785 40.15692549 13.91802854 42.32647291 13.91015625 44.49609375 C13.90828884 46.01066542 13.90686646 47.52523769 13.90586853 49.03981018 C13.9020688 53.00668027 13.89226051 56.97351316 13.88116455 60.94036865 C13.87089546 64.99604794 13.86635918 69.0517333 13.86132812 73.10742188 C13.85063573 81.05080014 13.8330598 88.99414114 13.8125 96.9375 C6.5525 96.9375 -0.7075 96.9375 -8.1875 96.9375 C-8.20208252 95.0208252 -8.21666504 93.10415039 -8.23168945 91.12939453 C-8.28354892 84.76303221 -8.3488896 78.39691706 -8.42321491 72.03077888 C-8.46774851 68.17483781 -8.50704083 64.31899827 -8.53393555 60.46289062 C-8.56013995 56.73441451 -8.6006598 53.00633272 -8.65068626 49.27810287 C-8.66724015 47.86296406 -8.67882532 46.44775722 -8.68511391 45.03253555 C-8.38503231 31.87264328 -8.38503231 31.87264328 -13.65034485 20.24685669 C-17.97725765 16.56117004 -21.43093404 16.9375 -27.1875 16.9375 C-33.1275 18.2575 -39.0675 19.5775 -45.1875 20.9375 C-45.5175 46.0175 -45.8475 71.0975 -46.1875 96.9375 C-53.7775 96.9375 -61.3675 96.9375 -69.1875 96.9375 C-69.21004906 84.17715815 -69.22841395 71.41682943 -69.23931217 58.65647221 C-69.24454149 52.73199285 -69.25164001 46.80752778 -69.26293945 40.88305664 C-69.27376661 35.17077429 -69.27977647 29.45850572 -69.28237724 23.74621391 C-69.2842318 21.56161723 -69.287853 19.37702135 -69.29323006 17.1924305 C-69.30043821 14.14397651 -69.30149104 11.09558021 -69.30102539 8.04711914 C-69.30462067 7.13434204 -69.30821594 6.22156494 -69.31192017 5.28112793 C-69.30155216 -0.94844784 -69.30155216 -0.94844784 -68.1875 -2.0625 C-66.63794441 -2.16149523 -65.08396327 -2.19329524 -63.53125 -2.1953125 C-62.12166016 -2.19724609 -62.12166016 -2.19724609 -60.68359375 -2.19921875 C-59.69488281 -2.19535156 -58.70617188 -2.19148438 -57.6875 -2.1875 C-56.20443359 -2.19330078 -56.20443359 -2.19330078 -54.69140625 -2.19921875 C-53.75167969 -2.19792969 -52.81195312 -2.19664063 -51.84375 -2.1953125 C-50.97556641 -2.19418457 -50.10738281 -2.19305664 -49.21289062 -2.19189453 C-47.1875 -2.0625 -47.1875 -2.0625 -46.1875 -1.0625 C-46.14686168 0.60367115 -46.144779 2.27138095 -46.1875 3.9375 C-45.5076001 3.69515625 -44.8277002 3.4528125 -44.12719727 3.203125 C-41.00639891 2.10001334 -37.87846294 1.01867342 -34.75 -0.0625 C-33.14608398 -0.63484375 -33.14608398 -0.63484375 -31.50976562 -1.21875 C-20.72428497 -4.91285958 -10.29336532 -5.67504932 0 0 Z " fill="#000039" transform="translate(1991.1875,1029.0625)"/>
<path d="M0 0 C7.59 0 15.18 0 23 0 C23.01458252 2.01279053 23.02916504 4.02558105 23.04418945 6.09936523 C23.09470544 12.77705749 23.16132967 19.45452072 23.23571491 26.13198757 C23.28029169 30.17740799 23.31957505 34.22273063 23.34643555 38.26831055 C23.37259614 42.17832144 23.41308666 46.08795352 23.46318626 49.99772835 C23.47976931 51.48347292 23.49133659 52.96928288 23.49761391 54.45510674 C23.15580153 67.71944507 23.15580153 67.71944507 29 79.0625 C37.91124141 81.84726294 51.64596638 80.17701681 60 76 C60.33 50.92 60.66 25.84 61 0 C68.26 0 75.52 0 83 0 C83 32.67 83 65.34 83 99 C75.74 99 68.48 99 61 99 C60.67 97.35 60.34 95.7 60 94 C59.40687012 94.21205078 58.81374023 94.42410156 58.20263672 94.64257812 C30.1084222 104.53835332 30.1084222 104.53835332 15.41015625 98.390625 C9.424194 94.9368121 5.61868187 89.64683229 3.55078125 83.11328125 C0.19635294 70.24274427 -0.15455711 57.28987848 -0.09765625 44.04296875 C-0.0962413 42.77399246 -0.09482635 41.50501617 -0.09336853 40.19758606 C-0.08876507 36.87194787 -0.07982806 33.54638244 -0.06866455 30.22076416 C-0.05831753 26.80798969 -0.05384285 23.39520761 -0.04882812 19.98242188 C-0.03787667 13.32159246 -0.02065317 6.66080611 0 0 Z " fill="#000039" transform="translate(2094,1027)"/>
<path d="M0 0 C7.33663418 5.16803214 9.82630329 12.33685773 11.59542847 20.87297058 C13.005859 29.44661235 13.26277055 37.81537939 13.1953125 46.48828125 C13.19157049 47.92701519 13.18872916 49.36575171 13.18673706 50.80448914 C13.17919392 54.54445756 13.15962871 58.28426427 13.1373291 62.02416992 C13.11666672 65.85919 13.10769229 69.69423687 13.09765625 73.52929688 C13.07637138 81.01961262 13.04126852 88.50976282 13 96 C5.74 96 -1.52 96 -9 96 C-9.029729 93.26130615 -9.029729 93.26130615 -9.06005859 90.46728516 C-9.12813133 84.40032143 -9.20492772 78.33351585 -9.28752708 72.26673317 C-9.33723971 68.59241046 -9.38356941 64.91811308 -9.421875 61.24365234 C-9.45904729 57.69031334 -9.50548833 54.13720014 -9.55806351 50.58405685 C-9.58531505 48.58472908 -9.60323721 46.58528106 -9.62094116 44.58584595 C-9.50027374 30.97025536 -9.50027374 30.97025536 -15 19 C-25.09827618 12.81738193 -37.16979586 17.96933672 -48 20 C-48 45.08 -48 70.16 -48 96 C-55.26 96 -62.52 96 -70 96 C-70 63.33 -70 30.66 -70 -3 C-62.74 -3 -55.48 -3 -48 -3 C-48 -1.02 -48 0.96 -48 3 C-47.27522461 2.75241943 -46.55044922 2.50483887 -45.80371094 2.24975586 C-42.45985235 1.12228079 -39.10548709 0.02985694 -35.75 -1.0625 C-34.61046875 -1.45244141 -33.4709375 -1.84238281 -32.296875 -2.24414062 C-21.07538645 -5.84649348 -10.47423327 -5.93600395 0 0 Z " fill="#000039" transform="translate(2136,834)"/>
<path d="M0 0 C7.90936458 5.83833396 9.7462267 15.72572996 11.25390625 24.90625 C12.2026833 33.53340884 12.38865351 42.09349443 12.3515625 50.765625 C12.35014755 52.03601624 12.3487326 53.30640747 12.34727478 54.61529541 C12.3426663 57.94916801 12.33372451 61.28296847 12.3225708 64.61682129 C12.31223507 68.03620795 12.30775144 71.45560214 12.30273438 74.875 C12.29177418 81.55210533 12.27454589 88.22916786 12.25390625 94.90625 C4.99390625 94.90625 -2.26609375 94.90625 -9.74609375 94.90625 C-9.77582275 92.42617432 -9.77582275 92.42617432 -9.80615234 89.89599609 C-9.87447605 84.37587675 -9.95128591 78.855917 -10.03362083 73.335989 C-10.08314251 69.99582723 -10.12848719 66.65573397 -10.16796875 63.31542969 C-10.2141368 59.45751187 -10.2720414 55.59991231 -10.33203125 51.7421875 C-10.34358246 50.56764008 -10.35513367 49.39309265 -10.36703491 48.18295288 C-10.52832457 32.4582709 -10.52832457 32.4582709 -15.74609375 17.90625 C-19.2631928 15.30423328 -23.45073529 14.64450317 -27.74609375 15.03125 C-34.75771213 16.25828322 -41.74983839 17.59445212 -48.74609375 18.90625 C-48.74609375 43.98625 -48.74609375 69.06625 -48.74609375 94.90625 C-56.00609375 94.90625 -63.26609375 94.90625 -70.74609375 94.90625 C-70.74609375 62.23625 -70.74609375 29.56625 -70.74609375 -4.09375 C-63.48609375 -4.09375 -56.22609375 -4.09375 -48.74609375 -4.09375 C-48.74609375 -2.11375 -48.74609375 -0.13375 -48.74609375 1.90625 C-48.02131836 1.65866943 -47.29654297 1.41108887 -46.54980469 1.15600586 C-43.2059461 0.02853079 -39.85158084 -1.06389306 -36.49609375 -2.15625 C-35.3565625 -2.54619141 -34.21703125 -2.93613281 -33.04296875 -3.33789062 C-21.01342738 -7.1996468 -10.79482161 -6.76185694 0 0 Z " fill="#000039" transform="translate(1355.74609375,835.09375)"/>
<path d="M0 0 C24.09 0 48.18 0 73 0 C73 22.75490382 73 22.75490382 66.04199219 30.79614258 C65.52797852 31.30298584 65.01396484 31.8098291 64.484375 32.33203125 C60.80964882 36.11453571 57.70192912 40.20823706 54.5625 44.4375 C49.69721648 50.8619907 44.69270334 57.15834746 39.57641602 63.38452148 C35.62602934 68.19555327 31.82671825 73.07993368 28 78 C42.85 78.33 57.7 78.66 73 79 C73 85.6 73 92.2 73 99 C48.91 99 24.82 99 0 99 C0 75.99975509 0 75.99975509 8.515625 66.85546875 C11.40606929 63.67355788 14.14344294 60.40932868 16.8347168 57.05786133 C18.44049054 55.05877697 20.0649759 53.07604554 21.69140625 51.09375 C26.23754466 45.51015602 30.58017625 39.77222435 34.9296875 34.03515625 C38.25446249 29.66557283 41.62905855 25.33406758 45 21 C30.15 20.67 15.3 20.34 0 20 C0 13.4 0 6.8 0 0 Z " fill="#000039" transform="translate(1385,831)"/>
<path d="M0 0 C7.59 0 15.18 0 23 0 C24.83705225 5.51115675 26.49287852 10.62482703 27.80932617 16.21630859 C27.96582138 16.87604675 28.12231659 17.53578491 28.28355408 18.21551514 C28.79081623 20.35887413 29.29209019 22.50357858 29.79296875 24.6484375 C30.1471364 26.15302752 30.50157734 27.65755324 30.85627747 29.16201782 C31.59427078 32.29635746 32.32935146 35.43136116 33.06225586 38.56689453 C34.00196846 42.58637276 34.94845245 46.6042202 35.89701366 50.62161827 C36.627822 53.71963721 37.35537403 56.81841358 38.08190346 59.91743851 C38.42983692 61.40004098 38.77871682 62.88242167 39.12856102 64.36457443 C39.61526514 66.42898612 40.09764832 68.49436016 40.57885742 70.56005859 C40.85404709 71.73426361 41.12923676 72.90846863 41.4127655 74.11825562 C42 77 42 77 42 80 C43.98 80 45.96 80 48 80 C48.1528672 78.96662254 48.1528672 78.96662254 48.30882263 77.91236877 C49.64082276 69.39455651 51.57665023 61.07248254 53.66015625 52.71484375 C54.0139861 51.28195429 54.36744902 49.84897417 54.7205658 48.41590881 C55.45494045 45.43943042 56.19219679 42.46368775 56.93188477 39.48852539 C57.87961173 35.67649542 58.82226091 31.86323346 59.76307011 28.04949093 C60.66458596 24.3958594 61.56849612 20.74282163 62.47265625 17.08984375 C62.64412737 16.39628218 62.81559849 15.7027206 62.9922657 14.98814201 C63.47667802 13.03074863 63.96302481 11.0738343 64.44946289 9.11694336 C64.72544815 8.00508163 65.00143341 6.89321991 65.28578186 5.74766541 C65.78875386 3.8126841 66.36777113 1.89668662 67 0 C74.59 0 82.18 0 90 0 C87.29185831 12.4918657 84.30700076 24.86385163 81.05078125 37.22265625 C80.58787334 38.98810289 80.12516473 40.75360181 79.66264343 42.51914978 C78.70429548 46.17423666 77.74354918 49.8286818 76.78100586 53.48266602 C75.54559659 58.1733284 74.31647077 62.8656119 73.08906269 67.55837345 C72.14019741 71.1833945 71.1880778 74.80755445 70.2349453 78.43145561 C69.77979066 80.16362265 69.32566552 81.89606053 68.87258339 83.62877083 C68.24430465 86.02952593 67.61165677 88.42908615 66.9777832 90.82836914 C66.79129715 91.54455414 66.6048111 92.26073914 66.41267395 92.99862671 C65.11427448 97.88572552 65.11427448 97.88572552 64 99 C61.1156618 99.08865208 58.25537842 99.11521296 55.37109375 99.09765625 C54.07474754 99.09553383 54.07474754 99.09553383 52.75221252 99.09336853 C49.98060708 99.08775239 47.2090812 99.07519719 44.4375 99.0625 C42.5631522 99.05748708 40.68880315 99.05292381 38.81445312 99.04882812 C34.20960456 99.03777772 29.60481579 99.0205023 25 99 C22.18153506 88.01198124 19.36476666 77.02352908 16.55010509 66.03453541 C15.24279929 60.93077234 13.93493097 55.82715486 12.62573242 50.72387695 C11.36000274 45.78995236 10.09580904 40.85563645 8.83263588 35.92105675 C8.35280246 34.04767818 7.8724353 32.17443622 7.39150047 30.3013401 C4.80480835 20.22544559 2.2851671 10.1493167 0 0 Z " fill="#000039" transform="translate(1723,1027)"/>
<path d="M0 0 C7.26 0 14.52 0 22 0 C22 9.24 22 18.48 22 28 C30.91 28 39.82 28 49 28 C49 34.27 49 40.54 49 47 C40.09 47 31.18 47 22 47 C22.09692928 54.74158859 22.19966006 62.48264122 22.31738281 70.22387695 C22.35566345 72.85729261 22.39051789 75.49076038 22.421875 78.12426758 C22.4675447 81.90985746 22.52553726 85.69508878 22.5859375 89.48046875 C22.59748871 90.65772018 22.60903992 91.83497162 22.62094116 93.04789734 C22.64081085 94.14866104 22.66068054 95.24942474 22.68115234 96.38354492 C22.69447601 97.34951096 22.70779968 98.31547699 22.7215271 99.31071472 C23.04844055 102.46780303 23.68208959 105.68208959 26 108 C27.70563778 108.15740605 29.41727244 108.25093392 31.12890625 108.31640625 C32.68061523 108.37924805 32.68061523 108.37924805 34.26367188 108.44335938 C35.35228516 108.48267578 36.44089844 108.52199219 37.5625 108.5625 C38.65498047 108.60568359 39.74746094 108.64886719 40.87304688 108.69335938 C43.58186768 108.79981958 46.29091651 108.90044807 49 109 C49.495 117.91 49.495 117.91 50 127 C42.89359336 128.67209568 36.08562623 129.24284944 28.8125 129.3125 C27.96977539 129.32990234 27.12705078 129.34730469 26.25878906 129.36523438 C18.1891182 129.35890274 11.52559865 127.34747302 5.47265625 121.8046875 C0.50354155 115.71521537 -0.13000946 106.54433215 -0.11352539 98.99462891 C-0.11344986 97.83387848 -0.11337433 96.67312805 -0.11329651 95.47720337 C-0.10813522 94.23949188 -0.10297394 93.0017804 -0.09765625 91.7265625 C-0.0962413 90.44768158 -0.09482635 89.16880066 -0.09336853 87.85116577 C-0.08873022 84.46788664 -0.07976081 81.08467614 -0.06866455 77.70141602 C-0.05839515 74.24235626 -0.05385911 70.78328939 -0.04882812 67.32421875 C-0.03781609 60.5494579 -0.02056018 53.77473833 0 47 C-4.29 47 -8.58 47 -13 47 C-13 40.73 -13 34.46 -13 28 C-8.71 28 -4.42 28 0 28 C0 18.76 0 9.52 0 0 Z " fill="#000039" transform="translate(2032,999)"/>
<path d="M0 0 C7.26 0 14.52 0 22 0 C22 9.24 22 18.48 22 28 C30.91 28 39.82 28 49 28 C49 34.27 49 40.54 49 47 C40.09 47 31.18 47 22 47 C22.09707048 54.2777312 22.19988947 61.55491114 22.31738281 68.83227539 C22.35559992 71.30650926 22.39046533 73.78079731 22.421875 76.25512695 C22.46768303 79.81741665 22.52565242 83.37933569 22.5859375 86.94140625 C22.59748871 88.04271378 22.60903992 89.1440213 22.62094116 90.27870178 C22.5172577 99.81678213 22.5172577 99.81678213 26.82714844 107.91918945 C29.34835764 109.17327857 30.95964589 109.34692989 33.765625 109.29296875 C34.65507813 109.28330078 35.54453125 109.27363281 36.4609375 109.26367188 C37.38132812 109.23853516 38.30171875 109.21339844 39.25 109.1875 C40.18585938 109.17396484 41.12171875 109.16042969 42.0859375 109.14648438 C44.39121327 109.11119954 46.6953106 109.06190281 49 109 C49.82362937 115.0702133 50.0850298 120.87785437 50 127 C43.3808927 128.6884105 37.31993894 129.33731783 30.5 129.3125 C29.61441406 129.32861328 28.72882813 129.34472656 27.81640625 129.36132812 C20.59192963 129.36663244 14.46976585 128.0047536 8.1875 124.375 C-0.59899344 114.83537855 -0.30773877 100.20570373 -0.1953125 88.015625 C-0.1924826 86.83401794 -0.18965271 85.65241089 -0.18673706 84.43499756 C-0.17565209 80.70655659 -0.1505698 76.97836685 -0.125 73.25 C-0.11495509 70.7031285 -0.1058319 68.15625319 -0.09765625 65.609375 C-0.07575113 59.40615501 -0.0413033 53.20311992 0 47 C-3.96 47 -7.92 47 -12 47 C-12 40.73 -12 34.46 -12 28 C-8.04 28 -4.08 28 0 28 C0 18.76 0 9.52 0 0 Z " fill="#000039" transform="translate(1715,803)"/>
<path d="M0 0 C7.59 0 15.18 0 23 0 C23 45.87 23 91.74 23 139 C15.41 139 7.82 139 0 139 C0 93.13 0 47.26 0 0 Z " fill="#000039" transform="translate(1284,987)"/>
<path d="M0 0 C7.26 0 14.52 0 22 0 C22 45.87 22 91.74 22 139 C14.74 139 7.48 139 0 139 C0 93.13 0 47.26 0 0 Z " fill="#000039" transform="translate(1877,791)"/>
<path d="M0 0 C0 7.26 0 14.52 0 22 C-3.34119633 23.33647853 -6.40877627 24.47098729 -9.8359375 25.4375 C-10.73570313 25.69273438 -11.63546875 25.94796875 -12.5625 26.2109375 C-13.9546875 26.60152344 -13.9546875 26.60152344 -15.375 27 C-16.29539062 27.26039062 -17.21578125 27.52078125 -18.1640625 27.7890625 C-19.89467104 28.27857749 -21.62558983 28.76699805 -23.35693359 29.25390625 C-26.57339063 30.16185865 -29.78644176 31.0818405 -33 32 C-33 54.77 -33 77.54 -33 101 C-40.59 101 -48.18 101 -56 101 C-56.02254906 88.23965815 -56.04091395 75.47932943 -56.05181217 62.71897221 C-56.05704149 56.79449285 -56.06414001 50.87002778 -56.07543945 44.94555664 C-56.08626661 39.23327429 -56.09227647 33.52100572 -56.09487724 27.80871391 C-56.0967318 25.62411723 -56.100353 23.43952135 -56.10573006 21.2549305 C-56.11293821 18.20647651 -56.11399104 15.15808021 -56.11352539 12.10961914 C-56.11712067 11.19684204 -56.12071594 10.28406494 -56.12442017 9.34362793 C-56.11405216 3.11405216 -56.11405216 3.11405216 -55 2 C-53.45044441 1.90100477 -51.89646327 1.86920476 -50.34375 1.8671875 C-48.93416016 1.86525391 -48.93416016 1.86525391 -47.49609375 1.86328125 C-46.50738281 1.86714844 -45.51867188 1.87101562 -44.5 1.875 C-43.01693359 1.86919922 -43.01693359 1.86919922 -41.50390625 1.86328125 C-40.56417969 1.86457031 -39.62445312 1.86585937 -38.65625 1.8671875 C-37.78806641 1.86831543 -36.91988281 1.86944336 -36.02539062 1.87060547 C-34 2 -34 2 -33 3 C-32.76807135 4.51469448 -32.58784762 6.03754562 -32.4375 7.5625 C-32.31181641 8.80193359 -32.31181641 8.80193359 -32.18359375 10.06640625 C-32.12300781 10.70449219 -32.06242187 11.34257813 -32 12 C-30.99582031 11.46890625 -29.99164062 10.9378125 -28.95703125 10.390625 C-8.96882753 0 -8.96882753 0 0 0 Z " fill="#000039" transform="translate(1229,1025)"/>
<path d="M0 0 C7.26 0 14.52 0 22 0 C22 44.55 22 89.1 22 135 C14.74 135 7.48 135 0 135 C0 90.45 0 45.9 0 0 Z " fill="#000039" transform="translate(1663,795)"/>
<path d="M0 0 C7.26 0 14.52 0 22 0 C22 32.67 22 65.34 22 99 C14.74 99 7.48 99 0 99 C-0.68248702 92.85761683 -1.14515862 87.06364359 -1.12939453 80.93188477 C-1.13114685 80.0754689 -1.13289917 79.21905304 -1.13470459 78.33668518 C-1.1390656 75.53823758 -1.13620741 72.73985437 -1.1328125 69.94140625 C-1.13348676 67.98607878 -1.1344578 66.03075138 -1.13571167 64.07542419 C-1.13718046 59.99469193 -1.13505884 55.91398165 -1.13037109 51.83325195 C-1.12464772 46.59524335 -1.12797438 41.35728569 -1.13394356 36.11927891 C-1.13754872 32.08995679 -1.13641125 28.06064686 -1.13381577 24.03132439 C-1.13314774 22.09875419 -1.13397058 20.16618289 -1.13629532 18.23361397 C-1.13882395 15.54316369 -1.13497946 12.8527975 -1.12939453 10.16235352 C-1.13141876 9.36081848 -1.13344299 8.55928345 -1.13552856 7.73345947 C-1.1142698 2.22853959 -1.1142698 2.22853959 0 0 Z " fill="#000039" transform="translate(1477,831)"/>
<path d="M0 0 C7.26 0 14.52 0 22 0 C22 32.67 22 65.34 22 99 C14.74 99 7.48 99 0 99 C0 66.33 0 33.66 0 0 Z " fill="#000039" transform="translate(1587,1027)"/>
<path d="M0 0 C7.26 0 14.52 0 22 0 C22 32.67 22 65.34 22 99 C14.74 99 7.48 99 0 99 C0 66.33 0 33.66 0 0 Z " fill="#000039" transform="translate(1924,831)"/>
<path d="M0 0 C7.23149525 2.25740971 14.14011975 5.07511321 21.0925293 8.07861328 C22.9286837 8.87119442 24.76805018 9.65632051 26.60742188 10.44140625 C33.52714834 13.41610187 40.30026871 16.55805274 47 20 C45.35 24.62 43.7 29.24 42 34 C34.12447084 32.87492441 34.12447084 32.87492441 30.56518555 31.70898438 C29.77133957 31.45201782 28.97749359 31.19505127 28.15959167 30.93029785 C27.32704361 30.65423706 26.49449554 30.37817627 25.63671875 30.09375 C24.76352493 29.80898804 23.89033112 29.52422607 22.99067688 29.23083496 C21.15688329 28.63168169 19.32398333 28.02978709 17.49194336 27.42529297 C14.68074368 26.49777083 11.86702922 25.57823937 9.05273438 24.66015625 C7.26807907 24.07597919 5.4835686 23.4913594 3.69921875 22.90625 C2.85654953 22.63018921 2.01388031 22.35412842 1.14567566 22.06970215 C-0.0214521 21.68425232 -0.0214521 21.68425232 -1.2121582 21.29101562 C-1.89719925 21.06530884 -2.5822403 20.83960205 -3.28804016 20.60705566 C-5 20 -5 20 -7 19 C-5.17625494 12.38201604 -2.91651488 6.21130115 0 0 Z " fill="#000039" transform="translate(2110,979)"/>
<path d="M0 0 C0.91644287 0.00523682 1.83288574 0.01047363 2.77709961 0.01586914 C3.66792236 0.0183667 4.55874512 0.02086426 5.4765625 0.0234375 C7.18573853 0.03709351 7.18573853 0.03709351 8.92944336 0.05102539 C14.34350586 0.08196289 14.34350586 0.08196289 19.86694336 0.11352539 C19.86694336 8.03352539 19.86694336 15.95352539 19.86694336 24.11352539 C12.60694336 24.11352539 5.34694336 24.11352539 -2.13305664 24.11352539 C-3.08584661 21.25515548 -3.2617679 19.44707979 -3.26586914 16.48071289 C-3.2671582 15.59254883 -3.26844727 14.70438477 -3.26977539 13.78930664 C-3.2659082 12.86504883 -3.26204102 11.94079102 -3.25805664 10.98852539 C-3.26192383 10.0565332 -3.26579102 9.12454102 -3.26977539 8.16430664 C-3.26848633 7.2787207 -3.26719727 6.39313477 -3.26586914 5.48071289 C-3.26474121 4.66715332 -3.26361328 3.85359375 -3.26245117 3.01538086 C-3.07660419 0.28378081 -2.73299208 0.14545511 0 0 Z " fill="#000037" transform="translate(1479.133056640625,791.886474609375)"/>
<path d="M0 0 C7.26 0 14.52 0 22 0 C22 7.92 22 15.84 22 24 C14.74 24 7.48 24 0 24 C0 16.08 0 8.16 0 0 Z " fill="#000039" transform="translate(1924,792)"/>
<path d="M0 0 C7.26 0 14.52 0 22 0 C22 7.59 22 15.18 22 23 C14.74 23 7.48 23 0 23 C0 15.41 0 7.82 0 0 Z " fill="#000039" transform="translate(1587,988)"/>
</svg>
