<svg xmlns="http://www.w3.org/2000/svg" xmlns:xlink="http://www.w3.org/1999/xlink" width="794" zoomAndPan="magnify" viewBox="0 0 594.95996 595.499999" height="794" preserveAspectRatio="xMidYMid meet" version="1.0"><defs><clipPath id="aaf672c6f1"><path d="M 0.230469 0 L 594.691406 0 L 594.691406 595 L 0.230469 595 Z M 0.230469 0 " clip-rule="nonzero"/></clipPath><clipPath id="ce3436a2d0"><path d="M 99 92.449219 L 499 92.449219 L 499 491 L 99 491 Z M 99 92.449219 " clip-rule="nonzero"/></clipPath><clipPath id="75270e1cfc"><path d="M 99.988281 291.710938 C 99.988281 401.449219 189.375 490.832031 299.113281 490.832031 C 408.847656 490.832031 498.234375 401.449219 498.234375 291.710938 C 498.234375 181.976562 408.847656 92.589844 299.113281 92.589844 C 189.375 92.589844 99.988281 181.976562 99.988281 291.710938 " clip-rule="nonzero"/></clipPath><clipPath id="887ea083a4"><path d="M 0.984375 0.5625 L 399.292969 0.5625 L 399.292969 398.867188 L 0.984375 398.867188 Z M 0.984375 0.5625 " clip-rule="nonzero"/></clipPath><clipPath id="1ec448e89f"><path d="M 0.988281 199.710938 C 0.988281 309.449219 90.375 398.832031 200.113281 398.832031 C 309.847656 398.832031 399.234375 309.449219 399.234375 199.710938 C 399.234375 89.976562 309.847656 0.589844 200.113281 0.589844 C 90.375 0.589844 0.988281 89.976562 0.988281 199.710938 " clip-rule="nonzero"/></clipPath><clipPath id="64c121bdd2"><rect x="0" width="400" y="0" height="399"/></clipPath><clipPath id="85a3fa5ca2"><path d="M 175 163 L 430 163 L 430 414 L 175 414 Z M 175 163 " clip-rule="nonzero"/></clipPath><clipPath id="3ede61ec77"><path d="M 277.363281 413.417969 C 264.394531 415.015625 251.625 411.421875 239.652344 406.636719 C 228.480469 402.246094 218.304688 396.859375 210.722656 387.28125 C 195.359375 368.128906 184.785156 344.183594 179.796875 320.042969 C 176.804688 305.878906 176.804688 291.910156 175.609375 277.546875 C 174.609375 264.378906 175.410156 251.207031 179.796875 238.4375 C 183.589844 227.265625 189.773438 216.09375 197.753906 207.3125 C 205.734375 198.535156 216.910156 192.949219 227.085938 187.363281 C 249.429688 175.191406 275.765625 165.214844 301.304688 164.417969 C 314.675781 164.019531 327.042969 161.425781 340.210938 164.816406 C 352.382812 167.808594 365.75 172.796875 375.328125 180.976562 C 384.507812 188.957031 391.886719 199.730469 397.675781 210.507812 C 404.257812 222.476562 411.042969 234.25 415.832031 247.019531 C 420.21875 258.589844 423.214844 271.160156 426.40625 283.132812 C 429.996094 296.898438 431.394531 310.464844 428.203125 324.433594 C 422.613281 349.171875 407.851562 372.515625 384.105469 382.890625 C 357.171875 394.664062 329.4375 407.433594 299.910156 411.625 C 292.527344 412.621094 285.144531 413.816406 277.363281 413.019531 M 407.449219 313.058594 C 407.25 298.894531 406.851562 284.925781 403.261719 271.160156 C 401.664062 264.976562 398.671875 259.589844 396.675781 253.601562 C 394.683594 247.816406 393.285156 242.03125 391.089844 236.445312 C 385.902344 223.875 378.320312 212.703125 370.140625 201.726562 C 362.757812 191.550781 354.378906 184.769531 342.007812 181.574219 C 318.863281 175.789062 294.722656 178.78125 272.574219 186.964844 C 261.402344 191.152344 250.628906 195.742188 239.652344 200.332031 C 230.675781 203.921875 221.496094 207.914062 214.117188 214.496094 C 176.207031 248.613281 192.765625 305.277344 209.128906 346.179688 C 216.511719 364.734375 229.878906 388.078125 250.628906 393.066406 C 273.972656 398.65625 296.519531 397.058594 319.460938 390.074219 C 341.410156 383.292969 363.554688 379.101562 383.109375 365.933594 C 391.289062 360.347656 398.871094 352.964844 403.261719 343.984375 C 408.25 334.210938 407.449219 323.835938 407.449219 313.257812 " clip-rule="nonzero"/></clipPath><clipPath id="2ef6a87582"><path d="M 0 0 L 255 0 L 255 251 L 0 251 Z M 0 0 " clip-rule="nonzero"/></clipPath><clipPath id="a4f58c5d8e"><path d="M 102.363281 250.417969 C 89.394531 252.015625 76.625 248.421875 64.652344 243.636719 C 53.480469 239.246094 43.304688 233.859375 35.722656 224.28125 C 20.359375 205.128906 9.785156 181.183594 4.796875 157.042969 C 1.804688 142.878906 1.804688 128.910156 0.609375 114.546875 C -0.390625 101.378906 0.410156 88.207031 4.796875 75.4375 C 8.589844 64.265625 14.773438 53.09375 22.753906 44.3125 C 30.734375 35.535156 41.910156 29.949219 52.085938 24.363281 C 74.429688 12.191406 100.765625 2.214844 126.304688 1.417969 C 139.675781 1.019531 152.042969 -1.574219 165.210938 1.816406 C 177.382812 4.808594 190.75 9.796875 200.328125 17.976562 C 209.507812 25.957031 216.886719 36.730469 222.675781 47.507812 C 229.257812 59.476562 236.042969 71.25 240.832031 84.019531 C 245.21875 95.589844 248.214844 108.160156 251.40625 120.132812 C 254.996094 133.898438 256.394531 147.464844 253.203125 161.433594 C 247.613281 186.171875 232.851562 209.515625 209.105469 219.890625 C 182.171875 231.664062 154.4375 244.433594 124.910156 248.625 C 117.527344 249.621094 110.144531 250.816406 102.363281 250.019531 M 232.449219 150.058594 C 232.25 135.894531 231.851562 121.925781 228.261719 108.160156 C 226.664062 101.976562 223.671875 96.589844 221.675781 90.601562 C 219.683594 84.816406 218.285156 79.03125 216.089844 73.445312 C 210.902344 60.875 203.320312 49.703125 195.140625 38.726562 C 187.757812 28.550781 179.378906 21.769531 167.007812 18.574219 C 143.863281 12.789062 119.722656 15.78125 97.574219 23.964844 C 86.402344 28.152344 75.628906 32.742188 64.652344 37.332031 C 55.675781 40.921875 46.496094 44.914062 39.117188 51.496094 C 1.207031 85.613281 17.765625 142.277344 34.128906 183.179688 C 41.511719 201.734375 54.878906 225.078125 75.628906 230.066406 C 98.972656 235.65625 121.519531 234.058594 144.460938 227.074219 C 166.410156 220.292969 188.554688 216.101562 208.109375 202.933594 C 216.289062 197.347656 223.871094 189.964844 228.261719 180.984375 C 233.25 171.210938 232.449219 160.835938 232.449219 150.257812 " clip-rule="nonzero"/></clipPath><clipPath id="59e3b6d6d2"><rect x="0" width="255" y="0" height="251"/></clipPath><clipPath id="afa9e2df0b"><path d="M 227 216.167969 L 373 216.167969 L 373 363.226562 L 227 363.226562 Z M 227 216.167969 " clip-rule="nonzero"/></clipPath><clipPath id="c403be6ba2"><path d="M 241.847656 334.007812 C 239.855469 324.035156 265.390625 323.234375 268.1875 315.851562 C 269.980469 311.066406 265.59375 303.683594 263.996094 299.292969 C 262.199219 294.105469 262 286.722656 255.417969 285.726562 C 248.234375 284.527344 231.074219 298.496094 227.882812 287.121094 C 223.890625 273.355469 244.042969 273.753906 250.628906 267.371094 C 258.808594 259.589844 237.859375 241.832031 250.429688 235.644531 C 262.796875 229.460938 260.003906 255.597656 266.988281 259.589844 C 271.179688 261.984375 278.761719 258.390625 282.949219 257.195312 C 288.136719 255.796875 295.121094 254.800781 299.710938 251.808594 C 311.679688 244.226562 291.328125 228.863281 299.511719 219.484375 C 309.285156 208.3125 312.679688 237.242188 315.472656 241.234375 C 322.054688 251.207031 338.417969 235.246094 346.996094 236.046875 C 352.382812 236.445312 354.578125 241.03125 352.78125 246.019531 C 350.585938 252.207031 343.007812 253.800781 337.417969 255.996094 C 333.628906 257.394531 326.445312 259.589844 326.046875 264.378906 C 325.847656 266.972656 328.640625 270.761719 329.4375 273.15625 C 331.035156 276.945312 332.230469 280.738281 333.628906 284.527344 C 335.226562 289.316406 336.023438 294.105469 342.007812 293.90625 C 347.992188 293.707031 354.777344 290.113281 360.5625 288.519531 C 364.953125 287.320312 369.941406 286.722656 371.9375 291.910156 C 374.53125 298.695312 367.148438 300.691406 362.160156 302.484375 C 357.171875 304.28125 351.1875 305.277344 346.796875 308.070312 C 340.414062 311.863281 344.402344 318.648438 346.199219 324.433594 C 347.792969 329.023438 351.585938 337.402344 348.394531 341.992188 C 343.605469 348.574219 337.820312 338.996094 336.222656 335.207031 C 334.027344 330.417969 333.429688 321.039062 329.4375 317.449219 C 325.050781 313.460938 314.875 319.246094 310.085938 321.039062 C 305.296875 322.835938 294.324219 324.234375 293.925781 330.617188 C 293.722656 333.609375 296.316406 337.402344 297.117188 340.394531 C 298.113281 343.785156 298.710938 347.578125 298.910156 351.167969 C 299.113281 355.957031 298.511719 363.339844 292.328125 363.140625 C 286.140625 362.941406 283.949219 355.757812 282.351562 350.96875 C 280.753906 346.378906 279.558594 336.804688 274.171875 335.007812 C 270.980469 333.808594 267.1875 336.402344 264.394531 337.601562 C 260.203125 339.398438 256.015625 340.992188 251.824219 342.589844 C 247.636719 344.183594 241.449219 339.398438 241.449219 334.210938 M 290.730469 310.066406 C 292.328125 309.667969 294.722656 308.871094 297.316406 308.070312 C 303.898438 306.078125 310.484375 303.882812 317.066406 302.085938 C 320.460938 301.089844 323.652344 297.695312 322.65625 294.902344 C 320.261719 287.519531 318.066406 280.140625 314.675781 273.15625 C 311.679688 267.171875 310.683594 266.972656 304.898438 268.964844 C 296.917969 271.757812 288.9375 274.753906 280.753906 276.546875 C 277.761719 277.144531 274.96875 281.335938 275.765625 283.730469 C 278.160156 291.113281 280.554688 298.296875 283.347656 305.679688 C 284.347656 308.472656 286.34375 310.464844 290.53125 310.066406 " clip-rule="nonzero"/></clipPath><clipPath id="0170ea775b"><path d="M 0 0.167969 L 146 0.167969 L 146 147.226562 L 0 147.226562 Z M 0 0.167969 " clip-rule="nonzero"/></clipPath><clipPath id="29776d8557"><path d="M 14.847656 118.007812 C 12.855469 108.035156 38.390625 107.234375 41.1875 99.851562 C 42.980469 95.066406 38.59375 87.683594 36.996094 83.292969 C 35.199219 78.105469 35 70.722656 28.417969 69.726562 C 21.234375 68.527344 4.074219 82.496094 0.882812 71.121094 C -3.109375 57.355469 17.042969 57.753906 23.628906 51.371094 C 31.808594 43.589844 10.859375 25.832031 23.429688 19.644531 C 35.796875 13.460938 33.003906 39.597656 39.988281 43.589844 C 44.179688 45.984375 51.761719 42.390625 55.949219 41.195312 C 61.136719 39.796875 68.121094 38.800781 72.710938 35.808594 C 84.679688 28.226562 64.328125 12.863281 72.511719 3.484375 C 82.285156 -7.6875 85.679688 21.242188 88.472656 25.234375 C 95.054688 35.207031 111.417969 19.246094 119.996094 20.046875 C 125.382812 20.445312 127.578125 25.03125 125.78125 30.019531 C 123.585938 36.207031 116.007812 37.800781 110.417969 39.996094 C 106.628906 41.394531 99.445312 43.589844 99.046875 48.378906 C 98.847656 50.972656 101.640625 54.761719 102.4375 57.15625 C 104.035156 60.945312 105.230469 64.738281 106.628906 68.527344 C 108.226562 73.316406 109.023438 78.105469 115.007812 77.90625 C 120.992188 77.707031 127.777344 74.113281 133.5625 72.519531 C 137.953125 71.320312 142.941406 70.722656 144.9375 75.910156 C 147.53125 82.695312 140.148438 84.691406 135.160156 86.484375 C 130.171875 88.28125 124.1875 89.277344 119.796875 92.070312 C 113.414062 95.863281 117.402344 102.648438 119.199219 108.433594 C 120.792969 113.023438 124.585938 121.402344 121.394531 125.992188 C 116.605469 132.574219 110.820312 122.996094 109.222656 119.207031 C 107.027344 114.417969 106.429688 105.039062 102.4375 101.449219 C 98.050781 97.460938 87.875 103.246094 83.085938 105.039062 C 78.296875 106.835938 67.324219 108.234375 66.925781 114.617188 C 66.722656 117.609375 69.316406 121.402344 70.117188 124.394531 C 71.113281 127.785156 71.710938 131.578125 71.910156 135.167969 C 72.113281 139.957031 71.511719 147.339844 65.328125 147.140625 C 59.140625 146.941406 56.949219 139.757812 55.351562 134.96875 C 53.753906 130.378906 52.558594 120.804688 47.171875 119.007812 C 43.980469 117.808594 40.1875 120.402344 37.394531 121.601562 C 33.203125 123.398438 29.015625 124.992188 24.824219 126.589844 C 20.636719 128.183594 14.449219 123.398438 14.449219 118.210938 M 63.730469 94.066406 C 65.328125 93.667969 67.722656 92.871094 70.316406 92.070312 C 76.898438 90.078125 83.484375 87.882812 90.066406 86.085938 C 93.460938 85.089844 96.652344 81.695312 95.65625 78.902344 C 93.261719 71.519531 91.066406 64.140625 87.675781 57.15625 C 84.679688 51.171875 83.683594 50.972656 77.898438 52.964844 C 69.917969 55.757812 61.9375 58.753906 53.753906 60.546875 C 50.761719 61.144531 47.96875 65.335938 48.765625 67.730469 C 51.160156 75.113281 53.554688 82.296875 56.347656 89.679688 C 57.347656 92.472656 59.34375 94.464844 63.53125 94.066406 " clip-rule="nonzero"/></clipPath><clipPath id="70d16356e9"><rect x="0" width="146" y="0" height="148"/></clipPath></defs><g clip-path="url(#aaf672c6f1)"><path fill="#ffffff" d="M 0.230469 0 L 595.230469 0 L 595.230469 595 L 0.230469 595 Z M 0.230469 0 " fill-opacity="1" fill-rule="nonzero"/><path fill="#ffffff" d="M 0.230469 0 L 595.230469 0 L 595.230469 595 L 0.230469 595 Z M 0.230469 0 " fill-opacity="1" fill-rule="nonzero"/></g><g clip-path="url(#ce3436a2d0)"><g clip-path="url(#75270e1cfc)"><g transform="matrix(1, 0, 0, 1, 99, 92)"><g clip-path="url(#64c121bdd2)"><g clip-path="url(#887ea083a4)"><g clip-path="url(#1ec448e89f)"><rect x="-229.891191" width="856.742342" fill="#ef4d9b" height="857.519999" y="-223.01" fill-opacity="1"/></g></g></g></g></g></g><g clip-path="url(#85a3fa5ca2)"><g clip-path="url(#3ede61ec77)"><g transform="matrix(1, 0, 0, 1, 175, 163)"><g clip-path="url(#59e3b6d6d2)"><g clip-path="url(#2ef6a87582)"><g clip-path="url(#a4f58c5d8e)"><rect x="-305.891191" width="856.742342" fill="#ffffff" height="857.519999" y="-294.01" fill-opacity="1"/></g></g></g></g></g></g><g clip-path="url(#afa9e2df0b)"><g clip-path="url(#c403be6ba2)"><g transform="matrix(1, 0, 0, 1, 227, 216)"><g clip-path="url(#70d16356e9)"><g clip-path="url(#0170ea775b)"><g clip-path="url(#29776d8557)"><rect x="-357.891191" width="856.742342" fill="#ffffff" height="857.519999" y="-347.01" fill-opacity="1"/></g></g></g></g></g></g></svg>