<?xml version="1.0" encoding="UTF-8"?>
<svg version="1.1" xmlns="http://www.w3.org/2000/svg" width="1334" height="1334">
<path d="M0 0 C440.22 0 880.44 0 1334 0 C1334 440.22 1334 880.44 1334 1334 C893.78 1334 453.56 1334 0 1334 C0 893.78 0 453.56 0 0 Z " fill="#FEFEFE" transform="translate(0,0)"/>
<path d="M0 0 C1.70580795 1.13301577 3.44330962 2.2192931 5.2043457 3.2644043 C7.53123224 4.67866909 8.84915542 5.98205429 10.54760742 8.08813477 C13.62906544 11.75365999 16.93869067 15.11891701 20.36010742 18.46313477 C25.84538779 23.86672309 30.7026467 29.61375812 35.48510742 35.65063477 C36.98435604 37.44293023 38.48436334 39.23459131 39.98510742 41.02563477 C57.60935234 62.65122471 71.35196078 87.85165275 77.8581543 115.07592773 C78.35501868 117.1163996 78.87747636 119.15063714 79.40893555 121.18237305 C81.86562422 130.60814505 83.78495643 140.01949715 85.23510742 149.65063477 C85.34283478 150.35764526 85.45056213 151.06465576 85.56155396 151.79309082 C87.38853035 163.98752148 88.24395384 175.92287288 87.5637207 188.26391602 C87.43234018 190.9117549 87.43234018 190.9117549 87.79370117 194.58813477 C87.8732561 198.55652182 87.66370532 200.30360081 85.48510742 203.65063477 C79.76227686 208.17421696 73.05136626 211.18562531 66.47583008 214.25268555 C62.8639975 215.94095929 59.31110146 217.7325527 55.75488281 219.53417969 C53.28899999 220.77998338 50.81398358 222.00586877 48.33666992 223.22875977 C41.15958593 226.79006153 34.09578466 230.56525354 27.01586914 234.31469727 C22.43097264 236.73497063 17.83262813 239.12945454 13.23510742 241.52563477 C12.27693115 242.02530762 11.31875488 242.52498047 10.33154297 243.03979492 C5.3679629 245.62786747 0.40334625 248.2139436 -4.56176758 250.79907227 C-6.54616699 251.83287957 -8.53054235 252.86673305 -10.51489258 253.90063477 C-11.9456311 254.64531006 -11.9456311 254.64531006 -13.40527344 255.4050293 C-17.6910905 257.63939094 -21.96898786 259.88546337 -26.22192383 262.18188477 C-26.92381836 262.56054688 -27.62571289 262.93920898 -28.34887695 263.3293457 C-29.62703346 264.02141761 -30.90322781 264.71713132 -32.17700195 265.41723633 C-36.29686315 267.65063477 -36.29686315 267.65063477 -38.51489258 267.65063477 C-38.44705566 266.72331543 -38.37921875 265.79599609 -38.30932617 264.84057617 C-33.95168661 201.10911608 -45.63851436 140.9072335 -88.43847656 91.25927734 C-89.78990186 89.71635355 -91.15077184 88.1823391 -92.51489258 86.65063477 C-92.97250977 86.13130371 -93.43012695 85.61197266 -93.90161133 85.0769043 C-103.72462928 73.95722045 -114.53531794 64.38680149 -126.51489258 55.65063477 C-127.06709473 55.24731934 -127.61929687 54.84400391 -128.18823242 54.4284668 C-145.30699903 42.09997334 -164.63325258 32.61741736 -184.51489258 25.65063477 C-185.36744629 25.34915527 -186.22 25.04767578 -187.09838867 24.73706055 C-187.96157715 24.4520166 -188.82476563 24.16697266 -189.71411133 23.87329102 C-190.48972412 23.61427002 -191.26533691 23.35524902 -192.06445312 23.08837891 C-197.02893298 22.20152901 -201.2372746 23.75959507 -205.71801758 25.80297852 C-206.68843994 26.24391846 -207.6588623 26.6848584 -208.65869141 27.13916016 C-209.68373779 27.61732178 -210.70878418 28.0954834 -211.76489258 28.58813477 C-212.83827881 29.08756592 -213.91166504 29.58699707 -215.01757812 30.1015625 C-238.96222107 41.37141495 -262.1150357 55.73091991 -282.51489258 72.65063477 C-283.05259277 73.09503906 -283.59029297 73.53944336 -284.14428711 73.99731445 C-302.49867026 89.2378679 -319.89560531 105.73889901 -334.51489258 124.65063477 C-335.05726563 125.34753418 -335.59963867 126.04443359 -336.15844727 126.76245117 C-361.62851347 159.62992241 -380.82755382 196.01480738 -393.51489258 235.65063477 C-393.77077148 236.4355127 -394.02665039 237.22039062 -394.2902832 238.02905273 C-421.49835682 322.63238544 -410.10687688 416.50993259 -369.88989258 494.90063477 C-357.51911004 518.554312 -342.33500272 540.77601417 -324.51489258 560.65063477 C-323.65766602 561.6187207 -322.80043945 562.58680664 -321.91723633 563.58422852 C-316.29798942 569.83066136 -310.44200086 575.82231967 -304.51489258 581.77563477 C-303.77215088 582.52304932 -303.02940918 583.27046387 -302.26416016 584.04052734 C-301.56315186 584.73944092 -300.86214355 585.43835449 -300.13989258 586.15844727 C-299.5134082 586.78380371 -298.88692383 587.40916016 -298.24145508 588.0534668 C-294.66788066 591.35922526 -291.69407261 592.18201476 -287.00317383 593.08813477 C-286.35728806 593.21373779 -285.71140228 593.33934082 -285.04594421 593.46875 C-283.67221537 593.73418532 -282.2978267 593.99622497 -280.92285156 594.25512695 C-278.87812747 594.6410588 -276.83614359 595.03940174 -274.79418945 595.43969727 C-259.29599107 598.43682644 -244.1672553 600.06367288 -228.38989258 600.02563477 C-227.16132034 600.02531754 -227.16132034 600.02531754 -225.90792847 600.0249939 C-209.83758082 599.98399762 -194.35628787 598.46006254 -178.51489258 595.65063477 C-177.53166016 595.48466797 -176.54842773 595.31870117 -175.53540039 595.14770508 C-150.45700612 590.80471319 -125.2471681 582.00382999 -102.51489258 570.65063477 C-101.81122559 570.30887207 -101.10755859 569.96710937 -100.38256836 569.61499023 C-79.86247541 559.60854158 -60.54877915 546.18115386 -43.76879883 530.72094727 C-41.76185775 528.87748319 -39.71577015 527.10284383 -37.63989258 525.33813477 C-29.29259434 518.03635671 -21.65993445 510.15239907 -14.77270508 501.46313477 C-12.80200211 499.00827986 -10.76290235 496.63590098 -8.68554688 494.27148438 C22.09390992 458.95505929 44.21471341 413.91811857 61.48510742 370.65063477 C61.76330322 369.95377563 62.04149902 369.2569165 62.328125 368.53894043 C64.50296619 363.08333072 66.65561285 357.61921558 68.79760742 352.15063477 C69.08870392 351.40980652 69.37980042 350.66897827 69.67971802 349.90570068 C73.98013072 338.93370665 77.84991465 327.86017549 81.48510742 316.65063477 C82.47510742 316.98063477 83.46510742 317.31063477 84.48510742 317.65063477 C87.22084948 323.40188797 87.91743126 328.13623579 87.74682617 334.43969727 C87.72914436 335.67280136 87.72914436 335.67280136 87.71110535 336.93081665 C87.53934096 345.98008519 86.9811479 355.00246578 86.29760742 364.02563477 C86.23297302 364.89760498 86.16833862 365.7695752 86.10174561 366.66796875 C84.05364942 393.89465892 80.57494178 421.01559996 74.48510742 447.65063477 C74.24066895 448.73505859 73.99623047 449.81948242 73.74438477 450.93676758 C67.87176714 476.64373703 60.23333049 501.97745368 48.48510742 525.65063477 C47.81656738 527.02010254 47.81656738 527.02010254 47.13452148 528.41723633 C37.74080269 547.54638091 26.65946579 564.73076936 12.48510742 580.65063477 C11.95739746 581.26156982 11.4296875 581.87250488 10.88598633 582.50195312 C-0.94016765 596.1833538 -13.75046092 608.21162059 -28.51489258 618.65063477 C-29.28188477 619.20283691 -30.04887695 619.75503906 -30.83911133 620.32397461 C-59.53888138 640.85976032 -92.10294913 654.74368971 -125.51489258 665.65063477 C-126.29445313 665.9071582 -127.07401367 666.16368164 -127.87719727 666.42797852 C-138.6300442 669.92253571 -149.313356 672.17049698 -160.51489258 673.65063477 C-161.47733887 673.78743652 -162.43978516 673.92423828 -163.43139648 674.06518555 C-197.3637809 678.75408179 -233.69208603 679.21423355 -267.51489258 673.65063477 C-268.64894531 673.47371094 -269.78299805 673.29678711 -270.95141602 673.11450195 C-330.16320152 663.78054502 -386.41529924 640.50090361 -434.51489258 604.65063477 C-435.05275391 604.25166992 -435.59061523 603.85270508 -436.14477539 603.44165039 C-452.23034169 591.45708329 -467.17054811 578.03338905 -481.38989258 563.90063477 C-482.15668335 563.14085327 -482.15668335 563.14085327 -482.93896484 562.36572266 C-520.33734653 524.80966983 -548.22385085 476.47403776 -565.51489258 426.65063477 C-566.04276367 425.13880615 -566.04276367 425.13880615 -566.58129883 423.59643555 C-575.00335298 399.19656373 -580.20829112 374.22719706 -583.51489258 348.65063477 C-583.6927832 347.31742188 -583.6927832 347.31742188 -583.87426758 345.95727539 C-593.2336789 272.58617595 -577.55773807 193.36438149 -541.70141602 128.78833008 C-540.53384835 126.68478636 -539.38632106 124.57128879 -538.24145508 122.45532227 C-533.16968394 113.16576289 -527.5522311 104.33982283 -521.51489258 95.65063477 C-521.10625977 95.06040527 -520.69762695 94.47017578 -520.27661133 93.86206055 C-512.10318742 82.10465512 -503.50424376 70.65485357 -493.78051758 60.12719727 C-491.95192728 58.1283589 -490.18449887 56.10058798 -488.42114258 54.04516602 C-484.20643338 49.21773586 -479.72231142 44.67197454 -475.19165039 40.14208984 C-473.77569311 38.72395193 -472.36790969 37.29766812 -470.96020508 35.87133789 C-464.7889006 29.68714071 -458.33700242 24.09928763 -451.51489258 18.65063477 C-450.33637684 17.65038063 -449.16243332 16.64468659 -447.99536133 15.63110352 C-429.78291571 0.05474241 -408.82183369 -13.43042939 -387.51489258 -24.34936523 C-386.23745063 -25.0210535 -384.96010641 -25.69292769 -383.68286133 -26.36499023 C-358.50883777 -39.43193383 -332.02051673 -49.50126729 -304.51489258 -56.34936523 C-303.63397949 -56.57221191 -302.75306641 -56.79505859 -301.84545898 -57.0246582 C-197.65872763 -83.10487549 -87.97233848 -60.12085183 0 0 Z " fill="#8C7DB9" transform="translate(915.514892578125,362.349365234375)"/>
<path d="M0 0 C1.10021484 -0.00128906 2.20042969 -0.00257813 3.33398438 -0.00390625 C4.48318359 -0.00003906 5.63238281 0.00382812 6.81640625 0.0078125 C7.96173828 0.00394531 9.10707031 0.00007813 10.28710938 -0.00390625 C11.93936523 -0.00197266 11.93936523 -0.00197266 13.625 0 C15.13598267 0.00169189 15.13598267 0.00169189 16.67749023 0.00341797 C19.10147796 0.11952402 21.04769046 0.52812261 23.37890625 1.1328125 C25.09900889 1.2654041 26.82265837 1.35566186 28.546875 1.4140625 C30.00963867 1.47013672 30.00963867 1.47013672 31.50195312 1.52734375 C33.5566268 1.5980591 35.61131453 1.66836704 37.66601562 1.73828125 C38.63732422 1.77566406 39.60863281 1.81304687 40.609375 1.8515625 C41.50035889 1.88185547 42.39134277 1.91214844 43.30932617 1.94335938 C45.37890625 2.1328125 45.37890625 2.1328125 46.37890625 3.1328125 C48.70876748 3.34250001 51.04334661 3.50096639 53.37890625 3.6328125 C60.26779514 4.02170139 60.26779514 4.02170139 61.37890625 5.1328125 C63.06074573 5.36568258 64.75014785 5.54545416 66.44140625 5.6953125 C67.36050781 5.77910156 68.27960938 5.86289062 69.2265625 5.94921875 C69.93683594 6.00980469 70.64710938 6.07039063 71.37890625 6.1328125 C70.38890625 4.1528125 70.38890625 4.1528125 69.37890625 2.1328125 C77.19754522 5.06823134 83.09481966 9.37681955 88.375 15.80859375 C90.85025451 18.67950298 93.54396818 21.29997719 96.25390625 23.9453125 C101.73955936 29.34846819 106.59649876 35.09600305 111.37890625 41.1328125 C112.87815487 42.92510797 114.37816217 44.71676905 115.87890625 46.5078125 C133.50315117 68.13340245 147.24575961 93.33383049 153.75195312 120.55810547 C154.24881751 122.59857733 154.77127518 124.63281488 155.30273438 126.66455078 C157.75942304 136.09032278 159.67875526 145.50167488 161.12890625 155.1328125 C161.23663361 155.839823 161.34436096 156.5468335 161.45535278 157.27526855 C163.28232918 169.46969922 164.13775266 181.40505061 163.45751953 193.74609375 C163.32613901 196.39393263 163.32613901 196.39393263 163.6875 200.0703125 C163.76705493 204.03869956 163.55750415 205.78577855 161.37890625 209.1328125 C155.65607569 213.65639469 148.94516509 216.66780305 142.36962891 219.73486328 C138.75779633 221.42313702 135.20490029 223.21473044 131.64868164 225.01635742 C129.18279882 226.26216111 126.70778241 227.4880465 124.23046875 228.7109375 C117.05338476 232.27223926 109.98958348 236.04743128 102.90966797 239.796875 C98.32477147 242.21714836 93.72642696 244.61163227 89.12890625 247.0078125 C88.17072998 247.50748535 87.21255371 248.0071582 86.2253418 248.52197266 C81.26176173 251.11004521 76.29714508 253.69612134 71.33203125 256.28125 C69.34763183 257.3150573 67.36325647 258.34891078 65.37890625 259.3828125 C63.94816772 260.12748779 63.94816772 260.12748779 62.48852539 260.88720703 C58.20270833 263.12156868 53.92481097 265.3676411 49.671875 267.6640625 C48.96998047 268.04272461 48.26808594 268.42138672 47.54492188 268.81152344 C46.26676537 269.50359535 44.99057102 270.19930906 43.71679688 270.89941406 C39.59693568 273.1328125 39.59693568 273.1328125 37.37890625 273.1328125 C37.44674316 272.20549316 37.51458008 271.27817383 37.58447266 270.32275391 C41.94211222 206.59129381 30.25528447 146.38941123 -12.54467773 96.74145508 C-13.89610304 95.19853128 -15.25697301 93.66451684 -16.62109375 92.1328125 C-17.07871094 91.61348145 -17.53632812 91.09415039 -18.0078125 90.55908203 C-27.83083046 79.43939819 -38.64151911 69.86897922 -50.62109375 61.1328125 C-51.1732959 60.72949707 -51.72549805 60.32618164 -52.29443359 59.91064453 C-71.12796791 46.34721967 -92.57560062 36.25791588 -114.62109375 29.1328125 C-114.95109375 27.4828125 -115.28109375 25.8328125 -115.62109375 24.1328125 C-113.97109375 24.1328125 -112.32109375 24.1328125 -110.62109375 24.1328125 C-110.62109375 23.4728125 -110.62109375 22.8128125 -110.62109375 22.1328125 C-101.62109375 19.1328125 -101.62109375 19.1328125 -92.62109375 16.1328125 C-91.71617187 15.8234375 -90.81125 15.5140625 -89.87890625 15.1953125 C-88.84507812 14.8446875 -87.81125 14.4940625 -86.74609375 14.1328125 C-85.71742188 13.7821875 -84.68875 13.4315625 -83.62890625 13.0703125 C-80.95002107 12.2353353 -78.37055267 11.66883674 -75.62109375 11.1328125 C-73.95833312 10.76495245 -72.29690649 10.39102154 -70.63671875 10.01171875 C-69.70085938 9.79837891 -68.765 9.58503906 -67.80078125 9.36523438 C-66.83398438 9.14416016 -65.8671875 8.92308594 -64.87109375 8.6953125 C-62.02076225 8.04452543 -59.17029934 7.3943515 -56.31933594 6.74633789 C-54.59555218 6.35438453 -52.87219863 5.96053111 -51.14941406 5.56420898 C-39.36737079 2.88522642 -27.63950906 1.89016561 -15.59082031 1.47436523 C-14.29869629 1.42711304 -14.29869629 1.42711304 -12.98046875 1.37890625 C-11.82756348 1.34301392 -11.82756348 1.34301392 -10.65136719 1.30639648 C-6.94793119 0.98976072 -3.81863923 0.00428064 0 0 Z " fill="#5689BF" transform="translate(839.62109375,356.8671875)"/>
<path d="M0 0 C0.99 0.33 1.98 0.66 3 1 C5.73574206 6.75125321 6.43232384 11.48560103 6.26171875 17.7890625 C6.24993088 18.6111319 6.23814301 19.43320129 6.22599792 20.28018188 C6.05423353 29.32945043 5.49604048 38.35183102 4.8125 47.375 C4.7478656 48.24697021 4.6832312 49.11894043 4.61663818 50.01733398 C2.568542 77.24402416 -0.91016564 104.36496519 -7 131 C-7.24443848 132.08442383 -7.48887695 133.16884766 -7.74072266 134.28613281 C-13.61334028 159.99310226 -21.25177693 185.32681891 -33 209 C-33.66854004 210.36946777 -33.66854004 210.36946777 -34.35058594 211.76660156 C-43.74430473 230.89574614 -54.82564163 248.0801346 -69 264 C-69.52770996 264.61093506 -70.05541992 265.22187012 -70.59912109 265.85131836 C-82.42527508 279.53271903 -95.23556834 291.56098582 -110 302 C-111.15048828 302.82830322 -111.15048828 302.82830322 -112.32421875 303.67333984 C-138.95766522 322.73059181 -190.49610606 355.64893586 -224.17529297 351.74804688 C-226.45187426 351.31878577 -228.68896676 350.80746184 -230.9375 350.25 C-232.12980225 349.96974976 -232.12980225 349.96974976 -233.34619141 349.68383789 C-237.88966694 348.59301168 -242.33866886 347.37190258 -246.7265625 345.75537109 C-249.29374457 344.90240059 -251.86890763 344.29559486 -254.50390625 343.68359375 C-289.08736987 335.1241865 -322.72239029 316.36608475 -351 295 C-351.57459961 294.56671387 -352.14919922 294.13342773 -352.74121094 293.68701172 C-356.52333907 290.82813733 -360.28185246 287.94188535 -364 285 C-364.56332031 284.55994629 -365.12664063 284.11989258 -365.70703125 283.66650391 C-367.17648101 282.49085807 -368.59312814 281.24985491 -370 280 C-370 279.34 -370 278.68 -370 278 C-364.87731997 276.33486384 -360.29190212 277.71896432 -355.1875 278.8125 C-340.06036089 282.00869949 -325.301273 283.41219166 -309.875 283.375 C-309.05595184 283.37478851 -308.23690369 283.37457703 -307.39303589 283.37435913 C-291.32268824 283.33336285 -275.84139529 281.80942778 -260 279 C-259.01676758 278.8340332 -258.03353516 278.66806641 -257.02050781 278.49707031 C-231.94211354 274.15407843 -206.73227552 265.35319522 -184 254 C-182.94449951 253.48735596 -182.94449951 253.48735596 -181.86767578 252.96435547 C-161.34758283 242.95790681 -142.03388657 229.53051909 -125.25390625 214.0703125 C-123.24696517 212.22684843 -121.20087758 210.45220907 -119.125 208.6875 C-110.77770176 201.38572194 -103.14504187 193.5017643 -96.2578125 184.8125 C-94.28710953 182.35764509 -92.24800977 179.98526621 -90.1706543 177.62084961 C-59.3911975 142.30442453 -37.27039401 97.26748381 -20 54 C-19.5827063 52.9547113 -19.5827063 52.9547113 -19.15698242 51.88830566 C-16.98214123 46.43269595 -14.82949457 40.96858082 -12.6875 35.5 C-12.25085526 34.38875763 -12.25085526 34.38875763 -11.8053894 33.25506592 C-7.50497671 22.28307189 -3.63519277 11.20954072 0 0 Z " fill="#4790C4" transform="translate(997,679)"/>
<path d="M0 0 C19.18950778 14.85003025 31.73488966 32.18753848 36.25 56.1875 C36.44078125 57.16332031 36.6315625 58.13914062 36.828125 59.14453125 C38.42929384 70.69370277 37.34794832 81.98928854 34.25 93.1875 C33.98316406 94.19167969 33.71632813 95.19585938 33.44140625 96.23046875 C27.41564634 116.50380319 13.11584439 133.90075392 -5.265625 144.21875 C-25.30278546 154.63454266 -47.4520659 158.99163648 -69.35546875 152.3203125 C-70.47566406 151.94648437 -71.59585938 151.57265625 -72.75 151.1875 C-74.22919922 150.71957031 -74.22919922 150.71957031 -75.73828125 150.2421875 C-96.78307167 143.15780261 -113.59229929 127.84897219 -123.75 108.1875 C-132.49567208 89.1156127 -135.54159809 66.04100735 -129.14453125 45.7421875 C-124.97778619 35.12107264 -119.78625345 25.20532363 -112.75 16.1875 C-112.28207031 15.56746094 -111.81414063 14.94742188 -111.33203125 14.30859375 C-85.45181956 -18.09604106 -33.27146945 -23.43914444 0 0 Z " fill="#E8B01F" transform="translate(693.75,616.8125)"/>
<path d="M0 0 C1.65032227 -0.00193359 1.65032227 -0.00193359 3.33398438 -0.00390625 C4.48318359 -0.00003906 5.63238281 0.00382812 6.81640625 0.0078125 C7.96173828 0.00394531 9.10707031 0.00007813 10.28710938 -0.00390625 C11.93936523 -0.00197266 11.93936523 -0.00197266 13.625 0 C15.13598267 0.00169189 15.13598267 0.00169189 16.67749023 0.00341797 C19.10147796 0.11952402 21.04769046 0.52812261 23.37890625 1.1328125 C25.09900889 1.2654041 26.82265837 1.35566186 28.546875 1.4140625 C29.52205078 1.45144531 30.49722656 1.48882812 31.50195312 1.52734375 C33.5566268 1.5980591 35.61131453 1.66836704 37.66601562 1.73828125 C38.63732422 1.77566406 39.60863281 1.81304687 40.609375 1.8515625 C41.50035889 1.88185547 42.39134277 1.91214844 43.30932617 1.94335938 C45.37890625 2.1328125 45.37890625 2.1328125 46.37890625 3.1328125 C48.70876748 3.34250001 51.04334661 3.50096639 53.37890625 3.6328125 C60.26779514 4.02170139 60.26779514 4.02170139 61.37890625 5.1328125 C63.06074573 5.36568258 64.75014785 5.54545416 66.44140625 5.6953125 C67.36050781 5.77910156 68.27960938 5.86289062 69.2265625 5.94921875 C69.93683594 6.00980469 70.64710938 6.07039063 71.37890625 6.1328125 C70.38890625 4.1528125 70.38890625 4.1528125 69.37890625 2.1328125 C72.81818204 3.3747732 75.63098444 4.69021534 78.37890625 7.1328125 C78.37890625 7.7928125 78.37890625 8.4528125 78.37890625 9.1328125 C71.116485 9.4104143 64.22804674 8.33439566 57.06640625 7.1953125 C54.73746222 6.82894721 52.40803662 6.46562934 50.078125 6.10546875 C49.05549561 5.94312744 48.03286621 5.78078613 46.97924805 5.61352539 C38.26353977 4.44981551 29.63275596 3.96821341 20.84375 3.9296875 C19.77439713 3.92285446 18.70504425 3.91602142 17.60328674 3.90898132 C14.17429403 3.89201743 10.74543841 3.88566083 7.31640625 3.8828125 C5.5677124 3.87980637 5.5677124 3.87980637 3.78369141 3.8767395 C-12.02462462 3.87006461 -27.40080911 4.27129851 -43.03125 6.76904297 C-47.87196702 7.44897023 -52.74735984 7.77888658 -57.62109375 8.1328125 C-45.42819326 1.64435104 -29.12428321 1.94140518 -15.59082031 1.47436523 C-14.29869629 1.42711304 -14.29869629 1.42711304 -12.98046875 1.37890625 C-11.82756348 1.34301392 -11.82756348 1.34301392 -10.65136719 1.30639648 C-6.94793119 0.98976072 -3.81863923 0.00428064 0 0 Z " fill="#4298CB" transform="translate(839.62109375,356.8671875)"/>
<path d="M0 0 C1.39859253 0.10610596 1.39859253 0.10610596 2.82543945 0.21435547 C12.80431076 0.91176722 22.72634869 1.15629573 32.72827148 1.13037109 C35.19586256 1.12498174 37.66327354 1.1303722 40.13085938 1.13671875 C49.14073646 1.14009437 58.02613838 0.88142415 67 0 C63.50667091 2.32888606 61.13072349 2.50146441 57 3 C56.26604004 3.17128418 55.53208008 3.34256836 54.77587891 3.51904297 C51.16584653 4.14452791 47.6121132 4.14293186 43.9609375 4.1328125 C42.81692978 4.13424759 42.81692978 4.13424759 41.64981079 4.13571167 C40.04453448 4.13638974 38.43925536 4.13456156 36.83398438 4.13037109 C34.37623974 4.12500271 31.9186766 4.13033629 29.4609375 4.13671875 C27.8984371 4.13605819 26.33593681 4.13477749 24.7734375 4.1328125 C24.03902435 4.13483673 23.30461121 4.13686096 22.54794312 4.13894653 C19.42651208 4.12456926 16.98444194 3.99481398 14 3 C10.90693933 2.73269846 7.81431891 2.55548241 4.71484375 2.37890625 C2 2 2 2 0 0 Z " fill="#7B97BD" transform="translate(653,961)"/>
<path d="M0 0 C4.56492153 -0.21737722 7.70255771 0.54961323 12 2 C15.44227419 2.96282327 18.90523388 3.82983246 22.375 4.6875 C23.2825 4.92533203 24.19 5.16316406 25.125 5.40820312 C30.84307708 6.81300448 35.20791026 7.11908057 41 6 C35.96003362 9.35997759 31.00290323 10.29282455 25 10 C25 9.34 25 8.68 25 8 C24.39414062 7.89042969 23.78828125 7.78085938 23.1640625 7.66796875 C15.22487602 6.16563039 7.43481951 4.22175512 0 1 C0 0.67 0 0.34 0 0 Z " fill="#6C87BF" transform="translate(742,1023)"/>
<path d="M0 0 C6.88462672 10.32694008 6.44614452 28.32970888 4.3203125 40.18359375 C3.6228212 43.4817312 2.8672012 46.74283357 2 50 C1.67 50 1.34 50 1 50 C0.97310784 48.52093108 0.95365379 47.04172517 0.9375 45.5625 C0.92009766 44.32693359 0.92009766 44.32693359 0.90234375 43.06640625 C1 41 1 41 2 40 C2.25694487 36.048663 2.18525075 32.08367374 2.1875 28.125 C2.19974609 27.02929688 2.21199219 25.93359375 2.22460938 24.8046875 C2.2358943 18.4550389 1.76568934 12.54805736 0.4309082 6.33544922 C0 4 0 4 0 0 Z " fill="#E0B352" transform="translate(726,660)"/>
<path d="M0 0 C-0.48654053 0.25579834 -0.97308105 0.51159668 -1.47436523 0.77514648 C-2.9479139 1.54998073 -4.42137548 2.32498059 -5.89477539 3.10009766 C-7.60074036 3.99738773 -9.30696113 4.89419165 -11.01342773 5.79052734 C-15.34332865 8.06680436 -19.66724094 10.35293706 -23.9765625 12.66796875 C-25.1358728 13.28877319 -25.1358728 13.28877319 -26.31860352 13.92211914 C-27.79486772 14.71349698 -29.26937146 15.50816915 -30.74194336 16.30639648 C-35.77664206 19 -35.77664206 19 -38 19 C-38.28571429 11.57142857 -38.28571429 11.57142857 -36 8 C-36 10.64 -36 13.28 -36 16 C-35.401875 15.67 -34.80375 15.34 -34.1875 15 C-32 14 -32 14 -29 14 C-29 13.34 -29 12.68 -29 12 C-28.030625 11.608125 -27.06125 11.21625 -26.0625 10.8125 C-22.19486421 9.17407181 -18.62554144 7.12772473 -15.015625 4.98828125 C-13 4 -13 4 -10 4 C-10 3.34 -10 2.68 -10 2 C-8.71211992 1.46987262 -7.41953322 0.9511671 -6.125 0.4375 C-5.40570312 0.14746094 -4.68640625 -0.14257812 -3.9453125 -0.44140625 C-2 -1 -2 -1 0 0 Z " fill="#499DC1" transform="translate(915,611)"/>
<path d="M0 0 C1.084021 0.00523682 2.16804199 0.01047363 3.28491211 0.01586914 C5.03964844 0.02070312 5.03964844 0.02070312 6.82983398 0.02563477 C8.67738281 0.03820312 8.67738281 0.03820312 10.56225586 0.05102539 C12.41560547 0.05779297 12.41560547 0.05779297 14.30639648 0.06469727 C17.37089703 0.07652931 20.43530307 0.09301366 23.49975586 0.11352539 C23.49975586 0.77352539 23.49975586 1.43352539 23.49975586 2.11352539 C24.42208008 2.06131836 24.42208008 2.06131836 25.36303711 2.00805664 C26.1712793 1.98098633 26.97952148 1.95391602 27.81225586 1.92602539 C29.01301758 1.87381836 29.01301758 1.87381836 30.23803711 1.82055664 C32.9782717 2.17550931 33.79146665 3.00718821 35.49975586 5.11352539 C28.00201585 4.20862573 28.00201585 4.20862573 24.78686523 3.59985352 C21.32815994 3.08813776 18.06530077 3.00040351 14.57006836 3.01586914 C12.63647461 3.02070312 12.63647461 3.02070312 10.66381836 3.02563477 C9.3174635 3.03398806 7.97110934 3.04245298 6.62475586 3.05102539 C5.25496582 3.05604709 3.88517401 3.06060882 2.51538086 3.06469727 C-0.82320604 3.07645285 -4.16170229 3.09288575 -7.50024414 3.11352539 C-6.86086914 2.80415039 -6.22149414 2.49477539 -5.56274414 2.17602539 C-1.46809336 0.06665984 -1.46809336 0.06665984 0 0 Z " fill="#FFFDE6" transform="translate(635.500244140625,600.886474609375)"/>
<path d="M0 0 C3.83954482 0.61799257 6.96270244 1.76344192 10.46484375 3.44140625 C11.50648682 3.93930664 12.54812988 4.43720703 13.62133789 4.95019531 C14.71567139 5.48225586 15.81000488 6.01431641 16.9375 6.5625 C18.05310303 7.10100586 19.16870605 7.63951172 20.31811523 8.19433594 C28.41780332 12.14035291 36.30179497 16.3177286 44 21 C42.35546875 21.71484375 42.35546875 21.71484375 40 22 C37.36328125 20.62890625 37.36328125 20.62890625 34.3125 18.5625 C27.18501516 13.90551853 19.66491819 10.41824773 11.93261719 6.89306641 C7.90457936 5.03170178 3.95074951 3.01905626 0 1 C0 0.67 0 0.34 0 0 Z " fill="#3B9EC3" transform="translate(846,325)"/>
<path d="M0 0 C-0.33 0.66 -0.66 1.32 -1 2 C-2.8125 2.37890625 -2.8125 2.37890625 -5 2.5625 C-7.78932058 2.62665408 -7.78932058 2.62665408 -10 4 C-14.22035905 4.24252825 -18.4465382 4.22853321 -22.6730957 4.24023438 C-24.79353455 4.24991343 -26.91299314 4.28091033 -29.03320312 4.3125 C-30.38280674 4.31903265 -31.7324173 4.32428209 -33.08203125 4.328125 C-34.31155518 4.3374707 -35.5410791 4.34681641 -36.80786133 4.35644531 C-40.1992624 3.97774967 -41.55356584 3.3088913 -44 1 C-42.329375 1.2475 -42.329375 1.2475 -40.625 1.5 C-28.43312342 2.80353397 -16.76454684 2.42416991 -4.84375 -0.44140625 C-2 -1 -2 -1 0 0 Z " fill="#FEF9DA" transform="translate(671,769)"/>
<path d="M0 0 C4.67320245 -0.42483659 7.78803123 1.07875109 12 3 C22.24657678 6.95890466 33.1511421 7.44364831 44 8 C44 8.33 44 8.66 44 9 C27.93914454 9.66230332 15.05330721 6.88362111 0 1 C0 0.67 0 0.34 0 0 Z " fill="#E4B756" transform="translate(610,763)"/>
<path d="M0 0 C0.99 0.33 1.98 0.66 3 1 C-3.33787257 7.52800875 -9.48931831 13.80029729 -17 19 C-15.60652624 15.84795019 -13.97514921 13.73828227 -11.5234375 11.328125 C-10.51796875 10.33232422 -10.51796875 10.33232422 -9.4921875 9.31640625 C-8.79351563 8.63449219 -8.09484375 7.95257812 -7.375 7.25 C-6.66859375 6.55261719 -5.9621875 5.85523438 -5.234375 5.13671875 C-3.49401297 3.41987512 -1.74915019 1.70788168 0 0 Z " fill="#3B99C2" transform="translate(892,874)"/>
<path d="M0 0 C0.66 0.33 1.32 0.66 2 1 C1.03900391 1.72703125 1.03900391 1.72703125 0.05859375 2.46875 C-5.64108357 6.88578756 -10.41589143 11.45218679 -15 17 C-15.66 17.66 -16.32 18.32 -17 19 C-17.99 18.67 -18.98 18.34 -20 18 C-14.27008839 10.76221692 -7.36018767 5.49470232 0 0 Z " fill="#E1AE45" transform="translate(601,615)"/>
<path d="M0 0 C-3.51402474 2.34268316 -6.73953182 2.86459339 -10.8125 3.5625 C-11.86147461 3.75102539 -11.86147461 3.75102539 -12.93164062 3.94335938 C-16.94899372 4.6611465 -20.97337426 5.33627048 -25 6 C-19.46591103 -0.69718564 -8.00768913 -0.47833541 0 0 Z " fill="#6786BF" transform="translate(786,365)"/>
<path d="M0 0 C0.99 0.33 1.98 0.66 3 1 C2.36655545 3.95607458 1.34666529 6.30666942 0 9 C-0.72387082 10.74363045 -1.43181952 12.49394279 -2.125 14.25 C-2.47820313 15.14203125 -2.83140625 16.0340625 -3.1953125 16.953125 C-3.46085938 17.62859375 -3.72640625 18.3040625 -4 19 C-4.33 19 -4.66 19 -5 19 C-4.48378772 12.16018724 -2.51409031 6.36123316 0 0 Z " fill="#419EC4" transform="translate(997,679)"/>
<path d="M0 0 C25.60599134 -0.24860186 25.60599134 -0.24860186 28.72265625 2.54296875 C29.35494141 3.26419922 29.35494141 3.26419922 30 4 C22.56410256 3.1025641 22.56410256 3.1025641 19.25 2.5 C15.37606544 1.90401007 11.53549698 1.65317841 7.625 1.4375 C6.88894531 1.39431641 6.15289063 1.35113281 5.39453125 1.30664062 C3.59651932 1.20156201 1.79828042 1.10037907 0 1 C0 0.67 0 0.34 0 0 Z " fill="#FDEFBA" transform="translate(641,602)"/>
<path d="M0 0 C1.32386705 3.97160115 0.30817171 5.57331589 -1.1875 9.4375 C-1.61417969 10.57058594 -2.04085937 11.70367188 -2.48046875 12.87109375 C-3.9769814 15.95260179 -5.43785983 17.76704272 -8 20 C-5.83836487 13.06001352 -3.1063786 6.56882431 0 0 Z " fill="#409EC3" transform="translate(973,743)"/>
<path d="M0 0 C-8.04308131 3.06606823 -15.39208128 4.69475466 -24 5 C-24 4.67 -24 4.34 -24 4 C-23.35933594 3.87882813 -22.71867188 3.75765625 -22.05859375 3.6328125 C-1.27128148 -0.39453563 -1.27128148 -0.39453563 0 0 Z " fill="#DDAD47" transform="translate(678,766)"/>
<path d="M0 0 C0.72445312 0.08378906 1.44890625 0.16757813 2.1953125 0.25390625 C7.3349182 0.79527805 11.91365942 1.23721798 17 0 C13.2265378 2.51564147 9.36872914 4.1973941 4.75 3.8125 C2.70799779 2.86442754 1.54806475 1.6132922 0 0 Z " fill="#7683B5" transform="translate(766,1029)"/>
<path d="M0 0 C0.66 0.33 1.32 0.66 2 1 C-0.31 3.97 -2.62 6.94 -5 10 C-5.99 9.67 -6.98 9.34 -8 9 C-5.36 6.03 -2.72 3.06 0 0 Z " fill="#439EC6" transform="translate(915,847)"/>
<path d="M0 0 C-9.41002278 4.59225513 -9.41002278 4.59225513 -14 4 C-9.68030697 0.34487513 -5.55645743 -1.67651733 0 0 Z " fill="#E0B04B" transform="translate(625,607)"/>
<path d="M0 0 C6.52307692 -0.36923077 6.52307692 -0.36923077 8.9375 1.5 C9.288125 1.995 9.63875 2.49 10 3 C2.25 2.25 2.25 2.25 0 0 Z " fill="#FCF4CF" transform="translate(661,603)"/>
</svg>
