<?xml version="1.0" encoding="UTF-8"?>
<svg version="1.1" xmlns="http://www.w3.org/2000/svg" width="1500" height="533">
<path d="M0 0 C2.8561898 2.8561898 5.47100324 5.85220617 8 9 C8.53367187 8.55269531 9.06734375 8.10539063 9.6171875 7.64453125 C19.75929329 -0.5849629 29.73964032 -5.4970804 43 -4.9375 C49.9379807 -4.14382354 55.98617374 -2.23046493 60.84765625 2.98046875 C68.24607307 13.25099824 68.42099326 24.3424901 68.29296875 36.5078125 C68.28736233 38.08535353 68.28309719 39.66289984 68.28010559 41.240448 C68.26873898 45.36029896 68.23934404 49.47982452 68.20599365 53.59954834 C68.17511461 57.81632081 68.16156243 62.03314667 68.14648438 66.25 C68.11446494 74.5001648 68.06176569 82.75000423 68 91 C63.05 91 58.1 91 53 91 C52.97494385 89.40196533 52.9498877 87.80393066 52.92407227 86.1574707 C52.82924973 80.17677033 52.72921781 74.19616608 52.62768555 68.21557617 C52.58461761 65.63682315 52.54292538 63.05804675 52.50268555 60.47924805 C52.44429429 56.75302103 52.3808056 53.02690872 52.31640625 49.30078125 C52.29969376 48.1648201 52.28298126 47.02885895 52.26576233 45.85847473 C52.50928405 29.71570324 52.50928405 29.71570324 47 15 C42.21374117 11.80916078 37.68621916 11.62091872 32 12 C25.33764081 13.35232244 20.4428658 16.51032209 15.06640625 20.57421875 C13 22 13 22 11 22 C11.16298584 23.19616943 11.32597168 24.39233887 11.49389648 25.62475586 C12.20679152 32.07853468 12.12409757 38.51830155 12.09765625 45.00390625 C12.0962413 46.32293442 12.09482635 47.64196259 12.09336853 49.0009613 C12.08958243 52.47789466 12.07978636 55.95478507 12.06866455 59.43170166 C12.0583656 62.99157124 12.05385288 66.55144788 12.04882812 70.11132812 C12.03815988 77.07423798 12.02059557 84.0371125 12 91 C6.72 91 1.44 91 -4 91 C-4.029729 88.42119019 -4.029729 88.42119019 -4.06005859 85.7902832 C-4.12830627 80.058618 -4.20511255 74.32710033 -4.28752708 68.59562397 C-4.33710614 65.12653271 -4.38343331 61.65746639 -4.421875 58.18823242 C-4.46639765 54.18390271 -4.52588004 50.17990835 -4.5859375 46.17578125 C-4.59748871 44.95232498 -4.60903992 43.72886871 -4.62094116 42.46833801 C-4.35056871 27.08928641 -4.35056871 27.08928641 -11 14 C-16.34242386 11.45020679 -21.76770589 11.08096323 -27.41796875 12.6875 C-30.06675349 13.67309432 -32.49272689 14.68482448 -35 16 C-35.72670898 16.29829712 -36.45341797 16.59659424 -37.20214844 16.90393066 C-40.04410045 18.33169109 -41.89065357 19.6009492 -44 22 C-45.34928938 27.20171302 -45.18960759 32.35027666 -45.09765625 37.6796875 C-45.10331318 39.21812842 -45.11292915 40.75655942 -45.12632751 42.29495239 C-45.15089182 46.32999492 -45.12190242 50.36292032 -45.08154297 54.39776611 C-45.04985105 58.52045866 -45.06909674 62.64288408 -45.08398438 66.765625 C-45.10568638 74.84450087 -45.06607321 82.92136468 -45 91 C-50.28 91 -55.56 91 -61 91 C-61 60.31 -61 29.62 -61 -2 C-55.72 -2 -50.44 -2 -45 -2 C-44.67 0.64 -44.34 3.28 -44 6 C-43.3709375 5.52949219 -42.741875 5.05898437 -42.09375 4.57421875 C-30.22813562 -4.05694351 -13.10914614 -10.07562472 0 0 Z " fill="#0E4194" transform="translate(961,170)"/>
<path d="M0 0 C25.74 0 51.48 0 78 0 C78 5.28 78 10.56 78 16 C57.54 16 37.08 16 16 16 C16 26.56 16 37.12 16 48 C36.46 48 56.92 48 78 48 C78 53.28 78 58.56 78 64 C57.54 64 37.08 64 16 64 C16 78.85 16 93.7 16 109 C36.46 109 56.92 109 78 109 C78 113.95 78 118.9 78 124 C52.26 124 26.52 124 0 124 C0 83.08 0 42.16 0 0 Z " fill="#0E4194" transform="translate(569,137)"/>
<path d="M0 0 C0.99 -0.01224609 1.98 -0.02449219 3 -0.03710938 C13.66546447 -0.05821518 23.15497221 1.53503563 31.41796875 8.75390625 C39.69843767 17.56596083 39.03510064 28.48482977 38.91796875 39.81640625 C38.91236409 41.41779684 38.90809811 43.01919261 38.90510559 44.62059021 C38.8937252 48.80785665 38.86431786 52.99480419 38.83099365 57.1819458 C38.80014484 61.46565438 38.7865688 65.74941516 38.77148438 70.03320312 C38.73944053 78.41813043 38.68672947 86.80273864 38.625 95.1875 C33.345 95.1875 28.065 95.1875 22.625 95.1875 C22.625 92.5475 22.625 89.9075 22.625 87.1875 C21.92375 87.65800781 21.2225 88.12851563 20.5 88.61328125 C9.36799155 95.9186618 -1.85061505 100.30544972 -15.375 97.5 C-24.42983765 94.94333996 -30.55461905 89.05022578 -35.1875 81.0625 C-38.61688764 71.88324087 -38.20160741 61.12875588 -34.375 52.1875 C-28.74684194 43.31439914 -20.76465974 39.21664537 -10.875 36.5 C0.08401783 34.16773018 11.46832832 33.88330855 22.625 33.1875 C22.35024324 31.58151946 22.06259328 29.97774122 21.76953125 28.375 C21.53133667 27.03501953 21.53133667 27.03501953 21.28833008 25.66796875 C20.32142642 22.05231136 18.58663557 20.39150786 15.625 18.1875 C7.28011261 14.35637474 -1.29044638 14.89309919 -10.125 16.4375 C-11.16962402 16.61962036 -11.16962402 16.61962036 -12.23535156 16.80541992 C-15.87638697 17.50784137 -19.24374832 18.45419455 -22.703125 19.796875 C-26.375 21.1875 -26.375 21.1875 -29.375 21.1875 C-29.375 15.5775 -29.375 9.9675 -29.375 4.1875 C-19.38126676 1.34977328 -10.3796665 0.00670521 0 0 Z M-16.4375 55.6875 C-20.61213232 61.07412235 -21.07272411 65.48280741 -20.375 72.1875 C-18.64787818 76.36895284 -16.05392389 78.61225328 -12.375 81.1875 C-2.94132452 84.33205849 6.59496743 82.13791896 15.21166992 77.921875 C20.68719248 74.74017173 20.68719248 74.74017173 23.43334961 69.27368164 C23.60950917 65.88216267 23.50027424 62.63640299 23.25 59.25 C23.20488281 58.08919922 23.15976562 56.92839844 23.11328125 55.73242188 C22.99584633 52.87875335 22.83197834 50.03584033 22.625 47.1875 C9.71276557 47.01359785 -6.0244332 47.1870373 -16.4375 55.6875 Z " fill="#0E4194" transform="translate(760.375,165.8125)"/>
<path d="M0 0 C5.28 0 10.56 0 16 0 C16.01458252 1.89161865 16.02916504 3.7832373 16.04418945 5.73217773 C16.09601955 12.01073896 16.16135271 18.28904859 16.23571491 24.56738186 C16.28027507 28.37066429 16.31956183 32.17384314 16.34643555 35.97729492 C16.37261308 39.65389949 16.41311483 43.33010235 16.46318626 47.00645638 C16.47975805 48.40288322 16.49133225 49.79937939 16.49761391 51.19589043 C16.52009226 64.49575804 16.52009226 64.49575804 22.4375 76 C26.40404096 79.09583684 30.27170307 79.40584393 35.30078125 79.34765625 C40.84510611 78.63355363 46.01225492 76.45746564 51 74 C52.20261475 73.46375 53.40522949 72.9275 54.64428711 72.375 C57.3921586 70.35858137 57.94450919 69.26548135 58.65197754 65.88078308 C58.91044409 61.71176539 58.94448093 57.59242665 58.90234375 53.41796875 C58.91173172 51.87809644 58.92419132 50.33824006 58.93959045 48.79841614 C58.97179689 44.75554709 58.96238203 40.71381312 58.94421387 36.67089844 C58.93305015 32.54154063 58.9613648 28.41247261 58.98632812 24.28320312 C59.02946062 16.1884765 59.02496153 8.09480337 59 0 C64.28 0 69.56 0 75 0 C75 30.69 75 61.38 75 93 C69.72 93 64.44 93 59 93 C58.505 89.04 58.505 89.04 58 85 C57.28714844 85.47050781 56.57429688 85.94101563 55.83984375 86.42578125 C44.69753052 93.66903467 35.0809937 97.70658689 21.5625 95.375 C14.85869296 93.70773193 9.09470386 90.07996363 5.125 84.375 C-0.26966952 74.15966775 -0.41796623 63.22799794 -0.29296875 51.953125 C-0.28735837 50.4457034 -0.28309511 48.93827625 -0.28010559 47.43084717 C-0.26877003 43.50500809 -0.23940348 39.57951357 -0.20599365 35.65380859 C-0.17504604 31.63123228 -0.16154805 27.6085991 -0.14648438 23.5859375 C-0.11452006 15.72378427 -0.06184787 7.86197498 0 0 Z " fill="#0E4194" transform="translate(1048,168)"/>
<path d="M0 0 C0.95390625 0.3609375 1.9078125 0.721875 2.890625 1.09375 C5 3 5 3 5.38696289 4.83276367 C5.49418211 7.1386227 5.43540245 9.3826064 5.3125 11.6875 C5.28994141 12.48478516 5.26738281 13.28207031 5.24414062 14.10351562 C5.18526944 16.06981334 5.09558755 18.03514491 5 20 C0.90155831 19.39310096 -2.17253441 18.01367422 -5.8125 16.0625 C-15.15802448 11.31574761 -24.45778329 9.04386358 -34.921875 11.7578125 C-39.76937631 13.38305806 -39.76937631 13.38305806 -43.24609375 16.89453125 C-44.43687117 20.22007025 -44.90701836 23.59392407 -44 27 C-40.09079518 32.16295378 -35.95891977 33.26137965 -29.9375 34.625 C-29.09131104 34.83390869 -28.24512207 35.04281738 -27.37329102 35.25805664 C-23.73874927 36.15031949 -20.0956247 36.97934423 -16.4375 37.76953125 C-7.83672089 39.68454847 0.10222382 42.47781359 5.0625 50.1875 C8.96128549 57.22196351 9.03325891 65.00126094 7.421875 72.796875 C4.80520661 80.45657701 -0.41976317 85.43892754 -7.41015625 89.34765625 C-21.92158302 96.10673483 -39.90130659 94.34221074 -54.6640625 89.2890625 C-58 88 -58 88 -62 86 C-62 79.73 -62 73.46 -62 67 C-57.8804403 68.64782388 -54.11288407 70.45724225 -50.1875 72.5 C-39.9346575 77.66477683 -29.99970477 79.99386479 -18.42578125 77.4296875 C-14.9627099 76.21345172 -12.30543656 74.8533954 -10 72 C-9.3144627 69.90619354 -9.3144627 69.90619354 -9.125 67.625 C-9.02445313 66.87476563 -8.92390625 66.12453125 -8.8203125 65.3515625 C-9.06242124 62.18309601 -10.08319793 60.51370096 -12 58 C-16.79213933 55.09798734 -22.66125682 54.05303859 -28.078125 52.81640625 C-28.98900879 52.60822266 -29.89989258 52.40003906 -30.83837891 52.18554688 C-32.65496193 51.77938603 -34.47493357 51.38801136 -36.29833984 51.01367188 C-45.62252935 48.97373346 -53.68064841 45.2319146 -59 37 C-62.41082378 30.16659098 -62.17454889 21.3161821 -60.1953125 14.04296875 C-56.49308807 5.73211323 -49.97695422 0.92277311 -41.6875 -2.4375 C-28.24351776 -6.39867334 -12.98298492 -4.94511145 0 0 Z " fill="#0E4194" transform="translate(877,170)"/>
<path d="M0 0 C1.30916382 0.00132935 1.30916382 0.00132935 2.64477539 0.00268555 C10.67675055 0.14728018 17.97558061 1.50901096 25.5 4.375 C26.45390625 4.7359375 27.4078125 5.096875 28.390625 5.46875 C30.5 7.375 30.5 7.375 30.88696289 9.20776367 C30.99418211 11.5136227 30.93540245 13.7576064 30.8125 16.0625 C30.78994141 16.85978516 30.76738281 17.65707031 30.74414062 18.47851562 C30.68526944 20.44481334 30.59558755 22.41014491 30.5 24.375 C26.79555157 23.52560724 23.67589454 22.09767875 20.25 20.4375 C10.32349156 15.83310176 -0.17190251 13.0070053 -11 16.5625 C-14.72826092 18.49320655 -16.49390761 19.69716396 -18.5 23.375 C-18.91673207 26.91699641 -18.91673207 26.91699641 -18.5 30.375 C-18.438125 31.138125 -18.37625 31.90125 -18.3125 32.6875 C-17.06986631 35.26835459 -15.14411533 35.42253008 -12.5 36.375 C-6.08485367 38.55614975 0.35222982 40.3784947 6.97851562 41.77709961 C16.20604381 43.75253309 24.59031663 46.14363484 30.5625 54 C34.66275869 61.14238611 34.77878523 70.10578858 32.8515625 78.046875 C29.21388993 87.06332838 22.85647258 91.66202762 14.1484375 95.4296875 C-2.48188875 101.36558566 -20.95197479 97.03843938 -36.5 90.375 C-36.5 84.105 -36.5 77.835 -36.5 71.375 C-32.81369761 72.2965756 -31.12613383 73.14679955 -28.0625 75.1875 C-17.58517759 81.54435497 -6.68822736 83.7460042 5.5 82.375 C9.63602737 81.27505242 13.33257605 80.20736446 15.70703125 76.48046875 C16.95016269 73.17974044 17.25266325 69.80025563 16.5 66.375 C13.7346638 61.95440318 11.43783497 60.61465396 6.4375 59.375 C4.59091797 58.89353516 4.59091797 58.89353516 2.70703125 58.40234375 C1.3053425 58.05722461 -0.09704796 57.71494728 -1.5 57.375 C-3.96221855 56.77774666 -6.42298598 56.17644388 -8.88061523 55.56054688 C-10.5004006 55.15595724 -12.12355359 54.76453788 -13.75024414 54.38867188 C-20.95795198 52.59877176 -27.55978914 49.55042794 -31.9375 43.3125 C-32.64712891 42.33603516 -32.64712891 42.33603516 -33.37109375 41.33984375 C-36.89961662 35.19850464 -36.51340759 26.44694497 -34.8515625 19.76953125 C-31.71773364 11.98852881 -26.18250946 6.76904007 -18.6875 3.19921875 C-12.34381732 0.80900974 -6.7149987 -0.01229498 0 0 Z " fill="#0E4194" transform="translate(1175.5,165.625)"/>
<path d="M0 0 C4.95 0 9.9 0 15 0 C15 14.85 15 29.7 15 45 C28.86 45 42.72 45 57 45 C57 49.62 57 54.24 57 59 C43.14 59 29.28 59 15 59 C15 73.85 15 88.7 15 104 C10.05 104 5.1 104 0 104 C0 89.15 0 74.3 0 59 C-14.19 59 -28.38 59 -43 59 C-43 54.38 -43 49.76 -43 45 C-28.81 45 -14.62 45 0 45 C0 30.15 0 15.3 0 0 Z " fill="#0E4194" transform="translate(1276,155)"/>
<path d="M0 0 C4.95 0 9.9 0 15 0 C15.33 3.96 15.66 7.92 16 12 C16.66644531 11.46890625 17.33289063 10.9378125 18.01953125 10.390625 C29.03165736 1.95056191 38.0415204 -1.12035165 52 0 C52.99 0.33 53.98 0.66 55 1 C55 6.61 55 12.22 55 18 C52.40125 17.773125 49.8025 17.54625 47.125 17.3125 C35.54414059 16.53480404 27.58032246 19.38589277 18 26 C15.25133034 28.74866966 15.72574989 30.34359317 15.68115234 34.19384766 C15.66128265 35.49504547 15.64141296 36.79624329 15.62094116 38.13687134 C15.6090638 39.5626 15.597401 40.98833045 15.5859375 42.4140625 C15.56723326 43.86853138 15.54766041 45.32298933 15.5272522 46.7774353 C15.47584606 50.60784469 15.43626601 54.43828928 15.39910889 58.26885986 C15.35912218 62.17672497 15.3080056 66.08444252 15.2578125 69.9921875 C15.16095281 77.66136497 15.07760891 85.33059913 15 93 C10.05 93 5.1 93 0 93 C0 62.31 0 31.62 0 0 Z " fill="#0E4194" transform="translate(664,168)"/>
<path d="M0 0 C1.7890625 1.5859375 1.7890625 1.5859375 3 3 C3.825 2.360625 4.65 1.72125 5.5 1.0625 C10.43413784 -2.19983584 15.02511099 -2.32914817 20.75 -1.375 C24.456395 0.19309019 25.86372518 1.63125894 28 5 C29.18975795 8.56927385 29.12478155 11.79946972 29.09765625 15.51171875 C29.0962413 16.23994339 29.09482635 16.96816803 29.09336853 17.71846008 C29.08777659 20.04151539 29.07522562 22.36447388 29.0625 24.6875 C29.05748396 26.26367048 29.05292123 27.83984248 29.04882812 29.41601562 C29.0378098 33.27738098 29.02055074 37.13867408 29 41 C25.7 41 22.4 41 19 41 C18.98541748 40.10692139 18.97083496 39.21384277 18.95581055 38.29370117 C18.89472923 34.97782722 18.82057522 31.66278101 18.73754883 28.34741211 C18.70430999 26.91295372 18.67627465 25.47836487 18.65356445 24.04370117 C18.61999729 21.98039193 18.56768587 19.91827697 18.51171875 17.85546875 C18.48553467 16.61434326 18.45935059 15.37321777 18.43237305 14.09448242 C18.23732067 11.04530407 18.23732067 11.04530407 16.69067383 9.05981445 C14.82833101 7.6667251 14.82833101 7.6667251 11.4375 8.1875 C7.95751223 8.69215918 7.95751223 8.69215918 6 11 C5.62677573 14.10756015 5.62677573 14.10756015 5.5859375 17.7578125 C5.56657135 18.42086395 5.5472052 19.08391541 5.5272522 19.76705933 C5.46744046 21.88624177 5.42106612 24.0054785 5.375 26.125 C5.33682155 27.56122169 5.29776989 28.99742045 5.2578125 30.43359375 C5.16173875 33.95551936 5.07771358 37.47761608 5 41 C1.7 41 -1.6 41 -5 41 C-5.01981934 40.20827393 -5.03963867 39.41654785 -5.06005859 38.60083008 C-5.1554716 35.0043924 -5.26508591 31.40852249 -5.375 27.8125 C-5.4059375 26.56662109 -5.436875 25.32074219 -5.46875 24.03710938 C-5.50742188 22.83505859 -5.54609375 21.63300781 -5.5859375 20.39453125 C-5.6173584 19.28956299 -5.6487793 18.18459473 -5.68115234 17.04614258 C-5.99877182 14.01173354 -6.72246035 11.75455478 -8 9 C-12.69246906 7.88439923 -12.69246906 7.88439923 -17.19628906 9.05200195 C-19.82418602 11.89011644 -19.54487095 14.03360383 -19.609375 17.85546875 C-19.62591125 18.51710526 -19.64244751 19.17874176 -19.65948486 19.86042786 C-19.70799288 21.96954601 -19.72933927 24.07794323 -19.75 26.1875 C-19.77815777 27.61917695 -19.80808495 29.05082028 -19.83984375 30.48242188 C-19.91374893 33.98812393 -19.96330788 37.49368875 -20 41 C-23.3 41 -26.6 41 -30 41 C-30 27.14 -30 13.28 -30 -1 C-26.7 -1 -23.4 -1 -20 -1 C-19.67 -0.34 -19.34 0.32 -19 1 C-18.46632813 0.76023437 -17.93265625 0.52046875 -17.3828125 0.2734375 C-11.23314992 -2.17366007 -6.24600997 -2.41271865 0 0 Z " fill="#0E4194" transform="translate(1125,341)"/>
<path d="M0 0 C3.3 0 6.6 0 10 0 C13.92877633 8.48346065 17.19175734 17.19936329 20.5 25.9375 C21.35642417 28.19426726 22.21358403 30.45075175 23.0715332 32.7069397 C23.62297275 34.15729104 24.17360657 35.60794901 24.72338867 37.05892944 C26.51756902 41.78109325 28.38615311 46.46616677 30.35351562 51.11938477 C31 53 31 53 31 56 C27.37 56 23.74 56 20 56 C16 46.375 16 46.375 16 43 C9.07 43 2.14 43 -5 43 C-5.495 45.475 -5.495 45.475 -6 48 C-6.91157699 50.70639177 -7.96214971 53.33768839 -9 56 C-12.63 56 -16.26 56 -20 56 C-19.2548495 52.2742475 -18.45498965 49.25404523 -17.14233398 45.75073242 C-16.76201523 44.73005173 -16.38169647 43.70937103 -15.98985291 42.65776062 C-15.57941238 41.5680043 -15.16897186 40.47824799 -14.74609375 39.35546875 C-14.32578384 38.2305452 -13.90547394 37.10562164 -13.47242737 35.9466095 C-12.13100513 32.35889802 -10.78432364 28.77318684 -9.4375 25.1875 C-8.52634529 22.75338523 -7.61553388 20.31914192 -6.70507812 17.88476562 C-4.47403082 11.92167906 -2.23826515 5.96038088 0 0 Z M5 14 C2.69 20.93 0.38 27.86 -2 35 C2.95 35 7.9 35 13 35 C10.69 28.07 8.38 21.14 6 14 C5.67 14 5.34 14 5 14 Z " fill="#0E4194" transform="translate(187,326)"/>
<path d="M0 0 C4.15690792 5.6685108 5.60520138 10.70212828 5.5 17.6875 C5.49315186 18.38713867 5.48630371 19.08677734 5.47924805 19.80761719 C5.25459603 27.06715867 3.70787243 32.23164884 -1.5 37.3125 C-4.79518809 39.34030805 -7.44391376 39.98361738 -11.25 40.0625 C-11.98863281 40.08828125 -12.72726562 40.1140625 -13.48828125 40.140625 C-15.9375 39.8125 -15.9375 39.8125 -21.9375 36.8125 C-21.9375 42.7525 -21.9375 48.6925 -21.9375 54.8125 C-25.2375 54.8125 -28.5375 54.8125 -31.9375 54.8125 C-31.9375 35.6725 -31.9375 16.5325 -31.9375 -3.1875 C-28.6375 -3.1875 -25.3375 -3.1875 -21.9375 -3.1875 C-21.6075 -2.5275 -21.2775 -1.8675 -20.9375 -1.1875 C-19.9475 -1.8475 -18.9575 -2.5075 -17.9375 -3.1875 C-11.58166265 -4.96462558 -5.28771063 -3.93765685 0 0 Z M-21.9375 9.8125 C-22.62749296 12.69242336 -22.59363368 15.42680431 -22.5 18.375 C-22.51095703 19.12974609 -22.52191406 19.88449219 -22.53320312 20.66210938 C-22.48569725 24.25672021 -22.26031911 26.38921851 -20.0546875 29.28125 C-17.53368838 31.10455564 -16.05619686 31.73643422 -12.9375 31.8125 C-9.63782634 30.47691781 -8.18070891 29.15634708 -6.125 26.25 C-4.10669626 20.4075418 -4.07698948 15.10719472 -6.25 9.3125 C-7.85542521 6.59327469 -7.85542521 6.59327469 -10.9375 4.8125 C-16.49903708 3.96617914 -18.54669629 5.45370392 -21.9375 9.8125 Z " fill="#0E4194" transform="translate(910.9375,343.1875)"/>
<path d="M0 0 C3.3 0 6.6 0 10 0 C10 6.6 10 13.2 10 20 C11.65 19.01 13.3 18.02 15 17 C20.61766617 15.82210225 24.58176584 15.70767017 30 18 C33.97383759 21.97383759 34.92915401 24.88345703 35.11352539 30.39160156 C35.10828857 31.7112793 35.10305176 33.03095703 35.09765625 34.390625 C35.0962413 35.09523865 35.09482635 35.79985229 35.09336853 36.52581787 C35.08778933 38.76725584 35.07524073 41.00859243 35.0625 43.25 C35.05748231 44.77343605 35.05291987 46.29687368 35.04882812 47.8203125 C35.03782674 51.54690772 35.02057646 55.27344396 35 59 C31.7 59 28.4 59 25 59 C24.97494385 58.13721436 24.9498877 57.27442871 24.92407227 56.38549805 C24.82888615 53.18176231 24.72965556 49.97818463 24.62768555 46.7746582 C24.58439782 45.38864017 24.54271836 44.00257094 24.50268555 42.61645508 C24.44483416 40.62308202 24.38070224 38.62989435 24.31640625 36.63671875 C24.27974854 35.43748779 24.24309082 34.23825684 24.20532227 33.00268555 C24.12266975 29.95005651 24.12266975 29.95005651 23 27 C20.15916359 25.57958179 18.14522722 25.68547728 15 26 C12.0195076 28.20872162 11.10042826 29.42671452 10.45410156 33.11621094 C10.4331543 34.31020508 10.41220703 35.50419922 10.390625 36.734375 C10.35839844 38.02988281 10.32617188 39.32539063 10.29296875 40.66015625 C10.27822531 42.02343302 10.26390778 43.38671445 10.25 44.75 C10.22183186 46.12894376 10.19190322 47.50785275 10.16015625 48.88671875 C10.08943275 52.25787216 10.03674496 55.6283328 10 59 C6.7 59 3.4 59 0 59 C0 39.53 0 20.06 0 0 Z " fill="#0E4194" transform="translate(381,323)"/>
<path d="M0 0 C3.57272318 3.06233415 5.39858479 5.58732134 6.04150391 10.30859375 C6.07123291 11.98115234 6.07123291 11.98115234 6.1015625 13.6875 C6.1325 14.91210938 6.1634375 16.13671875 6.1953125 17.3984375 C6.21335937 18.66945313 6.23140625 19.94046875 6.25 21.25 C6.30113403 23.77090792 6.35568722 26.29174937 6.4140625 28.8125 C6.43162598 29.92753906 6.44918945 31.04257812 6.46728516 32.19140625 C6.56865717 35.59817859 6.56865717 35.59817859 7.625 40.25 C3.995 40.25 0.365 40.25 -3.375 40.25 C-3.375 39.59 -3.375 38.93 -3.375 38.25 C-4.15875 38.745 -4.9425 39.24 -5.75 39.75 C-10.98559664 41.91645378 -16.0034185 42.30676435 -21.46875 40.59375 C-24.82709931 38.94303593 -26.42565399 37.16768727 -28.375 34 C-29.52754419 29.67795929 -29.81659462 26.50315183 -28.375 22.25 C-24.99094241 17.63537601 -20.88413085 15.41078677 -15.375 14.25 C-11.69168739 14.02647443 -8.05915608 14.06714666 -4.375 14.25 C-5.365 11.94 -6.355 9.63 -7.375 7.25 C-10.015 7.25 -12.655 7.25 -15.375 7.25 C-16.035 8.57 -16.695 9.89 -17.375 11.25 C-21.005 11.25 -24.635 11.25 -28.375 11.25 C-28.30236568 8.19935862 -27.98119794 6.00069862 -26.03125 3.5859375 C-18.57362059 -3.29542055 -9.08102512 -4.70867969 0 0 Z M-17.375 23.25 C-18.19370185 26.81206661 -18.19370185 26.81206661 -18.375 30.25 C-16.28424342 32.02401355 -16.28424342 32.02401355 -13.375 33.25 C-9.67386787 32.7640878 -9.67386787 32.7640878 -6.375 31.25 C-3.9455484 27.6058226 -4.21320425 25.53758728 -4.375 21.25 C-5.79123216 21.19552953 -7.20808191 21.15699492 -8.625 21.125 C-9.80835938 21.09019531 -9.80835938 21.09019531 -11.015625 21.0546875 C-13.6599707 21.27359029 -15.19751879 21.73353987 -17.375 23.25 Z " fill="#0E4194" transform="translate(1060.375,341.75)"/>
<path d="M0 0 C3.57272318 3.06233415 5.39858479 5.58732134 6.04150391 10.30859375 C6.07123291 11.98115234 6.07123291 11.98115234 6.1015625 13.6875 C6.1325 14.91210938 6.1634375 16.13671875 6.1953125 17.3984375 C6.21335937 18.66945313 6.23140625 19.94046875 6.25 21.25 C6.30113403 23.77090792 6.35568722 26.29174937 6.4140625 28.8125 C6.43162598 29.92753906 6.44918945 31.04257812 6.46728516 32.19140625 C6.56865717 35.59817859 6.56865717 35.59817859 7.625 40.25 C3.995 40.25 0.365 40.25 -3.375 40.25 C-3.375 39.59 -3.375 38.93 -3.375 38.25 C-4.15875 38.745 -4.9425 39.24 -5.75 39.75 C-10.98559664 41.91645378 -16.0034185 42.30676435 -21.46875 40.59375 C-24.82709931 38.94303593 -26.42565399 37.16768727 -28.375 34 C-29.52754419 29.67795929 -29.81659462 26.50315183 -28.375 22.25 C-24.99094241 17.63537601 -20.88413085 15.41078677 -15.375 14.25 C-11.69168739 14.02647443 -8.05915608 14.06714666 -4.375 14.25 C-5.365 11.94 -6.355 9.63 -7.375 7.25 C-10.015 7.25 -12.655 7.25 -15.375 7.25 C-16.035 8.57 -16.695 9.89 -17.375 11.25 C-21.005 11.25 -24.635 11.25 -28.375 11.25 C-28.30236568 8.19935862 -27.98119794 6.00069862 -26.03125 3.5859375 C-18.57362059 -3.29542055 -9.08102512 -4.70867969 0 0 Z M-17.375 23.25 C-18.19370185 26.81206661 -18.19370185 26.81206661 -18.375 30.25 C-16.73790685 31.93864588 -16.73790685 31.93864588 -14.375 33.25 C-10.84179161 33.17639149 -8.91778976 32.62138247 -6 30.625 C-3.80294029 27.41391273 -4.08242981 25.05341249 -4.375 21.25 C-5.79123216 21.19552953 -7.20808191 21.15699492 -8.625 21.125 C-9.80835938 21.09019531 -9.80835938 21.09019531 -11.015625 21.0546875 C-13.6599707 21.27359029 -15.19751879 21.73353987 -17.375 23.25 Z " fill="#0E4194" transform="translate(864.375,341.75)"/>
<path d="M0 0 C4.2095898 3.62220518 6.34221607 6.93136429 7.6875 12.3125 C7.6875 15.9425 7.6875 19.5725 7.6875 23.3125 C-0.8925 23.6425 -9.4725 23.9725 -18.3125 24.3125 C-16.05565292 30.10858276 -16.05565292 30.10858276 -13.0625 31.75 C-8.52076654 32.67899093 -4.80102972 32.26668572 -0.875 29.75 C-0.359375 29.275625 0.15625 28.80125 0.6875 28.3125 C2.6875 29.3125 4.6875 30.3125 6.6875 31.3125 C6.5625 33.5625 6.5625 33.5625 5.6875 36.3125 C-1.04305349 41.57988969 -7.00547608 42.0504336 -15.3125 41.3125 C-20.91676062 39.79239009 -24.21148544 36.85299629 -27.40234375 32.09375 C-30.50652531 26.01861356 -30.28861844 17.63201625 -28.81640625 11.1171875 C-26.9020169 6.29335896 -23.95198044 1.72467339 -19.3046875 -0.76171875 C-12.49079706 -3.38518528 -6.51899436 -3.32099713 0 0 Z M-17.3125 10.3125 C-17.6425 11.9625 -17.9725 13.6125 -18.3125 15.3125 C-13.0325 15.3125 -7.7525 15.3125 -2.3125 15.3125 C-3.36974914 9.75616838 -3.36974914 9.75616838 -7.3125 6.3125 C-12.17830962 5.50153173 -14.40569897 6.32910599 -17.3125 10.3125 Z " fill="#0E4194" transform="translate(978.3125,341.6875)"/>
<path d="M0 0 C4.31795975 3.81587141 6.27791292 7.73665168 7.6875 13.375 C7.6875 16.675 7.6875 19.975 7.6875 23.375 C-1.2225 23.375 -10.1325 23.375 -19.3125 23.375 C-16.21631374 30.06395468 -16.21631374 30.06395468 -12.9375 31.875 C-9.69687125 32.49226262 -7.49078448 32.25409996 -4.3125 31.375 C-3.61125 30.83875 -2.91 30.3025 -2.1875 29.75 C-0.3125 28.375 -0.3125 28.375 1.75 28.5 C3.90737969 29.4743005 5.14293876 30.59875457 6.6875 32.375 C5.1914904 36.18302445 3.02686849 38.06924557 -0.3125 40.375 C-6.5221954 42.38324192 -13.8060594 42.45316092 -19.75 39.6875 C-24.80801591 36.74992021 -27.49839494 32.87881026 -29.3125 27.375 C-30.08577971 19.34547932 -30.59132779 10.97762052 -25.3125 4.375 C-18.4826289 -3.26185875 -8.9187801 -4.37525061 0 0 Z M-18.3125 11.375 C-18.6425 12.695 -18.9725 14.015 -19.3125 15.375 C-13.7025 15.375 -8.0925 15.375 -2.3125 15.375 C-3.75062656 9.83882701 -3.75062656 9.83882701 -7.3125 6.375 C-12.80881288 5.4191195 -14.93235598 7.12567609 -18.3125 11.375 Z " fill="#0E4194" transform="translate(1303.3125,341.625)"/>
<path d="M0 0 C6.60690843 7.27166923 5.77734375 11.60730996 5.77734375 22.21875 C-2.80265625 22.21875 -11.38265625 22.21875 -20.22265625 22.21875 C-17.45706293 28.40011248 -17.45706293 28.40011248 -12.22265625 31.21875 C-7.37106267 31.04851865 -4.99326365 30.07921078 -1.22265625 27.21875 C1.46515033 27.38164737 2.51863379 27.98775897 4.52734375 29.78125 C4.93984375 30.255625 5.35234375 30.73 5.77734375 31.21875 C4.2709891 35.43654303 1.53721953 36.9935174 -2.22265625 39.21875 C-8.04873295 41.16077557 -14.17087312 40.79055841 -20.03515625 39.15625 C-24.9378475 36.17618277 -28.03799365 32.58807521 -30.59765625 27.46875 C-32.26998152 18.7726586 -31.73334702 10.97937947 -27.22265625 3.21875 C-24.19834597 -0.59295467 -20.28913647 -2.68589176 -15.49609375 -3.61328125 C-9.8650646 -4.02931949 -4.51553341 -3.61877546 0 0 Z M-18.09765625 8.03125 C-20.50000635 10.99629211 -20.50000635 10.99629211 -20.22265625 14.21875 C-14.94265625 14.21875 -9.66265625 14.21875 -4.22265625 14.21875 C-4.61358155 8.55759156 -4.61358155 8.55759156 -6.91015625 6.34375 C-11.49384062 4.1138495 -14.70594768 4.16873769 -18.09765625 8.03125 Z " fill="#0E4194" transform="translate(556.22265625,342.78125)"/>
<path d="M0 0 C3.51894418 3.01623787 5.38534518 5.55204702 6.04150391 10.20092773 C6.07123291 11.80109741 6.07123291 11.80109741 6.1015625 13.43359375 C6.1325 14.60857422 6.1634375 15.78355469 6.1953125 16.99414062 C6.21335937 18.21294922 6.23140625 19.43175781 6.25 20.6875 C6.30125602 23.10293984 6.35583105 25.51831201 6.4140625 27.93359375 C6.43162598 29.00150146 6.44918945 30.06940918 6.46728516 31.16967773 C6.62569649 34.2636031 7.05639026 37.20705389 7.625 40.25 C3.995 40.25 0.365 40.25 -3.375 40.25 C-3.705 39.59 -4.035 38.93 -4.375 38.25 C-4.99375 38.745 -5.6125 39.24 -6.25 39.75 C-10.67874448 41.87579735 -14.54291968 41.93492104 -19.375 41.25 C-22.76079936 40.04078594 -25.55661622 38.53368559 -27.54296875 35.41796875 C-29.40368397 30.56962628 -29.08510942 25.10417461 -27.25 20.3125 C-24.02566017 16.76572618 -20.00703469 15.15971492 -15.375 14.25 C-13.45938746 14.18311409 -11.54164408 14.16468281 -9.625 14.1875 C-8.64015625 14.19652344 -7.6553125 14.20554687 -6.640625 14.21484375 C-5.51914062 14.23224609 -5.51914062 14.23224609 -4.375 14.25 C-5.34276098 10.45452079 -5.34276098 10.45452079 -7.375 7.25 C-10.04558851 7.10884839 -12.69932238 7.20752893 -15.375 7.25 C-16.035 8.57 -16.695 9.89 -17.375 11.25 C-21.005 11.25 -24.635 11.25 -28.375 11.25 C-27.40316475 6.29364022 -26.40685055 3.38671481 -22.13671875 0.25390625 C-15.10381051 -3.75375987 -7.11017968 -3.68675983 0 0 Z M-17.375 23.25 C-18.19370185 26.81206661 -18.19370185 26.81206661 -18.375 30.25 C-16.28424342 32.02401355 -16.28424342 32.02401355 -13.375 33.25 C-9.53304573 32.53370344 -7.16052878 32.03552878 -4.375 29.25 C-4.13287127 27.26871492 -4.13287127 27.26871492 -4.25 25.125 C-4.29125 23.84625 -4.3325 22.5675 -4.375 21.25 C-5.79123216 21.19552953 -7.20808191 21.15699492 -8.625 21.125 C-9.80835938 21.09019531 -9.80835938 21.09019531 -11.015625 21.0546875 C-13.6599707 21.27359029 -15.19751879 21.73353987 -17.375 23.25 Z " fill="#0E4194" transform="translate(784.375,341.75)"/>
<path d="M0 0 C3.42856589 3.65726977 4.50212541 5.89061644 4.57421875 10.89453125 C4.60193359 12.01537109 4.62964844 13.13621094 4.65820312 14.29101562 C4.66787109 15.45310547 4.67753906 16.61519531 4.6875 17.8125 C4.7299884 20.11073618 4.77549087 22.4089189 4.82421875 24.70703125 C4.84532715 25.78807129 4.86643555 26.86911133 4.88818359 27.98291016 C5.02635926 31.71123971 5.44221223 35.31315888 6 39 C2.37 39 -1.26 39 -5 39 C-5.33 38.34 -5.66 37.68 -6 37 C-6.61875 37.495 -7.2375 37.99 -7.875 38.5 C-12.28889151 40.61866793 -16.18335574 40.70242729 -21 40 C-25.02181918 37.95252842 -27.5974337 35.79208471 -30 32 C-30.99931347 26.953467 -30.58649157 23.04054957 -28.0625 18.5625 C-21.41761647 13.00249541 -14.41314796 12.52577245 -6 13 C-6.33 10.69 -6.66 8.38 -7 6 C-10.63 6 -14.26 6 -18 6 C-18.33 7.32 -18.66 8.64 -19 10 C-22.3 10 -25.6 10 -29 10 C-28.82587848 5.55990123 -28.47548768 3.52187672 -25.4375 0.1875 C-18.07122801 -5.12673908 -7.27326762 -5.8186141 0 0 Z M-19 23 C-20.07272562 25.44539786 -20.07272562 25.44539786 -20 28 C-18.33687677 31.11697941 -18.33687677 31.11697941 -15.75 31.875 C-12.12173571 32.0399211 -10.08702725 30.82415247 -7 29 C-5.79438816 28.01732141 -5.79438816 28.01732141 -5.90234375 26.15234375 C-5.91394531 25.42144531 -5.92554688 24.69054687 -5.9375 23.9375 C-5.958125 22.638125 -5.97875 21.33875 -6 20 C-13.04079631 19.56301797 -13.04079631 19.56301797 -19 23 Z " fill="#0E4194" transform="translate(638,343)"/>
<path d="M0 0 C4.3828993 3.87325984 7.1226458 8.44403095 7.6875 14.375 C7.6875 17.345 7.6875 20.315 7.6875 23.375 C-1.2225 23.375 -10.1325 23.375 -19.3125 23.375 C-16.21631374 30.06395468 -16.21631374 30.06395468 -12.9375 31.875 C-9.69687125 32.49226262 -7.49078448 32.25409996 -4.3125 31.375 C-3.61125 30.83875 -2.91 30.3025 -2.1875 29.75 C-0.3125 28.375 -0.3125 28.375 1.75 28.5 C3.90737969 29.4743005 5.14293876 30.59875457 6.6875 32.375 C5.18114535 36.59279303 2.44737578 38.1497674 -1.3125 40.375 C-7.29374663 42.36874888 -13.98684022 42.37408576 -19.75 39.6875 C-23.06208349 37.77069094 -25.21014811 35.60938752 -27.3125 32.375 C-27.84423828 31.56289063 -27.84423828 31.56289063 -28.38671875 30.734375 C-30.83130838 24.50428159 -30.54158371 14.95559511 -28.3671875 8.62109375 C-25.33695774 3.5992979 -21.51683138 0.26521075 -16.0625 -1.9375 C-10.11895801 -3.02714936 -5.44999914 -2.67358448 0 0 Z M-18.3125 11.375 C-18.6425 12.695 -18.9725 14.015 -19.3125 15.375 C-13.7025 15.375 -8.0925 15.375 -2.3125 15.375 C-3.75062656 9.83882701 -3.75062656 9.83882701 -7.3125 6.375 C-12.80881288 5.4191195 -14.93235598 7.12567609 -18.3125 11.375 Z " fill="#0E4194" transform="translate(1191.3125,341.625)"/>
<path d="M0 0 C3.6553289 3.47702018 4.94318484 6.31350606 5.11352539 11.36987305 C5.1133675 12.75049841 5.10774417 14.13113024 5.09765625 15.51171875 C5.0962413 16.23994339 5.09482635 16.96816803 5.09336853 17.71846008 C5.08777659 20.04151539 5.07522562 22.36447388 5.0625 24.6875 C5.05748396 26.26367048 5.05292123 27.83984248 5.04882812 29.41601562 C5.0378098 33.27738098 5.02055074 37.13867408 5 41 C1.7 41 -1.6 41 -5 41 C-5.01458252 40.10692139 -5.02916504 39.21384277 -5.04418945 38.29370117 C-5.10527077 34.97782722 -5.17942478 31.66278101 -5.26245117 28.34741211 C-5.29569001 26.91295372 -5.32372535 25.47836487 -5.34643555 24.04370117 C-5.38000271 21.98039193 -5.43231413 19.91827697 -5.48828125 17.85546875 C-5.51446533 16.61434326 -5.54064941 15.37321777 -5.56762695 14.09448242 C-5.74652665 11.02695226 -5.74652665 11.02695226 -7.40869141 9.08276367 C-9.49777196 7.66130429 -10.58658926 7.7640261 -13.0625 8.125 C-13.75472656 8.21007812 -14.44695312 8.29515625 -15.16015625 8.3828125 C-17.39031485 8.92200412 -17.39031485 8.92200412 -19 12 C-19.3696435 15.10208984 -19.3696435 15.10208984 -19.4140625 18.63671875 C-19.47207031 20.58481445 -19.47207031 20.58481445 -19.53125 22.57226562 C-19.56270517 23.94400573 -19.59395251 25.31575061 -19.625 26.6875 C-19.66319197 28.07098785 -19.70224442 29.45445223 -19.7421875 30.83789062 C-19.83660517 34.2251245 -19.92218118 37.61235069 -20 41 C-23.3 41 -26.6 41 -30 41 C-30 27.14 -30 13.28 -30 -1 C-26.7 -1 -23.4 -1 -20 -1 C-20 -0.01 -20 0.98 -20 2 C-18.9171875 1.2884375 -18.9171875 1.2884375 -17.8125 0.5625 C-11.84037596 -2.75534669 -6.31684607 -2.18742136 0 0 Z " fill="#0E4194" transform="translate(1235,341)"/>
<path d="M0 0 C3.44985371 2.55289174 4.70286993 4.29707392 6.125 8.3125 C6.125 9.6325 6.125 10.9525 6.125 12.3125 C2.74713015 12.59768601 -0.50854651 12.77156184 -3.875 12.3125 C-5.6875 9.875 -5.6875 9.875 -6.875 7.3125 C-9.86189164 6.16369552 -11.21374989 6.04442563 -14.1875 7.25 C-14.744375 7.600625 -15.30125 7.95125 -15.875 8.3125 C-15.875 9.6325 -15.875 10.9525 -15.875 12.3125 C-14.70582031 12.67601562 -13.53664063 13.03953125 -12.33203125 13.4140625 C-10.78351791 13.92084869 -9.23535903 14.42871886 -7.6875 14.9375 C-6.91857422 15.17339844 -6.14964844 15.40929687 -5.35742188 15.65234375 C0.14488176 17.49431664 2.93019456 19.41966805 6.125 24.3125 C7.3590752 28.48229446 6.38170237 31.76829097 4.5625 35.625 C0.82056685 39.75072117 -2.33152364 41.02911405 -7.71484375 41.62890625 C-14.14353422 41.88021697 -19.76274869 41.52764952 -24.875 37.3125 C-27.75851302 33.78183491 -28.875 30.95037432 -28.875 26.3125 C-25.49653287 26.02726356 -22.24218931 25.85556316 -18.875 26.3125 C-16.875 28.75 -16.875 28.75 -15.875 31.3125 C-12.86175805 32.81912097 -10.19213623 32.49020373 -6.875 32.3125 C-4.6614898 30.55133178 -4.6614898 30.55133178 -4.796875 28.34375 C-5.79298313 25.9494069 -5.79298313 25.9494069 -9.078125 24.96875 C-10.42226147 24.56683989 -11.77161403 24.18206867 -13.125 23.8125 C-18.12204048 22.41640969 -22.03533024 20.95008188 -25.875 17.3125 C-27.74092877 13.58064247 -27.41990229 9.37682999 -26.875 5.3125 C-23.9646379 0.90001553 -20.2151258 -0.80955645 -15.2734375 -2.24609375 C-9.83309361 -3.24732968 -4.93735827 -2.46867913 0 0 Z " fill="#0E4194" transform="translate(471.875,341.6875)"/>
<path d="M0 0 C3.22103183 3.57019517 4.44140625 7.86855751 4.44140625 12.59765625 C1.14140625 12.59765625 -2.15859375 12.59765625 -5.55859375 12.59765625 C-6.01234375 11.62828125 -6.46609375 10.65890625 -6.93359375 9.66015625 C-8.21645596 6.52686043 -8.21645596 6.52686043 -10.55859375 5.59765625 C-13.93681791 5.45390203 -16.3325033 5.52229277 -19.55859375 6.59765625 C-21.07271037 10.18928172 -20.7633032 14.26305667 -20.80859375 18.09765625 C-20.834375 19.40734375 -20.86015625 20.71703125 -20.88671875 22.06640625 C-20.54761419 25.71581718 -20.18048477 27.10471069 -17.55859375 29.59765625 C-14.43753971 30.52733192 -12.43895904 30.86665675 -9.30859375 29.91015625 C-7.12535558 28.4765359 -7.12535558 28.4765359 -5.55859375 24.59765625 C-2.25859375 24.59765625 1.04140625 24.59765625 4.44140625 24.59765625 C4.05156273 30.05546552 2.28600684 32.75305566 -1.55859375 36.59765625 C-6.8107937 40.34922765 -12.33794761 40.36640087 -18.55859375 39.59765625 C-23.59677854 38.24449513 -26.6171972 35.99900604 -29.49609375 31.66015625 C-33.06258075 25.13755418 -33.6917979 17.65692204 -32.0625 10.3828125 C-30.23541199 5.00477378 -27.4024825 0.52416153 -22.62109375 -2.71484375 C-14.79427912 -5.32378196 -6.63031185 -5.27655908 0 0 Z " fill="#0E4194" transform="translate(370.55859375,343.40234375)"/>
<path d="M0 0 C3.29030367 4.35169195 4.32362404 7.13992905 4.9375 12.5625 C1.6375 12.5625 -1.6625 12.5625 -5.0625 12.5625 C-5.51625 11.593125 -5.97 10.62375 -6.4375 9.625 C-7.72036221 6.49170418 -7.72036221 6.49170418 -10.0625 5.5625 C-14.14638307 5.15944805 -14.14638307 5.15944805 -17.8125 6.6875 C-21.37808519 12.03587778 -21.15494245 16.79972186 -20.64453125 22.9765625 C-19.98719001 25.89709877 -19.1157231 27.40121253 -17.0625 29.5625 C-13.94144596 30.49217567 -11.94286529 30.8315005 -8.8125 29.875 C-6.62926183 28.44137965 -6.62926183 28.44137965 -5.0625 24.5625 C-1.7625 24.5625 1.5375 24.5625 4.9375 24.5625 C2.91045475 31.81718827 1.41121729 35.00609012 -5.25 38.8125 C-11.86080534 40.57538142 -18.28500488 40.38071586 -24.3046875 36.96875 C-28.49089863 33.6197811 -31.10210223 28.80103332 -32.0625 23.5625 C-32.64474222 15.724624 -32.87189021 8.07733284 -27.5859375 1.8125 C-19.90562741 -5.48204109 -8.55692812 -6.81061626 0 0 Z " fill="#0E4194" transform="translate(329.0625,343.4375)"/>
<path d="M0 0 C3.38433761 4.09682973 4.50604514 6.68652603 4 12 C1.03 12 -1.94 12 -5 12 C-5.45375 11.030625 -5.9075 10.06125 -6.375 9.0625 C-7.65786221 5.92920418 -7.65786221 5.92920418 -10 5 C-13.68012333 4.5999866 -15.3489289 4.48970103 -18.3125 6.8125 C-21.84133986 11.38692204 -21.35864408 16.47854932 -21 22 C-20.5031951 24.44514412 -19.82216116 26.63628668 -19 29 C-13.99844174 30.09716588 -13.99844174 30.09716588 -9.1875 28.75 C-6.7897427 27.01308468 -6.7897427 27.01308468 -5 24 C-2.8359375 23.70703125 -2.8359375 23.70703125 -0.375 23.8125 C0.44226563 23.83957031 1.25953125 23.86664063 2.1015625 23.89453125 C2.72804688 23.92933594 3.35453125 23.96414063 4 24 C3.75582562 28.15096454 3.43455006 30.45370849 0.8125 33.75 C-4.53439945 38.02751956 -8.66192084 39.57708997 -15.46875 39.3515625 C-20.79513139 38.61178731 -24.60873224 36.39126776 -28.375 32.625 C-32.74416314 25.56712107 -32.85127913 18.06941674 -32 10 C-30.44812386 4.69313786 -28.30354681 0.39110318 -23.5 -2.5625 C-15.19360538 -5.97405493 -7.10325164 -6.11210025 0 0 Z " fill="#0E4194" transform="translate(516,344)"/>
<path d="M0 0 C3.63 0 7.26 0 11 0 C11.96023825 2.85353821 12.91824013 5.70779555 13.875 8.5625 C14.14441406 9.36236328 14.41382813 10.16222656 14.69140625 10.98632812 C16.24570557 15.63027123 17.69483177 20.27985276 19 25 C21.17241915 19.39375704 23.03027288 13.77776465 24.6875 8 C24.91244141 7.22527344 25.13738281 6.45054687 25.36914062 5.65234375 C25.91553367 3.76903154 26.45816894 1.88462976 27 0 C30.63 0 34.26 0 38 0 C36.39374488 8.62760986 33.40816566 16.71024099 30.4375 24.9375 C29.9246669 26.37288143 29.41229346 27.80842717 28.90039062 29.24414062 C25.183016 39.63396799 25.183016 39.63396799 24 42 C21.03 42 18.06 42 15 42 C10.9709441 33.56776158 8.15431529 24.80106104 5.25 15.9375 C4.73870297 14.38853261 4.22698757 12.83970325 3.71484375 11.29101562 C2.47173322 7.52891784 1.2343 3.76499714 0 0 Z " fill="#0E4194" transform="translate(667,340)"/>
<path d="M0 0 C3.63 0 7.26 0 11 0 C11 3.3 11 6.6 11 10 C13.31 10 15.62 10 18 10 C18 12.64 18 15.28 18 18 C15.69 18 13.38 18 11 18 C11.33 26.25 11.66 34.5 12 43 C13.98 43.33 15.96 43.66 18 44 C18.09765625 50.15234375 18.09765625 50.15234375 18 52 C16.36069007 53.63930993 14.50256326 53.21001367 12.25 53.25 C8.01921761 53.18956025 5.20647593 53.00607119 2 50 C0.27967087 45.78711854 -0.24016799 42.25696659 -0.1953125 37.7265625 C-0.18564453 35.99599609 -0.18564453 35.99599609 -0.17578125 34.23046875 C-0.15902344 33.04066406 -0.14226562 31.85085938 -0.125 30.625 C-0.11597656 29.41199219 -0.10695313 28.19898438 -0.09765625 26.94921875 C-0.07416588 23.96594227 -0.04131682 20.98307406 0 18 C-1.98 18 -3.96 18 -6 18 C-6 15.36 -6 12.72 -6 10 C-4.02 10 -2.04 10 0 10 C0 6.7 0 3.4 0 0 Z " fill="#0E4194" transform="translate(1251,330)"/>
<path d="M0 0 C3.3 0 6.6 0 10 0 C10 3.3 10 6.6 10 10 C12.31 10 14.62 10 17 10 C17 12.64 17 15.28 17 18 C14.69 18 12.38 18 10 18 C10.33 26.58 10.66 35.16 11 44 C13.31 44 15.62 44 18 44 C18 46.64 18 49.28 18 52 C14.30009772 53.84995114 10.03832859 53.46986842 6 53 C2.44319828 50.89495409 1.30531064 49.91593192 0 46 C-0.0833804 43.86205475 -0.10733747 41.72157991 -0.09765625 39.58203125 C-0.09443359 38.32841797 -0.09121094 37.07480469 -0.08789062 35.78320312 C-0.07951172 34.47287109 -0.07113281 33.16253906 -0.0625 31.8125 C-0.05748317 30.47721519 -0.05292059 29.14192859 -0.04882812 27.80664062 C-0.03702695 24.53771527 -0.02056297 21.26888009 0 18 C-2.31 18 -4.62 18 -7 18 C-7 15.36 -7 12.72 -7 10 C-4.69 10 -2.38 10 0 10 C0 6.7 0 3.4 0 0 Z " fill="#0E4194" transform="translate(733,330)"/>
<path d="M0 0 C3.63 0 7.26 0 11 0 C11 19.47 11 38.94 11 59 C7.37 59 3.74 59 0 59 C0 39.53 0 20.06 0 0 Z " fill="#0E4194" transform="translate(589,323)"/>
<path d="M0 0 C3.3 0 6.6 0 10 0 C10 19.47 10 38.94 10 59 C6.7 59 3.4 59 0 59 C0 39.53 0 20.06 0 0 Z " fill="#0E4194" transform="translate(1013,323)"/>
<path d="M0 0 C0 3.3 0 6.6 0 10 C-2.27864583 10.1953125 -4.55729167 10.390625 -6.8359375 10.5859375 C-9.20334191 10.82892588 -9.20334191 10.82892588 -11 13 C-11.37296556 16.00972657 -11.37296556 16.00972657 -11.4140625 19.5390625 C-11.45273437 20.84101563 -11.49140625 22.14296875 -11.53125 23.484375 C-11.56270763 24.86457862 -11.59395491 26.24478704 -11.625 27.625 C-11.66317934 29.01304541 -11.70223105 30.40106711 -11.7421875 31.7890625 C-11.83672943 35.19257185 -11.92227897 38.59607165 -12 42 C-15.63 42 -19.26 42 -23 42 C-23 28.14 -23 14.28 -23 0 C-19.7 0 -16.4 0 -13 0 C-12.67 0.66 -12.34 1.32 -12 2 C-10.948125 1.484375 -9.89625 0.96875 -8.8125 0.4375 C-5.51476233 -0.99688183 -3.4935632 -1.16452107 0 0 Z " fill="#0E4194" transform="translate(946,340)"/>
<path d="M0 0 C0 3.3 0 6.6 0 10 C-2.24609375 10.16276042 -4.4921875 10.32552083 -6.73828125 10.48828125 C-9.53074282 11.12008171 -10.29468639 11.70788605 -12 14 C-12.50718056 16.9988613 -12.50718056 16.9988613 -12.51171875 20.41796875 C-12.54716797 21.67158203 -12.58261719 22.92519531 -12.61914062 24.21679688 C-12.65297852 26.18229492 -12.65297852 26.18229492 -12.6875 28.1875 C-12.72067666 29.52282013 -12.75516666 30.85810832 -12.79101562 32.19335938 C-12.87362057 35.46215504 -12.94273229 38.73067812 -13 42 C-16.3 42 -19.6 42 -23 42 C-23 28.14 -23 14.28 -23 0 C-19.7 0 -16.4 0 -13 0 C-12.67 0.66 -12.34 1.32 -12 2 C-10.700625 1.2265625 -10.700625 1.2265625 -9.375 0.4375 C-5.60596507 -1.16782969 -3.89114901 -1.01911045 0 0 Z " fill="#0E4194" transform="translate(246,340)"/>
<path d="M0 0 C0 3.3 0 6.6 0 10 C-2.27864583 10.1953125 -4.55729167 10.390625 -6.8359375 10.5859375 C-9.20334191 10.82892588 -9.20334191 10.82892588 -11 13 C-11.37296556 16.00972657 -11.37296556 16.00972657 -11.4140625 19.5390625 C-11.45273437 20.84101563 -11.49140625 22.14296875 -11.53125 23.484375 C-11.56270763 24.86457862 -11.59395491 26.24478704 -11.625 27.625 C-11.66317934 29.01304541 -11.70223105 30.40106711 -11.7421875 31.7890625 C-11.83672943 35.19257185 -11.92227897 38.59607165 -12 42 C-15.3 42 -18.6 42 -22 42 C-22 28.14 -22 14.28 -22 0 C-18.7 0 -15.4 0 -12 0 C-11.67 0.66 -11.34 1.32 -11 2 C-10.34 1.34 -9.68 0.68 -9 0 C-5.7295226 -1.24052591 -3.35038257 -0.83759564 0 0 Z " fill="#0E4194" transform="translate(273,340)"/>
<path d="M0 0 C3.63 0 7.26 0 11 0 C11 13.86 11 27.72 11 42 C7.37 42 3.74 42 0 42 C0 28.14 0 14.28 0 0 Z " fill="#0E4194" transform="translate(425,340)"/>
<path d="M0 0 C3.3 0 6.6 0 10 0 C10 13.86 10 27.72 10 42 C6.7 42 3.4 42 0 42 C0 28.14 0 14.28 0 0 Z " fill="#0E4194" transform="translate(711,340)"/>
<path d="M0 0 C3.3 0 6.6 0 10 0 C10 13.86 10 27.72 10 42 C6.7 42 3.4 42 0 42 C0 28.14 0 14.28 0 0 Z " fill="#0E4194" transform="translate(279,340)"/>
<path d="M0 0 C2.97 0 5.94 0 9 0 C9.50572436 7.51562583 9.05039966 13.49768616 5 20 C3.36328125 21.75 3.36328125 21.75 2 23 C-0.4375 22.25 -0.4375 22.25 -3 21 C-4.53983165 17.18669963 -3.29394506 14.93446268 -1.76953125 11.23828125 C-0.49941709 7.54398982 -0.30334479 3.88281335 0 0 Z " fill="#0E4194" transform="translate(800,372)"/>
<path d="M0 0 C2.01822917 0.06510417 4.03645833 0.13020833 6.0546875 0.1953125 C7.59125712 2.6357466 8.07558457 3.90275352 7.8671875 6.8203125 C7.0546875 9.1953125 7.0546875 9.1953125 4.0546875 11.1953125 C-1.38975694 10.75086806 -1.38975694 10.75086806 -3.9453125 8.1953125 C-4.1953125 5.1953125 -4.1953125 5.1953125 -3.9453125 2.1953125 C-1.9453125 0.1953125 -1.9453125 0.1953125 0 0 Z " fill="#0E4194" transform="translate(1321.9453125,371.8046875)"/>
<path d="M0 0 C0.94552734 0.16242188 0.94552734 0.16242188 1.91015625 0.328125 C3.91015625 3.328125 3.91015625 3.328125 3.59765625 6.453125 C2.91015625 9.328125 2.91015625 9.328125 1.91015625 10.328125 C-3.93090335 10.69898593 -3.93090335 10.69898593 -6.08984375 10.328125 C-8.08984375 7.328125 -8.08984375 7.328125 -7.77734375 4.203125 C-6.59771651 -0.72986163 -4.79473291 0.17403749 0 0 Z " fill="#0E4194" transform="translate(718.08984375,324.671875)"/>
<path d="M0 0 C3.5 0.25 3.5 0.25 5.5 2.25 C5.75 5.25 5.75 5.25 5.5 8.25 C3.5 10.25 3.5 10.25 1.58984375 10.48046875 C-4.38888889 10.36111111 -4.38888889 10.36111111 -5.5 9.25 C-5.6875 5.8125 -5.6875 5.8125 -5.5 2.25 C-3.5 0.25 -3.5 0.25 0 0 Z " fill="#0E4194" transform="translate(284.5,324.75)"/>
<path d="M0 0 C3.5 0.25 3.5 0.25 5.5 2.25 C5.75 5.25 5.75 5.25 5.5 8.25 C3.5 10.25 3.5 10.25 0 10.5 C-3.5 10.25 -3.5 10.25 -5.5 8.25 C-5.75 5.25 -5.75 5.25 -5.5 2.25 C-3.5 0.25 -3.5 0.25 0 0 Z " fill="#0E4194" transform="translate(430.5,324.75)"/>
</svg>
